<svg width="93" height="120" viewBox="0 0 93 120" fill="none" xmlns="http://www.w3.org/2000/svg">
<path d="M54.1641 30.4637H44.1562V32.8079H54.1641V30.4637Z" fill="#DDDDDF"/>
<path d="M41.092 30.4637H24.1699V32.8079H41.092V30.4637Z" fill="#DDDDDF"/>
<path d="M41.0917 35.1504H30.2773V37.4947H41.0917V35.1504Z" fill="#DDDDDF"/>
<path d="M50.9926 35.1513H44.1562V37.4956H50.9926V35.1513Z" fill="#DDDDDF"/>
<path d="M27.2296 35.1513H24.1699V37.4956H27.2296V35.1513Z" fill="#DDDDDF"/>
<path d="M47.2625 39.8397H41.0723V42.1839H47.2625V39.8397Z" fill="#DDDDDF"/>
<path d="M38.0054 39.8397H24.1699V42.1839H38.0054V39.8397Z" fill="#DDDDDF"/>
<path d="M33.3823 44.5282H24.1934V46.8724H33.3823V44.5282Z" fill="#DDDDDF"/>
<path d="M46.421 44.5289H36.4463V46.8731H46.421V44.5289Z" fill="#DDDDDF"/>
<path d="M34.1955 49.2156H24.1699V51.5599H34.1955V49.2156Z" fill="#DDDDDF"/>
<path d="M24.0706 53.9161L24.0752 56.2603L31.0504 56.2462L31.0457 53.902L24.0706 53.9161Z" fill="#DDDDDF"/>
<path d="M52.7004 18.7419H27.2324V21.086H52.7004V18.7419Z" fill="#DDDDDF"/>
<path d="M48.0565 23.4303H31.8184V25.7744H48.0565V23.4303Z" fill="#DDDDDF"/>
<path d="M71.4264 75.7847H68.0606V71.6534C76.3968 67.9895 82.25 59.5801 82.25 49.8001C82.25 41.5752 78.0569 33.9823 71.2336 29.6362L73.6856 25.3345L75.6827 26.5028L76.8393 24.4726L74.8423 23.3037L64.4435 17.2198L62.4325 16.0438L61.2759 18.0738L63.2861 19.2498L61.1201 23.0506V10.1481L20.2514 10.084V40.6523H11V58.4596C11 61.1413 12.8876 63.3831 15.3867 63.8926V64.0028L52.7169 64.0528L49.2694 71.6457L50.4307 72.0895C51.6536 72.5583 52.9066 72.9154 54.1804 73.1685V75.7847H40.301V86.7227H71.4264C74.4251 86.7227 76.8648 84.2683 76.8648 81.2529C76.8648 78.2375 74.4251 75.7847 71.4264 75.7847ZM20.2514 58.4596C20.2514 60.2224 18.8357 61.657 17.0954 61.657H16.4685C14.7289 61.657 13.3132 60.2224 13.3132 58.4596V42.9973H20.2514V58.4596ZM69.164 49.8001C69.164 54.794 65.7227 58.98 61.1201 60.0739V47.3887L64.6802 41.1399C67.4885 43.1199 69.164 46.3167 69.164 49.8001ZM56.5877 46.2135L54.1388 50.5112L51.0367 48.696L53.4857 44.3975L56.5877 46.2135ZM71.6824 24.1625L59.6435 45.2946L53.249 41.554L65.2894 20.4219L65.9294 20.7962L71.6824 24.1625ZM21.5538 61.6664C22.1907 60.7615 22.5654 59.6551 22.5654 58.4596V12.4314L58.8077 12.4892V27.1107L50.0891 42.412L51.4824 43.227L47.8769 49.5548L54.9854 53.7133L58.591 47.3856L58.8077 47.5121V60.3599C58.7853 60.3599 58.7637 60.363 58.7413 60.363C58.0828 60.363 57.4313 60.2927 56.7897 60.1692L58.1723 57.7438L42.2457 48.4256C41.9072 48.2272 41.5216 48.1224 41.1299 48.1224C40.3318 48.1224 39.5893 48.5561 39.1906 49.254L38.654 50.1955C38.0379 51.2777 38.4057 52.6663 39.4736 53.2922L53.7972 61.6718L53.781 61.7102L21.5538 61.6664ZM54.5528 59.4074L40.6958 51.3004L41.1554 50.4948L55.0124 58.6018L54.5528 59.4074ZM56.0094 62.408C56.9039 62.6064 57.8184 62.7073 58.7413 62.7073C65.7636 62.7073 71.478 56.9171 71.478 49.8001C71.478 45.7095 69.6012 41.9283 66.412 39.4935L69.5218 32.6414L70.0847 31.6545C76.1932 35.581 79.9368 42.4127 79.9368 49.7993C79.9368 58.3806 74.9371 65.789 67.7414 69.2257C66.9009 66.6189 64.4867 64.7279 61.6437 64.7279H60.5989C57.2177 64.7279 54.4464 67.3988 54.2059 70.7697C53.6067 70.6385 53.0115 70.4923 52.4239 70.3056L56.0094 62.408ZM65.7474 71.2471V79.6917H56.4944V71.2471C56.4944 68.9459 58.335 67.0729 60.5981 67.0729H61.6429C63.9068 67.0737 65.7474 68.9459 65.7474 71.2471ZM71.4264 84.3785H42.6142V78.1289H54.1804V82.0358H68.0598V78.1289H71.4256C73.1482 78.1289 74.5508 79.53 74.5508 81.2544C74.5516 82.9775 73.149 84.3785 71.4264 84.3785Z" fill="#DDDDDF"/>
<path d="M21 0H13C9.68629 0 7 2.70887 7 6.05042V14.1176C7 17.4592 9.68629 20.1681 13 20.1681H21C24.3137 20.1681 27 17.4592 27 14.1176V6.05042C27 2.70887 24.3137 0 21 0Z" fill="#5171C0"/>
<path d="M20.5833 6.72265C20.8707 6.72265 21.1462 6.84406 21.3494 7.06019C21.5525 7.27633 21.6667 7.56946 21.6667 7.8751V13.6374C21.6667 13.9431 21.5525 14.2362 21.3494 14.4523C21.1462 14.6684 20.8707 14.7898 20.5833 14.7898H14.0833C13.4821 14.7898 13 14.2712 13 13.6374V7.8751C13 7.56946 13.1141 7.27633 13.3173 7.06019C13.5205 6.84406 13.796 6.72265 14.0833 6.72265H17.8155C18.4467 6.72265 18.9583 6.20667 18.9583 5.57019C18.9583 5.11171 18.7871 4.67201 18.4824 4.34782C18.1776 4.02362 17.7643 3.84149 17.3333 3.84149C16.9024 3.84149 16.489 4.02362 16.1843 4.34782C16.0022 4.54156 15.8677 4.77654 15.789 5.03213C15.7003 5.32023 15.4658 5.57019 15.1667 5.57019C14.8675 5.57019 14.62 5.32367 14.6736 5.02688C14.775 4.46492 15.0324 3.94336 15.4183 3.5329C15.9262 2.99259 16.615 2.68904 17.3333 2.68904C17.689 2.68904 18.0412 2.76356 18.3698 2.90834C18.6984 3.05314 18.9969 3.26536 19.2484 3.5329C19.4999 3.80044 19.6994 4.11806 19.8355 4.46762C19.9716 4.81717 20.0417 5.19182 20.0417 5.57019V6.17643C20.0417 6.47809 20.2842 6.72265 20.5833 6.72265ZM17.3333 11.9087C17.6207 11.9087 17.8962 11.7873 18.0994 11.5711C18.3025 11.355 18.4167 11.0619 18.4167 10.7562C18.4167 10.4506 18.3025 10.1574 18.0994 9.94134C17.8962 9.72522 17.6207 9.6038 17.3333 9.6038C17.046 9.6038 16.7705 9.72522 16.5673 9.94134C16.3641 10.1574 16.25 10.4506 16.25 10.7562C16.25 11.0619 16.3641 11.355 16.5673 11.5711C16.7705 11.7873 17.046 11.9087 17.3333 11.9087Z" fill="white"/>
<path d="M8.51488 102.844C8.59888 102.844 8.67122 102.877 8.73188 102.942L9.31988 103.586C8.90922 104.071 8.40755 104.447 7.81488 104.713C7.22688 104.979 6.51755 105.112 5.68688 105.112C4.95888 105.112 4.29855 104.986 3.70588 104.734C3.11788 104.482 2.61388 104.13 2.19388 103.677C1.77855 103.224 1.45655 102.683 1.22788 102.053C0.999216 101.423 0.884883 100.73 0.884883 99.974C0.884883 99.218 1.00388 98.525 1.24188 97.895C1.48455 97.265 1.82288 96.7237 2.25688 96.271C2.69088 95.8183 3.20888 95.466 3.81088 95.214C4.41755 94.962 5.08722 94.836 5.81988 94.836C6.53388 94.836 7.16855 94.9527 7.72388 95.186C8.27922 95.4193 8.76222 95.7297 9.17288 96.117L8.68288 96.81C8.65022 96.8613 8.60822 96.9033 8.55688 96.936C8.51022 96.9687 8.44722 96.985 8.36788 96.985C8.27922 96.985 8.17422 96.9407 8.05288 96.852C7.93622 96.7633 7.77988 96.6653 7.58388 96.558C7.39255 96.446 7.15455 96.3457 6.86988 96.257C6.58522 96.1683 6.23055 96.124 5.80588 96.124C5.30655 96.124 4.84922 96.2127 4.43388 96.39C4.01855 96.5627 3.65922 96.8147 3.35588 97.146C3.05722 97.4727 2.82388 97.8763 2.65588 98.357C2.49255 98.833 2.41088 99.372 2.41088 99.974C2.41088 100.585 2.49722 101.129 2.66988 101.605C2.84255 102.081 3.08055 102.485 3.38388 102.816C3.68722 103.147 4.04422 103.399 4.45488 103.572C4.86555 103.745 5.30888 103.831 5.78488 103.831C6.07422 103.831 6.33322 103.815 6.56188 103.782C6.79522 103.745 7.00755 103.691 7.19888 103.621C7.39488 103.551 7.57922 103.462 7.75188 103.355C7.92455 103.243 8.09488 103.11 8.26288 102.956C8.30022 102.923 8.33988 102.898 8.38188 102.879C8.42388 102.856 8.46822 102.844 8.51488 102.844ZM19.9927 99.974C19.9927 100.725 19.8714 101.416 19.6287 102.046C19.3907 102.671 19.0524 103.213 18.6137 103.67C18.175 104.123 17.65 104.475 17.0387 104.727C16.4274 104.979 15.7484 105.105 15.0017 105.105C14.2597 105.105 13.5807 104.979 12.9647 104.727C12.3534 104.475 11.8284 104.123 11.3897 103.67C10.9557 103.213 10.6174 102.671 10.3747 102.046C10.132 101.416 10.0107 100.725 10.0107 99.974C10.0107 99.2273 10.132 98.539 10.3747 97.909C10.6174 97.279 10.9557 96.7377 11.3897 96.285C11.8284 95.8277 12.3534 95.473 12.9647 95.221C13.5807 94.9643 14.2597 94.836 15.0017 94.836C15.7484 94.836 16.4274 94.9643 17.0387 95.221C17.65 95.473 18.175 95.8277 18.6137 96.285C19.0524 96.7377 19.3907 97.279 19.6287 97.909C19.8714 98.539 19.9927 99.2273 19.9927 99.974ZM18.4667 99.974C18.4667 99.3767 18.385 98.84 18.2217 98.364C18.0584 97.888 17.825 97.4843 17.5217 97.153C17.223 96.8217 16.859 96.5673 16.4297 96.39C16.005 96.2127 15.529 96.124 15.0017 96.124C14.4744 96.124 13.996 96.2127 13.5667 96.39C13.142 96.5673 12.778 96.8217 12.4747 97.153C12.1714 97.4843 11.938 97.888 11.7747 98.364C11.6114 98.84 11.5297 99.3767 11.5297 99.974C11.5297 100.576 11.6114 101.115 11.7747 101.591C11.938 102.062 12.1714 102.464 12.4747 102.795C12.778 103.126 13.142 103.381 13.5667 103.558C13.996 103.731 14.4744 103.817 15.0017 103.817C15.529 103.817 16.005 103.731 16.4297 103.558C16.859 103.381 17.223 103.126 17.5217 102.795C17.825 102.464 18.0584 102.062 18.2217 101.591C18.385 101.115 18.4667 100.576 18.4667 99.974ZM30.097 94.948V105H29.341C29.2243 105 29.1263 104.979 29.047 104.937C28.9723 104.895 28.8953 104.827 28.816 104.734L23.139 97.391C23.1483 97.517 23.1553 97.6407 23.16 97.762C23.1693 97.8833 23.174 97.9977 23.174 98.105V105H21.865V94.948H22.635C22.7656 94.948 22.8636 94.9643 22.929 94.997C22.9943 95.025 23.0666 95.0927 23.146 95.2L28.837 102.55C28.823 102.415 28.8113 102.284 28.802 102.158C28.7973 102.027 28.795 101.906 28.795 101.794V94.948H30.097ZM39.4367 96.194H36.2447V105H34.7607V96.194H31.5547V94.948H39.4367V96.194ZM43.7316 99.792C44.1142 99.792 44.4502 99.7453 44.7396 99.652C45.0336 99.5587 45.2786 99.428 45.4746 99.26C45.6706 99.0873 45.8176 98.8843 45.9156 98.651C46.0136 98.413 46.0626 98.1517 46.0626 97.867C46.0626 97.2883 45.8712 96.852 45.4886 96.558C45.1106 96.264 44.5412 96.117 43.7806 96.117H42.3736V99.792H43.7316ZM48.4216 105H47.0916C46.8256 105 46.6319 104.895 46.5106 104.685L44.0256 101.199C43.9462 101.082 43.8599 101.001 43.7666 100.954C43.6732 100.903 43.5332 100.877 43.3466 100.877H42.3736V105H40.8826V94.948H43.7806C44.4292 94.948 44.9869 95.0157 45.4536 95.151C45.9249 95.2817 46.3122 95.4707 46.6156 95.718C46.9236 95.9607 47.1499 96.2547 47.2946 96.6C47.4439 96.9453 47.5186 97.3327 47.5186 97.762C47.5186 98.112 47.4649 98.441 47.3576 98.749C47.2502 99.057 47.0916 99.3347 46.8816 99.582C46.6762 99.8247 46.4242 100.035 46.1256 100.212C45.8269 100.389 45.4886 100.525 45.1106 100.618C45.2972 100.73 45.4582 100.886 45.5936 101.087L48.4216 105ZM58.9712 99.974C58.9712 100.725 58.8499 101.416 58.6072 102.046C58.3692 102.671 58.0309 103.213 57.5922 103.67C57.1535 104.123 56.6285 104.475 56.0172 104.727C55.4059 104.979 54.7269 105.105 53.9802 105.105C53.2382 105.105 52.5592 104.979 51.9432 104.727C51.3319 104.475 50.8069 104.123 50.3682 103.67C49.9342 103.213 49.5959 102.671 49.3532 102.046C49.1105 101.416 48.9892 100.725 48.9892 99.974C48.9892 99.2273 49.1105 98.539 49.3532 97.909C49.5959 97.279 49.9342 96.7377 50.3682 96.285C50.8069 95.8277 51.3319 95.473 51.9432 95.221C52.5592 94.9643 53.2382 94.836 53.9802 94.836C54.7269 94.836 55.4059 94.9643 56.0172 95.221C56.6285 95.473 57.1535 95.8277 57.5922 96.285C58.0309 96.7377 58.3692 97.279 58.6072 97.909C58.8499 98.539 58.9712 99.2273 58.9712 99.974ZM57.4452 99.974C57.4452 99.3767 57.3635 98.84 57.2002 98.364C57.0369 97.888 56.8035 97.4843 56.5002 97.153C56.2015 96.8217 55.8375 96.5673 55.4082 96.39C54.9835 96.2127 54.5075 96.124 53.9802 96.124C53.4529 96.124 52.9745 96.2127 52.5452 96.39C52.1205 96.5673 51.7565 96.8217 51.4532 97.153C51.1499 97.4843 50.9165 97.888 50.7532 98.364C50.5899 98.84 50.5082 99.3767 50.5082 99.974C50.5082 100.576 50.5899 101.115 50.7532 101.591C50.9165 102.062 51.1499 102.464 51.4532 102.795C51.7565 103.126 52.1205 103.381 52.5452 103.558C52.9745 103.731 53.4529 103.817 53.9802 103.817C54.5075 103.817 54.9835 103.731 55.4082 103.558C55.8375 103.381 56.2015 103.126 56.5002 102.795C56.8035 102.464 57.0369 102.062 57.2002 101.591C57.3635 101.115 57.4452 100.576 57.4452 99.974ZM66.5975 103.747V105H60.8435V94.948H62.3345V103.747H66.5975ZM73.8026 103.747V105H68.0486V94.948H69.5396V103.747H73.8026ZM81.4906 103.789L81.4836 105H75.2536V94.948H81.4836V96.159H76.7516V99.344H80.5596V100.513H76.7516V103.789H81.4906ZM92.1047 99.974C92.1047 100.725 91.9834 101.409 91.7407 102.025C91.5027 102.641 91.1644 103.171 90.7257 103.614C90.2871 104.053 89.7621 104.393 89.1507 104.636C88.5394 104.879 87.8604 105 87.1137 105H83.3337V94.948H87.1137C87.8604 94.948 88.5394 95.0693 89.1507 95.312C89.7621 95.5547 90.2871 95.8977 90.7257 96.341C91.1644 96.7797 91.5027 97.3093 91.7407 97.93C91.9834 98.546 92.1047 99.2273 92.1047 99.974ZM90.5787 99.974C90.5787 99.3767 90.4971 98.8423 90.3337 98.371C90.1704 97.895 89.9371 97.4937 89.6337 97.167C89.3351 96.8357 88.9711 96.5837 88.5417 96.411C88.1171 96.2383 87.6411 96.152 87.1137 96.152H84.8317V103.796H87.1137C87.6411 103.796 88.1171 103.71 88.5417 103.537C88.9711 103.364 89.3351 103.115 89.6337 102.788C89.9371 102.457 90.1704 102.055 90.3337 101.584C90.4971 101.113 90.5787 100.576 90.5787 99.974Z" fill="#898989"/>
</svg>
