<svg width="13" height="15" viewBox="0 0 13 15" fill="none" xmlns="http://www.w3.org/2000/svg">
<path d="M4.5 5C2.01375 5 0 5.99444 0 7.22222C0 8.45 2.01375 9.44444 4.5 9.44444C6.98625 9.44444 9 8.45 9 7.22222C9 5.99444 6.98625 5 4.5 5ZM0 8.33333V10C0 11.2278 2.01375 12.2222 4.5 12.2222C6.98625 12.2222 9 11.2278 9 10V8.33333C9 9.56111 6.98625 10.5556 4.5 10.5556C2.01375 10.5556 0 9.56111 0 8.33333ZM0 11.1111V12.7778C0 14.0056 2.01375 15 4.5 15C6.98625 15 9 14.0056 9 12.7778V11.1111C9 12.3389 6.98625 13.3333 4.5 13.3333C2.01375 13.3333 0 12.3389 0 11.1111Z" fill="#D46D1E"/>
<path d="M10 6.09524C10.1989 6.09524 10.3897 6.01497 10.5303 5.87208C10.671 5.7292 10.75 5.5354 10.75 5.33333C10.75 4.91048 10.4125 4.57143 10 4.57143C9.80109 4.57143 9.61032 4.6517 9.46967 4.79459C9.32902 4.93747 9.25 5.13126 9.25 5.33333C9.25 5.5354 9.32902 5.7292 9.46967 5.87208C9.61032 6.01497 9.80109 6.09524 10 6.09524ZM12.25 2.66667C12.4489 2.66667 12.6397 2.74694 12.7803 2.88982C12.921 3.03271 13 3.2265 13 3.42857V7.2381C13 7.44017 12.921 7.63396 12.7803 7.77684C12.6397 7.91973 12.4489 8 12.25 8H7.75C7.55109 8 7.36032 7.91973 7.21967 7.77684C7.07902 7.63396 7 7.44017 7 7.2381V3.42857C7 3.00571 7.3375 2.66667 7.75 2.66667H8.125V1.90476C8.125 1.39959 8.32254 0.915104 8.67417 0.557892C9.02581 0.20068 9.50272 0 10 0C10.2462 0 10.49 0.0492681 10.7175 0.144991C10.945 0.240715 11.1517 0.381018 11.3258 0.557892C11.4999 0.734765 11.638 0.944745 11.7323 1.17584C11.8265 1.40694 11.875 1.65463 11.875 1.90476V2.66667H12.25ZM10 0.761905C9.70163 0.761905 9.41548 0.882313 9.2045 1.09664C8.99353 1.31097 8.875 1.60166 8.875 1.90476V2.66667H11.125V1.90476C11.125 1.60166 11.0065 1.31097 10.7955 1.09664C10.5845 0.882313 10.2984 0.761905 10 0.761905Z" fill="#D46D1E"/>
</svg>
