<svg width="61" height="61" viewBox="0 0 61 61" fill="none" xmlns="http://www.w3.org/2000/svg">
    <rect opacity="0.3" x="10.1666" y="10.167" width="40.6667" height="40.6667" fill="#DDDDDF"/>
    <path fill-rule="evenodd" clip-rule="evenodd" d="M10.1667 5.08301C7.35926 5.08301 5.08337 7.35878 5.08337 10.1663V50.833C5.08337 53.6406 7.35926 55.9163 10.1667 55.9163H50.8334C53.6408 55.9163 55.9167 53.6406 55.9167 50.833V10.1663C55.9167 7.35878 53.6408 5.08301 50.8334 5.08301H10.1667ZM10.1667 10.1663V20.333H20.3334V10.1663H10.1667ZM25.4167 10.1663V20.333H35.5834V10.1663H25.4167ZM40.6667 10.1663V20.333H50.8334V10.1663H40.6667ZM35.5834 25.4163H25.4167V35.583H35.5834V25.4163ZM40.6667 35.583V25.4163H50.8334V35.583H40.6667ZM35.5834 40.6663H25.4167V50.833H35.5834V40.6663ZM40.6667 50.833V40.6663H50.8334V50.833H40.6667ZM20.3334 50.833V40.6663H10.1667V50.833H20.3334ZM20.3334 35.583V25.4163H10.1667V35.583H20.3334Z" fill="#DDDDDF"/>
</svg>
