<svg width="30" height="30" viewBox="0 0 30 30" fill="none" xmlns="http://www.w3.org/2000/svg">
<path d="M4.49999 0.900281C4.16834 0.901452 3.89999 1.16981 3.89999 1.50028V28.5003C3.89999 28.6597 3.96328 28.8132 4.07578 28.9257C4.18828 29.0382 4.34062 29.1015 4.50001 29.1015H25.5C25.6594 29.1015 25.8129 29.0382 25.9254 28.9257C26.0379 28.8132 26.1012 28.6597 26.1012 28.5003V8.10028H19.4988C19.3406 8.10028 19.1871 8.037 19.0746 7.9245C18.9621 7.812 18.8988 7.65966 18.8988 7.50027V0.900269L4.49999 0.900281ZM20.0988 1.25068V6.90028H25.7484L20.0988 1.25068ZM12.0012 5.40028H16.5C16.8316 5.40028 17.1012 5.66981 17.1012 6.00145C17.1012 6.3331 16.8316 6.60145 16.5 6.60145H12.0012C11.6695 6.60145 11.4 6.33309 11.4 6.00145C11.4 5.6698 11.6696 5.40028 12.0012 5.40028ZM8.99999 9.90028H21C21.3316 9.90028 21.6012 10.1698 21.6012 10.5014C21.6012 10.8331 21.3316 11.1014 21 11.1014H8.99999C8.66834 11.1014 8.39999 10.8331 8.39999 10.5014C8.39999 10.1698 8.66835 9.90028 8.99999 9.90028ZM8.99999 14.4003H21C21.3316 14.4003 21.6012 14.6698 21.6012 15.0014C21.6012 15.3331 21.3316 15.6014 21 15.6014H8.99999C8.66834 15.6014 8.39999 15.3331 8.39999 15.0014C8.39999 14.6698 8.66835 14.4003 8.99999 14.4003ZM8.99999 18.9003H21C21.3316 18.9003 21.6012 19.1698 21.6012 19.5014C21.6012 19.8331 21.3316 20.1014 21 20.1014H8.99999C8.66834 20.1014 8.39999 19.8331 8.39999 19.5014C8.39999 19.1698 8.66835 18.9003 8.99999 18.9003ZM8.99999 23.4003H21C21.3316 23.4003 21.6012 23.6698 21.6012 24.0014C21.6012 24.3331 21.3316 24.6014 21 24.6014H8.99999C8.66834 24.6014 8.39999 24.3331 8.39999 24.0014C8.39999 23.6698 8.66835 23.4003 8.99999 23.4003Z" fill="#ABABAC"/>
</svg>
