<svg width="46" height="64" viewBox="0 0 46 64" fill="none" xmlns="http://www.w3.org/2000/svg">
<path d="M10 63H6V64H10V63Z" fill="#C4C4C4"/>
<path fill-rule="evenodd" clip-rule="evenodd" d="M1 63H4V64H0V60H1V63Z" fill="#C4C4C4"/>
<path d="M16 63H12V64H16V63Z" fill="#C4C4C4"/>
<path d="M22 63H18V64H22V63Z" fill="#C4C4C4"/>
<path d="M28 63H24V64H28V63Z" fill="#C4C4C4"/>
<path d="M34 63H30V64H34V63Z" fill="#C4C4C4"/>
<path d="M40 63H36V64H40V63Z" fill="#C4C4C4"/>
<path fill-rule="evenodd" clip-rule="evenodd" d="M45 63H42V64H46V60H45V63Z" fill="#C4C4C4"/>
<path fill-rule="evenodd" clip-rule="evenodd" d="M45 58V54H46V58H45Z" fill="#C4C4C4"/>
<path fill-rule="evenodd" clip-rule="evenodd" d="M45 52V48H46V52H45Z" fill="#C4C4C4"/>
<path fill-rule="evenodd" clip-rule="evenodd" d="M45 46V42H46V46H45Z" fill="#C4C4C4"/>
<path fill-rule="evenodd" clip-rule="evenodd" d="M45 40V36H46V40H45Z" fill="#C4C4C4"/>
<path fill-rule="evenodd" clip-rule="evenodd" d="M45 34V30H46V34H45Z" fill="#C4C4C4"/>
<path fill-rule="evenodd" clip-rule="evenodd" d="M45 28V24H46V28H45Z" fill="#C4C4C4"/>
<path fill-rule="evenodd" clip-rule="evenodd" d="M45 22V18H46V22H45Z" fill="#C4C4C4"/>
<path fill-rule="evenodd" clip-rule="evenodd" d="M45 16V12H46V16H45Z" fill="#C4C4C4"/>
<path d="M46 9H42V10H46V9Z" fill="#C4C4C4"/>
<path fill-rule="evenodd" clip-rule="evenodd" d="M37 9H40V10H36V6H37V9Z" fill="#C4C4C4"/>
<path d="M37 0H36V4H37V0Z" fill="#C4C4C4"/>
<path fill-rule="evenodd" clip-rule="evenodd" d="M0 58V54H1V58H0Z" fill="#C4C4C4"/>
<path fill-rule="evenodd" clip-rule="evenodd" d="M0 52V48H1V52H0Z" fill="#C4C4C4"/>
<path fill-rule="evenodd" clip-rule="evenodd" d="M0 46V42H1V46H0Z" fill="#C4C4C4"/>
<path fill-rule="evenodd" clip-rule="evenodd" d="M0 40V36H1V40H0Z" fill="#C4C4C4"/>
<path fill-rule="evenodd" clip-rule="evenodd" d="M0 34V30H1V34H0Z" fill="#C4C4C4"/>
<path fill-rule="evenodd" clip-rule="evenodd" d="M0 28V24H1V28H0Z" fill="#C4C4C4"/>
<path fill-rule="evenodd" clip-rule="evenodd" d="M0 22V18H1V22H0Z" fill="#C4C4C4"/>
<path fill-rule="evenodd" clip-rule="evenodd" d="M0 16V12H1V16H0Z" fill="#C4C4C4"/>
<path fill-rule="evenodd" clip-rule="evenodd" d="M0 10V6H1V10H0Z" fill="#C4C4C4"/>
<path d="M10 0H6V1H10V0Z" fill="#C4C4C4"/>
<path fill-rule="evenodd" clip-rule="evenodd" d="M0 0V4H1V1H4V0H0Z" fill="#C4C4C4"/>
<path d="M16 0H12V1H16V0Z" fill="#C4C4C4"/>
<path d="M22 0H18V1H22V0Z" fill="#C4C4C4"/>
<path d="M28 0H24V1H28V0Z" fill="#C4C4C4"/>
<path d="M34 0H30V1H34V0Z" fill="#C4C4C4"/>
</svg>
