<svg width="16" height="16" viewBox="0 0 16 16" fill="none" xmlns="http://www.w3.org/2000/svg">
<path d="M5.94286 0C7.519 0 9.03059 0.62612 10.1451 1.74062C11.2596 2.85512 11.8857 4.36671 11.8857 5.94286C11.8857 7.41486 11.3463 8.768 10.4594 9.81029L10.7063 10.0571H11.4286L16 14.6286L14.6286 16L10.0571 11.4286V10.7063L9.81029 10.4594C8.768 11.3463 7.41486 11.8857 5.94286 11.8857C4.36671 11.8857 2.85512 11.2596 1.74062 10.1451C0.62612 9.03059 0 7.519 0 5.94286C0 4.36671 0.62612 2.85512 1.74062 1.74062C2.85512 0.62612 4.36671 0 5.94286 0V0ZM5.94286 1.82857C3.65714 1.82857 1.82857 3.65714 1.82857 5.94286C1.82857 8.22857 3.65714 10.0571 5.94286 10.0571C8.22857 10.0571 10.0571 8.22857 10.0571 5.94286C10.0571 3.65714 8.22857 1.82857 5.94286 1.82857Z" fill="#47337D"/>
</svg>
