<svg width="79" height="84" viewBox="0 0 79 84" fill="none" xmlns="http://www.w3.org/2000/svg">
<path d="M6.7234 46.4747C9.74894 46.4747 12.2702 44.6456 13.1947 41.9852H19.9181C20.4223 45.477 21.8511 48.6363 23.9521 51.2967L19.2457 55.9525C18.3213 55.5368 17.3968 55.2874 16.3043 55.2874C12.4383 55.2874 9.41277 58.3635 9.41277 62.1048C9.41277 65.9292 12.5223 68.9222 16.3043 68.9222C20.1702 68.9222 23.1957 65.846 23.1957 62.1048C23.1957 61.1071 22.9436 60.1094 22.5234 59.1949L27.2298 54.5391C30.0032 56.7007 33.3649 58.1141 37.0628 58.5298V60.3589V65.1809C34.3734 66.1786 32.5245 68.6728 32.5245 71.5826C32.5245 75.407 35.634 78.4 39.416 78.4C43.1979 78.4 46.3074 75.3239 46.3074 71.5826C46.3074 68.5896 44.4585 66.0954 41.7691 65.1809V60.3589V58.5298C45.467 58.1141 48.8287 56.6176 51.6021 54.5391L56.3085 59.1949C55.8883 60.1094 55.6362 61.024 55.6362 62.1048C55.6362 65.9292 58.7457 68.9222 62.5277 68.9222C66.3096 68.9222 69.4192 65.846 69.4192 62.1048C69.4192 58.2804 66.3096 55.2874 62.5277 55.2874C61.5191 55.2874 60.5106 55.5368 59.5862 55.9525L54.8798 51.2967C56.9809 48.6363 58.4096 45.477 58.9138 41.9852H65.8053C66.8979 44.3962 69.3351 46.059 72.1085 46.059C75.9745 46.059 79 42.9828 79 39.2416C79 35.5003 75.8904 32.4242 72.1085 32.4242C68.9989 32.4242 66.3096 34.5027 65.4692 37.3294H58.9138C58.4936 33.505 57.0649 30.0963 54.7957 27.2696L59.5862 22.5307C62.1074 23.6946 65.3011 23.2789 67.4021 21.1173C70.0915 18.4568 70.0915 14.1336 67.4021 11.4732C64.7128 8.81273 60.3426 8.81273 57.6532 11.4732C55.5521 13.5516 55.0479 16.6278 56.2245 19.2051L53.0308 22.6138L51.7702 23.8609C48.9968 21.6993 45.6351 20.2859 41.9372 19.8702V13.2191C44.6266 12.2214 46.4755 9.72725 46.4755 6.81739C46.4755 2.993 43.366 0 39.584 0C35.8021 0 32.6926 3.07614 32.6926 6.81739C32.6926 9.81039 34.5415 12.3046 37.2309 13.2191V19.8702C33.533 20.2859 30.1713 21.7824 27.3979 23.8609L22.6915 19.2051C23.1117 18.2906 23.3638 17.376 23.3638 16.2952C23.3638 12.4708 20.2543 9.47784 16.4723 9.47784C12.6064 9.47784 9.58085 12.554 9.58085 16.2952C9.58085 20.1196 12.6904 23.1126 16.4723 23.1126C17.4809 23.1126 18.4894 22.8632 19.4138 22.4475L24.1202 27.1033C21.8511 29.93 20.4223 33.4219 20.0021 37.1631H13.3628C12.3543 34.5027 9.83298 32.6736 6.89149 32.6736C3.02553 32.6736 0 35.7497 0 39.491C0 43.2322 2.85745 46.4747 6.7234 46.4747ZM39.584 24.1934C47.9883 24.1934 54.7957 30.9277 54.7957 39.2416C54.7957 47.5555 47.9883 54.2897 39.584 54.2897C31.1798 54.2897 24.3723 47.5555 24.3723 39.2416C24.3723 30.9277 31.1798 24.1934 39.584 24.1934ZM39.584 49.6339C45.383 49.6339 50.0894 44.9782 50.0894 39.2416C50.0894 33.505 45.383 28.8492 39.584 28.8492C33.7851 28.8492 29.0787 33.505 29.0787 39.2416C29.0787 44.9782 33.7851 49.6339 39.584 49.6339ZM35.8862 43.3154C35.9702 42.9828 36.0543 42.6503 36.2223 42.3177C36.3064 41.902 36.4745 41.902 36.8106 42.0683C37.3989 42.4009 38.0713 42.5671 38.8277 42.6503C39.2479 42.7334 39.7521 42.6503 40.0883 42.484C40.8447 42.1514 41.0128 41.2369 40.3404 40.7381C40.0883 40.5718 39.8362 40.4055 39.584 40.3224C38.9117 39.9898 38.2394 39.8235 37.567 39.4079C36.5585 38.8259 35.8862 37.9114 35.9702 36.6643C36.0543 35.2509 36.8947 34.3364 38.1553 33.9207C38.6596 33.7544 38.6596 33.7544 38.6596 33.1724C38.6596 33.0062 38.6596 32.7567 38.6596 32.5905C38.6596 32.1748 38.7436 32.0916 39.1638 32.0916C39.3319 32.0916 39.416 32.0916 39.584 32.0916C40.5085 32.0916 40.5085 32.0916 40.5085 33.0062C40.5085 33.6713 40.5085 33.6713 41.1809 33.7544C41.6851 33.8375 42.1053 34.0038 42.6096 34.1701C42.8617 34.2532 42.9457 34.4195 42.8617 34.6689C42.7777 35.0846 42.6096 35.4172 42.5255 35.8329C42.4415 36.1654 42.2734 36.2486 41.9372 36.0823C41.2649 35.7497 40.5085 35.5835 39.7521 35.6666C39.584 35.6666 39.3319 35.6666 39.1638 35.7497C38.4915 36.0823 38.4074 36.7474 38.9957 37.2462C39.2479 37.4957 39.584 37.6619 39.9202 37.7451C40.5085 37.9945 41.0968 38.2439 41.6851 38.4933C43.45 39.491 43.9543 41.7357 42.6936 43.2322C42.2734 43.8142 41.6011 44.1468 40.9287 44.313C40.5926 44.3962 40.5085 44.5625 40.5085 44.895C40.5085 45.2276 40.5085 45.477 40.5085 45.8096C40.5085 46.059 40.3404 46.2252 40.0883 46.2252C39.7521 46.2252 39.416 46.2252 39.0798 46.2252C38.8277 46.2252 38.6596 46.059 38.6596 45.8096C38.6596 45.5601 38.6596 45.3939 38.6596 45.1444C38.6596 44.6456 38.6596 44.6456 38.1553 44.5625C37.567 44.4793 36.8947 44.313 36.3904 44.0636C35.8021 43.8974 35.8021 43.8142 35.8862 43.3154Z" fill="#DDDDDF"/>
</svg>
