<svg xmlns="http://www.w3.org/2000/svg" viewBox="0 0 115.96 99.74"><defs><style>.cls-1{fill:#3c4a63;}.cls-2{fill:#4a5e81;}.cls-3{fill:#fff;}.cls-4{fill:#ed174c;}.cls-10,.cls-11,.cls-12,.cls-13,.cls-4,.cls-5,.cls-6,.cls-7,.cls-8,.cls-9{opacity:0.75;}.cls-5{fill:#ffd200;}.cls-6{fill:#002d72;}.cls-7{fill:#24ab9f;}.cls-8{fill:#c94281;}.cls-9{fill:#6db56d;}.cls-10{fill:#f47e6c;}.cls-11{fill:#f5b33c;}.cls-12{fill:#0085ca;}.cls-13{fill:#a90533;}</style></defs><title>Asset 131</title><g id="Layer_2" data-name="Layer 2"><g id="Layer_1-2" data-name="Layer 1"><path class="cls-1" d="M104.65,75.68l-.58-.2-49.21-17L53.66,58,53,57.81l-.15,0h-.07s0,0,0,0h-.05a.46.46,0,0,0-.26,0h0l-.06,0h-.12l-.07.07,0,0h0v0s0,0,0,0h0l0,0v0a.05.05,0,0,0,0,0h0v0s0,0,0,0,0,.06,0,.09a.77.77,0,0,0,0,.15l0,.05v0h0l0,0,0,.07h0l.11.18.1.18.39.64h0L69.43,87.4l1.27,2.12a.66.66,0,0,0,.21.2l.11,0h0l.13,0h.1l.08,0h0l.16-.06,33.11-13,.07,0a.55.55,0,0,0,.27-.36v-.13A.54.54,0,0,0,104.65,75.68ZM71.41,88.55,53.84,59.27l49,17Z"/><polygon class="cls-1" points="102.87 76.23 71.41 88.55 53.84 59.27 102.87 76.23"/><path class="cls-1" d="M111.07,49.12a.24.24,0,0,0,0-.08.52.52,0,0,0-.2-.24.5.5,0,0,0-.2-.08.44.44,0,0,0-.2,0l-2.61.41h0l-53.47,8.3h0l-1.41.22-.38.06h-.14l-.06,0h0a0,0,0,0,1,0,0h-.07l-.07.07,0,0h0v0s0,0,0,0h0a0,0,0,0,1,0,0,0,0,0,0,1,0,0v0a.05.05,0,0,0,0,0h0v0s0,0,0,0,0,0,0,0v0a.77.77,0,0,0,0,.15l0,.05v0h0l0,0,0,0h0a.32.32,0,0,0,.08.09l.09.07,0,0h0l0,0h.08l.14.05h0L53,59l.89.31h0l49,17,1.42.5.18,0a.54.54,0,0,0,.27-.07.55.55,0,0,0,.27-.36v0l6.06-26.9v-.05s0,0,0,0v0h0A.39.39,0,0,0,111.07,49.12Zm-7,26.36-49.21-17,55-8.53Z"/><polygon class="cls-1" points="109.82 49.93 104.07 75.48 54.86 58.46 109.82 49.93"/><path class="cls-1" d="M111.07,49.12a.09.09,0,0,0,0,0v0l-10.28-29.8a.14.14,0,0,0,0-.07.26.26,0,0,0,0-.09l0,0-.06-.07-.1-.08-.12-.05a.56.56,0,0,0-.5.09l-.74.57h0L86.63,29,74.09,38.51h0l-.67.51-.19.14s0,0,0,0h0a.56.56,0,0,0-.18.41v0a.56.56,0,0,0,.31.48l.1,0h.06l.23.06,34.11,8.91h0l2.56.67h.28l.08,0,.1-.06a.27.27,0,0,0,.08-.07.71.71,0,0,0,.07-.09.25.25,0,0,0,0-.09l0-.07v-.05s0,0,0,0v0h0A.39.39,0,0,0,111.07,49.12ZM74.81,39.35,100,20.27l9.72,28.19Z"/><polygon class="cls-1" points="109.68 48.46 74.81 39.35 99.96 20.27 109.68 48.46"/><path class="cls-1" d="M111.07,49.12a.24.24,0,0,0,0-.08.52.52,0,0,0-.2-.24.38.38,0,0,0-.17-.08h0l-1-.26L74.81,39.35l-.7-.18h0l-.36-.09-.07,0h0a.49.49,0,0,0-.43.12h0l-.19.17-.69.61L52.81,57.31l-.42.38h0l-.09.08-.06,0a.55.55,0,0,0-.21.4h0v.1h0a.44.44,0,0,0,.14.28h0a.38.38,0,0,0,.17.12h0s0,0,0,0,0,0,0,0h.35l.26,0h0l.46-.07,1.38-.21,55-8.53.8-.13h.06l.08,0,.1-.06a.27.27,0,0,0,.08-.07.71.71,0,0,0,.07-.09.25.25,0,0,0,0-.09l0-.07v-.05s0,0,0,0v0h0A.39.39,0,0,0,111.07,49.12Zm-56.71,8.3L73.72,40.21l34.11,8.91Z"/><polygon class="cls-1" points="107.83 49.12 54.35 57.42 73.72 40.21 107.83 49.12"/><path class="cls-1" d="M100.77,19.24a.14.14,0,0,0,0-.07.26.26,0,0,0,0-.09l0,0-.06-.07-.1-.08-.06,0L72.94,6.66h0l-.06,0-.09,0h-.24a.24.24,0,0,0-.09,0l-.1,0a.24.24,0,0,0-.08.06l0,0a.54.54,0,0,0-.14.38l0,1.25L73,39v.66a.56.56,0,0,0,.31.48l.1,0h.24a.2.2,0,0,0,.11,0h0l.06,0h0l0,0,.87-.66L100,20.27l.61-.46a.55.55,0,0,0,.22-.5ZM86.63,29,74.09,38.51h0L73.23,8,99.16,19.5Z"/><polygon class="cls-1" points="99.16 19.5 86.63 29 74.09 38.51 73.23 7.99 99.16 19.5"/><path class="cls-1" d="M74.1,39.44a.55.55,0,0,0-.35-.36l-.07,0h0l-.23,0L73,39,44.78,34.73h0l-.64-.1-.37-.06h-.29l-.09,0-.07,0h0l0,0h0s0,0,0,0l0,0h0l0,.06a.22.22,0,0,0,0,.08.32.32,0,0,0,0,.09.06.06,0,0,0,0,0,.31.31,0,0,0,0,.1.28.28,0,0,0,0,.09.17.17,0,0,0,0,.1s0,0,0,.05l0,.08h0l0,.06.17.44,8.45,21.74h0l.12.31.11.29,0,0h0l0,.07,0,.05v0h0l0,0,0,0h0a.32.32,0,0,0,.08.09l.09.07h0l.08,0h.25l.09,0h0l0,0h0l.06,0,0,0,.11-.1h0l.22-.19.37-.32.69-.62h0L73.72,40.21l.17-.16,0,0a.51.51,0,0,0,.18-.42A.77.77,0,0,0,74.1,39.44ZM52.81,57.31,44.45,35.79,72.32,40Z"/><polygon class="cls-1" points="72.32 39.97 52.81 57.31 44.45 35.79 72.32 39.97"/><path class="cls-1" d="M74.11,39.17h0l0-.66h0L73.23,8l0-.86a.63.63,0,0,0,0-.19l0-.07a.94.94,0,0,0-.09-.12l0,0-.08,0v0l-.06,0-.09,0h-.24a.24.24,0,0,0-.09,0l-.1,0a.24.24,0,0,0-.08.06l0,0-.84.8L44.14,33.8h0l-.64.61-.23.23h0l0,0h0l0,0h0l0,.06a.22.22,0,0,0,0,.08.32.32,0,0,0,0,.09.06.06,0,0,0,0,0,.31.31,0,0,0,0,.1.28.28,0,0,0,0,.09v.07l0,0s0,0,0,.05a.61.61,0,0,0,.2.22l0,0h0l.09,0h.09l.18,0h0l.74.11L72.32,40l1.11.16h.24a.2.2,0,0,0,.11,0h0l.06,0h0l0,0a.51.51,0,0,0,.18-.42ZM44.78,34.73,72.14,8.39h0L73,39Z"/><polygon class="cls-1" points="73 38.96 44.78 34.73 72.14 8.39 73 38.96"/><path class="cls-1" d="M73.18,6.94l0-.07a.94.94,0,0,0-.09-.12l0,0-.08,0v0l-.06,0-.09,0h-.08l-29-2.76h-.09a.39.39,0,0,0-.15,0h0l-.14.06L43.22,4a.58.58,0,0,0-.18.41V35a.34.34,0,0,0,0,.14.55.55,0,0,0,.11.33h0a.31.31,0,0,0,.07.09h0a.45.45,0,0,0,.29.12h.18l.06,0h0l.09,0h0l0,0s0,0,0,0l.27-.25.54-.52h0L72.14,8.4h0L73,7.53a.56.56,0,0,0,.17-.4A.63.63,0,0,0,73.18,6.94Zm-29,26.86V5L71.41,7.56Z"/><polygon class="cls-1" points="71.41 7.56 44.14 33.8 44.15 4.98 71.41 7.56"/><path class="cls-1" d="M44.08,4.09,44,4l0,0,0,0-.06,0-.08,0-.08,0H43.6l-.14,0h0l-.06,0-.08,0L43.22,4V4L41.75,5.44h0L23.88,23.31l-.51.5a.56.56,0,0,0-.14.2h0a.57.57,0,0,0,0,.29.61.61,0,0,0,0,.13l0,0s0,0,0,0l0,.06a.08.08,0,0,0,0,0,.2.2,0,0,0,.09.07.08.08,0,0,0,0,0l.16.08L24,25,42.5,35.14h0l.64.35.05,0h0l.07,0,0,0h0l.09,0h.26l.06,0h0l.09,0h0l0,0,0,0,0,0,.07-.09h0a.69.69,0,0,0,0-.13.32.32,0,0,0,0-.14V4.37A.55.55,0,0,0,44.08,4.09Zm-19.43,20L43,5.7V34.17Z"/><polygon class="cls-1" points="43.04 5.7 43.04 34.17 24.65 24.1 43.04 5.7"/><path class="cls-1" d="M24.27,24.11v0s0-.08,0-.11l0,0-.06-.12-.27-.52-6-11.42-.32-.61a.53.53,0,0,0-.4-.28H17a.31.31,0,0,0-.12.05.2.2,0,0,0-.09.07l0,0L.16,27.56h0a.28.28,0,0,0-.07.09.41.41,0,0,0,0,.09.19.19,0,0,0,0,.08.37.37,0,0,0,0,.24H0v.06l0,.06a.55.55,0,0,0,.49.3H.64l.62-.1,21.56-3.46h0l.81-.13.16,0h0l.13,0a.6.6,0,0,0,.11-.06.67.67,0,0,0,.17-.2v0l0-.1a.36.36,0,0,0,0-.11v0A.5.5,0,0,0,24.27,24.11Zm-22.11,3L17,12.46l5.92,11.35Z"/><polygon class="cls-1" points="22.89 23.81 2.16 27.14 16.97 12.46 22.89 23.81"/><path class="cls-1" d="M44.08,4.09,44,4l0,0,0,0-.06,0-.08,0-.08,0H43.6a.44.44,0,0,0-.15,0l-.06,0L17,11H17a.31.31,0,0,0-.12.05.2.2,0,0,0-.09.07.45.45,0,0,0-.15.19.54.54,0,0,0,0,.48l.34.66,5.92,11.35.23.45.1.18,0,0s0,0,0,0l0,.06a.08.08,0,0,0,0,0,.2.2,0,0,0,.09.07.55.55,0,0,0,.22.1h.17l.13,0a.6.6,0,0,0,.11-.06l.07-.06.07-.07.44-.45h0L43,5.7l1-.94a.59.59,0,0,0,.16-.39A.55.55,0,0,0,44.08,4.09ZM23.88,23.31l-6-11.42L41.74,5.44h0Z"/><polygon class="cls-1" points="41.74 5.44 23.88 23.31 17.92 11.89 41.74 5.44"/><path class="cls-1" d="M24.27,24.11v0s0-.08,0-.11l0,0a.21.21,0,0,0,0-.06.47.47,0,0,0-.17-.14h0a.11.11,0,0,0-.08,0h0a.36.36,0,0,0-.14,0h-.09l-.18,0-.58.09L2.16,27.13l-1.7.28a.52.52,0,0,0-.3.16.28.28,0,0,0-.07.09.41.41,0,0,0,0,.09.19.19,0,0,0,0,.08.37.37,0,0,0,0,.24H0v.06L8.81,56.91s0,0,0,0l0,.09a0,0,0,0,0,0,0h0l0,0a.44.44,0,0,0,.15.23l0,0,.06,0a.09.09,0,0,0,.06,0l0,0h.24l.08,0,.14-.06h0a.55.55,0,0,0,.21-.24l.33-.74.4-.91h0L24,25l.2-.45,0-.07v0l0-.1a.36.36,0,0,0,0-.11v0A.5.5,0,0,0,24.27,24.11ZM9.47,55.31,1.26,28.4l21.56-3.46Z"/><polygon class="cls-1" points="22.82 24.94 9.47 55.31 1.26 28.39 22.82 24.94"/><path class="cls-1" d="M44.12,34.94l0,0a.3.3,0,0,0,0-.08s0,0,0,0A.31.31,0,0,0,44,34.7l-.12-.08-.08,0-.27-.15L43,34.17,24.65,24.1h0l-.49-.27L24,23.75h0a.11.11,0,0,0-.08,0h0a.36.36,0,0,0-.14,0h-.09l-.09,0a.57.57,0,0,0-.19.1.56.56,0,0,0-.14.2h0l-.1.24-.3.67h0L8.93,56.55a.52.52,0,0,0-.12.34v0s0,0,0,0a.46.46,0,0,0,.23.41s0,0,0,0h0a.27.27,0,0,0,.11.05h.25l.08,0,.14-.06h0l1.5-1h0L43.32,35.93l.38-.25h0l.14-.09h0l0,0,0,0,0,0,.07-.09h0a.69.69,0,0,0,0-.13.32.32,0,0,0,0-.14v0A.68.68,0,0,0,44.12,34.94ZM10.62,55.45,24,25,42.5,35.14Z"/><polygon class="cls-1" points="42.5 35.14 10.62 55.45 24 25 42.5 35.14"/><path class="cls-1" d="M71.71,89.1a.47.47,0,0,0-.06-.15l-.24-.4L53.84,59.27h0l-.36-.6-.19-.31-.2-.34h0L53,57.92h0l-.08-.08h0l-.07,0h-.07s0,0,0,0h-.36l-.06,0h-.12l-.07.07,0,0h0v0s0,0,0,0h0a0,0,0,0,1,0,0l0,.08v0l0,.09h0l0,.05-.14.51h0l-.15.54-4,13.88-.11.4,0,.08v0a.5.5,0,0,0,.08.39l0,.06.1.09.12.08h0l2.23,1.49L70.44,89.4h0l.43.29,0,0,.11,0h0l.13,0h.1l.08,0h0a.54.54,0,0,0,.16-.1l.07-.08,0,0a.6.6,0,0,0,.08-.29A.3.3,0,0,0,71.71,89.1Zm-6.59-4.58-16.39-11h0l4-13.94L69.43,87.4Z"/><polygon class="cls-1" points="69.43 87.41 65.12 84.52 48.73 73.57 52.76 59.63 69.43 87.41"/><path class="cls-1" d="M53.12,58.13l0-.11h0L53,57.92h0l-.08-.08h0l-.07,0h0l0,0h0s0,0,0,0h-.36l-.06,0h-.07l-.06,0-.34.17-1.49.75h0l-23.84,12-.32.17a.56.56,0,0,0-.3.59.56.56,0,0,0,.17.3l0,0a.36.36,0,0,0,.18.1l.06,0h.12l21.29,2.36h.31a.56.56,0,0,0,.53-.4l.11-.39h0l4-13.95L53,59l.07-.22h0l0-.18h0l0-.11h0l0-.09s0,0,0,0a.09.09,0,0,0,0,0A.5.5,0,0,0,53.12,58.13ZM47.69,73.2l-19.3-2.13L51.7,59.32h0Z"/><polygon class="cls-1" points="51.7 59.32 47.69 73.2 28.39 71.07 51.7 59.32"/><path class="cls-1" d="M53.12,58.13l0-.11h0L53,57.81l-.07-.17-.13-.33L44.45,35.79l-.21-.54-.1-.25,0-.06,0,0a.3.3,0,0,0,0-.08s0,0,0,0A.31.31,0,0,0,44,34.7l-.12-.08-.09,0,0,0h-.23l-.09,0-.07,0h-.08l-.2.13-.53.34h0L10.62,55.45h0l-1.52,1h0a.18.18,0,0,0-.07,0,.54.54,0,0,0-.15.21.51.51,0,0,0,0,.32,0,0,0,0,0,0,0,.08.08,0,0,0,0,0,.44.44,0,0,0,.15.23l0,0h0l.06,0a.09.09,0,0,0,.06,0l0,0h.17l1.56.05L50.4,58.73h0l1.45.05h0l.41,0h.46l.05,0h0l0,0h0l.06,0,0,0a.61.61,0,0,0,.12-.16v0s0,0,0,0h0l0-.09s0,0,0,0a.09.09,0,0,0,0,0A.5.5,0,0,0,53.12,58.13Zm-37.81-1.6-4.12-.13L43.32,35.93l8.45,21.74h0Z"/><polygon class="cls-1" points="51.77 57.67 15.31 56.53 11.19 56.4 43.32 35.93 51.77 57.67"/><path class="cls-1" d="M53.12,58.13l0-.11h0L53,57.92h0l-.08-.08h0l-.07,0h-.07s0,0,0,0h-.4l-.61,0L15.31,56.53l-4.12-.13h0l-1,0-.82,0a.61.61,0,0,0-.3.08L9,56.48a.54.54,0,0,0-.15.21.51.51,0,0,0,0,.32,0,0,0,0,0,0,0,.08.08,0,0,0,0,0,.44.44,0,0,0,.15.23l0,0h0l0,0h0l17,14.45,0,0a.36.36,0,0,0,.18.1l.06,0h.12a.5.5,0,0,0,.24-.06l1.66-.84L51.7,59.32h0l.67-.34.26-.13h0l.13-.07.05,0,0,0h0l.06,0,0,0a.61.61,0,0,0,.12-.16s0,0,0-.06h0l0-.09s0,0,0,0a.09.09,0,0,0,0,0A.5.5,0,0,0,53.12,58.13ZM26.56,70.76,10.94,57.49,50.4,58.73Z"/><polygon class="cls-1" points="50.4 58.73 26.56 70.76 10.94 57.49 50.4 58.73"/><path class="cls-1" d="M71.71,89.1a.47.47,0,0,0-.06-.15.44.44,0,0,0-.16-.17L69.43,87.4l-4.31-2.88-16.39-11-.33-.23a.57.57,0,0,0-.7.07.76.76,0,0,0-.12.19l0,.08v0a.5.5,0,0,0,.08.39l0,.06.1.16,17,25.17a.55.55,0,0,0,.46.24h0a.53.53,0,0,0,.46-.27l5.79-9.79.07-.12,0,0a.6.6,0,0,0,.08-.29A.3.3,0,0,0,71.71,89.1Zm-6.45,9.06L50.13,75.83,70.44,89.4h0Z"/><polygon class="cls-1" points="70.44 89.41 70.44 89.41 65.26 98.16 50.13 75.83 70.44 89.41"/><path class="cls-2" d="M70.71,89.52l-18.6-31a.56.56,0,0,1,0-.64.53.53,0,0,1,.6-.17l51.89,18a.56.56,0,0,1,0,1l-33.29,13a.48.48,0,0,1-.2,0A.55.55,0,0,1,70.71,89.52ZM53.84,59.27,71.41,88.55l31.46-12.32Z"/><path class="cls-2" d="M104.29,76.72,52.4,58.77A.55.55,0,0,1,52,58.2a.53.53,0,0,1,.46-.49l58-9a.53.53,0,0,1,.49.17.54.54,0,0,1,.14.5L105,76.32a.53.53,0,0,1-.27.36.54.54,0,0,1-.27.07A.57.57,0,0,1,104.29,76.72ZM54.86,58.46l49.21,17,5.75-25.56Z"/><path class="cls-2" d="M110.4,49.79l-37-9.66a.54.54,0,0,1-.4-.42.56.56,0,0,1,.21-.55L99.91,18.93a.54.54,0,0,1,.49-.09.55.55,0,0,1,.36.35l10.3,29.88a.55.55,0,0,1-.12.56.55.55,0,0,1-.4.18ZM74.81,39.35l34.87,9.11L100,20.27Z"/><path class="cls-2" d="M52.57,58.8a.55.55,0,0,1-.56-.55.58.58,0,0,1,.28-.48L73.2,39.19a.56.56,0,0,1,.51-.12l37,9.65a.55.55,0,0,1-.06,1.08l-57.95,9h-.1ZM73.72,40.21,54.35,57.42l53.48-8.3Z"/><path class="cls-2" d="M73.33,40.1a.54.54,0,0,1-.31-.48L72.11,7.14a.52.52,0,0,1,.24-.47.56.56,0,0,1,.53,0l27.58,12.25a.56.56,0,0,1,.33.44.55.55,0,0,1-.22.5L73.9,40a.55.55,0,0,1-.33.11A.69.69,0,0,1,73.33,40.1ZM73.23,8l.86,30.52,25.07-19Z"/><path class="cls-2" d="M52.45,58.79a.56.56,0,0,1-.38-.34l-9-23.15a.56.56,0,0,1,.09-.54.53.53,0,0,1,.51-.2l30,4.5a.55.55,0,0,1,.29.95L53,58.66a.55.55,0,0,1-.37.14Zm-8-23,8.36,21.52L72.32,40Z"/><path class="cls-2" d="M73.49,40.15l-30-4.5a.57.57,0,0,1-.45-.38.55.55,0,0,1,.15-.56l29.07-28a.54.54,0,0,1,.59-.11.55.55,0,0,1,.34.49l.91,32.48a.51.51,0,0,1-.18.42.59.59,0,0,1-.37.14ZM44.78,34.72,73,39,72.14,8.39Z"/><path class="cls-2" d="M43.58,35.66A.55.55,0,0,1,43,35.1.68.68,0,0,1,43,35V4.37A.54.54,0,0,1,43.23,4a.57.57,0,0,1,.42-.14L72.71,6.58a.54.54,0,0,1,.47.37.55.55,0,0,1-.14.58L44,35.5a.55.55,0,0,1-.38.16ZM44.15,5V33.81L71.41,7.56Z"/><path class="cls-2" d="M43.32,35.59,23.47,24.72a.57.57,0,0,1-.28-.41.54.54,0,0,1,.15-.47L43.21,4a.54.54,0,0,1,.6-.12.54.54,0,0,1,.34.51V35.1a.55.55,0,0,1-.27.48.57.57,0,0,1-.28.08A.68.68,0,0,1,43.32,35.59ZM24.65,24.1,43,34.17V5.7Z"/><path class="cls-2" d="M.06,28.2a.55.55,0,0,1,.1-.64L16.73,11.15A.54.54,0,0,1,17.2,11a.52.52,0,0,1,.4.29L24.22,24a.52.52,0,0,1,0,.5.56.56,0,0,1-.41.3L.64,28.5H.55A.55.55,0,0,1,.06,28.2ZM17,12.46,2.16,27.14l20.73-3.33Z"/><path class="cls-2" d="M23.65,24.78a.57.57,0,0,1-.4-.29L16.62,11.8a.58.58,0,0,1,0-.48A.56.56,0,0,1,17,11L43.45,3.84a.56.56,0,0,1,.63.25.58.58,0,0,1-.09.67L24.13,24.62a.55.55,0,0,1-.4.16ZM17.92,11.89l6,11.42L41.74,5.44Z"/><path class="cls-2" d="M9.35,57.44a.56.56,0,0,1-.5-.39L0,28.11a.59.59,0,0,1,.06-.45.58.58,0,0,1,.38-.25l23.19-3.72a.57.57,0,0,1,.52.2.55.55,0,0,1,.07.56L9.89,57.11a.56.56,0,0,1-.51.33Zm-8.09-29L9.47,55.31,22.82,24.94Z"/><path class="cls-2" d="M9.36,57.44a.55.55,0,0,1-.55-.55.52.52,0,0,1,.12-.34L23.23,24a.55.55,0,0,1,.33-.3.53.53,0,0,1,.44,0L43.85,34.62a.54.54,0,0,1,.29.47.56.56,0,0,1-.25.48L9.68,57.36a.54.54,0,0,1-.3.08ZM24,25,10.62,55.45,42.51,35.14Z"/><path class="cls-2" d="M70.87,89.7,47.78,74.26a.54.54,0,0,1-.22-.61L52.05,58.1a.59.59,0,0,1,.46-.4.57.57,0,0,1,.55.27L71.65,89a.55.55,0,0,1-.09.69.55.55,0,0,1-.38.15A.59.59,0,0,1,70.87,89.7ZM48.73,73.57,69.44,87.41,52.76,59.62Z"/><path class="cls-2" d="M48,74.35,26.43,72a.56.56,0,0,1-.49-.45.56.56,0,0,1,.3-.59l26.1-13.17a.55.55,0,0,1,.6.07.52.52,0,0,1,.17.57L48.62,74a.56.56,0,0,1-.53.4ZM28.39,71.08l19.3,2.12,4-13.89Z"/><path class="cls-2" d="M52.57,58.8,9.36,57.44a.53.53,0,0,1-.51-.4.54.54,0,0,1,.23-.61L43.29,34.64a.56.56,0,0,1,.47-.06.54.54,0,0,1,.34.32l9,23.15a.55.55,0,0,1-.52.75ZM11.18,56.4l40.59,1.27L43.32,35.93Z"/><path class="cls-2" d="M26.13,71.84,9,57.31a.54.54,0,0,1-.15-.62.55.55,0,0,1,.53-.35L52.6,57.7a.56.56,0,0,1,.52.43.53.53,0,0,1-.29.61L26.73,71.91a.5.5,0,0,1-.24.06A.53.53,0,0,1,26.13,71.84ZM10.94,57.49,26.56,70.76l23.84-12Z"/><path class="cls-2" d="M64.84,99.5,47.63,74.11a.55.55,0,0,1,.07-.7.57.57,0,0,1,.7-.07L71.49,88.78a.55.55,0,0,1,.16.74l-5.88,10a.53.53,0,0,1-.46.27h0A.54.54,0,0,1,64.84,99.5ZM50.13,75.83,65.26,98.16l5.18-8.75Z"/><path class="cls-3" d="M12,58.65c3.37-6.37,8.87-12.17,22.34-19.06a1.27,1.27,0,0,0,.41-1.89c-2.84-4-2.29-16.38,1.47-14.29h0s2,1,2.63,1.43l6.09,3.77a1.35,1.35,0,0,0,1.49,0c.09-.07.15-.17.25-.24,2.12-1.48,8.2-5.82,22.09-3.65,1.62.25,2.5,2.13,2.19,3.74C70.19,32.27,68.25,38.9,63.28,42a1.34,1.34,0,0,0-.34.29c-1.44,1.82-12.61,14.17-11,37.4a13.18,13.18,0,0,0-3-5c-1-1-3-2-6-1H42c-.29-.23-3.66-.87-4-1-2.2-.86-10-1-11-1"/><path class="cls-2" d="M26.13,71.84,9,57.31a.54.54,0,0,1-.15-.62.55.55,0,0,1,.53-.35L52.6,57.7a.56.56,0,0,1,.52.43.53.53,0,0,1-.29.61L26.73,71.91a.5.5,0,0,1-.24.06A.53.53,0,0,1,26.13,71.84ZM10.94,57.49,26.56,70.76l23.84-12Z"/><path class="cls-2" d="M48,74.35,26.43,72a.56.56,0,0,1-.49-.45.56.56,0,0,1,.3-.59l26.1-13.17a.55.55,0,0,1,.6.07.52.52,0,0,1,.17.57L48.62,74a.56.56,0,0,1-.53.4ZM28.39,71.08l19.3,2.12,4-13.89Z"/><path class="cls-2" d="M64.84,99.5,47.63,74.11a.55.55,0,0,1,.07-.7.57.57,0,0,1,.7-.07L71.49,88.78a.55.55,0,0,1,.16.74l-5.88,10a.53.53,0,0,1-.46.27h0A.54.54,0,0,1,64.84,99.5ZM50.13,75.83,65.26,98.16l5.18-8.75Z"/><path class="cls-2" d="M9.35,57.44a.56.56,0,0,1-.5-.39L0,28.11a.59.59,0,0,1,.06-.45.58.58,0,0,1,.38-.25l23.19-3.72a.57.57,0,0,1,.52.2.55.55,0,0,1,.07.56L9.89,57.11a.56.56,0,0,1-.51.33Zm-8.09-29L9.47,55.31,22.82,24.94Z"/><path class="cls-2" d="M104.29,76.72,52.4,58.77A.55.55,0,0,1,52,58.2a.53.53,0,0,1,.46-.49l58-9a.53.53,0,0,1,.49.17.54.54,0,0,1,.14.5L105,76.32a.53.53,0,0,1-.27.36.54.54,0,0,1-.27.07A.57.57,0,0,1,104.29,76.72ZM54.86,58.46l49.21,17,5.75-25.56Z"/><path class="cls-2" d="M52.57,58.8a.55.55,0,0,1-.56-.55.58.58,0,0,1,.28-.48L73.2,39.19a.56.56,0,0,1,.51-.12l37,9.65a.55.55,0,0,1-.06,1.08l-57.95,9h-.1ZM73.72,40.21,54.35,57.42l53.48-8.3Z"/><circle class="cls-4" cx="43.32" cy="9.64" r="9.64"/><circle class="cls-5" cx="70.44" cy="88.43" r="6.79"/><circle class="cls-6" cx="28.52" cy="71" r="7.98"/><circle class="cls-7" cx="99.07" cy="21.15" r="7.5"/><circle class="cls-8" cx="11.17" cy="55.9" r="6.25"/><circle class="cls-9" cx="24.02" cy="24.55" r="3.88"/><circle class="cls-10" cx="74.47" cy="39.9" r="4.49"/><circle class="cls-11" cx="108.52" cy="50.21" r="7.44"/><circle class="cls-12" cx="57.54" cy="57.87" r="11.42"/><circle class="cls-13" cx="88.55" cy="69.62" r="5.59"/></g></g></svg>