<path fill-rule="evenodd" clip-rule="evenodd" d="M29.6301 34.7407L31.1403 34.3413L38.6915 52.9641L37.1816 53.3633L29.6301 34.7407ZM54.442 26.355L54.8734 27.8797L31.2125 33.2161L30.781 31.6915L54.442 26.355ZM29.0908 8.60353L30.637 8.56738L31.0324 27.9886L29.4865 28.0249L29.0908 8.60353ZM29.4146 32.054L28.9471 33.5787L10.5361 27.9157L11.0036 26.3911L29.4146 32.054Z" fill="#9DA3B3"/>
<svg width="61" height="65" viewBox="0 0 61 65" fill="none" xmlns="http://www.w3.org/2000/svg">
<path fill-rule="evenodd" clip-rule="evenodd" d="M30.0621 22.3965C35.8019 22.3965 40.455 27.0938 40.455 32.8884C40.455 38.6828 35.8019 43.3801 30.0621 43.3801C24.3224 43.3801 19.6694 38.6828 19.6694 32.8884C19.6694 27.0938 24.3224 22.3965 30.0621 22.3965Z" fill="#47337D"/>
<path fill-rule="evenodd" clip-rule="evenodd" d="M39.2312 48.752C43.4023 48.752 46.7834 52.1653 46.7834 56.3761C46.7834 60.5867 43.4023 64.0001 39.2312 64.0001C35.0603 64.0001 31.6792 60.5867 31.6792 56.3761C31.6792 52.1653 35.0603 48.752 39.2312 48.752Z" fill="#D46D1E"/>
<path fill-rule="evenodd" clip-rule="evenodd" d="M55.2699 21.345C58.388 21.345 60.9157 23.8967 60.9157 27.0446C60.9157 30.1924 58.388 32.7442 55.2699 32.7442C52.1519 32.7442 49.6243 30.1924 49.6243 27.0446C49.6243 23.8967 52.1519 21.345 55.2699 21.345Z" fill="#5BB0B5"/>
<mask id="mask0" mask-type="alpha" maskUnits="userSpaceOnUse" x="0" y="18" width="15" height="16">
<path fill-rule="evenodd" clip-rule="evenodd" d="M0 33.7239V18.6951L14.887 18.6951V33.7239H0H0Z" fill="white"/>
</mask>
<g mask="url(#mask0)">
<path fill-rule="evenodd" clip-rule="evenodd" d="M7.44361 18.6951C11.5546 18.6951 14.887 22.0594 14.887 26.2094C14.887 30.3596 11.5546 33.7239 7.44361 33.7239C3.33261 33.7239 0 30.3596 0 26.2094C0 22.0594 3.33261 18.6951 7.44361 18.6951Z" fill="#58A158"/>
</g>
<path fill-rule="evenodd" clip-rule="evenodd" d="M29.7031 0C32.106 0 34.0542 1.96653 34.0542 4.39253C34.0542 6.81834 32.106 8.78487 29.7031 8.78487C27.3002 8.78487 25.3521 6.81834 25.3521 4.39253C25.3521 1.96653 27.3002 0 29.7031 0Z" fill="#DE9A1F"/>
</svg>