<svg width="181" height="181" viewBox="0 0 181 181" fill="none" xmlns="http://www.w3.org/2000/svg">
<mask id="path-1-inside-1" fill="white">
<path fill-rule="evenodd" clip-rule="evenodd" d="M94.3273 89.8488C99.146 84.0265 101.769 76.7772 101.769 69.1253C101.769 67.9598 101.705 66.7683 101.575 65.5898V65.5811C100.396 54.6626 93.8279 45.1435 84.0062 40.1219C79.3965 37.7649 74.4185 36.569 69.2113 36.569C59.5625 36.569 50.4644 40.8151 44.2559 48.2198C41.2843 51.764 39.1436 55.8064 37.8877 60.2432C37.0684 63.1331 36.6568 66.1184 36.6568 69.1253C36.6568 71.7293 36.9558 74.2769 37.545 76.7509C38.1389 79.2249 39.0271 81.6166 40.2051 83.9216C45.8026 94.8791 56.9197 101.682 69.2113 101.682C74.4233 101.682 79.4008 100.49 84.0062 98.133C86.0476 97.0904 87.9676 95.8384 89.7413 94.3953L105.229 109.883L109.795 105.316L94.3273 89.8488Z"/>
</mask>
<path fill-rule="evenodd" clip-rule="evenodd" d="M94.3273 89.8488C99.146 84.0265 101.769 76.7772 101.769 69.1253C101.769 67.9598 101.705 66.7683 101.575 65.5898V65.5811C100.396 54.6626 93.8279 45.1435 84.0062 40.1219C79.3965 37.7649 74.4185 36.569 69.2113 36.569C59.5625 36.569 50.4644 40.8151 44.2559 48.2198C41.2843 51.764 39.1436 55.8064 37.8877 60.2432C37.0684 63.1331 36.6568 66.1184 36.6568 69.1253C36.6568 71.7293 36.9558 74.2769 37.545 76.7509C38.1389 79.2249 39.0271 81.6166 40.2051 83.9216C45.8026 94.8791 56.9197 101.682 69.2113 101.682C74.4233 101.682 79.4008 100.49 84.0062 98.133C86.0476 97.0904 87.9676 95.8384 89.7413 94.3953L105.229 109.883L109.795 105.316L94.3273 89.8488Z" fill="#5C94B9" fill-opacity="0.3"/>
<path d="M94.3273 89.8488L93.5569 89.2112L92.9766 89.9123L93.6202 90.5559L94.3273 89.8488ZM101.575 65.5898H100.575V65.6447L100.581 65.6994L101.575 65.5898ZM101.575 65.5811H102.575V65.5273L102.569 65.4738L101.575 65.5811ZM84.0062 40.1219L83.551 41.0123L83.551 41.0123L84.0062 40.1219ZM44.2559 48.2198L45.0222 48.8623L45.0222 48.8623L44.2559 48.2198ZM37.8877 60.2432L38.8498 60.5159L38.8499 60.5155L37.8877 60.2432ZM37.545 76.7509L36.5722 76.9826L36.5726 76.9844L37.545 76.7509ZM40.2051 83.9216L41.0956 83.4667L41.0956 83.4665L40.2051 83.9216ZM84.0062 98.133L83.5514 97.2424L83.5506 97.2428L84.0062 98.133ZM89.7413 94.3953L90.4484 93.6882L89.8102 93.05L89.1102 93.6196L89.7413 94.3953ZM105.229 109.883L104.522 110.59L105.229 111.297L105.936 110.59L105.229 109.883ZM109.795 105.316L110.502 106.024L111.209 105.316L110.502 104.609L109.795 105.316ZM100.769 69.1253C100.769 76.5448 98.2269 83.5685 93.5569 89.2112L95.0977 90.4864C100.065 84.4844 102.769 77.0096 102.769 69.1253H100.769ZM100.581 65.6994C100.707 66.8413 100.769 67.9962 100.769 69.1253H102.769C102.769 67.9234 102.703 66.6953 102.569 65.4801L100.581 65.6994ZM100.575 65.5811V65.5898H102.575V65.5811H100.575ZM83.551 41.0123C93.0741 45.8812 99.4381 55.1068 100.581 65.6885L102.569 65.4738C101.354 54.2183 94.5817 44.4058 84.4615 39.2315L83.551 41.0123ZM69.2113 37.569C74.2611 37.569 79.0829 38.7277 83.551 41.0123L84.4615 39.2315C79.71 36.8021 74.5759 35.569 69.2113 35.569V37.569ZM45.0222 48.8623C51.0409 41.684 59.8586 37.569 69.2113 37.569V35.569C59.2664 35.569 49.8878 39.9463 43.4897 47.5773L45.0222 48.8623ZM38.8499 60.5155C40.0673 56.215 42.1411 52.2986 45.0222 48.8623L43.4897 47.5773C40.4276 51.2294 38.22 55.3979 36.9255 59.9708L38.8499 60.5155ZM37.6568 69.1253C37.6568 66.2098 38.0559 63.3163 38.8498 60.5159L36.9256 59.9704C36.0809 62.9499 35.6568 66.0269 35.6568 69.1253H37.6568ZM38.5178 76.5192C37.9469 74.1221 37.6568 71.6522 37.6568 69.1253H35.6568C35.6568 71.8063 35.9647 74.4317 36.5722 76.9826L38.5178 76.5192ZM41.0956 83.4665C39.9527 81.2304 39.0925 78.913 38.5173 76.5175L36.5726 76.9844C37.1854 79.5369 38.1015 82.0028 39.3146 84.3767L41.0956 83.4665ZM69.2113 100.682C57.2955 100.682 46.5223 94.0898 41.0956 83.4667L39.3146 84.3765C45.0829 95.6685 56.5439 102.682 69.2113 102.682V100.682ZM83.5506 97.2428C79.0878 99.5269 74.2665 100.682 69.2113 100.682V102.682C74.58 102.682 79.7139 101.453 84.4618 99.0232L83.5506 97.2428ZM89.1102 93.6196C87.391 95.0183 85.53 96.2319 83.5514 97.2424L84.4611 99.0236C86.5652 97.949 88.5443 96.6584 90.3724 95.171L89.1102 93.6196ZM105.936 109.176L90.4484 93.6882L89.0342 95.1024L104.522 110.59L105.936 109.176ZM109.088 104.609L104.522 109.176L105.936 110.59L110.502 106.024L109.088 104.609ZM93.6202 90.5559L109.088 106.024L110.502 104.609L95.0344 89.1417L93.6202 90.5559Z" fill="#5C94B9" mask="url(#path-1-inside-1)"/>
<path fill-rule="evenodd" clip-rule="evenodd" d="M144.274 131.353L131.226 144.5L100.74 113.794L107.147 107.345L113.792 100.652L144.274 131.353Z" fill="white"/>
<path fill-rule="evenodd" clip-rule="evenodd" d="M144.158 131.061L131.109 144.208L100.623 113.502L107.03 107.053L113.676 100.36L144.158 131.061Z" fill="#62AC62" fill-opacity="0.3" stroke="#62AC62"/>
<path fill-rule="evenodd" clip-rule="evenodd" d="M96.7655 69.1072C96.7655 76.4713 93.8964 83.3951 88.6901 88.6054H88.6864C86.6391 90.6529 84.2946 92.359 81.7227 93.6726C77.8226 95.6687 73.6073 96.6777 69.1935 96.6777C58.7843 96.6777 49.3697 90.917 44.6294 81.6376C43.6318 79.6856 42.8796 77.6601 42.3766 75.565C41.8776 73.4699 41.6245 71.3124 41.6245 69.1072C41.6245 66.5608 41.973 64.0327 42.6668 61.5853C43.7305 57.828 45.5433 54.4046 48.0598 51.4032C53.3175 45.1325 61.0223 41.5367 69.1935 41.5367C73.6033 41.5367 77.8189 42.5494 81.7227 44.5454C90.0403 48.7981 95.6024 56.8593 96.6008 66.1058V66.1131C96.7108 67.1111 96.7655 68.1202 96.7655 69.1072" fill="white"/>
<path d="M96.7655 69.1072C96.7655 76.4713 93.8964 83.3951 88.6901 88.6054H88.6864C86.6391 90.6529 84.2946 92.359 81.7227 93.6726C77.8226 95.6687 73.6073 96.6777 69.1935 96.6777C58.7843 96.6777 49.3697 90.917 44.6294 81.6376C43.6318 79.6856 42.8796 77.6601 42.3766 75.565C41.8776 73.4699 41.6245 71.3124 41.6245 69.1072C41.6245 66.5608 41.973 64.0327 42.6668 61.5853C43.7305 57.828 45.5433 54.4046 48.0598 51.4032C53.3175 45.1325 61.0223 41.5367 69.1935 41.5367C73.6033 41.5367 77.8189 42.5494 81.7227 44.5454C90.0403 48.7981 95.6024 56.8593 96.6008 66.1058V66.1131C96.7108 67.1111 96.7655 68.1202 96.7655 69.1072" stroke="#5C94B9"/>
<path d="M60.9983 66.1266C60.9983 69.7696 55.5339 69.7696 55.5339 66.1266C55.5339 62.4837 60.9983 62.4837 60.9983 66.1266Z" fill="#5C94B9"/>
<path d="M82.3593 66.1266C82.3593 69.7696 76.8948 69.7696 76.8948 66.1266C76.8948 62.4837 82.3593 62.4837 82.3593 66.1266Z" fill="#5C94B9"/>
<path d="M85.3399 75.5652C85.3399 80.5328 77.8884 80.5328 77.8884 75.5652C77.8884 70.5975 85.3399 70.5975 85.3399 75.5652Z" fill="#D46D1E" fill-opacity="0.05"/>
<path d="M59.508 75.5652C59.508 80.5328 52.0565 80.5328 52.0565 75.5652C52.0565 70.5975 59.508 70.5975 59.508 75.5652Z" fill="#D46D1E" fill-opacity="0.05"/>
<path d="M74.8278 78.0046C74.7764 77.8534 73.5242 74.3232 68.6953 74.3232C63.8634 74.3232 62.6084 77.8535 62.5628 78.0046C62.5143 78.1449 62.4886 78.2879 62.4886 78.4364C62.4915 79.0976 63.0078 79.659 63.7009 79.7589C64.394 79.8587 65.0615 79.4647 65.2725 78.8332C65.3695 78.5876 66.094 77.0249 68.6953 77.0249C71.2938 77.0249 72.0183 78.5903 72.1181 78.8332C72.3263 79.4728 72.9966 79.8723 73.6955 79.7724C74.3915 79.6726 74.9078 79.1031 74.9078 78.4365C74.9078 78.288 74.8821 78.145 74.8336 78.0046L74.8278 78.0046Z" fill="#5C94B9"/>
</svg>
