<svg width="83" height="76" viewBox="0 0 83 76" fill="none" xmlns="http://www.w3.org/2000/svg">
<path d="M41.4784 47.8551L41.6689 48.6264L42.414 48.9021L45.3594 49.9921V55.7053L42.507 56.7901L41.7577 57.0751L41.5783 57.8565C41.2285 59.3803 40.633 60.6984 39.879 62.0936L39.5341 62.7319L39.8203 63.3985L41.0001 66.1464L36.9279 70.1387L34.1695 68.949L33.5003 68.6603L32.8598 69.008C31.4923 69.7505 30.0422 70.3609 28.6101 70.7163L27.847 70.9057L27.5686 71.6411L26.4862 74.5H20.92L19.8377 71.6411L19.5536 70.8908L18.7719 70.7105C17.2527 70.3602 15.9383 69.7637 14.5465 69.008L13.9059 68.6603L13.2367 68.949L10.4783 70.1387L6.40618 66.1464L7.58596 63.3985L7.87219 62.7319L7.52725 62.0936C6.78636 60.7227 6.17706 59.2687 5.82221 57.8324L5.63373 57.0695L4.89921 56.7901L2.04688 55.7053V49.9822L4.89921 48.8974L5.64858 48.6124L5.82797 47.831C6.17778 46.3072 6.77325 44.9891 7.52725 43.5939L7.87219 42.9556L7.58596 42.289L6.40139 39.53L10.3687 35.5536L13.1159 36.7385L13.7852 37.0272L14.4257 36.6795C15.7932 35.937 17.2433 35.3266 18.6754 34.9712L19.4385 34.7818L19.7169 34.0464L20.7993 31.1875H26.4661L27.4318 34.0021L27.7021 34.7898L28.5136 34.977C30.0328 35.3273 31.3472 35.9238 32.739 36.6795L33.3783 37.0265L34.0467 36.7394L36.8211 35.5477L40.8944 39.5411L39.7146 42.289L39.4284 42.9556L39.7733 43.5939C40.5142 44.9648 41.1235 46.4188 41.4784 47.8551Z" stroke="white" stroke-width="3"/>
<path d="M23.7033 40.375C21.2574 40.3719 18.8646 41.0892 16.8237 42.4373C14.7828 43.7854 13.1841 45.7047 12.2271 47.9557C11.2701 50.2067 10.9972 52.6896 11.4424 55.0947C11.8876 57.4998 13.0312 59.7206 14.7305 61.4799C15.3227 59.5549 16.6385 57.9346 18.401 56.96C17.2526 55.8949 16.4517 54.5085 16.1029 52.9815C15.7541 51.4546 15.8736 49.8579 16.4456 48.3998C17.0177 46.9418 18.0158 45.6899 19.3099 44.8075C20.604 43.9251 22.1339 43.4531 23.7002 43.4531C25.2665 43.4531 26.7964 43.9251 28.0905 44.8075C29.3846 45.6899 30.3827 46.9418 30.9548 48.3998C31.5268 49.8579 31.6462 51.4546 31.2974 52.9815C30.9486 54.5085 30.1478 55.8949 28.9994 56.96C30.7619 57.9346 32.0776 59.5549 32.6699 61.4799C34.3688 59.721 35.5123 57.5008 35.9577 55.0963C36.4031 52.6918 36.1307 50.2093 35.1745 47.9586C34.2182 45.7079 32.6205 43.7885 30.5805 42.4399C28.5406 41.0913 26.1487 40.3731 23.7033 40.375Z" fill="white"/>
<path d="M23.7051 55.9616C26.2874 55.9616 28.3808 53.8682 28.3808 51.2859C28.3808 48.7035 26.2874 46.6101 23.7051 46.6101C21.1227 46.6101 19.0293 48.7035 19.0293 51.2859C19.0293 53.8682 21.1227 55.9616 23.7051 55.9616Z" fill="white"/>
<path d="M17.4844 63.6323C19.3732 64.7328 21.5202 65.3126 23.7063 65.3126C25.8923 65.3126 28.0393 64.7328 29.9282 63.6323C29.8965 62.4156 29.3917 61.2591 28.5209 60.4087C27.6501 59.5583 26.482 59.081 25.2649 59.0781H22.1477C20.9305 59.081 19.7624 59.5583 18.8917 60.4087C18.0209 61.2591 17.516 62.4156 17.4844 63.6323Z" fill="white"/>
<path d="M48.3239 10.7419L48.451 11.2561L48.9477 11.4399L50.6094 12.0549V15.2643L49.0016 15.8758L48.502 16.0658L48.3824 16.5867C48.1794 17.471 47.8335 18.238 47.3912 19.0564L47.1613 19.4819L47.3521 19.9264L48.0167 21.4743L45.7269 23.7192L44.1713 23.0482L43.7252 22.8558L43.2982 23.0876C42.498 23.5221 41.652 23.8778 40.8192 24.0845L40.3104 24.2108L40.1248 24.701L39.5147 26.3125H36.3915L35.7814 24.701L35.5921 24.2008L35.0709 24.0806C34.1893 23.8773 33.4245 23.5309 32.6081 23.0876L32.1811 22.8558L31.7349 23.0482L30.1793 23.7192L27.8896 21.4743L28.5542 19.9264L28.745 19.4819L28.515 19.0564C28.0815 18.2542 27.7264 17.4059 27.52 16.5706L27.3943 16.062L26.9047 15.8758L25.2969 15.2643V12.0482L26.9047 11.4367L27.4042 11.2467L27.5238 10.7258C27.7268 9.84145 28.0727 9.07446 28.515 8.25607L28.745 7.83055L28.5542 7.38611L27.8864 5.83075L30.1155 3.5965L31.6637 4.26426L32.1099 4.45669L32.5369 4.22486C33.3371 3.79043 34.183 3.43471 35.0159 3.22801L35.5246 3.10174L35.7102 2.61151L36.3203 1H39.5002L40.043 2.58197L40.2231 3.10712L40.7641 3.23188C41.6457 3.43519 42.4105 3.78162 43.2269 4.22486L43.6531 4.45625L44.0987 4.26485L45.6638 3.59256L47.9544 5.83818L47.2898 7.38611L47.099 7.83055L47.3289 8.25607C47.7625 9.05829 48.1176 9.90656 48.3239 10.7419Z" stroke="white" stroke-width="2"/>
<path d="M78.2518 32.9981L78.4106 33.6409L79.0315 33.8706L81.2344 34.6859V38.9474L79.1022 39.7583L78.4778 39.9958L78.3283 40.647C78.0619 41.8072 77.6083 42.8125 77.0303 43.8821L76.7428 44.4139L76.9813 44.9695L77.8629 47.0227L74.8236 50.0024L72.761 49.1128L72.2034 48.8723L71.6696 49.1621C70.6229 49.7303 69.5151 50.1963 68.4233 50.4673L67.7874 50.6251L67.5554 51.2379L66.7463 53.375H62.5974L61.7884 51.2379L61.5517 50.6127L60.9003 50.4625C59.7436 50.1957 58.7411 49.7413 57.6742 49.1621L57.1404 48.8723L56.5827 49.1128L54.5202 50.0024L51.4809 47.0227L52.3624 44.9695L52.6009 44.4139L52.3135 43.8821C51.7464 42.8327 51.2812 41.722 51.0107 40.6269L50.8536 39.9911L50.2415 39.7583L48.1094 38.9474V34.6776L50.2415 33.8667L50.866 33.6292L51.0155 32.978C51.2818 31.8178 51.7355 30.8125 52.3135 29.7429L52.6009 29.2111L52.3624 28.6555L51.4769 26.593L54.4365 23.6266L56.4898 24.5122L57.0475 24.7527L57.5813 24.4629C58.628 23.8947 59.7357 23.4287 60.8276 23.1577L61.4635 22.9999L61.6955 22.3871L62.5045 20.25H66.7286L67.4492 22.3502L67.6744 23.0066L68.3506 23.1625C69.5073 23.4293 70.5097 23.8837 71.5767 24.4629L72.1095 24.7522L72.6664 24.5129L74.7413 23.6216L77.7816 26.6023L76.9001 28.6555L76.6615 29.2111L76.949 29.7429C77.5161 30.7923 77.9812 31.903 78.2518 32.9981Z" stroke="white" stroke-width="2.5"/>
<g clip-path="url(#OrganizationsClip0)">
<path fill-rule="evenodd" clip-rule="evenodd" d="M74.1342 36.7936C74.1342 31.4636 69.8133 27.1428 64.4833 27.1428C59.1533 27.1428 54.8325 31.4636 54.8325 36.7936C54.8325 42.1236 59.1533 46.4445 64.4833 46.4445C69.8133 46.4445 74.1342 42.1236 74.1342 36.7936ZM62.5624 33.9485C62.5624 35.0028 63.4149 35.8575 64.4664 35.8575C65.9355 35.9097 67.1949 36.926 67.5597 38.3539C68.0141 40.1318 66.9448 41.9425 65.1716 42.3979V43.6707C65.1716 44.0612 64.8559 44.3777 64.4664 44.3777C64.077 44.3777 63.7612 44.0612 63.7612 43.6707V42.3979C62.2417 42.08 61.1527 40.7372 61.152 39.1808C61.152 38.7902 61.4678 38.4737 61.8572 38.4737C62.2467 38.4737 62.5624 38.7902 62.5624 39.1808C62.5624 40.2351 63.4149 41.0898 64.4664 41.0898C65.518 41.0898 66.3704 40.2351 66.3704 39.1808C66.3704 38.1264 65.518 37.2717 64.4664 37.2717C62.9973 37.2194 61.738 36.2032 61.3731 34.7753C60.9188 32.9974 61.988 31.1867 63.7612 30.7313V29.8828C63.7612 29.4922 64.077 29.1757 64.4664 29.1757C64.8559 29.1757 65.1716 29.4922 65.1716 29.8828V30.7313C66.6838 31.0614 67.7669 32.3968 67.7808 33.9485C67.7808 34.339 67.4651 34.6555 67.0756 34.6555C66.6862 34.6555 66.3704 34.339 66.3704 33.9485C66.3704 32.8941 65.518 32.0394 64.4664 32.0394C63.4149 32.0394 62.5624 32.8941 62.5624 33.9485Z" fill="white"/>
</g>
<path fill-rule="evenodd" clip-rule="evenodd" d="M37.6422 21.1111C41.8063 21.1111 45.1819 17.7355 45.1819 13.5714C45.1819 9.40737 41.8063 6.03174 37.6422 6.03174C33.4782 6.03174 30.1025 9.40737 30.1025 13.5714C30.1025 17.7355 33.4782 21.1111 37.6422 21.1111ZM37.6419 8.18592C39.0804 8.18592 40.4328 8.74609 41.45 9.76327C42.4672 10.7805 43.0274 12.1329 43.0274 13.5714C43.0274 15.0099 42.4672 16.3623 41.45 17.3795C40.4328 18.3967 39.0804 18.9569 37.6419 18.9569C36.2034 18.9569 34.851 18.3967 33.8338 17.3795C32.8166 16.3623 32.2564 15.0099 32.2564 13.5714C32.2564 12.1329 32.8166 10.7805 33.8338 9.76327C34.851 8.74609 36.2034 8.18592 37.6419 8.18592ZM40.3964 15.8407C40.746 15.9979 41.0831 16.1863 41.4052 16.4042C41.9372 15.6992 42.2759 14.8407 42.3421 13.908H40.6654C40.6425 14.585 40.5508 15.2387 40.3964 15.8407ZM34.6185 13.908H32.9418C33.0079 14.8407 33.3466 15.6992 33.8786 16.4042C34.2007 16.1862 34.5379 15.9979 34.8874 15.8407C34.733 15.2387 34.6414 14.585 34.6185 13.908ZM34.8874 11.3023C34.5378 11.145 34.2006 10.9567 33.8785 10.7387C33.3466 11.4437 33.0079 12.3022 32.9418 13.2348H34.6184C34.6413 12.5578 34.733 11.9042 34.8874 11.3023ZM39.4446 9.21783C39.5863 9.40299 39.7196 9.61166 39.843 9.8429C39.9767 10.0937 40.0954 10.3647 40.1982 10.6522C40.4602 10.5298 40.7142 10.3882 40.9588 10.2275C40.5275 9.79967 40.0141 9.45449 39.4446 9.21783ZM37.6419 11.2153C38.3072 11.2153 38.9557 11.1092 39.5702 10.9033C39.1397 9.67778 38.4285 8.8591 37.6419 8.8591C36.8554 8.8591 36.1441 9.67778 35.7136 10.9033C36.3281 11.1092 36.9767 11.2153 37.6419 11.2153ZM35.5222 11.5494C35.3949 12.0689 35.3143 12.6386 35.2921 13.2348H39.9917C39.9695 12.6386 39.8889 12.0689 39.7616 11.5494C39.0856 11.7733 38.3728 11.8884 37.6419 11.8884C36.911 11.8884 36.1983 11.7733 35.5222 11.5494ZM39.7616 15.5935C39.8889 15.074 39.9695 14.5043 39.9917 13.908H35.2921C35.3143 14.5043 35.3949 15.074 35.5222 15.5935C36.1983 15.3695 36.9111 15.2544 37.6419 15.2544C38.3727 15.2544 39.0855 15.3695 39.7616 15.5935ZM35.0856 10.6522C35.1884 10.3647 35.3071 10.0937 35.4409 9.8429C35.5642 9.61166 35.6975 9.40299 35.8392 9.2178C35.2697 9.45447 34.7563 9.79963 34.325 10.2275C34.5696 10.3882 34.8237 10.5298 35.0856 10.6522ZM35.4408 17.2999C35.3071 17.0491 35.1884 16.7782 35.0856 16.4908C34.8237 16.6131 34.5697 16.7547 34.3251 16.9154C34.7564 17.3432 35.2698 17.6883 35.8392 17.925C35.6975 17.7398 35.5642 17.5311 35.4408 17.2999ZM37.6419 15.9276C36.9767 15.9276 36.3282 16.0336 35.7137 16.2396C36.1441 17.4651 36.8554 18.2837 37.6419 18.2837C38.4284 18.2837 39.1397 17.4651 39.5702 16.2396C38.9556 16.0336 38.3071 15.9276 37.6419 15.9276ZM40.1982 16.4908C40.0954 16.7782 39.9767 17.0491 39.843 17.2999C39.7196 17.5311 39.5863 17.7398 39.4446 17.925C40.014 17.6883 40.5274 17.3432 40.9587 16.9154C40.7141 16.7547 40.4601 16.6131 40.1982 16.4908ZM40.3964 11.3023C40.5508 11.9042 40.6425 12.5578 40.6654 13.2348H42.342C42.2759 12.3021 41.9372 11.4437 41.4053 10.7387C41.0832 10.9567 40.746 11.145 40.3964 11.3023Z" fill="white"/>
<defs>
<clipPath id="OrganizationsClip0">
<rect width="19.3016" height="19.3016" fill="white" transform="translate(54.8325 27.1428)"/>
</clipPath>
</defs>
</svg>
