<svg width="80" height="80" viewBox="0 0 80 80" fill="none" xmlns="http://www.w3.org/2000/svg">
<g clip-path="url(#clip0)">
<path d="M39.9997 29.3333C37.9073 29.3307 35.8604 29.9443 34.1144 31.0976C32.3685 32.2509 31.0009 33.8928 30.1822 35.8184C29.3635 37.7441 29.13 39.8682 29.5108 41.9257C29.8917 43.9832 30.87 45.883 32.3237 47.388C32.8304 45.7412 33.956 44.3551 35.4637 43.5213C34.4813 42.6102 33.7962 41.4241 33.4978 40.1179C33.1994 38.8116 33.3016 37.4457 33.791 36.1984C34.2803 34.951 35.1342 33.8801 36.2413 33.1252C37.3483 32.3703 38.6572 31.9666 39.9971 31.9666C41.337 31.9666 42.6458 32.3703 43.7529 33.1252C44.8599 33.8801 45.7138 34.951 46.2032 36.1984C46.6926 37.4457 46.7947 38.8116 46.4963 40.1179C46.1979 41.4241 45.5129 42.6102 44.5304 43.5213C46.0382 44.3551 47.1638 45.7412 47.6704 47.388C49.1238 45.8833 50.102 43.984 50.4831 41.927C50.8641 39.87 50.6311 37.7463 49.813 35.8209C48.995 33.8954 47.6282 32.2535 45.883 31.0998C44.1379 29.9461 42.0917 29.3317 39.9997 29.3333Z" fill="#DDDDDF"/>
<path d="M39.9999 42.6665C42.209 42.6665 43.9999 40.8756 43.9999 38.6665C43.9999 36.4574 42.209 34.6665 39.9999 34.6665C37.7907 34.6665 35.9999 36.4574 35.9999 38.6665C35.9999 40.8756 37.7907 42.6665 39.9999 42.6665Z" fill="#DDDDDF"/>
<path d="M34.6777 49.2292C36.2936 50.1706 38.1303 50.6666 40.0004 50.6666C41.8705 50.6666 43.7072 50.1706 45.3231 49.2292C45.296 48.1883 44.8641 47.199 44.1192 46.4715C43.3742 45.744 42.375 45.3356 41.3337 45.3332H38.6671C37.6258 45.3356 36.6266 45.744 35.8816 46.4715C35.1367 47.199 34.7048 48.1883 34.6777 49.2292Z" fill="#DDDDDF"/>
<path d="M67.4921 11.74C66.96 11.0503 66.6699 10.2045 66.6668 9.33332C66.6668 8.27245 67.0882 7.25504 67.8384 6.50489C68.5885 5.75475 69.6059 5.33332 70.6668 5.33332C71.7277 5.33332 72.7451 5.75475 73.4952 6.50489C74.2454 7.25504 74.6668 8.27245 74.6668 9.33332C74.6622 10.2022 74.3722 11.0454 73.8415 11.7333C74.5794 12.2791 75.1641 13.0061 75.5388 13.844C76.4256 12.8945 77.0157 11.7067 77.2365 10.4264C77.4573 9.14608 77.2992 7.82917 76.7816 6.63753C76.264 5.44588 75.4096 4.43143 74.3232 3.71888C73.2369 3.00632 71.966 2.62671 70.6668 2.62671C69.3676 2.62671 68.0967 3.00632 67.0104 3.71888C65.924 4.43143 65.0695 5.44588 64.552 6.63753C64.0344 7.82917 63.8763 9.14608 64.0971 10.4264C64.3179 11.7067 64.908 12.8945 65.7948 13.844C66.1705 13.0085 66.755 12.2839 67.4921 11.74Z" fill="#DDDDDF"/>
<path d="M70.667 10.6666C71.4033 10.6666 72.0003 10.0697 72.0003 9.33327C72.0003 8.59689 71.4033 7.99994 70.667 7.99994C69.9306 7.99994 69.3336 8.59689 69.3336 9.33327C69.3336 10.0697 69.9306 10.6666 70.667 10.6666Z" fill="#DDDDDF"/>
<path d="M68.0544 15.4666C68.8798 15.8203 69.7685 16.0027 70.6664 16.0027C71.5644 16.0027 72.453 15.8203 73.2784 15.4666C73.1548 14.8652 72.8273 14.325 72.3515 13.937C71.8756 13.549 71.2804 13.3372 70.6664 13.3372C70.0525 13.3372 69.4573 13.549 68.9814 13.937C68.5055 14.325 68.1781 14.8652 68.0544 15.4666Z" fill="#DDDDDF"/>
<path d="M70.667 72C71.4033 72 72.0003 71.403 72.0003 70.6666C72.0003 69.9303 71.4033 69.3333 70.667 69.3333C69.9306 69.3333 69.3336 69.9303 69.3336 70.6666C69.3336 71.403 69.9306 72 70.667 72Z" fill="#DDDDDF"/>
<path d="M70.6664 74.6665C70.0519 74.6667 69.4563 74.8791 68.9804 75.2678C68.5044 75.6566 68.1773 76.1977 68.0544 76.7998C68.879 77.1522 69.7664 77.3338 70.6631 77.3338C71.5598 77.3338 72.4472 77.1522 73.2718 76.7998C73.1505 76.1982 72.8248 75.657 72.3499 75.2681C71.875 74.8793 71.2802 74.6667 70.6664 74.6665Z" fill="#DDDDDF"/>
<path d="M70.6663 63.9998C69.3689 63.9951 68.0985 64.3704 67.012 65.0794C65.9254 65.7884 65.0703 66.8001 64.5521 67.9895C64.034 69.179 63.8755 70.4941 64.0962 71.7726C64.317 73.0511 64.9073 74.237 65.7943 75.1838C66.169 74.3459 66.7536 73.6189 67.4916 73.0731C66.9594 72.3834 66.6694 71.5376 66.6663 70.6665C66.6663 69.6056 67.0877 68.5882 67.8379 67.838C68.588 67.0879 69.6054 66.6665 70.6663 66.6665C71.7271 66.6665 72.7446 67.0879 73.4947 67.838C74.2449 68.5882 74.6663 69.6056 74.6663 70.6665C74.6622 71.5354 74.3722 72.3788 73.8409 73.0665C74.58 73.6116 75.1649 74.3394 75.5383 75.1785C76.4235 74.2314 77.0123 73.046 77.232 71.7684C77.4518 70.4908 77.2929 69.1769 76.775 67.9885C76.257 66.8001 75.4027 65.7892 74.3172 65.0805C73.2318 64.3717 71.9626 63.996 70.6663 63.9998Z" fill="#DDDDDF"/>
<path d="M6.72107 15.4666C7.54647 15.8203 8.43509 16.0027 9.33307 16.0027C10.231 16.0027 11.1197 15.8203 11.9451 15.4666C11.8214 14.8652 11.494 14.325 11.0181 13.937C10.5422 13.549 9.94705 13.3372 9.33307 13.3372C8.71909 13.3372 8.12392 13.549 7.64804 13.937C7.17217 14.325 6.84475 14.8652 6.72107 15.4666Z" fill="#DDDDDF"/>
<path d="M9.33358 10.6666C10.07 10.6666 10.6669 10.0697 10.6669 9.33327C10.6669 8.59689 10.07 7.99994 9.33358 7.99994C8.5972 7.99994 8.00024 8.59689 8.00024 9.33327C8.00024 10.0697 8.5972 10.6666 9.33358 10.6666Z" fill="#DDDDDF"/>
<path d="M6.15875 11.74C5.62658 11.0503 5.33651 10.2045 5.33342 9.33332C5.33342 8.27245 5.75485 7.25504 6.50499 6.50489C7.25514 5.75475 8.27255 5.33332 9.33342 5.33332C10.3943 5.33332 11.4117 5.75475 12.1618 6.50489C12.912 7.25504 13.3334 8.27245 13.3334 9.33332C13.3289 10.2022 13.0389 11.0454 12.5081 11.7333C13.2461 12.2791 13.8307 13.0061 14.2054 13.844C15.0922 12.8945 15.6823 11.7067 15.9031 10.4264C16.1239 9.14608 15.9658 7.82917 15.4482 6.63753C14.9307 5.44588 14.0762 4.43143 12.9898 3.71888C11.9035 3.00632 10.6326 2.62671 9.33342 2.62671C8.03423 2.62671 6.76335 3.00632 5.677 3.71888C4.59065 4.43143 3.73617 5.44588 3.21861 6.63753C2.70104 7.82917 2.54294 9.14608 2.76373 10.4264C2.98453 11.7067 3.5746 12.8945 4.46142 13.844C4.83712 13.0085 5.42167 12.2839 6.15875 11.74Z" fill="#DDDDDF"/>
<path d="M39.4158 13.308C39.6145 13.3253 39.8158 13.3333 40.0118 13.3333C41.7541 13.3294 43.4256 12.6435 44.6685 11.4225C45.9114 10.2016 46.6269 8.5426 46.662 6.80068C46.697 5.05875 46.0487 3.37233 44.8559 2.10242C43.663 0.832503 42.0205 0.0800098 40.2798 0.00602015C38.539 -0.0679695 36.8385 0.542424 35.5423 1.70654C34.246 2.87065 33.4569 4.49598 33.344 6.23459C33.2311 7.9732 33.8033 9.68694 34.9381 11.009C36.0729 12.331 37.6802 13.1562 39.4158 13.308ZM37.4305 3.59999C38.1493 2.99438 39.0598 2.66363 39.9998 2.66666C40.1171 2.66666 40.2371 2.66666 40.3571 2.68266C41.4137 2.77581 42.39 3.28479 43.0714 4.09766C43.7527 4.91053 44.0833 5.96073 43.9905 7.01732C43.8973 8.07388 43.3883 9.05019 42.5755 9.73154C41.7626 10.4129 40.7124 10.7435 39.6558 10.6507C38.8671 10.5825 38.1163 10.2819 37.4985 9.78678C36.8808 9.29168 36.4238 8.6244 36.1855 7.86943C35.9472 7.11447 35.9383 6.30577 36.16 5.54575C36.3816 4.78572 36.8237 4.10855 37.4305 3.59999Z" fill="#DDDDDF"/>
<path d="M9.33307 74.6665C8.71855 74.6667 8.12295 74.8791 7.64701 75.2678C7.17106 75.6566 6.84397 76.1977 6.72107 76.7998C7.54647 77.1535 8.43509 77.3359 9.33307 77.3359C10.231 77.3359 11.1197 77.1535 11.9451 76.7998C11.8222 76.1977 11.4951 75.6566 11.0191 75.2678C10.5432 74.8791 9.94759 74.6667 9.33307 74.6665Z" fill="#DDDDDF"/>
<path d="M9.33358 72C10.07 72 10.6669 71.403 10.6669 70.6666C10.6669 69.9303 10.07 69.3333 9.33358 69.3333C8.5972 69.3333 8.00024 69.9303 8.00024 70.6666C8.00024 71.403 8.5972 72 9.33358 72Z" fill="#DDDDDF"/>
<path d="M9.33352 63.9998C8.03612 63.9951 6.76574 64.3704 5.6792 65.0794C4.59266 65.7884 3.73753 66.8001 3.21938 67.9895C2.70123 69.179 2.54274 70.4941 2.76348 71.7726C2.98422 73.0511 3.57453 74.237 4.46152 75.1838C4.83625 74.3459 5.42088 73.6189 6.15886 73.0731C5.62669 72.3834 5.33662 71.5376 5.33352 70.6665C5.33352 69.6056 5.75495 68.5882 6.5051 67.838C7.25524 67.0879 8.27266 66.6665 9.33352 66.6665C10.3944 66.6665 11.4118 67.0879 12.1619 67.838C12.9121 68.5882 13.3335 69.6056 13.3335 70.6665C13.329 71.5353 13.039 72.3786 12.5082 73.0665C13.2462 73.6122 13.8308 74.3392 14.2055 75.1771C15.0903 74.23 15.6787 73.0448 15.8982 71.7674C16.1177 70.49 15.9587 69.1763 15.4408 67.9882C14.9229 66.8001 14.0688 65.7894 12.9836 65.0807C11.8984 64.372 10.6296 63.9963 9.33352 63.9998Z" fill="#DDDDDF"/>
<path d="M24 38.6666H21.3334V41.3333H24V38.6666Z" fill="#DDDDDF"/>
<path d="M18.6665 38.6666H15.9999V41.3333H18.6665V38.6666Z" fill="#DDDDDF"/>
<path d="M64 38.6666H61.3334V41.3333H64V38.6666Z" fill="#DDDDDF"/>
<path d="M58.6665 38.6666H55.9999V41.3333H58.6665V38.6666Z" fill="#DDDDDF"/>
<path d="M41.3333 21.3334H38.6666V24H41.3333V21.3334Z" fill="#DDDDDF"/>
<path d="M41.3333 15.9999H38.6666V18.6665H41.3333V15.9999Z" fill="#DDDDDF"/>
<path d="M41.3333 61.3334H38.6666V64H41.3333V61.3334Z" fill="#DDDDDF"/>
<path d="M41.3333 55.9999H38.6666V58.6665H41.3333V55.9999Z" fill="#DDDDDF"/>
<path d="M39.4159 66.6919C37.7054 66.8414 36.1185 67.6452 34.9859 68.9357C33.8533 70.2262 33.2623 71.904 33.336 73.6195C33.4097 75.335 34.1425 76.9559 35.3817 78.1445C36.6209 79.333 38.2709 79.9977 39.9879 79.9999C40.1853 79.9999 40.3879 79.9919 40.5839 79.9732C41.4627 79.9053 42.3193 79.6637 43.1041 79.2626C43.8889 78.8614 44.5864 78.3086 45.1562 77.6362C45.726 76.9637 46.1568 76.185 46.4236 75.345C46.6905 74.505 46.7882 73.6204 46.7109 72.7424C46.6337 71.8644 46.3832 71.0104 45.9738 70.2298C45.5644 69.4493 45.0043 68.7577 44.3259 68.195C43.6475 67.6323 42.8642 67.2098 42.0214 66.9518C41.1787 66.6937 40.2931 66.6054 39.4159 66.6919ZM43.9839 72.9825C44.0532 73.7706 43.8871 74.5616 43.5068 75.2553C43.1266 75.949 42.5491 76.5144 41.8475 76.8799C41.1459 77.2455 40.3516 77.3948 39.5652 77.3089C38.7787 77.2231 38.0354 76.9059 37.4292 76.3976C36.823 75.8893 36.3811 75.2126 36.1595 74.4532C35.9378 73.6937 35.9464 72.8856 36.184 72.131C36.4216 71.3764 36.8777 70.7093 37.4945 70.2139C38.1113 69.7185 38.8612 69.4171 39.6493 69.3479C39.7693 69.3372 39.8893 69.3332 40.0066 69.3332C41.0053 69.335 41.9672 69.7103 42.7032 70.3854C43.4392 71.0604 43.896 71.9864 43.9839 72.9812V72.9825Z" fill="#DDDDDF"/>
<path d="M13.3333 40.0001C13.3333 38.6816 12.9423 37.3926 12.2098 36.2963C11.4773 35.2 10.4361 34.3455 9.21789 33.8409C7.99972 33.3363 6.65927 33.2043 5.36607 33.4615C4.07286 33.7188 2.88497 34.3537 1.95262 35.2861C1.02027 36.2184 0.385336 37.4063 0.128101 38.6995C-0.129134 39.9927 0.00288856 41.3332 0.507473 42.5513C1.01206 43.7695 1.86654 44.8107 2.96287 45.5432C4.0592 46.2758 5.34813 46.6668 6.66667 46.6668C8.43413 46.6647 10.1286 45.9616 11.3784 44.7118C12.6282 43.462 13.3312 41.7676 13.3333 40.0001ZM2.66667 40.0001C2.66667 39.209 2.90127 38.4356 3.34079 37.7778C3.78032 37.12 4.40503 36.6073 5.13594 36.3046C5.86684 36.0018 6.67111 35.9226 7.44703 36.077C8.22296 36.2313 8.93569 36.6123 9.4951 37.1717C10.0545 37.7311 10.4355 38.4438 10.5898 39.2197C10.7442 39.9957 10.6649 40.7999 10.3622 41.5308C10.0594 42.2617 9.54675 42.8865 8.88895 43.326C8.23115 43.7655 7.4578 44.0001 6.66667 44.0001C5.6058 44.0001 4.58839 43.5787 3.83824 42.8285C3.0881 42.0784 2.66667 41.061 2.66667 40.0001Z" fill="#DDDDDF"/>
<path d="M73.3335 33.3334C72.015 33.3334 70.7261 33.7244 69.6297 34.457C68.5334 35.1895 67.6789 36.2307 67.1743 37.4489C66.6698 38.667 66.5377 40.0075 66.795 41.3007C67.0522 42.5939 67.6871 43.7818 68.6195 44.7141C69.5518 45.6465 70.7397 46.2814 72.0329 46.5387C73.3261 46.7959 74.6666 46.6639 75.8848 46.1593C77.1029 45.6547 78.1441 44.8002 78.8767 43.7039C79.6092 42.6076 80.0002 41.3186 80.0002 40.0001C79.9981 38.2326 79.295 36.5382 78.0452 35.2884C76.7955 34.0386 75.101 33.3356 73.3335 33.3334ZM73.3335 44.0001C72.5424 44.0001 71.7691 43.7655 71.1113 43.326C70.4535 42.8864 69.9408 42.2617 69.638 41.5308C69.3353 40.7999 69.2561 39.9957 69.4104 39.2197C69.5647 38.4438 69.9457 37.7311 70.5051 37.1717C71.0645 36.6123 71.7773 36.2313 72.5532 36.077C73.3291 35.9226 74.1334 36.0018 74.8643 36.3046C75.5952 36.6073 76.2199 37.12 76.6594 37.7778C77.0989 38.4356 77.3335 39.209 77.3335 40.0001C77.3335 41.061 76.9121 42.0784 76.162 42.8285C75.4118 43.5787 74.3944 44.0001 73.3335 44.0001Z" fill="#DDDDDF"/>
<path d="M54.2667 30.3827C57.2394 29.1151 59.8908 27.1984 62.0267 24.7732C64.1626 22.348 65.7289 19.4757 66.6107 16.3667L64.0481 15.6334C63.2737 18.3612 61.8991 20.8814 60.0249 23.0094C58.1507 25.1374 55.8243 26.8193 53.2161 27.932L52.8041 28.108L53.8547 30.5587L54.2667 30.3827Z" fill="#DDDDDF"/>
<path d="M66.6147 63.6334C65.7324 60.524 64.1656 57.6514 62.029 55.2262C59.8924 52.801 57.2402 50.8846 54.2667 49.6174L53.8547 49.4414L52.8041 51.8921L53.2161 52.0681C55.8243 53.1808 58.1507 54.8627 60.0249 56.9907C61.8991 59.1187 63.2737 61.6389 64.0481 64.3667L66.6147 63.6334Z" fill="#DDDDDF"/>
<path d="M15.9482 15.6334L13.3855 16.3667C14.2678 19.4761 15.8347 22.3487 17.9713 24.7739C20.1079 27.1991 22.7601 29.1155 25.7335 30.3827L26.1455 30.5587L27.1962 28.108L26.7842 27.932C24.1752 26.8198 21.848 25.1381 19.9731 23.0101C18.0982 20.8821 16.723 18.3616 15.9482 15.6334Z" fill="#DDDDDF"/>
<path d="M25.7332 49.6174C22.7605 50.885 20.1091 52.8017 17.9732 55.2269C15.8373 57.6521 14.271 60.5244 13.3892 63.6334L15.9518 64.3667C16.7262 61.6389 18.1008 59.1187 19.975 56.9907C21.8492 54.8627 24.1756 53.1808 26.7838 52.0681L27.1958 51.8921L26.1452 49.4414L25.7332 49.6174Z" fill="#DDDDDF"/>
</g>
<defs>
<clipPath id="clip0">
<rect width="80" height="80" fill="white"/>
</clipPath>
</defs>
</svg>
