<svg width="17" height="13" viewBox="0 0 17 13" fill="none" xmlns="http://www.w3.org/2000/svg">
<path d="M13.5372 3.25L10.5289 6.5H12.7851C12.7851 7.79293 12.3097 9.03291 11.4635 9.94715C10.6172 10.8614 9.46949 11.375 8.27273 11.375C7.52066 11.375 6.79116 11.1719 6.16694 10.8062L5.06893 11.9925C5.99397 12.6263 7.09198 13 8.27273 13C9.86841 13 11.3987 12.3152 12.5271 11.0962C13.6554 9.87721 14.2893 8.22391 14.2893 6.5H16.5455L13.5372 3.25ZM3.76033 6.5C3.76033 5.20707 4.23574 3.96709 5.08198 3.05285C5.92822 2.13861 7.07596 1.625 8.27273 1.625C9.02479 1.625 9.7543 1.82812 10.3785 2.19375L11.4765 1.0075C10.5515 0.37375 9.45347 0 8.27273 0C6.67704 0 5.14672 0.68482 4.0184 1.90381C2.89008 3.12279 2.2562 4.77609 2.2562 6.5H0L3.00826 9.75L6.01653 6.5" fill="#28A745"/>
</svg>
