<svg width="42" height="45" viewBox="0 0 42 45" fill="none" xmlns="http://www.w3.org/2000/svg">
<path d="M27.6196 36.3004C27.6196 37.3865 28.496 38.2701 29.5718 38.2701C30.6477 38.2701 31.5231 37.3865 31.5231 36.3004C31.5231 35.2135 30.6477 34.3298 29.5718 34.3298C28.496 34.3298 27.6196 35.2135 27.6196 36.3004ZM30.1591 36.3004C30.1591 36.6276 29.8955 36.8937 29.5714 36.8937C29.2464 36.8937 28.9828 36.6276 28.9828 36.3004C28.9828 35.9724 29.2464 35.7063 29.5714 35.7063C29.8955 35.7063 30.1591 35.9724 30.1591 36.3004Z" fill="#DDDDDF"/>
<path d="M25.4443 11.9663H19.5449V13.3428H25.4443V11.9663Z" fill="#DDDDDF"/>
<path d="M17.7383 11.9663H7.76318V13.3428H17.7383V11.9663Z" fill="#DDDDDF"/>
<path d="M17.7381 14.7183H11.3633V16.0947H17.7381V14.7183Z" fill="#DDDDDF"/>
<path d="M23.5748 14.7188H19.5449V16.0952H23.5748V14.7188Z" fill="#DDDDDF"/>
<path d="M9.56676 14.7188H7.76318V16.0952H9.56676V14.7188Z" fill="#DDDDDF"/>
<path d="M21.3755 17.4717H17.7266V18.8481H21.3755V17.4717Z" fill="#DDDDDF"/>
<path d="M15.9188 17.4717H7.76318V18.8481H15.9188V17.4717Z" fill="#DDDDDF"/>
<path d="M13.194 20.2246H7.77734V21.6011H13.194V20.2246Z" fill="#DDDDDF"/>
<path d="M20.8793 20.2251H14.9995V21.6015H20.8793V20.2251Z" fill="#DDDDDF"/>
<path d="M13.673 22.9771H7.76318V24.3535H13.673V22.9771Z" fill="#DDDDDF"/>
<path d="M7.70479 25.7368L7.70752 27.1133L11.8192 27.105L11.8165 25.7285L7.70479 25.7368Z" fill="#DDDDDF"/>
<path d="M24.5815 5.08374H9.56885V6.46018H24.5815V5.08374Z" fill="#DDDDDF"/>
<path d="M21.8444 7.83667H12.2725V9.21311H21.8444V7.83667Z" fill="#DDDDDF"/>
<path d="M35.6198 38.5775H33.6357V36.1518C38.5497 34.0004 42 29.0626 42 23.3201C42 18.4907 39.5283 14.0324 35.5061 11.4804L36.9515 8.95467L38.1288 9.6406L38.8106 8.4486L37.6333 7.76221L31.5035 4.18989L30.3181 3.49937L29.6363 4.69137L30.8213 5.38189L29.5445 7.61356V0.0376228L5.45346 0V17.9488H0V28.4047C0 29.9794 1.11269 31.2957 2.58583 31.5948V31.6595L24.591 31.6889L22.5588 36.1472L23.2433 36.4078C23.9642 36.6831 24.7028 36.8928 25.4537 37.0414V38.5775H17.2722V45H35.6198C37.3874 45 38.8256 43.5589 38.8256 41.7883C38.8256 40.0177 37.3874 38.5775 35.6198 38.5775ZM5.45346 28.4047C5.45346 29.4398 4.61894 30.2822 3.59307 30.2822H3.22353C2.19811 30.2822 1.36359 29.4398 1.36359 28.4047V19.3257H5.45346V28.4047ZM34.2862 23.3201C34.2862 26.2524 32.2576 28.7103 29.5445 29.3526V21.9042L31.6431 18.2351C33.2985 19.3977 34.2862 21.2747 34.2862 23.3201ZM26.8728 21.2142L25.4292 23.7376L23.6006 22.6718L25.0442 20.1479L26.8728 21.2142ZM35.7707 8.26645L28.6741 20.6746L24.9046 18.4783L32.0021 6.07011L32.3794 6.28988L35.7707 8.26645ZM6.22116 30.2877C6.5966 29.7564 6.81751 29.1067 6.81751 28.4047V1.37828L28.1814 1.41223V9.99755L23.042 18.982L23.8633 19.4606L21.7379 23.1761L25.9282 25.6179L28.0536 21.9024L28.1814 21.9767V29.5205C28.1682 29.5205 28.1554 29.5224 28.1423 29.5224C27.7541 29.5224 27.37 29.4811 26.9918 29.4086L27.8068 27.9844L18.4185 22.5131C18.219 22.3965 17.9917 22.3351 17.7608 22.3351C17.2903 22.3351 16.8526 22.5897 16.6176 22.9994L16.3013 23.5523C15.9381 24.1877 16.1549 25.0031 16.7845 25.3706L25.2278 30.2909L25.2183 30.3134L6.22116 30.2877ZM25.6733 28.9612L17.5049 24.2011L17.7758 23.728L25.9442 28.4882L25.6733 28.9612ZM26.5319 30.7231C27.0591 30.8396 27.5982 30.8988 28.1423 30.8988C32.2817 30.8988 35.6502 27.499 35.6502 23.3201C35.6502 20.9182 34.5439 18.698 32.6639 17.2684L34.4971 13.245L34.8289 12.6656C38.4297 14.9711 40.6364 18.9825 40.6364 23.3197C40.6364 28.3584 37.6892 32.7084 33.4476 34.7262C32.9521 33.1956 31.529 32.0853 29.8531 32.0853H29.2372C27.2441 32.0853 25.6105 33.6535 25.4687 35.6329C25.1155 35.5558 24.7647 35.47 24.4183 35.3603L26.5319 30.7231ZM32.2721 35.9132V40.8716H26.8178V35.9132C26.8178 34.562 27.9027 33.4622 29.2368 33.4622H29.8527C31.1872 33.4627 32.2721 34.562 32.2721 35.9132ZM35.6198 43.6236H18.6358V39.954H25.4537V42.248H33.6353V39.954H35.6193C36.6347 39.954 37.4615 40.7766 37.4615 41.7892C37.462 42.8009 36.6352 43.6236 35.6198 43.6236Z" fill="#DDDDDF"/>
</svg>