<svg width="87" height="119" viewBox="0 0 87 119" fill="none" xmlns="http://www.w3.org/2000/svg">
<rect width="87" height="119" fill="white"/>
<path d="M54.8544 71.3071C54.8544 73.1413 56.341 74.6337 58.1662 74.6337C59.9913 74.6337 61.4764 73.1413 61.4764 71.3071C61.4764 69.4714 59.9913 67.979 58.1662 67.979C56.341 67.979 54.8544 69.4714 54.8544 71.3071ZM59.1624 71.3071C59.1624 71.8596 58.7152 72.3091 58.1654 72.3091C57.6141 72.3091 57.1668 71.8596 57.1668 71.3071C57.1668 70.7531 57.6141 70.3037 58.1654 70.3037C58.7152 70.3037 59.1624 70.7531 59.1624 71.3071Z" fill="#DDDDDF"/>
<path d="M51.1643 30.2098H41.1564V32.5345H51.1643V30.2098Z" fill="#DDDDDF"/>
<path d="M38.0919 30.2098H21.1698V32.5345H38.0919V30.2098Z" fill="#DDDDDF"/>
<path d="M38.0914 34.8575H27.277V37.1822H38.0914V34.8575Z" fill="#DDDDDF"/>
<path d="M47.9928 34.8584H41.1564V37.1831H47.9928V34.8584Z" fill="#DDDDDF"/>
<path d="M24.2294 34.8584H21.1698V37.1831H24.2294V34.8584Z" fill="#DDDDDF"/>
<path d="M44.2622 39.5077H38.072V41.8324H44.2622V39.5077Z" fill="#DDDDDF"/>
<path d="M35.0053 39.5077H21.1698V41.8324H35.0053V39.5077Z" fill="#DDDDDF"/>
<path d="M30.3827 44.1571H21.1937V46.4818H30.3827V44.1571Z" fill="#DDDDDF"/>
<path d="M43.4207 44.1578H33.446V46.4825H43.4207V44.1578Z" fill="#DDDDDF"/>
<path d="M31.1954 48.8055H21.1698V51.1302H31.1954V48.8055Z" fill="#DDDDDF"/>
<path d="M21.0701 53.4668L21.0748 55.7915L28.0499 55.7775L28.0453 53.4528L21.0701 53.4668Z" fill="#DDDDDF"/>
<path d="M49.7003 18.5857H24.2324V20.9103H49.7003V18.5857Z" fill="#DDDDDF"/>
<path d="M45.0567 23.235H28.8186V25.5596H45.0567V23.235Z" fill="#DDDDDF"/>
<path d="M68.4264 75.1532H65.0606V71.0563C73.3968 67.4229 79.25 59.0836 79.25 49.3851C79.25 41.2287 75.0569 33.6991 68.2336 29.3892L70.6856 25.1234L72.6827 26.2819L73.8393 24.2687L71.8423 23.1095L61.4435 17.0763L59.4325 15.9101L58.2759 17.9232L60.2861 19.0894L58.1201 22.8585V10.0635L17.2514 10V40.3135H8V57.9724C8 60.6318 9.8876 62.8549 12.3867 63.3602V63.4694L49.7169 63.519L46.2694 71.0486L47.4307 71.4887C48.6536 71.9536 49.9066 72.3078 51.1804 72.5588V75.1532H37.301V86H68.4264C71.4251 86 73.8648 83.5661 73.8648 80.5758C73.8648 77.5855 71.4251 75.1532 68.4264 75.1532ZM17.2514 57.9724C17.2514 59.7205 15.8357 61.1432 14.0954 61.1432H13.4685C11.7289 61.1432 10.3132 59.7205 10.3132 57.9724V42.639H17.2514V57.9724ZM66.164 49.3851C66.164 54.3374 62.7227 58.4885 58.1201 59.5733V46.9938L61.6802 40.7971C64.4885 42.7606 66.164 45.9307 66.164 49.3851ZM53.5877 45.8284L51.1388 50.0903L48.0367 48.2902L50.4857 44.0275L53.5877 45.8284ZM68.6824 23.9611L56.6435 44.9171L50.249 41.2077L62.2894 20.2517L62.9294 20.6229L68.6824 23.9611ZM18.5538 61.1525C19.1907 60.2552 19.5654 59.158 19.5654 57.9724V12.3278L55.8077 12.3851V26.8848L47.0891 42.0586L48.4824 42.8668L44.8769 49.1418L51.9854 53.2657L55.591 46.9907L55.8077 47.1162V59.8569C55.7853 59.8569 55.7637 59.86 55.7413 59.86C55.0828 59.86 54.4313 59.7903 53.7897 59.6678L55.1723 57.2626L39.2457 48.0221C38.9072 47.8253 38.5216 47.7214 38.1299 47.7214C37.3318 47.7214 36.5893 48.1515 36.1906 48.8435L35.654 49.7772C35.0379 50.8504 35.4057 52.2274 36.4736 52.8481L50.7972 61.1579L50.781 61.1959L18.5538 61.1525ZM51.5528 58.9123L37.6958 50.8729L38.1554 50.074L52.0124 58.1134L51.5528 58.9123ZM53.0094 61.8879C53.9039 62.0847 54.8184 62.1847 55.7413 62.1847C62.7636 62.1847 68.478 56.4428 68.478 49.3851C68.478 45.3286 66.6012 41.5789 63.412 39.1644L66.5218 32.3694L67.0847 31.3907C73.1932 35.2845 76.9368 42.0593 76.9368 49.3843C76.9368 57.8941 71.9371 65.2408 64.7414 68.6488C63.9009 66.0637 61.4867 64.1885 58.6437 64.1885H57.5989C54.2177 64.1885 51.4464 66.8371 51.2059 70.1799C50.6067 70.0498 50.0115 69.9049 49.4239 69.7197L53.0094 61.8879ZM62.7474 70.6534V79.0276H53.4944V70.6534C53.4944 68.3714 55.335 66.514 57.5981 66.514H58.6429C60.9068 66.5147 62.7474 68.3714 62.7474 70.6534ZM68.4264 83.6753H39.6142V77.4778H51.1804V81.3522H65.0598V77.4778H68.4256C70.1482 77.4778 71.5508 78.8672 71.5508 80.5773C71.5516 82.286 70.149 83.6753 68.4264 83.6753Z" fill="#DDDDDF"/>
</svg>
