<svg width="75" height="84" viewBox="0 0 75 84" fill="none" xmlns="http://www.w3.org/2000/svg">
<path d="M49.8545 69.3071C49.8545 71.1413 51.3411 72.6337 53.1663 72.6337C54.9914 72.6337 56.4765 71.1413 56.4765 69.3071C56.4765 67.4714 54.9914 65.979 53.1663 65.979C51.3411 65.979 49.8545 67.4714 49.8545 69.3071ZM54.1625 69.3071C54.1625 69.8596 53.7153 70.3091 53.1655 70.3091C52.6142 70.3091 52.167 69.8596 52.167 69.3071C52.167 68.7531 52.6142 68.3037 53.1655 68.3037C53.7153 68.3037 54.1625 68.7531 54.1625 69.3071Z" fill="#DDDDDF"/>
<path d="M46.1641 28.21H36.1562V30.5346H46.1641V28.21Z" fill="#DDDDDF"/>
<path d="M33.0915 28.21H16.1694V30.5346H33.0915V28.21Z" fill="#DDDDDF"/>
<path d="M33.0912 32.8574H22.2769V35.1821H33.0912V32.8574Z" fill="#DDDDDF"/>
<path d="M42.9926 32.8584H36.1562V35.1831H42.9926V32.8584Z" fill="#DDDDDF"/>
<path d="M19.2291 32.8584H16.1694V35.1831H19.2291V32.8584Z" fill="#DDDDDF"/>
<path d="M39.262 37.5078H33.0718V39.8325H39.262V37.5078Z" fill="#DDDDDF"/>
<path d="M30.0049 37.5078H16.1694V39.8325H30.0049V37.5078Z" fill="#DDDDDF"/>
<path d="M25.3828 42.1572H16.1938V44.4819H25.3828V42.1572Z" fill="#DDDDDF"/>
<path d="M38.4205 42.1577H28.4458V44.4824H38.4205V42.1577Z" fill="#DDDDDF"/>
<path d="M26.195 46.8057H16.1694V49.1303H26.195V46.8057Z" fill="#DDDDDF"/>
<path d="M16.0706 51.4669L16.0752 53.7915L23.0504 53.7775L23.0457 51.4528L16.0706 51.4669Z" fill="#DDDDDF"/>
<path d="M44.7009 16.5859H19.2329V18.9106H44.7009V16.5859Z" fill="#DDDDDF"/>
<path d="M40.0575 21.2354H23.8193V23.56H40.0575V21.2354Z" fill="#DDDDDF"/>
<path d="M63.4264 73.1532H60.0606V69.0563C68.3967 65.4229 74.25 57.0836 74.25 47.3851C74.25 39.2287 70.0569 31.6991 63.2336 27.3892L65.6856 23.1234L67.6827 24.2819L68.8393 22.2687L66.8423 21.1095L56.4435 15.0763L54.4325 13.9101L53.2759 15.9232L55.2861 17.0894L53.1201 20.8585V8.06354L12.2514 8V38.3135H3V55.9724C3 58.6318 4.8876 60.8549 7.38667 61.3602V61.4694L44.7169 61.519L41.2694 69.0486L42.4307 69.4887C43.6536 69.9536 44.9066 70.3078 46.1804 70.5588V73.1532H32.301V84H63.4264C66.4251 84 68.8648 81.5661 68.8648 78.5758C68.8648 75.5855 66.4251 73.1532 63.4264 73.1532ZM12.2514 55.9724C12.2514 57.7205 10.8357 59.1432 9.09538 59.1432H8.46849C6.72894 59.1432 5.31324 57.7205 5.31324 55.9724V40.639H12.2514V55.9724ZM61.164 47.3851C61.164 52.3374 57.7227 56.4885 53.1201 57.5733V44.9938L56.6802 38.7971C59.4885 40.7606 61.164 43.9307 61.164 47.3851ZM48.5877 43.8284L46.1388 48.0903L43.0367 46.2902L45.4857 42.0276L48.5877 43.8284ZM63.6824 21.9611L51.6435 42.9171L45.249 39.2077L57.2894 18.2517L57.9294 18.6229L63.6824 21.9611ZM13.5538 59.1525C14.1907 58.2552 14.5654 57.158 14.5654 55.9724V10.3278L50.8077 10.3851V24.8848L42.0891 40.0586L43.4824 40.8668L39.8768 47.1418L46.9854 51.2657L50.591 44.9907L50.8077 45.1162V57.8569C50.7853 57.8569 50.7637 57.86 50.7413 57.86C50.0828 57.86 49.4313 57.7903 48.7897 57.6678L50.1723 55.2626L34.2457 46.0221C33.9072 45.8253 33.5216 45.7214 33.1299 45.7214C32.3318 45.7214 31.5893 46.1515 31.1906 46.8435L30.654 47.7772C30.0379 48.8504 30.4057 50.2274 31.4736 50.8481L45.7972 59.1579L45.781 59.1959L13.5538 59.1525ZM46.5528 56.9123L32.6958 48.8729L33.1554 48.074L47.0124 56.1134L46.5528 56.9123ZM48.0094 59.8879C48.9039 60.0847 49.8184 60.1847 50.7413 60.1847C57.7636 60.1847 63.478 54.4428 63.478 47.3851C63.478 43.3286 61.6012 39.5789 58.412 37.1644L61.5218 30.3694L62.0847 29.3907C68.1932 33.2845 71.9368 40.0593 71.9368 47.3843C71.9368 55.8941 66.9371 63.2408 59.7414 66.6488C58.9009 64.0637 56.4867 62.1885 53.6437 62.1885H52.5989C49.2177 62.1885 46.4464 64.8371 46.2059 68.1799C45.6067 68.0498 45.0115 67.9049 44.4239 67.7197L48.0094 59.8879ZM57.7474 68.6534V77.0276H48.4944V68.6534C48.4944 66.3714 50.335 64.514 52.5981 64.514H53.6429C55.9068 64.5147 57.7474 66.3714 57.7474 68.6534ZM63.4264 81.6753H34.6142V75.4778H46.1804V79.3522H60.0598V75.4778H63.4256C65.1482 75.4778 66.5508 76.8672 66.5508 78.5774C66.5516 80.286 65.149 81.6753 63.4264 81.6753Z" fill="#DDDDDF"/>
<rect width="16" height="16" rx="6" fill="#5171C0"/>
<path d="M11.7333 5.33353L9.59997 7.46686H11.2C11.2 8.31556 10.8628 9.12949 10.2627 9.7296C9.66259 10.3297 8.84866 10.6669 7.99997 10.6669C7.46663 10.6669 6.9493 10.5335 6.50663 10.2935L5.72797 11.0722C6.38397 11.4882 7.16263 11.7335 7.99997 11.7335C9.13156 11.7335 10.2168 11.284 11.017 10.4839C11.8171 9.6837 12.2666 8.59845 12.2666 7.46686H13.8666L11.7333 5.33353ZM4.79997 7.46686C4.79997 6.61817 5.13711 5.80424 5.73723 5.20412C6.33734 4.604 7.15127 4.26686 7.99997 4.26686C8.5333 4.26686 9.05063 4.4002 9.4933 4.6402L10.272 3.86153C9.61597 3.44553 8.8373 3.2002 7.99997 3.2002C6.86838 3.2002 5.78313 3.64972 4.98298 4.44987C4.18282 5.25003 3.7333 6.33527 3.7333 7.46686H2.1333L4.26663 9.6002L6.39997 7.46686" fill="white"/>
</svg>
