<svg width="40" height="40" viewBox="0 0 40 40" fill="none" xmlns="http://www.w3.org/2000/svg">
<mask id="SubscribePlusMask0" mask-type="alpha" maskUnits="userSpaceOnUse" x="11" y="9" width="18" height="21">
<path d="M18 28C18 29.11 18.9 30 20 30C20.5304 30 21.0391 29.7893 21.4142 29.4142C21.7893 29.0391 22 28.5304 22 28H18ZM26.88 23.82V18C26.88 14.75 24.63 12.03 21.59 11.31V10.59C21.59 10.1683 21.4225 9.76388 21.1243 9.4657C20.8261 9.16752 20.4217 9 20 9C19.5783 9 19.1739 9.16752 18.8757 9.4657C18.5775 9.76388 18.41 10.1683 18.41 10.59V11.31C15.37 12.03 13.12 14.75 13.12 18V23.82L11 25.94V27H29V25.94L26.88 23.82ZM24 20H21V23H19V20H16V18H19V15H21V18H24" fill="#9E9E9E"/>
</mask>
<g mask="url(#SubscribePlusMask0)">
<rect width="40" height="40" fill="#404B63"/>
</g>
</svg>
