<svg width="20" height="20" viewBox="0 0 20 20" fill="none" xmlns="http://www.w3.org/2000/svg">
<path d="M15 6.67969V5H5V6.67969H15ZM11.6797 11.6797V10H5V11.6797H11.6797ZM5 7.5V9.17969H15V7.5H5ZM16.6797 1.67969C17.1224 1.67969 17.5 1.84896 17.8125 2.1875C18.151 2.5 18.3203 2.8776 18.3203 3.32031V13.3203C18.3203 13.763 18.151 14.1536 17.8125 14.4922C17.5 14.8307 17.1224 15 16.6797 15H5L1.67969 18.3203V3.32031C1.67969 2.8776 1.83594 2.5 2.14844 2.1875C2.48698 1.84896 2.8776 1.67969 3.32031 1.67969H16.6797Z" fill="#878E95"/>
</svg>
