<svg width="61" height="76" viewBox="0 0 61 76" fill="none" xmlns="http://www.w3.org/2000/svg">
<g clip-path="url(#clip0)">
<g clip-path="url(#clip1)">
<path d="M56.513 0H5.537C4.121 0 3 1.121 3 2.537V38.94C3 40.297 4.121 41.477 5.537 41.477H26.069V46.079H21.526C20.818 46.079 20.287 46.669 20.287 47.318V49.678C20.287 50.386 20.877 50.917 21.526 50.917H40.583C41.291 50.917 41.822 50.327 41.822 49.678V47.318C41.822 46.61 41.232 46.079 40.583 46.079H36.04V41.477H56.572C57.988 41.477 59.109 40.356 59.109 38.94V2.537C59.05 1.121 57.929 0 56.513 0ZM31.025 38.704C30.081 38.704 29.255 37.937 29.255 36.934C29.255 35.99 30.022 35.164 31.025 35.164C31.969 35.164 32.795 35.931 32.795 36.934C32.795 37.937 31.969 38.704 31.025 38.704ZM54.507 32.627H7.543V4.543H54.507V32.627Z" fill="#DCDCDC"/>
<path d="M21.2904 25.8268C21.5292 26.0577 21.9589 26.0577 22.1976 25.8268L23.821 24.2567C24.0597 24.0258 24.0597 23.6101 23.821 23.3792L19.8103 19.5L23.821 15.6208C24.0597 15.3899 24.0597 14.9742 23.821 14.7433L22.1976 13.1732C21.9589 12.9423 21.5292 12.9423 21.2904 13.1732L15.179 19.0382C14.9403 19.2691 14.9403 19.6847 15.179 19.9156L21.2904 25.8268Z" fill="#5BB0B5"/>
<path d="M39.2256 24.2567L40.8404 25.8268C41.0778 26.0577 41.5053 26.0577 41.7427 25.8268L47.8219 19.9156C48.0594 19.6847 48.0594 19.2691 47.8219 19.0382L41.6953 13.1732C41.4578 12.9423 41.0303 12.9423 40.7929 13.1732L39.1781 14.7433C38.9406 14.9742 38.9406 15.3899 39.1781 15.6208L43.1675 19.5L39.1781 23.3792C38.9881 23.6101 38.9881 24.0258 39.2256 24.2567Z" fill="#5BB0B5"/>
<path d="M28.5582 26H30.2983C30.553 26 30.7652 25.8328 30.8076 25.6238L34.9669 13.7524C35.0942 13.3762 34.8396 13 34.4576 13H32.7175C32.4628 13 32.2506 13.1672 32.2082 13.3762L28.0489 25.2476C27.8791 25.6238 28.1762 26 28.5582 26Z" fill="#DCDCDC"/>
</g>
</g>
<defs>
<clipPath id="clip0">
<rect width="61" height="76" fill="white"/>
</clipPath>
<clipPath id="clip1">
<rect width="85.5072" height="85.5072" fill="white" transform="translate(2) scale(0.69)"/>
</clipPath>
</defs>
</svg>
