<svg width="61" height="76" viewBox="0 0 61 76" fill="none" xmlns="http://www.w3.org/2000/svg">
<g clip-path="url(#clip0)">
<g clip-path="url(#clip1)">
<g clip-path="url(#clip2)">
<path fill-rule="evenodd" clip-rule="evenodd" d="M23.6017 4C23.0033 4 22.5246 4.4009 22.5246 4.90203V6.80631C22.5246 7.40766 23.0033 7.80856 23.6017 7.80856V26.8514L10.5565 46.4955C7.20546 50.9055 9.4794 54.4134 15.7028 54.4134H47.2985C53.522 54.4134 55.7959 50.9055 52.4448 46.4955L39.3996 26.8514V7.80856C39.998 7.80856 40.4767 7.40766 40.4767 6.80631V4.90203C40.4767 4.4009 39.998 4 39.3996 4H23.6017ZM24.2001 34.669L14.865 48.7005L14.7454 48.8007C14.6257 49.0012 14.147 49.7028 14.0273 50.1037C14.3863 50.2039 15.4634 50.2039 15.7028 50.2039H47.2985C47.5379 50.2039 48.615 50.2039 48.9741 50.1037C48.8544 49.7028 48.3757 49.0012 48.1363 48.8007V48.6003L38.8012 34.669H24.2001ZM27.4315 7.20721V27.6532L13.7879 48.0992V48.1994C12.1124 50.4043 12.5911 51.2061 15.7028 51.2061H47.2985C50.4102 51.2061 50.889 50.4043 49.2134 48.1994V48.0992L35.4501 27.6532V7.20721H27.4315Z" fill="#DCDCDC"/>
<path d="M38.5 34.5H24.5L14.5 50H48.5L38.5 34.5Z" fill="#5BB0B5"/>
</g>
</g>
</g>
<defs>
<clipPath id="clip0">
<rect width="61" height="76" fill="white"/>
</clipPath>
<clipPath id="clip1">
<rect width="85.5072" height="85.5072" fill="white" transform="translate(2 4) scale(0.69)"/>
</clipPath>
<clipPath id="clip2">
<rect width="65.2174" height="73.0628" fill="white" transform="translate(9 4) scale(0.69)"/>
</clipPath>
</defs>
</svg>
