<svg width="477" height="678" viewBox="0 0 477 678" fill="none" xmlns="http://www.w3.org/2000/svg">
<path opacity="0.25" fill-rule="evenodd" clip-rule="evenodd" d="M367.467 521.418L136.902 603.88L136.464 602.514L367.029 520.052L367.467 521.418Z" fill="#DCDCDC"/>
<path d="M254 527H89V629.536H254V527Z" fill="white"/>
<path opacity="0.25" fill-rule="evenodd" clip-rule="evenodd" d="M251.569 260.328L390.895 461.694L389.689 462.47L250.362 261.105L251.569 260.328Z" fill="#DCDCDC"/>
<path d="M368.93 582.861C428.539 582.861 476.861 534.539 476.861 474.93C476.861 415.322 428.539 367 368.93 367C309.322 367 261 415.322 261 474.93C261 534.539 309.322 582.861 368.93 582.861Z" fill="white"/>
<g opacity="0.15">
<path d="M254 527H89V629.536H254V527Z" fill="white"/>
<path d="M254 527H89V629.536H254V527Z" fill="#62AC62" fill-opacity="0.15"/>
<path d="M128.739 596.754L142.099 588.693H154.056L165.757 596.187C168.064 597.653 169.967 599.673 171.295 602.062C172.622 604.451 173.331 607.135 173.358 609.868L173.839 628.976L132.753 629.351L124.296 614.781C122.554 611.819 122.027 608.296 122.825 604.953C123.623 601.61 125.685 598.706 128.578 596.85L128.739 596.754Z" fill="#62AC62" fill-opacity="0.5"/>
<path d="M127.346 578.952L135.236 569.317L148.585 565.399V586.039C148.585 587.503 148.296 588.953 147.736 590.306C147.175 591.658 146.353 592.887 145.317 593.922C144.281 594.957 143.051 595.778 141.698 596.337C140.345 596.897 138.895 597.184 137.43 597.183H135.996C133.888 597.179 131.825 596.578 130.045 595.449C128.264 594.321 126.84 592.711 125.938 590.807C125.035 588.902 124.69 586.781 124.943 584.688C125.196 582.596 126.037 580.618 127.367 578.984L127.346 578.952Z" fill="#5C94B9"/>
<path fill-rule="evenodd" clip-rule="evenodd" d="M136.248 604.752L137.118 604.129L148.433 619.92H170.371V620.99H147.884L136.248 604.752Z" fill="white"/>
<path d="M158.213 566.45C157.785 553.754 149.082 549.6 141.085 550.756C134.116 551.827 129.931 557.715 129.931 564.727C129.931 569.918 126.569 570.24 126.719 572.948C126.783 574.308 129.438 573.965 129.438 573.965C129.519 576.628 129.755 579.284 130.145 581.919C130.616 585.205 135.112 584.873 137.264 584.584C140.882 584.06 141.481 584.927 142.113 589.316H153.086C152.372 585.159 153.272 580.886 155.601 577.369C156.95 575.078 158.374 572.37 158.213 566.45Z" fill="#FCC190"/>
<path d="M166.046 578.952L158.167 569.317L144.818 565.399V586.039C144.819 587.506 145.11 588.959 145.674 590.314C146.238 591.669 147.063 592.899 148.104 593.934C149.144 594.97 150.378 595.789 151.736 596.347C153.093 596.904 154.548 597.188 156.015 597.183H157.46C159.567 597.177 161.629 596.574 163.408 595.445C165.186 594.316 166.608 592.706 167.51 590.802C168.412 588.898 168.756 586.777 168.502 584.686C168.249 582.594 167.408 580.617 166.078 578.984L166.046 578.952Z" fill="#5C94B9"/>
<mask id="mask0" mask-type="alpha" maskUnits="userSpaceOnUse" x="126" y="550" width="33" height="40">
<path d="M158.213 566.45C157.785 553.754 149.082 549.6 141.085 550.756C134.116 551.827 129.931 557.715 129.931 564.727C129.931 569.918 126.569 570.24 126.719 572.948C126.783 574.308 129.438 573.965 129.438 573.965C129.519 576.628 129.755 579.284 130.145 581.919C130.616 585.205 135.112 584.873 137.264 584.584C140.882 584.06 141.481 584.927 142.113 589.316H153.086C152.372 585.159 153.272 580.886 155.601 577.369C156.95 575.078 158.374 572.37 158.213 566.45Z" fill="#FCC190"/>
</mask>
<g mask="url(#mask0)">
<path d="M155.49 576.789L153.285 581.874L150.458 575.719C150.458 575.719 153.499 574.488 152.953 571.812V571.737C152.863 571.35 152.698 570.984 152.467 570.661C152.236 570.338 151.944 570.064 151.607 569.854C151.27 569.645 150.895 569.503 150.503 569.439C150.111 569.374 149.71 569.387 149.324 569.478C148.779 569.598 148.281 569.873 147.889 570.27L146.144 571.961C146.002 572.103 145.81 572.182 145.609 572.182C145.409 572.182 145.216 572.103 145.074 571.961C144.931 571.811 144.85 571.612 144.849 571.405V559.233C144.849 559.233 138.298 567.08 122.518 561.899C106.739 556.717 132.528 544.664 132.528 544.664H160.403V567.797L155.49 576.789Z" fill="#5C94B9"/>
<path d="M254 527H89V629.536H254V527Z" fill="white"/>
<path d="M306.528 527H89V662.178H306.528V527Z" fill="#62AC62" fill-opacity="0.15"/>
<path d="M128.739 596.754L142.099 588.693H154.056L165.757 596.187C168.064 597.653 169.967 599.673 171.295 602.062C172.622 604.451 173.331 607.135 173.358 609.868L173.839 628.976L132.753 629.351L124.296 614.781C122.554 611.819 122.027 608.296 122.825 604.953C123.623 601.61 125.685 598.706 128.578 596.85L128.739 596.754Z" fill="#62AC62" fill-opacity="0.5"/>
<path d="M127.346 578.952L135.236 569.317L148.585 565.399V586.039C148.585 587.503 148.296 588.953 147.736 590.306C147.175 591.658 146.353 592.887 145.317 593.922C144.281 594.957 143.051 595.778 141.698 596.337C140.345 596.897 138.895 597.184 137.43 597.183H135.996C133.888 597.179 131.825 596.578 130.045 595.449C128.264 594.321 126.84 592.711 125.938 590.807C125.035 588.902 124.69 586.781 124.943 584.688C125.196 582.596 126.037 580.618 127.367 578.984L127.346 578.952Z" fill="#5C94B9"/>
<path d="M158.213 566.45C157.785 553.754 149.082 549.6 141.085 550.756C134.116 551.827 129.931 557.715 129.931 564.727C129.931 569.918 126.569 570.24 126.719 572.948C126.783 574.308 129.438 573.965 129.438 573.965C129.519 576.628 129.755 579.284 130.145 581.919C130.616 585.205 135.112 584.873 137.264 584.584C140.882 584.06 141.481 584.927 142.113 589.316H153.086C152.372 585.159 153.272 580.886 155.601 577.369C156.95 575.078 158.374 572.37 158.213 566.45Z" fill="#FCC190"/>
<path d="M166.046 578.952L158.167 569.317L144.818 565.399V586.039C144.819 587.506 145.11 588.959 145.674 590.314C146.238 591.669 147.063 592.899 148.104 593.934C149.144 594.97 150.378 595.789 151.736 596.347C153.093 596.904 154.548 597.188 156.015 597.183H157.46C159.567 597.177 161.629 596.574 163.408 595.445C165.186 594.316 166.608 592.706 167.51 590.802C168.412 588.898 168.756 586.777 168.502 584.686C168.249 582.594 167.408 580.617 166.078 578.984L166.046 578.952Z" fill="#5C94B9"/>
</g>
<mask id="mask1" mask-type="alpha" maskUnits="userSpaceOnUse" x="126" y="550" width="33" height="40">
<path d="M158.213 566.45C157.785 553.754 149.082 549.6 141.085 550.756C134.116 551.827 129.931 557.715 129.931 564.727C129.931 569.918 126.569 570.24 126.719 572.948C126.783 574.308 129.438 573.965 129.438 573.965C129.519 576.628 129.755 579.284 130.145 581.919C130.616 585.205 135.112 584.873 137.264 584.584C140.882 584.06 141.481 584.927 142.113 589.316H153.086C152.372 585.159 153.272 580.886 155.601 577.369C156.95 575.078 158.374 572.37 158.213 566.45Z" fill="#FCC190"/>
</mask>
<g mask="url(#mask1)">
<path d="M155.49 576.789L153.285 581.874L150.458 575.719C150.458 575.719 153.499 574.488 152.953 571.812V571.737C152.863 571.35 152.698 570.984 152.467 570.661C152.236 570.338 151.944 570.064 151.607 569.854C151.27 569.645 150.895 569.503 150.503 569.439C150.111 569.374 149.71 569.387 149.324 569.478C148.779 569.598 148.281 569.873 147.889 570.27L146.144 571.961C146.002 572.103 145.81 572.182 145.609 572.182C145.409 572.182 145.216 572.103 145.074 571.961C144.931 571.811 144.85 571.612 144.849 571.405V559.233C144.849 559.233 138.298 567.08 122.518 561.899C106.739 556.717 132.528 544.664 132.528 544.664H160.403V567.797L155.49 576.789Z" fill="#5C94B9"/>
</g>
<path d="M234.051 582.936H173.428V628.807H234.051V582.936Z" fill="white"/>
<path d="M203.734 612.182C207.216 612.182 210.039 609.359 210.039 605.877C210.039 602.395 207.216 599.572 203.734 599.572C200.251 599.572 197.428 602.395 197.428 605.877C197.428 609.359 200.251 612.182 203.734 612.182Z" fill="#80C480"/>
</g>
<g opacity="0.15">
<path d="M368.93 581.861C428.539 581.861 476.861 533.539 476.861 473.93C476.861 414.322 428.539 366 368.93 366C309.322 366 261 414.322 261 473.93C261 533.539 309.322 581.861 368.93 581.861Z" fill="white"/>
<path d="M369.014 582.113C428.623 582.113 476.945 533.791 476.945 474.183C476.945 414.574 428.623 366.252 369.014 366.252C309.406 366.252 261.084 414.574 261.084 474.183C261.084 533.791 309.406 582.113 369.014 582.113Z" fill="#5C94B9" fill-opacity="0.2"/>
<path d="M316.729 450.658C320.633 455.033 335.397 464.469 339.721 460.566C344.045 456.662 339.208 443.148 335.305 438.814C331.401 434.48 321.913 431.795 317.549 435.74C315.469 437.614 314.215 440.234 314.061 443.03C313.908 445.825 314.867 448.567 316.729 450.658V450.658Z" fill="white"/>
<path d="M393.001 469.429L350.491 493.353L342.509 453.875L325.88 457.461L331.751 509.603C332.017 511.733 332.7 513.789 333.761 515.655C334.822 517.52 336.241 519.158 337.936 520.475C339.63 521.792 341.568 522.762 343.638 523.33C345.708 523.898 347.869 524.052 349.999 523.783C351.913 523.549 353.77 522.973 355.48 522.082L405.685 498.64" fill="url(#paint0_linear)"/>
<path d="M393.001 469.429L350.491 493.353L342.509 453.875L325.88 457.461L331.751 509.603C332.017 511.733 332.7 513.789 333.761 515.655C334.822 517.52 336.241 519.158 337.936 520.475C339.63 521.792 341.568 522.762 343.638 523.33C345.708 523.898 347.869 524.052 349.999 523.783C351.913 523.549 353.77 522.973 355.48 522.082L405.685 498.64" fill="white"/>
<path d="M324.045 461.775C322.958 461.775 321.915 461.343 321.147 460.574C320.378 459.806 319.946 458.763 319.946 457.676V424.428H328.205V457.646C328.205 458.733 327.773 459.775 327.004 460.544C326.236 461.312 325.193 461.744 324.106 461.744L324.045 461.775Z" fill="white"/>
<path d="M324.045 461.775C322.958 461.775 321.915 461.343 321.147 460.574C320.378 459.806 319.946 458.763 319.946 457.676V430.689H328.205V457.646C328.205 458.733 327.773 459.775 327.004 460.544C326.236 461.312 325.193 461.744 324.106 461.744L324.045 461.775Z" fill="#62AC62"/>
<path d="M335.376 438.814L329.28 434.951C328.966 434.752 328.616 434.618 328.249 434.554C327.883 434.491 327.508 434.501 327.145 434.583C326.783 434.664 326.44 434.817 326.136 435.031C325.833 435.246 325.575 435.518 325.376 435.832C325.326 435.904 325.281 435.979 325.243 436.058V436.058C324.95 436.643 324.869 437.312 325.013 437.95C325.156 438.589 325.517 439.158 326.032 439.562L331.544 443.824L333.675 451.088L339.065 447.677L335.376 438.814Z" fill="white"/>
<path d="M423.225 426.57C422.498 403.004 406.34 395.248 391.463 397.42C378.512 399.306 370.746 410.33 370.746 423.353C370.08 433.015 362.651 438.64 366.053 439.91C367.272 440.241 368.522 440.44 369.783 440.504C369.926 445.457 370.357 450.397 371.074 455.299C371.924 461.447 380.295 460.771 384.393 460.187C391.125 459.162 392.231 460.812 393.42 468.947H413.779C412.441 461.257 414.067 453.345 418.328 446.806C420.899 442.605 423.604 437.554 423.225 426.57Z" fill="#BC9779"/>
<mask id="mask2" mask-type="alpha" maskUnits="userSpaceOnUse" x="261" y="367" width="216" height="216">
<path d="M368.93 582.87C428.539 582.87 476.861 534.548 476.861 474.94C476.861 415.332 428.539 367.01 368.93 367.01C309.322 367.01 261 415.332 261 474.94C261 534.548 309.322 582.87 368.93 582.87Z" fill="#5C94B9"/>
</mask>
<g mask="url(#mask2)">
<path d="M393.359 468.957H413.727L423.43 473.67C430.989 477.348 437.361 483.076 441.819 490.201C446.278 497.327 448.643 505.562 448.646 513.968V590.627H369.014V505.453C369.019 498.611 370.826 491.89 374.254 485.969C377.683 480.047 382.611 475.134 388.543 471.724L393.359 468.957Z" fill="white"/>
<path fill-rule="evenodd" clip-rule="evenodd" d="M376.645 425.23C375.985 425.975 375.493 427.162 375.493 428.855C375.493 430.559 375.999 432.14 376.761 433.259C377.535 434.396 378.439 434.895 379.228 434.895C380.016 434.895 380.921 434.396 381.694 433.259C382.456 432.14 382.962 430.559 382.962 428.855C382.962 427.174 382.471 425.985 381.809 425.237C381.155 424.496 380.257 424.095 379.228 424.095C378.194 424.095 377.298 424.493 376.645 425.23ZM374.567 423.389C375.768 422.033 377.433 421.319 379.228 421.319C381.026 421.319 382.69 422.041 383.89 423.398C384.299 423.86 384.645 424.386 384.923 424.967H402.733V427.744H385.682C385.72 428.103 385.739 428.474 385.739 428.855C385.739 431.075 385.088 433.208 383.99 434.821C382.903 436.418 381.247 437.671 379.228 437.671C377.209 437.671 375.552 436.418 374.466 434.821C373.368 433.208 372.716 431.075 372.716 428.855C372.716 428.673 372.721 428.494 372.729 428.318C371.857 428.239 370.975 428.296 370.116 428.488C369.368 428.656 368.626 428.185 368.459 427.436C368.291 426.688 368.762 425.946 369.511 425.779C370.746 425.502 372.016 425.437 373.268 425.582C373.578 424.749 374.015 424.011 374.567 423.389Z" fill="white"/>
<path d="M376.645 425.23L376.832 425.396L376.832 425.396L376.645 425.23ZM376.761 433.259L376.555 433.4L376.555 433.4L376.761 433.259ZM381.694 433.259L381.901 433.4L381.901 433.4L381.694 433.259ZM381.809 425.237L381.622 425.402L381.622 425.402L381.809 425.237ZM374.567 423.389L374.754 423.554L374.754 423.554L374.567 423.389ZM383.89 423.398L383.702 423.563L383.702 423.563L383.89 423.398ZM384.923 424.967L384.697 425.075L384.765 425.217H384.923V424.967ZM402.733 424.967H402.983V424.717H402.733V424.967ZM402.733 427.744V427.994H402.983V427.744H402.733ZM385.682 427.744V427.494H385.404L385.433 427.77L385.682 427.744ZM383.99 434.821L384.196 434.962L384.196 434.962L383.99 434.821ZM374.466 434.821L374.259 434.962L374.259 434.962L374.466 434.821ZM372.729 428.318L372.979 428.33L372.991 428.09L372.752 428.069L372.729 428.318ZM370.116 428.488L370.062 428.244L370.062 428.244L370.116 428.488ZM368.459 427.436L368.703 427.382L368.459 427.436ZM369.511 425.779L369.456 425.535L369.456 425.535L369.511 425.779ZM373.268 425.582L373.239 425.83L373.434 425.853L373.502 425.669L373.268 425.582ZM375.743 428.855C375.743 427.211 376.22 426.086 376.832 425.396L376.458 425.064C375.75 425.863 375.243 427.113 375.243 428.855H375.743ZM376.968 433.119C376.236 432.044 375.743 430.513 375.743 428.855H375.243C375.243 430.605 375.763 432.236 376.555 433.4L376.968 433.119ZM379.228 434.645C378.549 434.645 377.712 434.213 376.968 433.119L376.555 433.4C377.357 434.579 378.329 435.145 379.228 435.145V434.645ZM381.487 433.119C380.743 434.213 379.906 434.645 379.228 434.645V435.145C380.126 435.145 381.099 434.579 381.901 433.4L381.487 433.119ZM382.712 428.855C382.712 430.513 382.219 432.044 381.487 433.119L381.901 433.4C382.693 432.236 383.212 430.605 383.212 428.855H382.712ZM381.622 425.402C382.236 426.097 382.712 427.223 382.712 428.855H383.212C383.212 427.125 382.706 425.874 381.997 425.071L381.622 425.402ZM379.228 424.345C380.188 424.345 381.016 424.717 381.622 425.402L381.997 425.071C381.293 424.275 380.327 423.845 379.228 423.845V424.345ZM376.832 425.396C377.435 424.715 378.263 424.345 379.228 424.345V423.845C378.126 423.845 377.16 424.272 376.458 425.064L376.832 425.396ZM379.228 421.069C377.365 421.069 375.631 421.811 374.38 423.223L374.754 423.554C375.906 422.254 377.502 421.569 379.228 421.569V421.069ZM384.077 423.232C382.828 421.819 381.095 421.069 379.228 421.069V421.569C380.957 421.569 382.552 422.262 383.702 423.563L384.077 423.232ZM385.148 424.859C384.861 424.258 384.502 423.713 384.077 423.232L383.702 423.563C384.096 424.008 384.429 424.514 384.697 425.075L385.148 424.859ZM384.923 425.217H402.733V424.717H384.923V425.217ZM402.483 424.967V427.744H402.983V424.967H402.483ZM402.733 427.494H385.682V427.994H402.733V427.494ZM385.989 428.855C385.989 428.466 385.969 428.086 385.93 427.717L385.433 427.77C385.47 428.121 385.489 428.483 385.489 428.855H385.989ZM384.196 434.962C385.325 433.304 385.989 431.121 385.989 428.855H385.489C385.489 431.028 384.851 433.112 383.783 434.681L384.196 434.962ZM379.228 437.921C381.358 437.921 383.082 436.599 384.196 434.962L383.783 434.681C382.725 436.236 381.135 437.421 379.228 437.421V437.921ZM374.259 434.962C375.373 436.599 377.097 437.921 379.228 437.921V437.421C377.32 437.421 375.731 436.236 374.672 434.681L374.259 434.962ZM372.466 428.855C372.466 431.121 373.131 433.304 374.259 434.962L374.672 434.681C373.605 433.112 372.966 431.028 372.966 428.855H372.466ZM372.48 428.305C372.471 428.486 372.466 428.669 372.466 428.855H372.966C372.966 428.677 372.971 428.502 372.979 428.33L372.48 428.305ZM370.171 428.732C371.005 428.546 371.86 428.491 372.707 428.567L372.752 428.069C371.854 427.988 370.946 428.047 370.062 428.244L370.171 428.732ZM368.215 427.491C368.412 428.374 369.288 428.93 370.171 428.732L370.062 428.244C369.448 428.381 368.84 427.995 368.703 427.382L368.215 427.491ZM369.456 425.535C368.573 425.732 368.017 426.608 368.215 427.491L368.703 427.382C368.565 426.768 368.952 426.16 369.565 426.023L369.456 425.535ZM373.297 425.334C372.017 425.185 370.719 425.252 369.456 425.535L369.565 426.023C370.773 425.753 372.015 425.688 373.239 425.83L373.297 425.334ZM374.38 423.223C373.806 423.87 373.354 424.635 373.034 425.495L373.502 425.669C373.802 424.863 374.224 424.152 374.754 423.554L374.38 423.223Z" fill="#5C94B9"/>
<path opacity="0.3" fill-rule="evenodd" clip-rule="evenodd" d="M343.858 453.523C344.036 454.269 343.575 455.018 342.829 455.195L333.024 457.531C332.278 457.709 331.53 457.249 331.352 456.503C331.174 455.757 331.635 455.008 332.381 454.83L342.186 452.494C342.932 452.317 343.681 452.777 343.858 453.523Z" fill="#5C94B9"/>
<path opacity="0.3" fill-rule="evenodd" clip-rule="evenodd" d="M420.051 494.595C420.674 494.595 421.179 495.407 421.179 496.408V542.414C421.179 543.416 420.674 544.228 420.051 544.228C419.428 544.228 418.923 543.416 418.923 542.414V496.408C418.923 495.407 419.428 494.595 420.051 494.595Z" fill="#5C94B9"/>
</g>
<mask id="mask3" mask-type="alpha" maskUnits="userSpaceOnUse" x="365" y="396" width="59" height="73">
<path d="M423.262 425.997C422.535 402.431 406.377 394.675 391.5 396.847C378.549 398.733 370.783 409.757 370.783 422.78C370.117 432.442 362.689 438.067 366.09 439.337C367.309 439.668 368.559 439.867 369.82 439.931C369.963 444.884 370.394 449.824 371.111 454.727C371.961 460.874 380.332 460.198 384.43 459.614C391.162 458.589 392.268 460.239 393.457 468.374H413.816C412.478 460.684 414.104 452.773 418.365 446.233C420.937 442.032 423.641 436.981 423.262 425.997Z" fill="#BC9779"/>
</mask>
<g mask="url(#mask3)">
<path d="M418.303 446.264L414.204 455.721L409.02 444.358C409.02 444.358 414.676 442.053 413.661 437.094V436.909C413.429 435.946 412.946 435.061 412.261 434.345C411.577 433.628 410.715 433.105 409.764 432.829C408.812 432.552 407.805 432.532 406.843 432.77C405.881 433.008 404.999 433.495 404.286 434.184L401.1 437.36C400.967 437.498 400.808 437.607 400.632 437.682C400.456 437.756 400.266 437.795 400.075 437.795C399.884 437.795 399.695 437.756 399.519 437.682C399.343 437.607 399.183 437.498 399.051 437.36C398.919 437.225 398.816 437.064 398.747 436.888C398.678 436.712 398.646 436.524 398.651 436.335V413.661H369.399L375.669 386.591H427.493V429.542L418.303 446.264Z" fill="#62AC62"/>
</g>
</g>
<path d="M191.5 383C297.263 383 383 297.263 383 191.5C383 85.7375 297.263 0 191.5 0C85.7375 0 0 85.7375 0 191.5C0 297.263 85.7375 383 191.5 383Z" fill="white"/>
<g opacity="0.15">
<mask id="mask4" mask-type="alpha" maskUnits="userSpaceOnUse" x="0" y="0" width="383" height="383">
<path d="M191.5 383C297.263 383 383 297.263 383 191.5C383 85.7375 297.263 0 191.5 0C85.7375 0 0 85.7375 0 191.5C0 297.263 85.7375 383 191.5 383Z" fill="#62AC62"/>
</mask>
<g mask="url(#mask4)">
<path d="M191.5 383C297.263 383 383 297.263 383 191.5C383 85.7375 297.263 0 191.5 0C85.7375 0 0 85.7375 0 191.5C0 297.263 85.7375 383 191.5 383Z" fill="white"/>
<path d="M191.5 383C297.263 383 383 297.263 383 191.5C383 85.7375 297.263 0 191.5 0C85.7375 0 0 85.7375 0 191.5C0 297.263 85.7375 383 191.5 383Z" fill="#62AC62" fill-opacity="0.25"/>
<path d="M264.213 138.021H313.474C313.624 138.016 313.773 138.04 313.913 138.093C314.053 138.145 314.182 138.225 314.291 138.327C314.4 138.429 314.488 138.552 314.55 138.688C314.612 138.824 314.647 138.971 314.652 139.121C314.658 139.293 314.625 139.465 314.555 139.623L289.953 207.156C289.771 207.626 289.457 208.033 289.05 208.331C288.644 208.628 288.16 208.803 287.657 208.835H238.377C238.227 208.846 238.077 208.826 237.935 208.779C237.793 208.731 237.662 208.656 237.549 208.557C237.436 208.458 237.343 208.338 237.277 208.204C237.21 208.07 237.171 207.923 237.161 207.774C237.158 207.56 237.204 207.349 237.296 207.156L261.917 139.623C262.11 139.166 262.428 138.773 262.834 138.49C263.24 138.207 263.719 138.044 264.213 138.021V138.021Z" fill="#62AC62" fill-opacity="0.6"/>
<path d="M301.183 133.621H279.225L275.424 144.079H297.382L301.183 133.621Z" fill="#62AC62"/>
<path d="M287.964 198.318H245.958L265.716 144.079H307.722L287.964 198.318Z" fill="white"/>
<path d="M100.375 119.633C101.398 86.3094 124.244 75.3882 145.276 78.4369C163.587 81.0997 174.547 96.6903 174.547 115.098C175.512 128.74 186.008 136.67 181.204 138.503C179.482 138.969 177.717 139.253 175.936 139.352C175.73 146.328 175.118 153.287 174.103 160.191C172.849 168.816 161.04 167.91 155.348 167.118C145.816 165.729 147.938 168.006 146.24 179.506H113.728C115.634 168.651 113.344 157.478 107.322 148.248C103.636 142.305 99.893 135.165 100.375 119.633Z" fill="#FCC190"/>
<path d="M123.434 156.775C152.377 127.832 163.954 91.0168 163.954 87.6402C159.69 81.2341 126.579 63.1736 102.537 86.714C77.4529 111.316 88.3934 142.304 88.3934 142.304C88.3934 142.304 50.4973 127.678 50.4973 156.467C50.4973 169.973 62.0745 174.354 74.3464 175.299C83.3779 175.909 92.4349 174.57 100.904 171.374C109.373 168.178 117.057 163.2 123.434 156.775Z" fill="#5C94B9"/>
<path d="M171.845 186.413L241.154 255.741C245.749 260.353 248.329 266.597 248.329 273.107C248.329 279.617 245.749 285.862 241.154 290.473C236.543 295.068 230.298 297.649 223.788 297.649C217.278 297.649 211.033 295.068 206.422 290.473L137.036 221.145L171.768 186.413H171.845Z" fill="white"/>
<path d="M296.588 207.388L242.33 288.988C239.072 293.882 234.004 297.282 228.24 298.44C222.475 299.598 216.487 298.419 211.592 295.162C210.368 294.355 209.23 293.424 208.196 292.384V292.384C204.044 288.227 201.712 282.591 201.712 276.716C201.712 270.84 204.044 265.205 208.196 261.048L279.242 189.983L296.588 207.388Z" fill="white"/>
<path d="M180.547 206.694C176.688 184.581 168.7 179.545 146.24 179.545H111.393C88.9331 179.545 67.8433 195.155 61.0513 249.973L27.3423 517.33H219.563L180.547 206.694Z" fill="white"/>
<path opacity="0.3" d="M195.538 287.676L170.281 261.241C170.056 261.017 169.878 260.751 169.756 260.458C169.635 260.165 169.572 259.851 169.572 259.533C169.572 259.216 169.635 258.902 169.756 258.609C169.878 258.316 170.056 258.05 170.281 257.826C170.735 257.383 171.344 257.135 171.979 257.135C172.613 257.135 173.223 257.383 173.677 257.826L199.07 284.338L195.538 287.676Z" fill="#62AC62"/>
</g>
</g>
<defs>
<linearGradient id="paint0_linear" x1="325.88" y1="488.865" x2="405.654" y2="488.865" gradientUnits="userSpaceOnUse">
<stop stop-color="white"/>
<stop offset="0.81" stop-color="#5C94B9"/>
</linearGradient>
</defs>
</svg>
