<svg width="72" height="64" viewBox="0 0 72 64" fill="none" xmlns="http://www.w3.org/2000/svg">
<path d="M19.4589 25.2468L11.3827 17.3076C10.8262 16.7606 10.8262 15.8738 11.3827 15.3268C11.9392 14.7797 12.8412 14.7797 13.3977 15.3268L21.4739 23.266C22.0303 23.813 22.0303 24.6998 21.4739 25.2468C20.9174 25.7938 20.0152 25.7938 19.4589 25.2468Z" fill="#F47E6C"/>
<path d="M21.4373 23.282L17.3993 19.3125L15.3843 21.2933L19.4223 25.2628C19.9788 25.8098 20.8808 25.8098 21.4373 25.2628C21.9937 24.7159 21.9937 23.829 21.4373 23.282Z" fill="#FCCB6F"/>
<path d="M31.9656 12.9524L23.8895 5.01317C23.3331 4.46613 23.3331 3.57939 23.8895 3.03235C24.4459 2.48531 25.348 2.48531 25.9045 3.03235L33.9806 10.9716C34.5371 11.5186 34.5371 12.4053 33.9806 12.9524C33.4242 13.4994 32.522 13.4994 31.9656 12.9524Z" fill="#F47E6C"/>
<path d="M33.9446 10.9871L29.9066 7.01758L27.8916 8.9984L31.9296 12.9679C32.486 13.515 33.3881 13.515 33.9446 12.9679C34.5011 12.421 34.5009 11.5341 33.9446 10.9871Z" fill="#FCCB6F"/>
<path d="M11.1767 33.3689L3.10095 25.4301C2.54447 24.8831 2.54447 23.9964 3.10095 23.4493C3.65743 22.9023 4.55947 22.9023 5.11594 23.4493L13.1916 31.388C13.7481 31.9351 13.7481 32.8218 13.1916 33.3688C12.6354 33.9159 11.7332 33.9159 11.1767 33.3689Z" fill="#63DBD0"/>
<path d="M13.1915 31.3878L9.15366 27.4185L7.13867 29.3993L11.1765 33.3687C11.7329 33.9156 12.6351 33.9156 13.1915 33.3687C13.7479 32.8216 13.7479 31.9347 13.1915 31.3878Z" fill="#7692D9"/>
<path d="M23.683 21.0742L15.6068 13.135C15.0503 12.588 15.0503 11.7012 15.6068 11.1542C16.1633 10.6071 17.0653 10.6071 17.6218 11.1542L25.698 19.0934C26.2545 19.6403 26.2545 20.5272 25.698 21.0742C25.1416 21.6212 24.2394 21.6212 23.683 21.0742Z" fill="#63DBD0"/>
<path d="M25.6985 19.0936L21.6605 15.124L19.6455 17.1048L23.6835 21.0743C24.2399 21.6213 25.142 21.6213 25.6985 21.0743C26.2548 20.5273 26.2548 19.6405 25.6985 19.0936Z" fill="#7692D9"/>
<path d="M26.5117 13.7674C29.2 14.0799 33.8607 14.1373 36.6278 11.4173C37.1842 10.8702 37.1842 9.98349 36.6278 9.43645C36.0714 8.88941 35.1693 8.88941 34.6128 9.43645C32.6607 11.3555 28.71 11.3042 25.9836 10.8644C25.5997 8.61465 25.3858 4.4163 27.446 2.3911C28.0024 1.84406 28.0024 0.957317 27.446 0.410279C26.8895 -0.13676 25.9875 -0.13676 25.431 0.410279C22.6639 3.13046 22.7224 7.71218 23.0403 10.3548C13.956 9.29896 9.43616 13.5268 10.5335 22.6496C7.84517 22.3371 3.18433 22.2796 0.417357 24.9997C-0.139119 25.5467 -0.139119 26.4335 0.417357 26.9805C0.973833 27.5275 1.87587 27.5275 2.43235 26.9805C4.38034 25.0656 8.32075 25.1116 11.0532 25.5513C11.5001 28.2362 11.5478 32.1105 9.59932 34.0259C9.04285 34.573 9.04285 35.4597 9.59932 36.0067C10.1558 36.5538 11.0578 36.5537 11.6143 36.0067C14.3814 33.2866 14.3229 28.7049 14.005 26.0622C23.0892 27.1181 27.6089 22.8903 26.5117 13.7674ZM23.5599 13.2565C24.8447 20.9754 21.8868 23.4313 16.4613 23.4116C15.2724 23.4073 14.1966 23.2749 13.4851 23.1605C13.3686 22.4608 13.234 21.4035 13.2297 20.2348C13.2101 15.03 15.5695 11.9708 23.5599 13.2565Z" fill="#9DA3B3"/>
<path d="M14.0048 26.0623C23.0893 27.1182 27.609 22.8904 26.5116 13.7676C29.2 14.0801 33.8607 14.1375 36.6278 11.4175C37.1842 10.8704 37.1842 9.98368 36.6278 9.43665C36.0714 8.88961 35.1693 8.88961 34.6128 9.43665C32.6627 11.3537 28.7182 11.3044 25.9919 10.8659L23.5597 13.2568C24.8445 20.9757 21.8866 23.4315 16.4611 23.4118C15.2722 23.4076 14.1964 23.2752 13.4849 23.1608L11.0529 25.5515C11.4998 28.2365 11.5474 32.1108 9.599 34.0262C9.04252 34.5732 9.04252 35.46 9.599 36.007C10.1555 36.5541 11.0575 36.554 11.614 36.007C14.3812 33.2868 14.3226 28.705 14.0048 26.0623Z" fill="#9DA3B3"/>
<path d="M53.9926 52.8298L45.9164 44.8906C45.3599 44.3436 45.3599 43.4568 45.9164 42.9098C46.4729 42.3628 47.3749 42.3628 47.9314 42.9098L56.0075 50.849C56.564 51.396 56.564 52.2828 56.0075 52.8298C55.4511 53.3768 54.5489 53.3768 53.9926 52.8298Z" fill="#907FBA"/>
<path d="M55.9715 50.8646L51.9334 46.895L49.9185 48.8758L53.9565 52.8454C54.5129 53.3923 55.415 53.3923 55.9715 52.8454C56.5279 52.2984 56.5279 51.4115 55.9715 50.8646Z" fill="#73C8CC"/>
<path d="M66.4984 40.5349L58.4222 32.5957C57.8658 32.0486 57.8658 31.1619 58.4222 30.6149C58.9787 30.0678 59.8807 30.0678 60.4372 30.6149L68.5134 38.5541C69.0698 39.1011 69.0698 39.9878 68.5134 40.5349C67.9569 41.0819 67.0548 41.0819 66.4984 40.5349Z" fill="#907FBA"/>
<path d="M68.4778 38.5699L64.4398 34.6003L62.4248 36.5812L66.4628 40.5507C67.0192 41.0977 67.9213 41.0977 68.4778 40.5507C69.0343 40.0037 69.0341 39.1169 68.4778 38.5699Z" fill="#73C8CC"/>
<path d="M45.7104 60.9519L37.6346 53.0131C37.0782 52.4661 37.0782 51.5794 37.6346 51.0323C38.1911 50.4853 39.0932 50.4854 39.6496 51.0323L47.7253 58.971C48.2818 59.5181 48.2818 60.4048 47.7253 60.9518C47.169 61.4989 46.2669 61.4989 45.7104 60.9519Z" fill="#87C987"/>
<path d="M47.7252 58.9706L43.6874 55.0012L41.6724 56.982L45.7102 60.9514C46.2666 61.4984 47.1688 61.4984 47.7252 60.9514C48.2816 60.4044 48.2816 59.5175 47.7252 58.9706Z" fill="#E566A1"/>
<path d="M58.2167 48.6572L50.1405 40.718C49.584 40.171 49.584 39.2842 50.1405 38.7372C50.697 38.1901 51.599 38.1901 52.1555 38.7372L60.2317 46.6764C60.7881 47.2234 60.7881 48.1102 60.2317 48.6572C59.6753 49.2042 58.7731 49.2042 58.2167 48.6572Z" fill="#87C987"/>
<path d="M60.2322 46.6763L56.1942 42.7068L54.1792 44.6875L58.2172 48.6571C58.7736 49.204 59.6757 49.204 60.2322 48.6571C60.7885 48.1101 60.7885 47.2233 60.2322 46.6763Z" fill="#E566A1"/>
<path d="M61.0454 41.3499C63.7337 41.6624 68.3944 41.7198 71.1615 38.9998C71.7179 38.4527 71.7179 37.566 71.1615 37.019C70.6051 36.4719 69.703 36.4719 69.1465 37.019C67.1944 38.938 63.2436 38.8867 60.5173 38.4469C60.1334 36.1972 59.9195 31.9988 61.9797 29.9736C62.5361 29.4266 62.5361 28.5398 61.9797 27.9928C61.4232 27.4458 60.5212 27.4458 59.9647 27.9928C57.1976 30.713 57.2561 35.2947 57.574 37.9374C48.4897 36.8815 43.9699 41.1093 45.0672 50.2321C42.3789 49.9196 37.718 49.8622 34.951 52.5822C34.3946 53.1292 34.3946 54.016 34.951 54.563C35.5075 55.11 36.4096 55.11 36.966 54.563C38.914 52.6481 42.8544 52.6941 45.5869 53.1338C46.0338 55.8187 46.0814 59.6931 44.133 61.6085C43.5765 62.1555 43.5765 63.0422 44.133 63.5893C44.6895 64.1363 45.5915 64.1362 46.148 63.5893C48.9151 60.8691 48.8566 56.2874 48.5387 53.6447C57.6229 54.7006 62.1426 50.4728 61.0454 41.3499ZM58.0936 40.8391C59.3784 48.5579 56.4205 51.0138 50.9949 50.9941C49.8061 50.9898 48.7303 50.8575 48.0188 50.743C47.9023 50.0433 47.7677 48.986 47.7634 47.8173C47.7438 42.6125 50.1032 39.5534 58.0936 40.8391Z" fill="#9DA3B3"/>
<path d="M48.5385 53.6448C57.623 54.7007 62.1427 50.4729 61.0453 41.3501C63.7337 41.6626 68.3944 41.72 71.1615 39C71.7179 38.4529 71.7179 37.5662 71.1615 37.0192C70.6051 36.4721 69.703 36.4721 69.1465 37.0192C67.1964 38.9362 63.2519 38.887 60.5256 38.4484L58.0934 40.8393C59.3782 48.5582 56.4203 51.0141 50.9948 50.9944C49.8059 50.9901 48.7301 50.8577 48.0186 50.7433L45.5866 53.1341C46.0335 55.819 46.0811 59.6933 44.1327 61.6087C43.5762 62.1558 43.5762 63.0425 44.1327 63.5895C44.6892 64.1366 45.5912 64.1365 46.1477 63.5895C48.9149 60.8693 48.8563 56.2876 48.5385 53.6448Z" fill="#9DA3B3"/>
<path d="M63.1276 16.6907C62.9102 16.2306 62.4213 15.9328 61.9051 15.9328H60.4653C60.1124 12.874 58.6454 10.0768 56.4722 8.12776C54.299 6.20594 51.4737 5.01489 48.3227 5.01489H42.7992C42.0385 5.01489 41.4409 5.61032 41.4409 6.36835C41.4409 7.1262 42.0385 7.72181 42.7992 7.72181C47.5802 7.72181 51.6367 11.3581 52.2889 15.9328H51.0392C50.5231 15.9328 50.0341 16.2306 49.8168 16.6907C49.5994 17.1779 49.6538 17.7193 49.9798 18.1254L55.4127 24.8927C55.6573 25.2175 56.0647 25.407 56.4722 25.407C56.8796 25.407 57.2871 25.2175 57.5316 24.8927L62.9646 18.1254C63.2906 17.7193 63.345 17.1779 63.1276 16.6907Z" fill="#F89C55"/>
<path d="M31.1331 54.6442C26.3521 54.6442 22.2956 51.0079 21.6434 46.4332H22.8931C23.4092 46.4332 23.8982 46.1355 24.1155 45.6752C24.3329 45.188 24.2785 44.6466 23.9525 44.2406L18.5195 37.4733C18.275 37.1485 17.8676 36.9861 17.4601 36.9861C17.0526 36.9861 16.6452 37.1485 16.4007 37.4733L10.9677 44.2406C10.6417 44.6466 10.5874 45.188 10.8047 45.6752C11.022 46.1355 11.511 46.4332 12.0271 46.4332H13.467C13.8199 49.4921 15.2869 52.2892 17.4601 54.2381C19.6333 56.1601 22.4585 57.3512 25.6096 57.3512H31.1331C31.8938 57.3512 32.4914 56.7555 32.4914 55.9977C32.4914 55.2397 31.8938 54.6442 31.1331 54.6442Z" fill="#F89C55"/>
</svg>