<svg width="24" height="32" viewBox="0 0 24 32" fill="none" xmlns="http://www.w3.org/2000/svg">
<path d="M22.9091 0H0.363636C0.162909 0 0 0.162909 0 0.363636V31.6364C0 31.8371 0.162909 32 0.363636 32H22.9091C23.1098 32 23.2727 31.8371 23.2727 31.6364V0.363636C23.2727 0.162909 23.1098 0 22.9091 0ZM22.5455 31.2727H0.727273V0.727273H22.5455V31.2727Z" fill="#DDDDDF"/>
<path d="M4.36373 18.9091C4.93972 18.9091 5.43282 18.5717 5.66845 18.0862L9.09791 18.772C9.09536 18.8178 9.091 18.8629 9.091 18.9091C9.091 19.6106 9.375 20.2458 9.83391 20.7062L7.59573 23.6906C7.49318 23.6586 7.38627 23.6364 7.27282 23.6364C6.67027 23.6364 6.18191 24.1248 6.18191 24.7273C6.18191 25.3298 6.67027 25.8182 7.27282 25.8182C7.87536 25.8182 8.36372 25.3298 8.36372 24.7273C8.36372 24.5037 8.29609 24.296 8.18045 24.1229L10.4157 21.1429C10.7783 21.3415 11.1939 21.4546 11.6365 21.4546C12.107 21.4546 12.5466 21.3244 12.9248 21.1018L16.2939 25.3135C16.1117 25.5564 16.0001 25.8549 16.0001 26.1818C16.0001 26.9851 16.6514 27.6364 17.4546 27.6364C18.2579 27.6364 18.9092 26.9851 18.9092 26.1818C18.9092 25.3786 18.2579 24.7273 17.4546 24.7273C17.2423 24.7273 17.0423 24.7749 16.8605 24.8568L13.4925 20.6469C13.919 20.192 14.1819 19.5818 14.1819 18.9091C14.1819 18.7029 14.1546 18.5037 14.1085 18.312L17.7408 16.8593C18.0055 17.2186 18.4285 17.4546 18.9092 17.4546C19.7125 17.4546 20.3637 16.8033 20.3637 16C20.3637 15.1967 19.7125 14.5455 18.9092 14.5455C18.1059 14.5455 17.4546 15.1967 17.4546 16C17.4546 16.0626 17.4655 16.1222 17.4732 16.1829L13.8386 17.6364C13.5245 17.0938 13.0172 16.6775 12.4092 16.4837L13.2194 11.6233C13.9615 11.5575 14.5455 10.9411 14.5455 10.1818C14.5455 9.37857 13.8943 8.72729 13.091 8.72729C12.2877 8.72729 11.6365 9.37857 11.6365 10.1818C11.6365 10.7746 11.9925 11.2826 12.5012 11.5091L11.6917 16.3662C11.6732 16.3662 11.655 16.3637 11.6365 16.3637C11.3565 16.3637 11.0877 16.4106 10.8357 16.4942L9.51209 13.8466C9.70082 13.6506 9.81827 13.3847 9.81827 13.0909C9.81827 12.4884 9.32991 12 8.72736 12C8.12482 12 7.63645 12.4884 7.63645 13.0909C7.63645 13.6935 8.12482 14.1818 8.72736 14.1818C8.77282 14.1818 8.81572 14.1738 8.85972 14.1684L10.1852 16.8193C9.75245 17.1204 9.419 17.5531 9.23973 18.0589L5.81027 17.3731C5.767 16.6084 5.139 16 4.36373 16C3.56045 16 2.90918 16.6513 2.90918 17.4546C2.90918 18.2578 3.56045 18.9091 4.36373 18.9091Z" fill="#DDDDDF"/>
<path d="M11.6365 2.54541H2.90918V3.27268H11.6365V2.54541Z" fill="#DDDDDF"/>
<path d="M8.72736 4.18188H2.90918V4.54552H8.72736V4.18188Z" fill="#DDDDDF"/>
</svg>