<svg width="156" height="79" viewBox="0 0 156 79" fill="none" xmlns="http://www.w3.org/2000/svg">
<path fill-rule="evenodd" clip-rule="evenodd" d="M97.9372 10.3448C98.2823 10.3448 98.4894 10.1347 98.536 10.0902C98.5587 10.8769 97.9838 11.5711 97.431 12.0113C97.2232 12.1723 97.1098 12.3344 97.1098 12.5212C97.1098 12.7986 97.3617 13.0298 97.6608 13.0298C97.8005 13.0298 97.9599 12.9602 98.1211 12.8449C98.9724 12.3122 100.033 11.2486 100.033 9.81218C100.033 8.65436 99.3873 7.68209 98.2369 7.68209C97.4071 7.68209 96.788 8.28441 96.788 9.09278C96.788 9.81218 97.179 10.3448 97.9372 10.3448ZM143.058 40.0548C142.42 40.0548 141.898 40.5793 141.898 41.2202V49.5837L135.13 40.7742C134.802 40.3651 134.472 40.0735 133.893 40.0735H133.643C132.965 40.0735 132.442 40.6179 132.442 41.2799V52.6966C132.442 53.3393 132.965 53.8644 133.621 53.8644C134.259 53.8644 134.781 53.3393 134.781 52.6966V44.0604L141.742 53.1239C142.072 53.5524 142.42 53.8451 142.98 53.8451H143.078C143.734 53.8451 144.237 53.3177 144.237 52.6591V41.2202C144.237 40.5793 143.714 40.0548 143.058 40.0548ZM128.167 46.9584C128.167 44.3138 126.252 42.1164 123.565 42.1164C120.876 42.1164 119.001 44.2752 119.001 46.9204V46.9584C119.001 49.6048 120.916 51.7823 123.603 51.7823C126.292 51.7823 128.167 49.6434 128.167 46.9976V46.9584ZM130.662 46.9204V46.9584C130.662 50.7907 127.722 53.999 123.565 53.999C119.408 53.999 116.508 50.8288 116.508 46.9976V46.9584C116.508 43.1261 119.446 39.9173 123.603 39.9173C127.76 39.9173 130.662 43.0881 130.662 46.9204ZM113.547 40.0548C112.87 40.0548 112.348 40.5793 112.348 41.2407V52.6784C112.348 53.3393 112.87 53.8644 113.547 53.8644C114.204 53.8644 114.725 53.3393 114.725 52.6784V41.2407C114.725 40.5793 114.204 40.0548 113.547 40.0548ZM109.751 40.1508H100.759C100.141 40.1508 99.6579 40.6571 99.6579 41.26C99.6579 41.8624 100.141 42.3675 100.759 42.3675H104.047V52.6784C104.047 53.3393 104.588 53.8644 105.246 53.8644C105.903 53.8644 106.444 53.3393 106.444 52.6784V42.3675H109.751C110.349 42.3675 110.833 41.8624 110.833 41.26C110.833 40.6571 110.349 40.1508 109.751 40.1508ZM96.7892 48.3597L94.4116 42.8545L92.0345 48.3597H96.7892ZM100.946 52.2102C101.043 52.3852 101.082 52.5608 101.082 52.7165C101.082 53.3592 100.599 53.8644 99.9599 53.8644C99.3995 53.8644 99.012 53.5336 98.8007 53.0273L97.6969 50.4805H91.1256L89.9834 53.104C89.7902 53.5922 89.3834 53.8644 88.8813 53.8644C88.2633 53.8644 87.7792 53.3774 87.7792 52.7551C87.7792 52.5795 87.8368 52.4051 87.9322 52.2102L92.9632 40.9293C93.2326 40.3258 93.7156 39.9565 94.3923 39.9565H94.507C95.1843 39.9565 95.6481 40.3258 95.9186 40.9293L100.946 52.2102ZM84.7696 46.9584C84.7696 44.2939 82.9123 42.3289 80.0703 42.3289H77.4018V51.5885H80.0703C82.9123 51.5885 84.7696 49.6616 84.7696 46.9976V46.9584ZM87.263 46.9204V46.9584C87.263 50.7907 84.3239 53.7672 80.0703 53.7672H76.2217C75.545 53.7672 75.023 53.2421 75.023 52.5608V41.3566C75.023 40.6765 75.545 40.1508 76.2217 40.1508H80.0703C84.3239 40.1508 87.263 43.0881 87.263 46.9204ZM71.1674 40.0548C70.5285 40.0548 70.0065 40.5793 70.0065 41.2202V49.5837L63.2392 40.7742C62.9121 40.3651 62.5816 40.0735 62.0021 40.0735H61.7507C61.0745 40.0735 60.5532 40.6179 60.5532 41.2799V52.6966C60.5532 53.3393 61.0745 53.8644 61.7315 53.8644C62.3704 53.8644 62.8918 53.3393 62.8918 52.6966V44.0604L69.8523 53.1239C70.1805 53.5524 70.5285 53.8451 71.0906 53.8451H71.1866C71.8441 53.8451 72.3475 53.3177 72.3475 52.6591V41.2202C72.3475 40.5793 71.8238 40.0548 71.1674 40.0548ZM56.8564 40.0548C56.1797 40.0548 55.6583 40.5793 55.6583 41.2407V47.9892C55.6583 50.4992 54.3624 51.763 52.2548 51.763C50.1274 51.763 48.8316 50.4219 48.8316 47.8921V41.2407C48.8316 40.5793 48.3108 40.0548 47.6538 40.0548C46.9759 40.0548 46.4528 40.5793 46.4528 41.2407V47.9892C46.4528 51.938 48.6972 53.9809 52.2158 53.9809C55.7543 53.9809 58.0365 51.938 58.0365 47.8733V41.2407C58.0365 40.5793 57.5145 40.0548 56.8564 40.0548ZM42.1928 46.9584C42.1928 44.3138 40.2778 42.1164 37.5906 42.1164C34.9023 42.1164 33.0269 44.2752 33.0269 46.9204V46.9584C33.0269 49.6048 34.9413 51.7823 37.6285 51.7823C40.3168 51.7823 42.1928 49.6434 42.1928 46.9976V46.9584ZM44.6862 46.9204V46.9584C44.6862 50.7907 41.7471 53.999 37.5906 53.999C33.433 53.999 30.5335 50.8288 30.5335 46.9976V46.9584C30.5335 43.1261 33.472 39.9173 37.6285 39.9173C41.7861 39.9173 44.6862 43.0881 44.6862 46.9204ZM28.8268 40.1508H20.9381C20.2608 40.1508 19.7389 40.6765 19.7389 41.3566V52.6784C19.7389 53.3393 20.2608 53.8644 20.9381 53.8644C21.5951 53.8644 22.117 53.3393 22.117 52.6784V48.2228H27.9569C28.5562 48.2228 29.0392 47.7358 29.0392 47.1329C29.0392 46.5311 28.5562 46.0441 27.9569 46.0441H22.117V42.3289H28.8268C29.4261 42.3289 29.9097 41.8431 29.9097 41.2407C29.9097 40.6367 29.4261 40.1508 28.8268 40.1508ZM108.823 28.4005C108.823 26.9418 107.779 26.1446 106.02 26.1446H102.558V30.7162H106.039C107.74 30.7162 108.823 29.8212 108.823 28.4397V28.4005ZM110.12 25.3274C110.835 26.0661 111.241 27.0776 111.241 28.2641V28.3033C111.241 30.4826 109.983 31.8055 108.166 32.3692L110.757 35.6547C110.99 35.948 111.143 36.2009 111.143 36.5708C111.143 37.2311 110.583 37.6789 110.003 37.6789C109.461 37.6789 109.114 37.4266 108.842 37.0572L105.556 32.8363H102.558V36.4924C102.558 37.1532 102.037 37.6789 101.38 37.6789C100.702 37.6789 100.18 37.1532 100.18 36.4924V25.1717C100.18 24.491 100.702 23.9653 101.38 23.9653H106.213C107.914 23.9653 109.25 24.4717 110.12 25.3274ZM91.295 25.9303C88.606 25.9303 86.7312 28.0903 86.7312 30.7349V30.7735C86.7312 33.4193 88.6462 35.5974 91.3345 35.5974C94.0199 35.5974 95.8971 33.4585 95.8971 30.8133V30.7735C95.8971 28.1289 93.9827 25.9303 91.295 25.9303ZM91.3345 23.7335C95.4904 23.7335 98.3905 26.9038 98.3905 30.7349V30.7735C98.3905 34.6064 95.4526 37.8147 91.295 37.8147C87.1368 37.8147 84.2366 34.6444 84.2366 30.8133V30.7735C84.2366 26.9418 87.1763 23.7335 91.3345 23.7335ZM76.7617 33.3221L80.0686 28.3227V36.4924C80.0686 37.1339 80.6091 37.6789 81.2481 37.6789C81.9248 37.6789 82.4473 37.1532 82.4473 36.4924V25.0951C82.4473 24.433 81.9248 23.8881 81.2481 23.8881H80.9967C80.5125 23.8881 80.1652 24.1023 79.9138 24.5115L75.794 30.9883L71.6963 24.5314C71.4636 24.1602 71.115 23.8881 70.5931 23.8881H70.3423C69.6661 23.8881 69.143 24.433 69.143 25.0951V36.5117C69.143 37.1737 69.6469 37.6789 70.3033 37.6789C70.9603 37.6789 71.4828 37.1737 71.4828 36.5117V28.3631L74.7699 33.3221C75.0207 33.7108 75.3308 33.9444 75.7562 33.9444C76.2013 33.9444 76.5109 33.7108 76.7617 33.3221ZM54.853 25.0558V31.8055C54.853 35.7531 57.095 37.796 60.6137 37.796C64.1527 37.796 66.4332 35.7531 66.4332 31.6878V25.0558C66.4332 24.3938 65.9124 23.8687 65.2548 23.8687C64.5781 23.8687 64.0555 24.3938 64.0555 25.0558V31.8055C64.0555 34.3149 62.7597 35.5792 60.6527 35.5792C58.5253 35.5792 57.2294 34.2359 57.2294 31.7077V25.0558C57.2294 24.3938 56.708 23.8687 56.0505 23.8687C55.3743 23.8687 54.853 24.3938 54.853 25.0558ZM42.2615 25.074C42.2615 25.6775 42.7456 26.1838 43.3647 26.1838H46.6507V36.4924C46.6507 37.1532 47.1924 37.6789 47.8499 37.6789C48.5069 37.6789 49.0486 37.1532 49.0486 36.4924V26.1838H52.3555C52.9554 26.1838 53.4378 25.6775 53.4378 25.074C53.4378 24.4717 52.9554 23.9653 52.3555 23.9653H43.3647C42.7456 23.9653 42.2615 24.4717 42.2615 25.074ZM106.91 13.4993C104.298 12.8765 103.68 12.41 103.68 11.3593V11.32C103.68 10.4256 104.491 9.70623 105.885 9.70623C106.947 9.70623 107.953 10.0563 108.997 10.737C109.192 10.8541 109.383 10.912 109.616 10.912C110.235 10.912 110.739 10.4256 110.739 9.8034C110.739 9.33629 110.486 9.00556 110.216 8.84928C108.997 8.0333 107.625 7.58492 105.922 7.58492C103.236 7.58492 101.301 9.19932 101.301 11.5343V11.5729C101.301 14.0829 102.926 14.9387 105.807 15.6387C108.321 16.2217 108.862 16.7474 108.862 17.7191V17.7589C108.862 18.7698 107.933 19.471 106.464 19.471C104.995 19.471 103.796 18.9647 102.674 18.0691C102.52 17.9538 102.307 17.8543 101.978 17.8543C101.359 17.8543 100.857 18.3425 100.857 18.9647C100.857 19.3534 101.05 19.6841 101.321 19.8784C102.829 21.007 104.57 21.5906 106.405 21.5906C109.249 21.5906 111.241 20.0733 111.241 17.5253V17.4861C111.241 15.2296 109.771 14.2 106.91 13.4993ZM84.3309 21.4934C84.9681 21.4934 85.49 20.9678 85.49 20.3268V11.6894L92.4518 20.7541C92.7799 21.1826 93.1279 21.4729 93.6894 21.4729H93.786C94.4424 21.4729 94.9446 20.9479 94.9446 20.287V8.84928C94.9446 8.20773 94.4232 7.68209 93.7668 7.68209C93.1279 7.68209 92.6059 8.20773 92.6059 8.84928V17.2133L85.8392 8.40266C85.5081 7.99467 85.181 7.70199 84.6003 7.70199H84.3489C83.6728 7.70199 83.1497 8.24754 83.1497 8.9084V20.3268C83.1497 20.9678 83.6728 21.4934 84.3309 21.4934ZM72.383 21.3956H80.3502C80.9298 21.3956 81.4127 20.9285 81.4127 20.3268C81.4127 19.7432 80.9298 19.2556 80.3502 19.2556H73.5636V15.5995H79.3825C79.9627 15.5995 80.4456 15.1324 80.4456 14.55C80.4456 13.9459 79.9627 13.4607 79.3825 13.4607H73.5636V9.91929H80.253C80.8332 9.91929 81.3161 9.45219 81.3161 8.84928C81.3161 8.26568 80.8332 7.77984 80.253 7.77984H72.383C71.7056 7.77984 71.1837 8.30549 71.1837 8.98625V20.1892C71.1837 20.8706 71.7056 21.3956 72.383 21.3956ZM60.4176 14.5295H63.8979C65.5987 14.5295 66.6822 13.6345 66.6822 12.2537V12.2156C66.6822 10.7558 65.6389 9.9591 63.8787 9.9591H60.4176V14.5295ZM58.0388 20.3063V8.98625C58.0388 8.30549 58.5608 7.77984 59.2381 7.77984H64.0718C65.7745 7.77984 67.1081 8.28676 67.9775 9.14137C68.6926 9.88066 69.0994 10.8927 69.0994 12.0786V12.1179C69.0994 14.2959 67.8431 15.6188 66.0247 16.1831L68.6158 19.471C68.848 19.7614 69.0028 20.016 69.0028 20.3847C69.0028 21.0462 68.4424 21.4934 67.8623 21.4934C67.3211 21.4934 66.972 21.2399 66.7026 20.8706L63.4143 16.6491H60.4176V20.3063C60.4176 20.9678 59.8956 21.4934 59.2381 21.4934C58.5608 21.4934 58.0388 20.9678 58.0388 20.3063ZM46.2643 19.2181H48.9317C51.7742 19.2181 53.6304 17.2923 53.6304 14.6267V14.588C53.6304 11.9229 51.7742 9.9591 48.9317 9.9591H46.2643V19.2181ZM43.8849 20.1892V8.98625C43.8849 8.30549 44.4075 7.77984 45.0842 7.77984H48.9317C53.1864 7.77984 56.125 10.7177 56.125 14.55V14.588C56.125 18.4203 53.1864 21.3956 48.9317 21.3956H45.0842C44.4075 21.3956 43.8849 20.8706 43.8849 20.1892ZM34.1918 21.3956H41.4998C42.1009 21.3956 42.5821 20.9098 42.5821 20.3063C42.5821 19.7034 42.1009 19.2181 41.4998 19.2181H35.3707V8.86976C35.3707 8.20773 34.8488 7.68209 34.1918 7.68209C33.5151 7.68209 32.9925 8.20773 32.9925 8.86976V20.1892C32.9925 20.8706 33.5151 21.3956 34.1918 21.3956ZM29.1032 7.68209C28.4265 7.68209 27.9045 8.20773 27.9045 8.86976V20.3063C27.9045 20.9678 28.4265 21.4934 29.1032 21.4934C29.7607 21.4934 30.2827 20.9678 30.2827 20.3063V8.86976C30.2827 8.20773 29.7607 7.68209 29.1032 7.68209ZM22.7868 20.3063C22.7868 20.9678 23.3082 21.4934 23.9657 21.4934C24.6419 21.4934 25.1638 20.9678 25.1638 20.3063V8.86976C25.1638 8.20773 24.6419 7.68209 23.9657 7.68209C23.3082 7.68209 22.7868 8.20773 22.7868 8.86976V13.4396H16.3278V8.86976C16.3278 8.20773 15.8059 7.68209 15.1483 7.68209C14.4722 7.68209 13.9491 8.20773 13.9491 8.86976V20.3063C13.9491 20.9678 14.4722 21.4934 15.1483 21.4934C15.8059 21.4934 16.3278 20.9678 16.3278 20.3063V15.6575H22.7868V20.3063ZM12.1819 18.9454C12.1819 19.3147 12.0073 19.6068 11.7955 19.8017C10.5188 20.9285 9.06875 21.6298 6.88317 21.6298C2.93738 21.6298 0 18.5368 0 14.6267V14.588C0 10.7177 2.88035 7.54688 6.98035 7.54688C9.06875 7.54688 10.442 8.16969 11.6215 9.08342C11.8729 9.27775 12.0847 9.60847 12.0847 10.0352C12.0847 10.6978 11.5639 11.2035 10.9058 11.2035C10.577 11.2035 10.3448 11.0871 10.1895 10.9706C9.26252 10.212 8.25585 9.74427 6.96172 9.74427C4.38919 9.74427 2.49456 11.8843 2.49456 14.55V14.588C2.49456 17.2531 4.36999 19.4131 6.96172 19.4131C8.39201 19.4131 9.35911 18.9454 10.3448 18.1089C10.5188 17.9538 10.7708 17.8367 11.06 17.8367C11.6593 17.8367 12.1819 18.3425 12.1819 18.9454Z" fill="#006391"/>
<path fill-rule="evenodd" clip-rule="evenodd" d="M134.485 25.1339C134.424 21.3666 132.411 17.964 129.225 16.0914L128.028 18.1776C130.493 19.6316 132.027 22.2505 132.088 25.1339C132.089 25.1919 132.094 25.2498 132.094 25.3089C132.094 26.0839 131.979 26.8326 131.78 27.5444C130.807 31.0225 127.633 33.5828 123.869 33.5828C119.334 33.5828 115.642 29.8711 115.642 25.3089C115.642 22.2265 117.332 19.4191 120.048 17.9827C120.576 17.7029 121.137 17.4822 121.709 17.3265L121.955 17.2586V8.87174C121.955 8.20678 121.417 7.6665 120.757 7.6665C120.096 7.6665 119.559 8.20678 119.559 8.87174V15.5441C115.718 17.2651 113.247 21.0733 113.247 25.3089C113.247 31.2005 118.011 35.9939 123.869 35.9939C128.962 35.9939 133.228 32.3659 134.253 27.5444C134.406 26.8232 134.49 26.0757 134.49 25.3089C134.49 25.2498 134.485 25.1919 134.485 25.1339ZM125.787 17.2592L125.785 17.2586V8.87174C125.785 8.20678 126.321 7.6665 126.982 7.6665C127.643 7.6665 128.18 8.20678 128.18 8.87174V13.0903L125.787 17.2592Z" fill="#7BBB42"/>
<path fill-rule="evenodd" clip-rule="evenodd" d="M153.937 17.5466H150.467V11.0118C150.467 10.348 149.93 9.80713 149.268 9.80713C148.608 9.80713 148.071 10.348 148.071 11.0118V19.9571H153.604V34.9408H138.71V27.5438H136.313V35.2757C136.313 36.4194 137.238 37.3507 138.376 37.3507H153.937C155.076 37.3507 156 36.4194 156 35.2757V19.6223C156 18.4767 155.076 17.5466 153.937 17.5466ZM138.71 25.1333H136.313V19.6223C136.313 18.4767 137.238 17.5466 138.376 17.5466H141.845V11.0118C141.845 10.348 142.383 9.80713 143.044 9.80713C143.705 9.80713 144.243 10.348 144.243 11.0118V19.9571H138.71V25.1333Z" fill="#00A0D3"/>
<path fill-rule="evenodd" clip-rule="evenodd" d="M131.125 0C130.466 0 129.928 0.539692 129.928 1.2064V10.044L121.671 24.4313C121.303 25.0723 121.303 25.8672 121.671 26.5075C122.038 27.1467 122.722 27.5442 123.456 27.5442H131.78C131.979 26.8324 132.093 26.0837 132.093 25.3087C132.093 25.2496 132.089 25.1917 132.088 25.1337H124.035L132.325 10.6902V1.2064C132.325 0.539692 131.786 0 131.125 0ZM146.804 24.4307L144.238 19.9575H141.471L144.442 25.1337H134.484C134.484 25.1917 134.49 25.2496 134.49 25.3087C134.49 26.0755 134.406 26.823 134.253 27.5442H145.02C145.754 27.5442 146.439 27.1467 146.804 26.5075C147.173 25.8672 147.173 25.0723 146.804 24.4307ZM140.086 17.547L136.15 10.6908V1.2064C136.15 0.539692 136.689 0 137.35 0C138.01 0 138.549 0.539692 138.549 1.2064V10.0458L141.845 15.7892V17.547H140.086Z" fill="#006391"/>
<path fill-rule="evenodd" clip-rule="evenodd" d="M41.7616 69.9558H144.236V56.3389H31.6809L41.7616 69.9558Z" fill="#00A0D3"/>
<path fill-rule="evenodd" clip-rule="evenodd" d="M142.868 78.8921V76.3804H140.345V78.8921H138.976V72.6365H140.345V75.1114H142.868V72.6365H144.236V78.8921H142.868ZM135.559 78.9998C133.729 78.9998 132.368 77.5774 132.368 75.7816V75.7646C132.368 73.9857 133.701 72.5288 135.612 72.5288C136.785 72.5288 137.487 72.921 138.065 73.4941L137.194 74.5044C136.713 74.0653 136.226 73.7967 135.604 73.7967C134.555 73.7967 133.799 74.6747 133.799 75.7447V75.7646C133.799 76.837 134.538 77.7296 135.604 77.7296C136.315 77.7296 136.75 77.444 137.24 76.9979L138.11 77.883C137.47 78.5708 136.759 78.9998 135.559 78.9998ZM130.25 74.7707C130.25 74.1818 129.841 73.878 129.175 73.878H127.814V75.6739H129.202C129.869 75.6739 130.25 75.3174 130.25 74.7906V74.7707ZM130.223 78.8921L128.891 76.8902H127.814V78.8921H126.448V72.6365H129.29C130.757 72.6365 131.636 73.4139 131.636 74.6999V74.718C131.636 75.7277 131.095 76.3634 130.303 76.6584L131.822 78.8921H130.223ZM122.378 74.2451L121.55 76.2733H123.204L122.378 74.2451ZM124.261 78.8921L123.691 77.4896H121.062L120.493 78.8921H119.098L121.764 72.5909H123.025L125.692 78.8921H124.261ZM113.748 78.8921V72.6365H118.438V73.8611H115.107V75.1301H118.04V76.3541H115.107V77.6682H118.484V78.8921H113.748ZM110.401 78.9817C109.46 78.9817 108.508 78.651 107.763 77.9802L108.571 77.0073C109.131 77.4715 109.718 77.7659 110.428 77.7659C110.989 77.7659 111.325 77.5435 111.325 77.1765V77.1589C111.325 76.8106 111.112 76.6309 110.073 76.3634C108.82 76.0409 108.011 75.6926 108.011 74.4505V74.4312C108.011 73.2974 108.918 72.5464 110.188 72.5464C111.094 72.5464 111.867 72.832 112.499 73.3419L111.787 74.3785C111.236 73.9934 110.694 73.7616 110.17 73.7616C109.647 73.7616 109.37 74.0027 109.37 74.3065V74.3252C109.37 74.7356 109.637 74.8702 110.713 75.1471C111.974 75.4772 112.685 75.9338 112.685 77.0243V77.0424C112.685 78.284 111.743 78.9817 110.401 78.9817ZM102.359 78.8921V72.6365H107.051V73.8611H103.718V75.1301H106.652V76.3541H103.718V77.6682H107.095V78.8921H102.359ZM99.8535 74.7707C99.8535 74.1818 99.4438 73.878 98.777 73.878H97.4177V75.6739H98.8043C99.47 75.6739 99.8535 75.3174 99.8535 74.7906V74.7707ZM99.8261 78.8921L98.4919 76.8902H97.4177V78.8921H96.0491V72.6365H98.8916C100.36 72.6365 101.238 73.4139 101.238 74.6999V74.718C101.238 75.7277 100.697 76.3634 99.9053 76.6584L101.424 78.8921H99.8261ZM90.8767 78.8921V76.3804H88.353V78.8921H86.9844V72.6365H88.353V75.1114H90.8767V72.6365H92.2459V78.8921H90.8767ZM83.0829 78.9998C81.1458 78.9998 79.8126 77.6325 79.8126 75.7816V75.7646C79.8126 73.9857 81.1911 72.5288 83.0753 72.5288C84.1925 72.5288 84.8698 72.832 85.5175 73.3863L84.6569 74.4312C84.1762 74.0314 83.7491 73.7967 83.0305 73.7967C82.0349 73.7967 81.2435 74.6829 81.2435 75.7447V75.7646C81.2435 76.9078 82.0261 77.7478 83.1282 77.7478C83.6252 77.7478 84.0697 77.6231 84.4171 77.3732V76.4787H83.0386V75.2899H85.7404V78.0077C85.1003 78.5526 84.2216 78.9998 83.0829 78.9998ZM76.1159 78.9905C74.4453 78.9905 73.4229 78.0522 73.4229 76.2101V72.6365H74.7915V76.1749C74.7915 77.1935 75.2978 77.7203 76.1328 77.7203C76.9684 77.7203 77.4752 77.2116 77.4752 76.2206V72.6365H78.8426V76.1668C78.8426 78.0609 77.7853 78.9905 76.1159 78.9905ZM71.0185 75.7646C71.0185 74.6911 70.2365 73.7967 69.1344 73.7967C68.0329 73.7967 67.2677 74.6747 67.2677 75.7447V75.7646C67.2677 76.837 68.0503 77.7296 69.1513 77.7296C70.2539 77.7296 71.0185 76.8551 71.0185 75.7816V75.7646ZM69.1344 78.9998C67.2153 78.9998 65.8374 77.5605 65.8374 75.7816V75.7646C65.8374 73.9857 67.2334 72.5288 69.1513 72.5288C71.0715 72.5288 72.4477 73.967 72.4477 75.7447V75.7646C72.4477 77.5435 71.054 78.9998 69.1344 78.9998ZM63.7187 74.7707C63.7187 74.1818 63.3097 73.878 62.6428 73.878H61.2847V75.6739H62.6702C63.3359 75.6739 63.7187 75.3174 63.7187 74.7906V74.7707ZM63.692 78.8921L62.3594 76.8902H61.2847V78.8921H59.9155V72.6365H62.7592C64.2256 72.6365 65.1042 73.4139 65.1042 74.6999V74.718C65.1042 75.7277 64.5625 76.3634 63.7717 76.6584L65.2916 78.8921H63.692ZM57.155 78.8921V76.3804H54.6302V78.8921H53.2628V72.6365H54.6302V75.1114H57.155V72.6365H58.5225V78.8921H57.155ZM50.575 73.9055V78.8921H49.207V73.9055H47.3147V72.6365H52.4673V73.9055H50.575Z" fill="#00A0D3"/>
<path fill-rule="evenodd" clip-rule="evenodd" d="M136.552 60.7142V62.4403H140.399V64.0612H136.552V67.201H134.779V59.0933H140.915V60.7142H136.552ZM131.373 67.201L127.47 62.047V67.201H125.72V59.0933H127.354L131.13 64.084V59.0933H132.88V67.201H131.373ZM117.348 67.3391C114.837 67.3391 113.11 65.5673 113.11 63.1685V63.1469C113.11 60.8423 114.894 58.9546 117.335 58.9546C118.787 58.9546 119.661 59.3485 120.501 60.0662L119.384 61.4207C118.763 60.9003 118.21 60.5983 117.278 60.5983C115.987 60.5983 114.963 61.7449 114.963 63.1229V63.1469C114.963 64.6295 115.977 65.7177 117.405 65.7177C118.049 65.7177 118.625 65.5556 119.073 65.2307V64.0729H117.288V62.5328H120.789V66.0543C119.96 66.7608 118.82 67.3391 117.348 67.3391ZM110.112 67.201L106.208 62.047V67.201H104.459V59.0933H106.094L109.87 64.084V59.0933H111.619V67.201H110.112ZM100.77 67.201H102.543V59.0933H100.77V67.201ZM97.3847 63.1469C97.3847 61.711 96.4077 60.7036 94.9565 60.7036H93.5873V65.5913H94.9565C96.4077 65.5913 97.3847 64.6056 97.3847 63.1685V63.1469ZM94.9565 67.201H91.8142V59.0933H94.9565C97.4894 59.0933 99.2397 60.8423 99.2397 63.1229V63.1469C99.2397 65.4274 97.4894 67.201 94.9565 67.201ZM88.4055 67.201L84.5028 62.047V67.201H82.7536V59.0933H84.3864L88.1646 64.084V59.0933H89.915V67.201H88.4055ZM75.0244 67.201V59.0933H81.1028V60.6796H76.7852V62.3239H80.5855V63.9107H76.7852V65.6129H81.161V67.201H75.0244Z" fill="#FFFFFE"/>
</svg>
