  <svg width="25" height="24" viewBox="0 0 25 24" fill="none" xmlns="http://www.w3.org/2000/svg">
    <path d="M6.03955 14.2836L6.07315 8.42016L1 5.47461L1.00916 11.1997L6.03955 14.2836Z" stroke="#679EC1" stroke-linecap="round" stroke-linejoin="round"/>
    <path d="M6.07324 14.283L10.4989 11.7617L8.99618 12.6196" stroke="#679EC1" stroke-linecap="round" stroke-linejoin="round"/>
    <path d="M11.1069 23.2396L11.1436 17.3762L6.06738 14.4307L6.0796 20.1557L11.1069 23.2396Z" stroke="#679EC1" stroke-linecap="round" stroke-linejoin="round"/>
    <path d="M18.8291 14.501L13.7682 17.4035L13.7712 23.2977L18.6886 20.429L18.8291 14.501Z" stroke="#6DB56D" stroke-linecap="round" stroke-linejoin="round"/>
    <path d="M18.8289 14.3629L14.4491 11.7617L15.9365 12.6442" stroke="#6DB56D" stroke-linecap="round" stroke-linejoin="round"/>
    <path d="M24 5.60645L18.9391 8.50587L18.9421 14.4031L23.8595 11.5314L24 5.60645Z" stroke="#6DB56D" stroke-linecap="round" stroke-linejoin="round"/>
    <path d="M12.6483 3.8996L17.6726 6.8636L22.7427 3.9119L17.8161 1.05859L12.6483 3.8996Z" stroke="#EB8231" stroke-linecap="round" stroke-linejoin="round"/>
    <path d="M12.5262 3.96094L12.4803 9.08029L12.4956 7.34309" stroke="#EB8231" stroke-linecap="round" stroke-linejoin="round"/>
    <path d="M2.40735 3.84101L7.43468 6.80501L12.5048 3.85331L7.57518 1L2.40735 3.84101Z" stroke="#EB8231" stroke-linecap="round" stroke-linejoin="round"/>
  </svg>
