<svg width="245" height="45" viewBox="0 0 245 45" fill="none" xmlns="http://www.w3.org/2000/svg">
<path d="M78.4431 15.9318C78.3447 16.0956 78.2354 16.2212 78.115 16.3086C78.0057 16.385 77.869 16.4232 77.705 16.4232C77.519 16.4232 77.3004 16.3304 77.0488 16.1447C76.7973 15.9591 76.4802 15.757 76.0975 15.5386C75.7257 15.3092 75.2718 15.1017 74.736 14.9161C74.2111 14.7304 73.5714 14.6376 72.8168 14.6376C72.106 14.6376 71.4772 14.7359 70.9305 14.9324C70.3946 15.1181 69.9408 15.3748 69.569 15.7024C69.2081 16.0301 68.9347 16.4178 68.7488 16.8656C68.5629 17.3024 68.47 17.7775 68.47 18.2908C68.47 18.9461 68.6286 19.4922 68.9457 19.9291C69.2737 20.355 69.7002 20.7209 70.2251 21.0267C70.761 21.3325 71.3624 21.6001 72.0295 21.8294C72.7075 22.0479 73.3964 22.2772 74.0963 22.5175C74.8071 22.7577 75.496 23.0308 76.1631 23.3366C76.8411 23.6315 77.4425 24.0083 77.9674 24.467C78.5032 24.9257 78.9297 25.4882 79.2469 26.1544C79.5749 26.8205 79.7389 27.6397 79.7389 28.6117C79.7389 29.6383 79.564 30.6049 79.2141 31.5114C78.8641 32.4069 78.3502 33.1879 77.6722 33.8541C77.0051 34.5203 76.1795 35.0445 75.1953 35.4268C74.222 35.8091 73.1121 36.0002 71.8654 36.0002C70.3345 36.0002 68.9457 35.7271 67.699 35.181C66.4524 34.624 65.3862 33.8759 64.5004 32.9367L65.419 31.4295C65.5065 31.3093 65.6104 31.211 65.7307 31.1346C65.8619 31.0472 66.004 31.0035 66.1571 31.0035C66.2993 31.0035 66.4579 31.0636 66.6328 31.1837C66.8187 31.2929 67.0265 31.435 67.2562 31.6097C67.4858 31.7844 67.7482 31.9756 68.0435 32.1831C68.3388 32.3906 68.6723 32.5817 69.0441 32.7565C69.4268 32.9312 69.8588 33.0786 70.3399 33.1988C70.8211 33.308 71.3624 33.3626 71.9639 33.3626C72.7184 33.3626 73.3909 33.2588 73.9814 33.0513C74.572 32.8439 75.0696 32.5544 75.4741 32.1831C75.8897 31.8008 76.2068 31.3476 76.4255 30.8233C76.6442 30.2991 76.7536 29.7148 76.7536 29.0704C76.7536 28.3605 76.5895 27.7817 76.2615 27.3339C75.9443 26.8752 75.5233 26.4929 74.9984 26.1871C74.4735 25.8814 73.8721 25.6246 73.1941 25.4172C72.5161 25.1987 71.8272 24.9803 71.1273 24.7619C70.4274 24.5325 69.7385 24.2704 69.0605 23.9755C68.3825 23.6806 67.7811 23.2983 67.2562 22.8287C66.7313 22.3591 66.3048 21.7748 65.9767 21.0758C65.6596 20.3659 65.501 19.4922 65.501 18.4547C65.501 17.6246 65.6596 16.8219 65.9767 16.0464C66.3048 15.271 66.775 14.583 67.3874 13.9823C68.0107 13.3816 68.7707 12.901 69.6674 12.5406C70.5751 12.1802 71.6139 12 72.784 12C74.0963 12 75.2882 12.2075 76.3599 12.6225C77.4425 13.0376 78.3939 13.6382 79.2141 14.4246L78.4431 15.9318Z" fill="#1E4964"/>
<path d="M99.5488 26.3838V35.7381H96.3666V26.3838L87.755 12.2622H90.5435C90.8279 12.2622 91.052 12.3332 91.216 12.4752C91.3801 12.6062 91.5222 12.781 91.6425 12.9994L97.0228 22.1244C97.2196 22.5067 97.4 22.8671 97.5641 23.2056C97.7281 23.5333 97.8702 23.8664 97.9905 24.2049C98.1109 23.8664 98.2475 23.5333 98.4006 23.2056C98.5537 22.8671 98.7232 22.5067 98.9091 22.1244L104.273 12.9994C104.371 12.8137 104.508 12.6445 104.683 12.4916C104.858 12.3387 105.082 12.2622 105.356 12.2622H108.16L99.5488 26.3838Z" fill="#1E4964"/>
<path d="M135.57 12.2622V35.7381H133.979C133.727 35.7381 133.514 35.6945 133.339 35.6071C133.175 35.5197 133.011 35.3722 132.847 35.1647L119.249 17.4718C119.27 17.7448 119.287 18.0124 119.298 18.2745C119.309 18.5367 119.314 18.7824 119.314 19.0117V35.7381H116.526V12.2622H118.166C118.308 12.2622 118.428 12.2731 118.527 12.295C118.625 12.3059 118.713 12.3332 118.789 12.3769C118.866 12.4096 118.942 12.4643 119.019 12.5407C119.095 12.6062 119.178 12.6936 119.265 12.8028L132.863 30.4794C132.841 30.1954 132.819 29.9224 132.798 29.6603C132.787 29.3873 132.781 29.1306 132.781 28.8903V12.2622H135.57Z" fill="#1E4964"/>
<path d="M160.215 27.0227L156.524 17.4718C156.414 17.1878 156.3 16.8602 156.18 16.4889C156.059 16.1066 155.944 15.7025 155.835 15.2766C155.606 16.1612 155.37 16.8984 155.13 17.4882L151.439 27.0227H160.215ZM166.842 35.7381H164.381C164.097 35.7381 163.867 35.6671 163.692 35.5252C163.517 35.3832 163.386 35.203 163.299 34.9845L161.101 29.3162H150.554L148.356 34.9845C148.29 35.1811 148.164 35.3559 147.978 35.5088C147.792 35.6617 147.562 35.7381 147.289 35.7381H144.829L154.228 12.2622H157.443L166.842 35.7381Z" fill="#1E4964"/>
<path d="M183.844 24.4343C184.752 24.4343 185.55 24.3141 186.239 24.0739C186.938 23.8336 187.524 23.5005 187.994 23.0746C188.475 22.6377 188.836 22.1189 189.077 21.5182C189.317 20.9176 189.437 20.2568 189.437 19.536C189.437 18.0397 188.972 16.8711 188.043 16.0302C187.125 15.1892 185.725 14.7687 183.844 14.7687H180.071V24.4343H183.844ZM183.844 12.2622C185.331 12.2622 186.622 12.437 187.715 12.7864C188.82 13.125 189.733 13.611 190.454 14.2445C191.176 14.8779 191.712 15.6424 192.062 16.538C192.423 17.4336 192.603 18.4329 192.603 19.536C192.603 20.6281 192.412 21.6274 192.029 22.5339C191.646 23.4405 191.083 24.2213 190.34 24.8766C189.607 25.5319 188.694 26.0453 187.6 26.4166C186.518 26.777 185.265 26.9572 183.844 26.9572H180.071V35.7381H176.905V12.2622H183.844Z" fill="#1E4964"/>
<path d="M216.424 15.9318C216.325 16.0956 216.216 16.2212 216.096 16.3086C215.987 16.385 215.85 16.4232 215.686 16.4232C215.5 16.4232 215.281 16.3304 215.029 16.1447C214.778 15.9591 214.461 15.757 214.078 15.5386C213.707 15.3092 213.253 15.1017 212.717 14.9161C212.192 14.7304 211.552 14.6376 210.797 14.6376C210.087 14.6376 209.458 14.7359 208.911 14.9324C208.375 15.1181 207.922 15.3748 207.55 15.7024C207.189 16.0301 206.916 16.4178 206.729 16.8656C206.544 17.3024 206.451 17.7775 206.451 18.2908C206.451 18.9461 206.61 19.4922 206.926 19.9291C207.254 20.355 207.681 20.7209 208.206 21.0267C208.742 21.3325 209.343 21.6001 210.01 21.8294C210.688 22.0479 211.377 22.2772 212.077 22.5175C212.788 22.7577 213.477 23.0308 214.144 23.3366C214.822 23.6315 215.423 24.0083 215.948 24.467C216.484 24.9257 216.911 25.4882 217.227 26.1544C217.556 26.8205 217.72 27.6397 217.72 28.6117C217.72 29.6383 217.545 30.6049 217.195 31.5114C216.845 32.4069 216.331 33.1879 215.653 33.8541C214.986 34.5203 214.16 35.0445 213.176 35.4268C212.203 35.8091 211.093 36.0002 209.846 36.0002C208.316 36.0002 206.926 35.7271 205.68 35.181C204.433 34.624 203.367 33.8759 202.481 32.9367L203.4 31.4295C203.487 31.3093 203.592 31.211 203.711 31.1346C203.842 31.0472 203.985 31.0035 204.138 31.0035C204.28 31.0035 204.439 31.0636 204.613 31.1837C204.8 31.2929 205.007 31.435 205.237 31.6097C205.466 31.7844 205.729 31.9756 206.024 32.1831C206.319 32.3906 206.653 32.5817 207.025 32.7565C207.408 32.9312 207.84 33.0786 208.321 33.1988C208.802 33.308 209.343 33.3626 209.944 33.3626C210.699 33.3626 211.372 33.2588 211.962 33.0513C212.553 32.8439 213.05 32.5544 213.455 32.1831C213.871 31.8008 214.188 31.3476 214.406 30.8233C214.625 30.2991 214.734 29.7148 214.734 29.0704C214.734 28.3605 214.57 27.7817 214.242 27.3339C213.926 26.8752 213.504 26.4929 212.979 26.1871C212.454 25.8814 211.853 25.6246 211.175 25.4172C210.497 25.1987 209.808 24.9803 209.108 24.7619C208.408 24.5325 207.719 24.2704 207.041 23.9755C206.364 23.6806 205.762 23.2983 205.237 22.8287C204.712 22.3591 204.285 21.7748 203.957 21.0758C203.641 20.3659 203.482 19.4922 203.482 18.4547C203.482 17.6246 203.641 16.8219 203.957 16.0464C204.285 15.271 204.756 14.583 205.368 13.9823C205.991 13.3816 206.752 12.901 207.648 12.5406C208.556 12.1802 209.595 12 210.765 12C212.077 12 213.269 12.2075 214.34 12.6225C215.423 13.0376 216.374 13.6382 217.195 14.4246L216.424 15.9318Z" fill="#1E4964"/>
<path d="M244.502 33.1497L244.485 35.7381H230.001V12.2622H244.485V14.8506H233.183V22.6486H242.336V25.1387H233.183V33.1497H244.502Z" fill="#1E4964"/>
<path d="M28.7421 12.0116L13.6063 20.7673L15.4251 23.9114L30.5608 15.1557L28.7421 12.0116Z" fill="#5C94B9"/>
<path d="M29.8335 34.4743L14.7372 25.7976L12.9196 28.96L28.0159 37.6367L29.8335 34.4743Z" fill="#62AC62"/>
<path d="M33.3194 32.4313L33.3269 14.9487L36.9598 14.9503L36.9523 32.4328L33.3194 32.4313Z" fill="#E8762B"/>
<path fill-rule="evenodd" clip-rule="evenodd" d="M13.5815 30.9084C17.0645 28.8932 18.2596 24.4446 16.2506 20.9718C14.2416 17.4991 9.78942 16.3173 6.30653 18.3321C2.82361 20.3469 1.62846 24.7955 3.63746 28.2682C5.64648 31.741 10.0987 32.9233 13.5815 30.9084ZM11.7616 27.7637C13.5039 26.7564 14.1006 24.5319 13.0961 22.7955C12.0925 21.0592 9.86637 20.468 8.12408 21.4756C6.38262 22.4833 5.78585 24.7074 6.78955 26.4437C7.79404 28.1801 10.0201 28.7713 11.7616 27.7637Z" fill="#C4C4C4"/>
<path fill-rule="evenodd" clip-rule="evenodd" d="M38.7572 16.2246C42.2402 14.2094 43.4353 9.76075 41.4263 6.28801C39.4173 2.81527 34.9651 1.63342 31.4822 3.64821C27.9993 5.66303 26.8041 10.1117 28.8132 13.5844C30.8222 17.0571 35.2743 18.2394 38.7572 16.2246ZM36.9381 13.0798C38.6803 12.0726 39.2771 9.84804 38.2726 8.11172C37.2689 6.37534 35.0428 5.78421 33.3006 6.79181C31.5591 7.79941 30.9623 10.0235 31.966 11.7599C32.9705 13.4962 35.1966 14.0874 36.9381 13.0798Z" fill="#C4C4C4"/>
<path fill-rule="evenodd" clip-rule="evenodd" d="M38.7498 16.2324C42.2257 14.2052 43.4184 9.74478 41.4135 6.26971C39.4085 2.79462 34.9654 1.62068 31.4895 3.6476C28.0136 5.67454 26.8209 10.1349 28.8258 13.61C30.8308 17.0851 35.2739 18.2594 38.7498 16.2324ZM36.9343 13.086C38.6731 12.0727 39.2687 9.84232 38.2661 8.10478C37.2645 6.36723 35.0429 5.78006 33.3042 6.79372C31.5662 7.80739 30.9707 10.0374 31.9723 11.7749C32.9748 13.5125 35.1964 14.0996 36.9343 13.086Z" fill="#5C94B9"/>
<path fill-rule="evenodd" clip-rule="evenodd" d="M31.0492 44.0384C34.5235 46.0345 38.9675 44.821 40.9748 41.3279C42.9829 37.8352 41.7942 33.3853 38.3199 31.3891C34.8456 29.393 30.4016 30.6065 28.3935 34.0995C26.3862 37.5926 27.5749 42.0422 31.0492 44.0384ZM32.8671 40.8763C34.6042 41.8743 36.8257 41.2676 37.8298 39.5212C38.834 37.7745 38.24 35.5497 36.5028 34.5516C34.7657 33.5535 32.5433 34.1603 31.5392 35.9066C30.5351 37.6534 31.1299 39.8781 32.8671 40.8763Z" fill="#E8762B"/>
<path fill-rule="evenodd" clip-rule="evenodd" d="M13.5719 30.8618C17.0478 28.8346 18.2405 24.3742 16.2356 20.8991C14.2306 17.424 9.78744 16.2501 6.31156 18.277C2.83568 20.3039 1.64295 24.7643 3.64789 28.2393C5.65284 31.7145 10.096 32.8888 13.5719 30.8618ZM11.7564 27.7154C13.4951 26.7021 14.0908 24.4717 13.0882 22.7342C12.0866 20.9966 9.86498 20.4095 8.12625 21.4231C6.3883 22.4368 5.79274 24.6668 6.79441 26.4043C7.79688 28.1418 10.0185 28.729 11.7564 27.7154Z" fill="#62AC62"/>
</svg>
