<svg width="108" height="96" viewBox="0 0 108 96" fill="none" xmlns="http://www.w3.org/2000/svg">
<path d="M94.1953 68.3759L93.7011 68.2058L51.7665 53.745L50.7439 53.3367L50.1815 53.1751H50.0536H49.994H49.9514C49.8791 53.1538 49.8021 53.1538 49.7298 53.1751H49.6787H49.5764L49.5168 53.2346C49.5168 53.2346 49.5168 53.2857 49.5168 53.3112C49.5126 53.3536 49.5126 53.3963 49.5168 53.4388V53.4813V53.5408L49.6105 53.694L49.6957 53.8471L50.0281 54.3915L64.1824 78.3453L65.2646 80.1486C65.3109 80.2179 65.372 80.276 65.4436 80.3188H65.5373H65.6481H65.7333H65.8015L65.9378 80.2677L94.1527 69.2095H94.2124C94.2702 69.1775 94.3206 69.1337 94.3602 69.0809C94.3999 69.0282 94.4279 68.9676 94.4425 68.9033V68.7927C94.4443 68.7071 94.4221 68.6228 94.3784 68.5491C94.3348 68.4755 94.2713 68.4155 94.1953 68.3759V68.3759ZM65.8697 79.3235L50.8973 54.417L92.6529 68.8777L65.8697 79.3235Z" fill="#3C4A63"/>
<path d="M92.6784 68.8437L65.8696 79.3235L50.8972 54.417L92.6784 68.8437Z" fill="#3C4A63"/>
<path d="M98.6009 46.4721L93.701 68.2058L51.7664 53.728L98.6009 46.4721Z" fill="#3C4A63"/>
<path d="M99.6661 45.7831L90.9059 20.4342C90.911 20.4147 90.911 20.3942 90.9059 20.3747C90.9104 20.3493 90.9104 20.3234 90.9059 20.2981V20.2981L90.8548 20.2386L90.7696 20.1705L90.6673 20.128C90.5953 20.1063 90.5191 20.102 90.4451 20.1153C90.371 20.1286 90.3012 20.1592 90.2412 20.2045L89.6106 20.6894L78.8394 28.6683L68.1533 36.7579L67.5824 37.1917L67.4205 37.3108C67.3723 37.3552 67.3337 37.4092 67.3073 37.4692C67.2809 37.5292 67.2672 37.594 67.2671 37.6595V37.6595C67.2703 37.745 67.2966 37.828 67.3431 37.8998C67.3896 37.9717 67.4546 38.0297 67.5313 38.0678H67.6165H67.6676L67.8636 38.1189L96.9307 45.698L99.1122 46.2679H99.3508H99.4189L99.5042 46.2169C99.5306 46.2017 99.5538 46.1815 99.5723 46.1573C99.5942 46.1335 99.6142 46.1079 99.632 46.0808C99.6366 46.0555 99.6366 46.0295 99.632 46.0042V45.9447V45.9022C99.6507 45.8649 99.6623 45.8245 99.6661 45.7831V45.7831ZM68.7669 37.4724L90.2327 21.2423L98.5157 45.2216L68.7669 37.4724Z" fill="#3C4A63"/>
<path d="M98.4818 45.2216L68.7671 37.4724L90.1988 21.2423L98.4818 45.2216Z" fill="#3C4A63"/>
<path d="M99.6663 45.7831C99.6701 45.7606 99.6701 45.7376 99.6663 45.7151C99.6318 45.6312 99.5723 45.5599 99.4959 45.5109C99.4541 45.4765 99.4042 45.4531 99.351 45.4429L98.4988 45.2217L68.7671 37.4724L68.1706 37.3193L67.8638 37.2428H67.8042C67.7394 37.2296 67.6723 37.232 67.6086 37.2497C67.5449 37.2675 67.4864 37.3001 67.4377 37.3448L67.2758 37.4894L66.6878 38.0083L50.0197 52.7498L49.6618 53.073L49.5851 53.1411H49.5339C49.4817 53.1819 49.4387 53.2334 49.4078 53.292C49.377 53.3507 49.359 53.4152 49.355 53.4813V53.4813V53.5664C49.3642 53.6577 49.4066 53.7425 49.4743 53.8046V53.8046C49.5121 53.8514 49.5623 53.8867 49.6192 53.9066V53.9066H49.9174H50.139L50.531 53.8471L51.7069 53.6685L98.5755 46.4126L99.2573 46.302H99.3084H99.3766L99.4618 46.2509C99.4882 46.2358 99.5114 46.2156 99.53 46.1914C99.5519 46.1675 99.5718 46.1419 99.5896 46.1148C99.5943 46.0895 99.5943 46.0636 99.5896 46.0383V45.9787V45.9362C99.6282 45.8928 99.6546 45.84 99.6663 45.7831V45.7831ZM51.3405 52.8434L67.8383 38.204L96.9053 45.7831L51.3405 52.8434Z" fill="#3C4A63"/>
<path d="M96.9054 45.7831L51.332 52.8433L67.8383 38.2039L96.9054 45.7831Z" fill="#3C4A63"/>
<path d="M90.8889 20.3661C90.894 20.3466 90.894 20.3261 90.8889 20.3066C90.8934 20.2813 90.8934 20.2554 90.8889 20.23V20.23L90.8378 20.1705L90.7526 20.1024H90.7015L67.1734 9.66518H67.1223H67.0456H66.8411C66.8157 9.66035 66.7897 9.66035 66.7644 9.66518H66.6792C66.6531 9.67723 66.6299 9.69462 66.611 9.71622V9.71622C66.5307 9.80444 66.4879 9.92034 66.4917 10.0395V11.1027L67.2245 37.1746V37.736C67.2278 37.8215 67.254 37.9045 67.3005 37.9764C67.347 38.0482 67.412 38.1062 67.4887 38.1444H67.5739H67.7784C67.8091 38.1531 67.8415 38.1531 67.8722 38.1444V38.1444H67.9233L68.6647 37.5829L90.2328 21.2423L90.7526 20.851C90.8182 20.8025 90.8701 20.7378 90.903 20.6632C90.9358 20.5886 90.9486 20.5067 90.9401 20.4257L90.8889 20.3661ZM78.8394 28.6683L68.1534 36.7578L67.4205 10.805L89.517 20.5873L78.8394 28.6683Z" fill="#3C4A63"/>
<path d="M89.5171 20.5873L78.8395 28.6684L68.1535 36.7579L67.4207 10.7966L89.5171 20.5873Z" fill="#3C4A63"/>
<path d="M66.6451 37.9998L50.0195 52.7498L42.8955 34.4442L66.6451 37.9998Z" fill="#3C4A63"/>
<path d="M67.2246 37.1406L43.1768 33.5424L66.4918 11.1368L67.2246 37.1406Z" fill="#3C4A63"/>
<path d="M67.3779 9.90344V9.84389C67.3551 9.80788 67.3295 9.77375 67.3012 9.74182V9.74182H67.2331H67.1819H67.1053H67.0371L42.3245 7.39407H42.2479C42.2056 7.38581 42.1622 7.38581 42.12 7.39407V7.39407L42.0007 7.44511L41.8473 7.40258C41.7999 7.44766 41.7619 7.50171 41.7356 7.56158C41.7092 7.62146 41.6951 7.68596 41.694 7.75134V33.7722C41.6857 33.8114 41.6857 33.852 41.694 33.8913C41.694 33.9925 41.7268 34.091 41.7877 34.172V34.172C41.8027 34.201 41.8229 34.2269 41.8473 34.2485V34.2485C41.9148 34.3111 42.0025 34.3473 42.0945 34.3506H42.2479H42.299H42.3757L42.6058 34.1379L43.0659 33.6956L66.4917 11.1454L67.2246 10.4053C67.2702 10.3611 67.3065 10.3082 67.3314 10.2498C67.3563 10.1914 67.3692 10.1285 67.3694 10.0651C67.3804 10.0119 67.3833 9.95743 67.3779 9.90344V9.90344ZM42.6654 32.7514V8.25321L65.8696 10.4308L42.6654 32.7514Z" fill="#3C4A63"/>
<path d="M65.8697 10.4308L42.6313 32.7514L42.6399 8.23615L65.8697 10.4308Z" fill="#3C4A63"/>
<path d="M41.6941 8.84857V33.0661L26.0229 24.5002L41.6941 8.84857Z" fill="#3C4A63"/>
<path d="M25.6992 24.5087C25.6992 24.5087 25.6992 24.4407 25.6992 24.4152L25.648 24.3131L25.418 23.8708L20.305 14.1565L20.0323 13.6377C19.9988 13.5736 19.9503 13.5185 19.891 13.477C19.8317 13.4356 19.7633 13.409 19.6915 13.3995H19.504C19.4673 13.4063 19.4324 13.4208 19.4017 13.442C19.3709 13.454 19.3443 13.4747 19.325 13.5016V13.5016L5.15368 27.4434C5.12875 27.4646 5.10844 27.4906 5.09403 27.52C5.09121 27.5454 5.09121 27.5711 5.09403 27.5965C5.08919 27.619 5.08919 27.6422 5.09403 27.6646C5.0713 27.7307 5.0713 27.8026 5.09403 27.8687H5.01733V27.9198V27.9708C5.05661 28.0476 5.11639 28.1121 5.19008 28.1572C5.26376 28.2022 5.34849 28.226 5.43489 28.226H5.56271L6.09105 28.1409L24.4635 25.1977L25.1538 25.0872H25.2901H25.4009C25.4339 25.0735 25.4653 25.0564 25.4947 25.0361C25.5537 24.9895 25.6029 24.9317 25.6395 24.866V24.7809C25.6443 24.7499 25.6443 24.7184 25.6395 24.6874V24.6874C25.6725 24.633 25.6929 24.572 25.6992 24.5087ZM6.85799 27.0606L19.504 14.5989L24.5488 24.2535L6.85799 27.0606Z" fill="#3C4A63"/>
<path d="M24.5231 24.2536L6.85791 27.0862L19.4783 14.5989L24.5231 24.2536Z" fill="#3C4A63"/>
<path d="M40.5862 8.62744L25.3667 23.8282L20.2878 14.114L40.5862 8.62744Z" fill="#3C4A63"/>
<path d="M25.6992 24.5088C25.6992 24.5088 25.6992 24.4407 25.6992 24.4152C25.7016 24.3983 25.7016 24.3811 25.6992 24.3641C25.661 24.3136 25.6114 24.2727 25.5543 24.2451V24.2451C25.5324 24.2365 25.508 24.2365 25.4861 24.2451C25.4467 24.2373 25.4062 24.2373 25.3668 24.2451H25.2901H25.1367L24.6425 24.3216L6.85799 27.0777L5.40933 27.3158C5.31124 27.3313 5.22121 27.3793 5.15368 27.4519C5.12875 27.4731 5.10844 27.4992 5.09403 27.5285C5.09121 27.5539 5.09121 27.5796 5.09403 27.6051C5.08919 27.6275 5.08919 27.6507 5.09403 27.6731C5.0713 27.7393 5.0713 27.8111 5.09403 27.8773H5.01733V27.9283L12.5248 52.4095V52.4861C12.5454 52.5632 12.5902 52.6318 12.6527 52.6817V52.6817H12.7038C12.7203 52.6875 12.7384 52.6875 12.7549 52.6817V52.6817H12.9594H13.0276L13.1469 52.6307C13.2254 52.5817 13.2877 52.5107 13.3259 52.4265L13.6071 51.797L13.9479 51.023L25.4691 25.2658L25.6395 24.883V24.8235V24.7384C25.6443 24.7074 25.6443 24.6759 25.6395 24.6449V24.6449C25.6672 24.6033 25.6874 24.5573 25.6992 24.5088ZM13.0873 51.0485L6.09105 28.158L24.4635 25.2148L13.0873 51.0485Z" fill="#3C4A63"/>
<path d="M24.4636 25.2148L13.0873 51.0485L6.09106 28.1495L24.4636 25.2148Z" fill="#3C4A63"/>
<path d="M42.6144 33.7211C42.6175 33.6985 42.6175 33.6756 42.6144 33.653C42.6144 33.653 42.6144 33.653 42.6144 33.653C42.5963 33.5976 42.5604 33.5498 42.5122 33.5169L42.4099 33.4489H42.3417L42.1117 33.3213L41.66 33.0661L26.0229 24.5002L25.6054 24.2706L25.469 24.2025C25.4471 24.194 25.4228 24.194 25.4009 24.2025C25.3615 24.1947 25.3209 24.1947 25.2816 24.2025H25.2049H25.1282C25.0693 24.2204 25.0144 24.2492 24.9663 24.2876C24.9144 24.3348 24.8737 24.3929 24.847 24.4577V24.4577L24.7617 24.6619L24.5061 25.2318L12.627 52.1032C12.5595 52.1844 12.5232 52.287 12.5248 52.3925V52.3925C12.523 52.4628 12.5403 52.5323 12.5748 52.5937C12.6093 52.6551 12.6597 52.7061 12.7208 52.7412C12.7208 52.7412 12.7208 52.7412 12.7208 52.7412C12.7484 52.7623 12.7805 52.7768 12.8145 52.7838H13.0276H13.0957L13.215 52.7327L14.4933 51.8821L41.9327 34.5632L42.2565 34.3506L42.3758 34.274L42.4355 34.1974C42.439 34.1607 42.439 34.1236 42.4355 34.0869C42.4443 34.0476 42.4443 34.007 42.4355 33.9678C42.5161 33.903 42.5779 33.8178 42.6144 33.7211V33.7211ZM14.0672 51.1676L25.469 25.2658L41.2339 33.8912L14.0672 51.1676Z" fill="#3C4A63"/>
<path d="M41.2339 33.8912L14.0671 51.1676L25.469 25.2658L41.2339 33.8912Z" fill="#3C4A63"/>
<path d="M66.1256 79.7914C66.116 79.7462 66.0987 79.703 66.0744 79.6638L65.8699 79.3235L50.8975 54.417L50.5907 53.9066L50.4288 53.643L50.2584 53.3537L50.1817 53.2687L50.1135 53.2006H50.0539H49.9942H49.6875H49.6363H49.5341L49.4744 53.2602V53.3282V53.4048V53.4473L49.3551 53.8811L49.2273 54.3405L45.8187 66.1472L45.7249 66.4875V66.5555C45.7129 66.6126 45.7128 66.6714 45.7245 66.7285C45.7362 66.7856 45.7596 66.8396 45.7931 66.8873V66.9383L45.8783 67.0149L45.9806 67.0829L47.8809 68.3504L65.0433 80.0466L65.4097 80.2933H65.5035H65.6143H65.6995H65.7677C65.8177 80.2731 65.8639 80.2443 65.904 80.2082L65.9636 80.1401C66.007 80.065 66.0304 79.9801 66.0318 79.8935C66.0719 79.8687 66.1043 79.8334 66.1256 79.7914V79.7914ZM60.5098 75.8955L46.543 66.5385L49.9516 54.6807L64.1826 78.3453L60.5098 75.8955Z" fill="#3C4A63"/>
<path d="M64.1824 78.3538L60.5096 75.8954L46.5427 66.581L49.9769 54.7232L64.1824 78.3538Z" fill="#3C4A63"/>
<path d="M50.2837 53.4473V53.3537L50.1815 53.2687L50.1133 53.2006H50.0537H49.7469H49.6958H49.6361H49.585L49.2952 53.3452L48.0255 53.9832L27.7101 64.1908L27.4374 64.3354C27.3469 64.3811 27.2733 64.4543 27.2274 64.5446C27.1814 64.6348 27.1654 64.7373 27.1818 64.8373C27.202 64.9354 27.2527 65.0247 27.3266 65.0925C27.3684 65.1351 27.4217 65.1647 27.48 65.1775H27.5312H27.6334L45.7758 67.185H46.04C46.1418 67.1838 46.2405 67.1501 46.3218 67.0889C46.403 67.0277 46.4626 66.9421 46.4916 66.8448L46.5854 66.513L49.994 54.6467L50.1815 54.1874L50.2411 54.0002V53.8471V53.7535V53.677C50.2765 53.6059 50.2913 53.5263 50.2837 53.4473ZM45.6565 66.2663L29.2099 64.4545L49.0737 54.4596L45.6565 66.2663Z" fill="#3C4A63"/>
<path d="M49.0735 54.4595L45.6563 66.2663L29.2097 64.4545L49.0735 54.4595Z" fill="#3C4A63"/>
<path d="M49.1332 53.056L18.0636 52.0863L14.5527 51.9757L41.9325 34.5632L49.1332 53.056Z" fill="#3C4A63"/>
<path d="M47.9659 53.9577L27.6505 64.1908L14.3398 52.9029L47.9659 53.9577Z" fill="#3C4A63"/>
<path d="M66.1254 79.7913C66.1158 79.7462 66.0985 79.703 66.0742 79.6638C66.0427 79.6042 65.9955 79.5542 65.9379 79.5191L64.1824 78.3453L60.5096 75.8955L46.5428 66.5385L46.2616 66.3429C46.1698 66.2847 46.0612 66.259 45.953 66.2698C45.8449 66.2806 45.7435 66.3273 45.6651 66.4024C45.6232 66.4509 45.5887 66.5054 45.5628 66.564V66.6321C45.5508 66.6891 45.5507 66.7479 45.5624 66.805C45.5741 66.8621 45.5975 66.9161 45.631 66.9638V67.0149L45.7162 67.1509L60.2029 88.5614C60.2463 88.625 60.3049 88.6769 60.3732 88.7125C60.4416 88.7481 60.5177 88.7663 60.5949 88.7655V88.7655C60.6747 88.7652 60.7531 88.7438 60.8219 88.7035C60.8908 88.6631 60.9477 88.6053 60.9869 88.5358L65.9208 80.2082L65.9805 80.1061C66.0238 80.031 66.0473 79.9461 66.0487 79.8594C66.0786 79.8421 66.1047 79.819 66.1254 79.7913V79.7913ZM60.6289 87.4981L47.7358 68.5035L65.0431 80.0465L60.6289 87.4981Z" fill="#3C4A63"/>
<path d="M65.0431 80.0551L60.629 87.4981L47.7358 68.5035L65.0431 80.0551Z" fill="#3C4A63"/>
<path d="M65.2731 80.1486L49.423 53.779C49.3673 53.6992 49.3374 53.6042 49.3374 53.5068C49.3374 53.4095 49.3673 53.3145 49.423 53.2346C49.482 53.1597 49.5632 53.1053 49.6551 53.0793C49.7469 53.0533 49.8447 53.0571 49.9343 53.09L94.1527 68.4014C94.2316 68.4411 94.2978 68.5019 94.3442 68.577C94.3905 68.6521 94.415 68.7385 94.415 68.8267C94.415 68.9149 94.3905 69.0014 94.3442 69.0765C94.2978 69.1515 94.2316 69.2123 94.1527 69.252L65.7844 80.3103C65.7282 80.3222 65.6701 80.3222 65.614 80.3103C65.549 80.3084 65.4852 80.293 65.4265 80.2652C65.3678 80.2374 65.3156 80.1977 65.2731 80.1486V80.1486ZM50.8972 54.417L65.8696 79.3235L92.6785 68.8437L50.8972 54.417Z" fill="#4A5E81"/>
<path d="M93.8887 69.2605L49.6703 53.9917C49.5661 53.9625 49.4753 53.8983 49.4132 53.8099C49.351 53.7216 49.3214 53.6145 49.3294 53.5068C49.3364 53.4028 49.3793 53.3044 49.4507 53.2285C49.5222 53.1525 49.6178 53.1035 49.7214 53.09L99.1465 45.4343C99.2226 45.4207 99.3011 45.4268 99.3742 45.4522C99.4473 45.4775 99.5127 45.5211 99.564 45.5789C99.6181 45.6341 99.6574 45.702 99.6782 45.7763C99.6991 45.8507 99.7008 45.9291 99.6833 46.0042L94.4937 68.9203C94.4802 68.985 94.4526 69.046 94.4128 69.099C94.3731 69.1519 94.3221 69.1954 94.2636 69.2265C94.1935 69.2661 94.1141 69.2866 94.0335 69.286C93.9842 69.2849 93.9354 69.2763 93.8887 69.2605V69.2605ZM51.7666 53.728L93.7012 68.1887L98.6011 46.4466L51.7666 53.728Z" fill="#4A5E81"/>
<path d="M99.0954 46.353L67.5656 38.1359C67.4807 38.1148 67.4035 38.0701 67.3431 38.0068C67.2827 37.9435 67.2417 37.8643 67.2248 37.7786C67.2082 37.6917 67.2161 37.6019 67.2477 37.5193C67.2793 37.4367 67.3333 37.3645 67.4037 37.3107L90.1563 20.1025C90.2146 20.0572 90.283 20.0266 90.3557 20.0132C90.4284 19.9999 90.5032 20.0043 90.5739 20.0259C90.645 20.0477 90.7099 20.086 90.7633 20.1378C90.8166 20.1895 90.8569 20.2532 90.8807 20.3236L99.6579 45.7405C99.6863 45.8216 99.6918 45.909 99.6738 45.993C99.6557 46.0771 99.6148 46.1545 99.5556 46.2169C99.5124 46.2644 99.4598 46.3025 99.4011 46.3288C99.3425 46.3552 99.279 46.3692 99.2147 46.37L99.0954 46.353ZM68.7672 37.4724L98.4819 45.2216L90.233 21.2423L68.7672 37.4724Z" fill="#4A5E81"/>
<path d="M49.8151 54.0172C49.7528 54.0183 49.691 54.007 49.6331 53.984C49.5753 53.961 49.5226 53.9267 49.4782 53.8832C49.4337 53.8396 49.3985 53.7877 49.3744 53.7303C49.3503 53.673 49.3379 53.6115 49.3379 53.5493C49.3402 53.4668 49.3633 53.3861 49.405 53.3148C49.4467 53.2434 49.5057 53.1837 49.5765 53.141L67.3951 37.3363C67.4537 37.2852 67.5239 37.2491 67.5997 37.2314C67.6754 37.2136 67.7544 37.2145 67.8297 37.2342L99.3595 45.4428C99.4659 45.4686 99.5599 45.5308 99.6252 45.6186C99.6905 45.7064 99.7229 45.8142 99.7168 45.9234C99.7107 46.0325 99.6665 46.1361 99.5919 46.2161C99.5173 46.2962 99.417 46.3476 99.3083 46.3615L49.9259 54.0172H49.8407H49.8151ZM67.8382 38.2039L51.3319 52.8433L96.9053 45.783L67.8382 38.2039Z" fill="#4A5E81"/>
<path d="M67.5058 38.1104C67.4279 38.0738 67.3618 38.0161 67.3151 37.9439C67.2684 37.8718 67.243 37.788 67.2416 37.7021L66.4661 10.0735C66.4614 9.99472 66.4778 9.91609 66.5138 9.84579C66.5498 9.77549 66.6039 9.71608 66.6706 9.67372C66.7401 9.63649 66.8177 9.617 66.8965 9.617C66.9753 9.617 67.0529 9.63649 67.1223 9.67372L90.6248 20.094C90.6999 20.1269 90.7653 20.1787 90.8146 20.2443C90.8638 20.3098 90.8953 20.387 90.906 20.4682C90.9146 20.5493 90.9018 20.6312 90.8689 20.7058C90.836 20.7804 90.7842 20.8451 90.7185 20.8936L67.9915 38.0253C67.9104 38.086 67.8117 38.1189 67.7103 38.1189C67.6421 38.128 67.5729 38.1251 67.5058 38.1104ZM67.4205 10.8051L68.1534 36.7664L89.517 20.6043L67.4205 10.8051Z" fill="#4A5E81"/>
<path d="M49.7128 54.0087C49.6398 53.9895 49.5723 53.9533 49.516 53.903C49.4598 53.8527 49.4162 53.7898 49.389 53.7195L41.7196 34.0273C41.6919 33.9506 41.6845 33.8681 41.6979 33.7877C41.7113 33.7072 41.7452 33.6316 41.7963 33.568C41.8464 33.5028 41.9133 33.4525 41.9899 33.4225C42.0665 33.3926 42.1498 33.384 42.2309 33.3979L67.7956 37.2257C67.8832 37.2387 67.9654 37.2763 68.0325 37.334C68.0996 37.3918 68.149 37.4673 68.1748 37.5519C68.2007 37.6364 68.202 37.7266 68.1786 37.8119C68.1553 37.8972 68.1081 37.9742 68.0427 38.0338L50.1815 53.8981C50.0949 53.9755 49.9825 54.0179 49.8662 54.0172L49.7128 54.0087ZM42.8956 34.4441L50.0196 52.7498L66.6452 38.0253L42.8956 34.4441Z" fill="#4A5E81"/>
<path d="M67.642 38.1529L42.0773 34.325C41.99 34.3111 41.9081 34.2737 41.8405 34.2167C41.7729 34.1597 41.7222 34.0854 41.6939 34.0018C41.6686 33.9184 41.6672 33.8296 41.6898 33.7454C41.7124 33.6613 41.758 33.5851 41.8217 33.5254L66.5939 9.70774C66.659 9.64424 66.7415 9.60146 66.831 9.58481C66.9205 9.56815 67.013 9.57837 67.0966 9.61417C67.18 9.64847 67.2516 9.70604 67.303 9.77997C67.3544 9.85389 67.3833 9.94105 67.3864 10.031L68.1618 37.6595C68.1659 37.7269 68.1541 37.7942 68.1275 37.8563C68.1008 37.9183 68.0601 37.9732 68.0084 38.0168C67.9202 38.0915 67.8088 38.1336 67.6932 38.1359L67.642 38.1529ZM43.1766 33.534L67.2245 37.1747L66.4916 11.1368L43.1766 33.534Z" fill="#4A5E81"/>
<path d="M42.154 34.3335C42.0896 34.3371 42.0252 34.3273 41.9648 34.3048C41.9043 34.2824 41.8492 34.2477 41.8028 34.203C41.7564 34.1583 41.7198 34.1045 41.6952 34.045C41.6706 33.9855 41.6585 33.9215 41.6598 33.8572C41.6577 33.8289 41.6577 33.8004 41.6598 33.7721V7.71725C41.6688 7.65407 41.6908 7.59346 41.7246 7.53927C41.7583 7.48508 41.803 7.43851 41.8558 7.40251C41.9045 7.35984 41.9612 7.32732 42.0227 7.30686C42.0841 7.28641 42.1491 7.27844 42.2137 7.28342L66.9773 9.59714C67.0677 9.60437 67.154 9.6381 67.2252 9.6941C67.2965 9.75009 67.3496 9.82586 67.3779 9.91188C67.4076 9.99685 67.4122 10.0886 67.391 10.1761C67.3699 10.2636 67.3239 10.3432 67.2585 10.4052L42.5119 34.1974C42.4258 34.283 42.3096 34.3318 42.1881 34.3335H42.154ZM42.6398 8.25314V32.7599L65.8695 10.4308L42.6398 8.25314Z" fill="#4A5E81"/>
<path d="M41.9327 34.274L25.0173 25.0276C24.9538 24.9912 24.8993 24.9409 24.858 24.8805C24.8167 24.8201 24.7896 24.7512 24.7787 24.6789C24.7667 24.6069 24.772 24.5331 24.7942 24.4635C24.8165 24.394 24.855 24.3308 24.9066 24.2791L41.8389 7.40253C41.9038 7.33588 41.9874 7.29045 42.0787 7.27223C42.17 7.254 42.2647 7.26384 42.3502 7.30045C42.4369 7.33493 42.511 7.39488 42.5627 7.47235C42.6145 7.54983 42.6414 7.64117 42.64 7.73427V33.8572C42.6409 33.9394 42.6202 34.0205 42.5798 34.0922C42.5394 34.1638 42.4808 34.2236 42.4099 34.2655C42.3376 34.3084 42.2554 34.3319 42.1713 34.3335C42.0884 34.331 42.007 34.3107 41.9327 34.274ZM26.0229 24.5002L41.66 33.0661V8.8486L26.0229 24.5002Z" fill="#4A5E81"/>
<path d="M5.06842 27.9879C5.02308 27.8998 5.00691 27.7996 5.02222 27.7018C5.03753 27.604 5.08355 27.5135 5.15363 27.4435L19.2739 13.4846C19.3257 13.4331 19.389 13.3946 19.4587 13.3725C19.5283 13.3503 19.6023 13.345 19.6744 13.357C19.7472 13.3667 19.8165 13.3943 19.876 13.4373C19.9355 13.4804 19.9834 13.5376 20.0152 13.6037L25.6565 24.4152C25.6923 24.4804 25.7111 24.5535 25.7111 24.6279C25.7111 24.7022 25.6923 24.7753 25.6565 24.8405C25.6226 24.9075 25.5732 24.9656 25.5125 25.0099C25.4518 25.0543 25.3814 25.0837 25.3071 25.0957L5.56267 28.2431H5.48598C5.39957 28.2431 5.31485 28.2192 5.24116 28.1742C5.16747 28.1292 5.10769 28.0647 5.06842 27.9879V27.9879ZM19.5039 14.5989L6.85795 27.0862L24.5231 24.2536L19.5039 14.5989Z" fill="#4A5E81"/>
<path d="M25.1707 25.0787C25.099 25.0657 25.0311 25.0368 24.9721 24.9941C24.9131 24.9514 24.8645 24.896 24.8298 24.832L19.18 14.0375C19.1508 13.9734 19.1357 13.9038 19.1357 13.8333C19.1357 13.7629 19.1508 13.6933 19.18 13.6292C19.2094 13.562 19.2539 13.5025 19.3101 13.4553C19.3662 13.4081 19.4325 13.3744 19.5039 13.357L42.0434 7.26644C42.1439 7.23845 42.2508 7.24408 42.3477 7.28249C42.4447 7.32089 42.5264 7.38995 42.5803 7.4791C42.6288 7.57018 42.6474 7.67414 42.6337 7.77637C42.6199 7.8786 42.5744 7.97395 42.5036 8.04902L25.5797 24.9426C25.535 24.987 25.4818 25.0219 25.4232 25.0453C25.3646 25.0687 25.3019 25.0801 25.2389 25.0787H25.1707ZM20.2878 14.114L25.4008 23.8283L40.5862 8.62745L20.2878 14.114Z" fill="#4A5E81"/>
<path d="M12.9849 52.8604C12.8886 52.8545 12.7963 52.8197 12.7203 52.7605C12.6442 52.7013 12.5879 52.6204 12.5588 52.5286L5.01721 27.9113C4.99998 27.8473 4.99563 27.7805 5.00441 27.7148C5.01319 27.6491 5.03491 27.5858 5.06833 27.5285C5.10517 27.4731 5.15284 27.4257 5.20849 27.3892C5.26414 27.3527 5.32661 27.3277 5.39215 27.3159L25.1537 24.1515C25.2359 24.1397 25.3199 24.1491 25.3975 24.1789C25.475 24.2087 25.5437 24.2578 25.5968 24.3217C25.6489 24.3883 25.682 24.4677 25.6925 24.5516C25.703 24.6355 25.6905 24.7206 25.6564 24.798L13.445 52.5797C13.4073 52.6632 13.3463 52.7342 13.2692 52.7839C13.1921 52.8337 13.1022 52.8603 13.0104 52.8604H12.9849ZM6.09092 28.192L13.0871 51.0485L24.4634 25.2148L6.09092 28.192Z" fill="#4A5E81"/>
<path d="M12.9934 52.8603C12.8691 52.8603 12.7499 52.811 12.662 52.7232C12.5741 52.6355 12.5247 52.5165 12.5247 52.3924C12.5231 52.2869 12.5594 52.1844 12.627 52.1032L24.8128 24.4151C24.8392 24.3553 24.8779 24.3018 24.9263 24.2578C24.9748 24.2139 25.0319 24.1805 25.094 24.1599C25.1529 24.1331 25.2168 24.1193 25.2815 24.1193C25.3462 24.1193 25.4101 24.1331 25.469 24.1599L42.3843 33.4488C42.4577 33.4871 42.5194 33.5445 42.5629 33.6148C42.6064 33.6852 42.6301 33.766 42.6314 33.8486C42.6333 33.9291 42.6148 34.0088 42.5776 34.0802C42.5403 34.1516 42.4855 34.2124 42.4184 34.2569L13.2661 52.7922C13.1894 52.8394 13.1005 52.8631 13.0104 52.8603H12.9934ZM25.469 25.2658L14.0671 51.1675L41.2424 33.8912L25.469 25.2658Z" fill="#4A5E81"/>
<path d="M65.4094 80.3017L45.7331 67.168C45.6498 67.1134 45.5865 67.0333 45.5527 66.9397C45.5189 66.8462 45.5164 66.7442 45.5457 66.6491L49.3718 53.4217C49.4 53.3348 49.4513 53.2571 49.5204 53.1972C49.5895 53.1372 49.6736 53.0972 49.7638 53.0815C49.8558 53.0712 49.9487 53.0874 50.0317 53.1281C50.1147 53.1688 50.1844 53.2323 50.2325 53.3112L66.0741 79.7063C66.1311 79.7979 66.1545 79.9064 66.1406 80.0134C66.1266 80.1203 66.076 80.2192 65.9974 80.2932C65.9099 80.3757 65.7939 80.4213 65.6736 80.4208C65.5757 80.4079 65.4839 80.3664 65.4094 80.3017V80.3017ZM46.5427 66.581L64.1908 78.3538L49.9769 54.7147L46.5427 66.581Z" fill="#4A5E81"/>
<path d="M45.9205 67.2445L27.5395 65.2455C27.4381 65.2346 27.3428 65.1916 27.2676 65.1227C27.1925 65.0538 27.1414 64.9627 27.122 64.8627C27.1056 64.7628 27.1216 64.6603 27.1676 64.57C27.2135 64.4798 27.2871 64.4065 27.3776 64.3608L49.6189 53.158C49.7006 53.117 49.7926 53.1008 49.8835 53.1114C49.9743 53.122 50.0601 53.1589 50.1302 53.2175C50.2011 53.2739 50.253 53.3506 50.2789 53.4373C50.3048 53.524 50.3035 53.6165 50.2751 53.7024L46.4489 66.9467C46.4198 67.0441 46.3603 67.1297 46.279 67.1909C46.1978 67.2521 46.099 67.2858 45.9972 67.287L45.9205 67.2445ZM29.2097 64.4629L45.6564 66.2662L49.065 54.451L29.2097 64.4629Z" fill="#4A5E81"/>
<path d="M49.8152 54.0172L12.9935 52.8604C12.8936 52.8596 12.7967 52.8258 12.718 52.7643C12.6394 52.7027 12.5834 52.6168 12.5589 52.5201C12.5305 52.4241 12.5342 52.3215 12.5696 52.2278C12.605 52.1341 12.6701 52.0546 12.7549 52.0012L41.9072 33.4659C41.9661 33.4287 42.0326 33.4049 42.1018 33.396C42.171 33.3872 42.2413 33.3937 42.3077 33.4149C42.3733 33.4357 42.4334 33.471 42.4836 33.5181C42.5337 33.5652 42.5726 33.623 42.5974 33.6871L50.2668 53.3792C50.2948 53.4507 50.3047 53.5279 50.2957 53.604C50.2868 53.6802 50.2592 53.753 50.2154 53.816C50.1716 53.879 50.113 53.9303 50.0447 53.9654C49.9764 54.0005 49.9005 54.0183 49.8237 54.0172H49.8152ZM14.5444 51.9757L49.1335 53.056L41.9327 34.5632L14.5444 51.9757Z" fill="#4A5E81"/>
<path d="M27.284 65.1094L12.6866 52.7497C12.612 52.6868 12.5593 52.6017 12.5363 52.5069C12.5134 52.4121 12.5212 52.3124 12.5588 52.2223C12.594 52.1322 12.6563 52.0551 12.7372 52.0018C12.8181 51.9485 12.9135 51.9215 13.0104 51.9246L49.8406 53.0815C49.9443 53.0861 50.0436 53.1243 50.1236 53.1903C50.2035 53.2563 50.2598 53.3465 50.2837 53.4472C50.3094 53.5489 50.2988 53.6564 50.2537 53.7511C50.2086 53.8458 50.1318 53.9218 50.0366 53.9661L27.7953 65.169C27.7325 65.2028 27.6622 65.2204 27.5908 65.22C27.4783 65.2226 27.3689 65.1831 27.284 65.1094V65.1094ZM14.3398 52.9028L27.6505 64.1907L47.9659 53.9831L14.3398 52.9028Z" fill="#4A5E81"/>
<path d="M60.2711 88.6379L45.6055 67.0404C45.5442 66.9498 45.5166 66.8407 45.5275 66.7319C45.5384 66.6231 45.5871 66.5216 45.6651 66.4449C45.7436 66.3698 45.845 66.3231 45.9531 66.3123C46.0612 66.3015 46.1699 66.3273 46.2617 66.3854L65.9379 79.5191C66.0371 79.5867 66.1065 79.6896 66.1319 79.8067C66.1572 79.9239 66.1366 80.0462 66.0743 80.1486L61.0636 88.6549C61.0244 88.7244 60.9675 88.7822 60.8987 88.8226C60.8298 88.8629 60.7515 88.8843 60.6716 88.8846V88.8846C60.5888 88.8833 60.5079 88.8597 60.4374 88.8162C60.3669 88.7728 60.3094 88.7112 60.2711 88.6379V88.6379ZM47.7359 68.5035L60.629 87.4981L65.0432 80.0551L47.7359 68.5035Z" fill="#4A5E81"/>
<path d="M15.2432 53.8896C18.1149 48.4711 22.8018 43.5374 34.2803 37.6766C34.4185 37.6027 34.5389 37.4998 34.6333 37.3749C34.7277 37.25 34.7938 37.1061 34.827 36.9533C34.8602 36.8004 34.8598 36.6421 34.8257 36.4894C34.7917 36.3367 34.7248 36.1932 34.6297 36.0689C32.2096 32.6663 32.6783 22.1355 35.8824 23.9133C35.8824 23.9133 37.5867 24.764 38.1236 25.1297L43.3132 28.3366C43.5015 28.461 43.7223 28.5273 43.9481 28.5273C44.1738 28.5273 44.3946 28.461 44.5829 28.3366C44.6596 28.2771 44.7107 28.192 44.7959 28.1325C46.6025 26.8735 51.7836 23.1818 63.6201 25.0277C65.0006 25.2403 65.7505 26.8395 65.4863 28.209C64.8301 31.4499 63.177 37.0896 58.9417 39.7266C58.832 39.792 58.7341 39.8754 58.652 39.9733C57.4249 41.5214 47.9063 52.0267 49.2783 71.7869C48.7549 70.1965 47.8814 68.7432 46.7218 67.5338C45.8697 66.6831 44.1653 65.8325 41.6089 66.6831H40.8079C40.5607 66.4875 37.689 65.9431 37.3992 65.8325C35.5245 65.1009 28.8777 64.9819 28.0255 64.9819" fill="white"/>
<path d="M27.284 65.1094L12.6866 52.7497C12.612 52.6868 12.5593 52.6017 12.5363 52.5069C12.5134 52.4121 12.5212 52.3124 12.5588 52.2223C12.594 52.1322 12.6563 52.0551 12.7372 52.0018C12.8181 51.9485 12.9135 51.9215 13.0104 51.9246L49.8406 53.0815C49.9443 53.0861 50.0436 53.1243 50.1236 53.1903C50.2035 53.2563 50.2598 53.3465 50.2837 53.4472C50.3094 53.5489 50.2988 53.6564 50.2537 53.7511C50.2086 53.8458 50.1318 53.9218 50.0366 53.9661L27.7953 65.169C27.7325 65.2028 27.6622 65.2204 27.5908 65.22C27.4783 65.2226 27.3689 65.1831 27.284 65.1094V65.1094ZM14.3398 52.9028L27.6505 64.1907L47.9659 53.9831L14.3398 52.9028Z" fill="#4A5E81"/>
<path d="M45.9205 67.2445L27.5395 65.2455C27.4381 65.2346 27.3428 65.1916 27.2676 65.1227C27.1925 65.0538 27.1414 64.9627 27.122 64.8627C27.1056 64.7628 27.1216 64.6603 27.1676 64.57C27.2135 64.4798 27.2871 64.4065 27.3776 64.3608L49.6189 53.158C49.7006 53.117 49.7926 53.1008 49.8835 53.1114C49.9743 53.122 50.0601 53.1589 50.1302 53.2175C50.2011 53.2739 50.253 53.3506 50.2789 53.4373C50.3048 53.524 50.3035 53.6165 50.2751 53.7024L46.4489 66.9467C46.4198 67.0441 46.3603 67.1297 46.279 67.1909C46.1978 67.2521 46.099 67.2858 45.9972 67.287L45.9205 67.2445ZM29.2097 64.4629L45.6564 66.2662L49.065 54.451L29.2097 64.4629Z" fill="#4A5E81"/>
<path d="M60.2711 88.6379L45.6055 67.0404C45.5442 66.9498 45.5166 66.8407 45.5275 66.7319C45.5384 66.6231 45.5871 66.5216 45.6651 66.4449C45.7436 66.3698 45.845 66.3231 45.9531 66.3123C46.0612 66.3015 46.1699 66.3273 46.2617 66.3854L65.9379 79.5191C66.0371 79.5867 66.1065 79.6896 66.1319 79.8067C66.1572 79.9239 66.1366 80.0462 66.0743 80.1486L61.0636 88.6549C61.0244 88.7244 60.9675 88.7822 60.8987 88.8226C60.8298 88.8629 60.7515 88.8843 60.6716 88.8846V88.8846C60.5888 88.8833 60.5079 88.8597 60.4374 88.8162C60.3669 88.7728 60.3094 88.7112 60.2711 88.6379V88.6379ZM47.7359 68.5035L60.629 87.4981L65.0432 80.0551L47.7359 68.5035Z" fill="#4A5E81"/>
<path d="M12.9849 52.8604C12.8886 52.8545 12.7963 52.8197 12.7203 52.7605C12.6442 52.7013 12.5879 52.6204 12.5588 52.5286L5.01721 27.9113C4.99998 27.8473 4.99563 27.7805 5.00441 27.7148C5.01319 27.6491 5.03491 27.5858 5.06833 27.5285C5.10517 27.4731 5.15284 27.4257 5.20849 27.3892C5.26414 27.3527 5.32661 27.3277 5.39215 27.3159L25.1537 24.1515C25.2359 24.1397 25.3199 24.1491 25.3975 24.1789C25.475 24.2087 25.5437 24.2578 25.5968 24.3217C25.6489 24.3883 25.682 24.4677 25.6925 24.5516C25.703 24.6355 25.6905 24.7206 25.6564 24.798L13.445 52.5797C13.4073 52.6632 13.3463 52.7342 13.2692 52.7839C13.1921 52.8337 13.1022 52.8603 13.0104 52.8604H12.9849ZM6.09092 28.192L13.0871 51.0485L24.4634 25.2148L6.09092 28.192Z" fill="#4A5E81"/>
<path d="M93.8887 69.2605L49.6703 53.9917C49.5661 53.9625 49.4753 53.8983 49.4132 53.8099C49.351 53.7216 49.3214 53.6145 49.3294 53.5068C49.3364 53.4028 49.3793 53.3044 49.4507 53.2285C49.5222 53.1525 49.6178 53.1035 49.7214 53.09L99.1465 45.4343C99.2226 45.4207 99.3011 45.4268 99.3742 45.4522C99.4473 45.4775 99.5127 45.5211 99.564 45.5789C99.6181 45.6341 99.6574 45.702 99.6782 45.7763C99.6991 45.8507 99.7008 45.9291 99.6833 46.0042L94.4937 68.9203C94.4802 68.985 94.4526 69.046 94.4128 69.099C94.3731 69.1519 94.3221 69.1954 94.2636 69.2265C94.1935 69.2661 94.1141 69.2866 94.0335 69.286C93.9842 69.2849 93.9354 69.2763 93.8887 69.2605V69.2605ZM51.7666 53.728L93.7012 68.1887L98.6011 46.4466L51.7666 53.728Z" fill="#4A5E81"/>
<path d="M49.8151 54.0172C49.7528 54.0183 49.691 54.007 49.6331 53.984C49.5753 53.961 49.5226 53.9267 49.4782 53.8832C49.4337 53.8396 49.3985 53.7877 49.3744 53.7303C49.3503 53.673 49.3379 53.6115 49.3379 53.5493C49.3402 53.4668 49.3633 53.3861 49.405 53.3148C49.4467 53.2434 49.5057 53.1837 49.5765 53.141L67.3951 37.3363C67.4537 37.2852 67.5239 37.2491 67.5997 37.2314C67.6754 37.2136 67.7544 37.2145 67.8297 37.2342L99.3595 45.4428C99.4659 45.4686 99.5599 45.5308 99.6252 45.6186C99.6905 45.7064 99.7229 45.8142 99.7168 45.9234C99.7107 46.0325 99.6665 46.1361 99.5919 46.2161C99.5173 46.2962 99.417 46.3476 99.3083 46.3615L49.9259 54.0172H49.8407H49.8151ZM67.8382 38.2039L51.3319 52.8433L96.9053 45.783L67.8382 38.2039Z" fill="#4A5E81"/>
<path opacity="0.75" d="M41.9326 20.4002C46.4695 20.4002 50.1473 16.7289 50.1473 12.2001C50.1473 7.67131 46.4695 4 41.9326 4C37.3957 4 33.7178 7.67131 33.7178 12.2001C33.7178 16.7289 37.3957 20.4002 41.9326 20.4002Z" fill="#ED174C"/>
<path opacity="0.75" d="M65.043 84.9972C68.2386 84.9972 70.8291 82.4113 70.8291 79.2214C70.8291 76.0315 68.2386 73.4456 65.043 73.4456C61.8474 73.4456 59.2568 76.0315 59.2568 79.2214C59.2568 82.4113 61.8474 84.9972 65.043 84.9972Z" fill="#FFD200"/>
<path opacity="0.75" d="M29.3205 71.183C33.0761 71.183 36.1207 68.1438 36.1207 64.3949C36.1207 60.646 33.0761 57.6069 29.3205 57.6069C25.5648 57.6069 22.5203 60.646 22.5203 64.3949C22.5203 68.1438 25.5648 71.183 29.3205 71.183Z" fill="#002D72"/>
<path opacity="0.75" d="M89.4405 28.3706C92.9702 28.3706 95.8317 25.5143 95.8317 21.9909C95.8317 18.4675 92.9702 15.6111 89.4405 15.6111C85.9107 15.6111 83.0493 18.4675 83.0493 21.9909C83.0493 25.5143 85.9107 28.3706 89.4405 28.3706Z" fill="#24AB9F"/>
<path opacity="0.75" d="M14.5359 56.8668C17.4774 56.8668 19.8619 54.4865 19.8619 51.5503C19.8619 48.6141 17.4774 46.2339 14.5359 46.2339C11.5945 46.2339 9.20996 48.6141 9.20996 51.5503C9.20996 54.4865 11.5945 56.8668 14.5359 56.8668Z" fill="#C94281"/>
<path opacity="0.75" d="M25.4861 28.1835C27.3121 28.1835 28.7924 26.7058 28.7924 24.883C28.7924 23.0602 27.3121 21.5826 25.4861 21.5826C23.66 21.5826 22.1797 23.0602 22.1797 24.883C22.1797 26.7058 23.66 28.1835 25.4861 28.1835Z" fill="#6DB56D"/>
<path opacity="0.75" d="M68.4773 41.7595C70.5905 41.7595 72.3035 40.0496 72.3035 37.9402C72.3035 35.8308 70.5905 34.1208 68.4773 34.1208C66.3642 34.1208 64.6511 35.8308 64.6511 37.9402C64.6511 40.0496 66.3642 41.7595 68.4773 41.7595Z" fill="#F47E6C"/>
<path opacity="0.75" d="M97.4931 53.0389C100.995 53.0389 103.833 50.2055 103.833 46.7102C103.833 43.215 100.995 40.3815 97.4931 40.3815C93.9916 40.3815 91.1531 43.215 91.1531 46.7102C91.1531 50.2055 93.9916 53.0389 97.4931 53.0389Z" fill="#F5B33C"/>
<path opacity="0.75" d="M54.0502 62.9403C59.4249 62.9403 63.7818 58.5911 63.7818 53.2261C63.7818 47.8611 59.4249 43.5119 54.0502 43.5119C48.6756 43.5119 44.3186 47.8611 44.3186 53.2261C44.3186 58.5911 48.6756 62.9403 54.0502 62.9403Z" fill="#0085CA"/>
<path opacity="0.75" d="M80.4757 67.9761C83.1066 67.9761 85.2393 65.8472 85.2393 63.221C85.2393 60.5949 83.1066 58.466 80.4757 58.466C77.8449 58.466 75.7122 60.5949 75.7122 63.221C75.7122 65.8472 77.8449 67.9761 80.4757 67.9761Z" fill="#A90533"/>
</svg>
