<svg width="94" height="92" viewBox="0 0 94 92" fill="none" xmlns="http://www.w3.org/2000/svg">
<path d="M48.7261 61.8506L30.1629 43.6589C28.8838 42.4054 28.8838 40.3736 30.1629 39.1201C31.442 37.8666 33.5153 37.8666 34.7944 39.1201L53.3575 57.3118C54.6364 58.5651 54.6364 60.5971 53.3575 61.8506C52.0785 63.1039 50.0048 63.1039 48.7261 61.8506Z" fill="#F47E6C"/>
<path d="M53.2752 57.3475L43.9938 48.2518L39.3623 52.7906L48.6437 61.8863C49.9228 63.1396 51.9961 63.1396 53.2752 61.8863C54.5541 60.633 54.5541 58.6008 53.2752 57.3475Z" fill="#FCCB6F"/>
<path d="M77.4728 33.6784L58.9096 15.4867C57.6307 14.2332 57.6307 12.2014 58.9096 10.9479C60.1887 9.69444 62.262 9.69444 63.5411 10.9479L82.1042 29.1396C83.3833 30.3931 83.3833 32.425 82.1042 33.6784C80.8253 34.9319 78.7517 34.9319 77.4728 33.6784Z" fill="#F47E6C"/>
<path d="M82.0213 29.1758L72.7399 20.0801L68.1084 24.6189L77.3898 33.7146C78.6687 34.968 80.7422 34.968 82.0213 33.7146C83.3003 32.4613 83.3 30.4292 82.0213 29.1758Z" fill="#FCCB6F"/>
<path d="M29.6897 80.4604L11.1275 62.2697C9.84845 61.0162 9.84845 58.9843 11.1275 57.7309C12.4066 56.4774 14.4799 56.4776 15.759 57.7309L34.321 75.9215C35.6 77.1749 35.6 79.2068 34.321 80.4603C33.0424 81.7137 30.9687 81.7137 29.6897 80.4604Z" fill="#63DBD0"/>
<path d="M34.321 75.9219L25.0399 66.8265L20.4084 71.3653L29.6895 80.4607C30.9684 81.714 33.0419 81.714 34.321 80.4607C35.5997 79.2072 35.5997 77.1751 34.321 75.9219Z" fill="#7692D9"/>
<path d="M58.4358 52.2888L39.8726 34.0971C38.5936 32.8437 38.5936 30.8118 39.8726 29.5583C41.1517 28.3049 43.225 28.3049 44.5041 29.5583L63.0673 47.75C64.3463 49.0034 64.3463 51.0354 63.0673 52.2888C61.7884 53.5422 59.7147 53.5422 58.4358 52.2888Z" fill="#63DBD0"/>
<path d="M63.0682 47.7505L53.7867 38.6548L49.1553 43.1934L58.4367 52.2891C59.7156 53.5424 61.7891 53.5424 63.0682 52.2891C64.3469 51.0358 64.3469 49.0038 63.0682 47.7505Z" fill="#7692D9"/>
<path d="M64.9373 35.5463C71.1164 36.2624 81.8291 36.3939 88.1893 30.1613C89.4682 28.9078 89.4682 26.8759 88.1893 25.6225C86.9104 24.369 84.8369 24.369 83.5578 25.6225C79.0709 30.0196 69.99 29.9021 63.7234 28.8944C62.841 23.7394 62.3494 14.1194 67.0848 9.47891C68.3637 8.22544 68.3637 6.19358 67.0848 4.9401C65.8058 3.68663 63.7324 3.68663 62.4534 4.9401C56.0931 11.1731 56.2277 21.6715 56.9584 27.7269C36.0779 25.3074 25.6891 34.9949 28.2113 55.8988C22.0322 55.1828 11.3192 55.0511 4.9593 61.2837C3.68023 62.5371 3.68023 64.5691 4.9593 65.8225C6.23836 67.0759 8.31171 67.0759 9.59077 65.8225C14.0682 61.4347 23.1253 61.5401 29.4059 62.5476C30.4332 68.6998 30.5426 77.5774 26.0641 81.9663C24.7851 83.2197 24.7851 85.2516 26.0641 86.5051C27.3432 87.7585 29.4165 87.7584 30.6956 86.5051C37.0558 80.2721 36.9213 69.7738 36.1905 63.7183C57.0707 66.1377 67.4594 56.4503 64.9373 35.5463ZM58.1527 34.3757C61.1058 52.0626 54.307 57.6899 41.8363 57.6447C39.1037 57.635 36.6309 57.3317 34.9956 57.0694C34.7279 55.4662 34.4185 53.0435 34.4086 50.3656C34.3635 38.4395 39.7866 31.4297 58.1527 34.3757Z" fill="#9DA3B3"/>
<path d="M36.1903 63.7184C57.0711 66.1378 67.4596 56.4504 64.9374 35.5465C71.1165 36.2626 81.8292 36.3942 88.1894 30.1615C89.4683 28.9081 89.4683 26.8762 88.1894 25.6227C86.9105 24.3693 84.837 24.3693 83.5579 25.6227C79.0756 30.0153 70.0093 29.9026 63.7428 28.8976L58.1524 34.3762C61.1055 52.063 54.3067 57.6903 41.8361 57.6452C39.1035 57.6354 36.6307 57.3321 34.9954 57.0699L29.4053 62.5481C30.4326 68.7002 30.542 77.5778 26.0635 81.9667C24.7845 83.2202 24.7845 85.252 26.0635 86.5055C27.3426 87.759 29.416 87.7588 30.695 86.5055C37.0554 80.2724 36.9209 69.7739 36.1903 63.7184Z" fill="#9DA3B3"/>
</svg>
