<svg width="378" height="241" viewBox="0 0 378 241" fill="none" xmlns="http://www.w3.org/2000/svg">
<path d="M230.496 1H255.766V240.269H230.496V1Z" fill="#5C94B9" fill-opacity="0.5"/>
<path d="M192.265 143.604H217.534V240.329H192.265V143.604Z" fill="#62AC62" fill-opacity="0.5"/>
<path d="M192.265 73.3672H217.534V143.546H192.265V73.3672Z" fill="white"/>
<path d="M154 108.486H179.27V240.271H154V108.486Z" fill="white"/>
<path d="M154 21.4558H179.27V108.484H154V21.4558Z" fill="#5C94B9" fill-opacity="0.5"/>
<path d="M268.761 151.999H294.03V239.027H268.761V151.999Z" fill="#62AC62" fill-opacity="0.5"/>
<path fill-rule="evenodd" clip-rule="evenodd" d="M324.9 1L310 13.5748L295.101 1L287.1 18.793L268.232 13.9519L268.735 33.474L249.615 37.3095L258.53 54.6312L243 66.4199L258.53 78.1771L249.615 95.53L268.735 99.3655L268.232 118.856L287.1 114.046L295.101 131.84L310 119.265L324.9 131.84L332.9 114.046L351.769 118.856L351.265 99.3655L370.385 95.53L361.471 78.1771L377 66.4203V66.4199L361.471 54.6312L370.385 37.3095L351.265 33.474L351.769 13.9834L332.9 18.793L324.9 1Z" fill="white" stroke="#5C94B9"/>
<path fill-rule="evenodd" clip-rule="evenodd" d="M324.9 1L310 13.5748L295.101 1L287.1 18.793L268.232 13.9519L268.735 33.474L249.615 37.3095L258.53 54.6312L243 66.4199L258.53 78.1771L249.615 95.53L268.735 99.3655L268.232 118.856L287.1 114.046L295.101 131.84L310 119.265L324.9 131.84L332.9 114.046L351.769 118.856L351.265 99.3655L370.385 95.53L361.471 78.1771L377 66.4203V66.4199L361.471 54.6312L370.385 37.3095L351.265 33.474L351.769 13.9834L332.9 18.793L324.9 1Z" fill="white" stroke="#5C94B9"/>
<path fill-rule="evenodd" clip-rule="evenodd" d="M264.955 107.822L244.574 143.817L267.852 137.372L274.31 160.699L290.973 131.305L293.116 127.47L287.099 114.046L268.231 118.856L268.672 101.22L264.955 107.822Z" fill="#5C94B9"/>
<path fill-rule="evenodd" clip-rule="evenodd" d="M351.768 118.856L332.9 114.046L327.136 126.841L329.309 130.676L346.319 160.698L352.776 137.372L376.055 143.817L355.013 106.658L351.296 100.057L351.768 118.856Z" fill="#5C94B9"/>
<path fill-rule="evenodd" clip-rule="evenodd" d="M310 24.7661C332.981 24.7661 351.611 43.4152 351.611 66.4199C351.611 89.4245 332.981 108.074 310 108.074C287.018 108.074 268.389 89.4245 268.389 66.4199C268.389 43.4152 287.018 24.7661 310 24.7661Z" fill="#62AC62" fill-opacity="0.5"/>
<path d="M65.6618 141.774V110.189C55.0082 110.204 44.5385 112.967 35.2654 118.212C25.9923 123.457 18.2294 131.005 12.7277 140.129C7.22602 149.252 4.17162 159.64 3.85994 170.289C3.54827 180.938 5.98985 191.487 10.9486 200.917L65.7373 202.402C57.6976 202.402 49.9871 199.208 44.3022 193.523C38.6173 187.838 35.4235 180.128 35.4235 172.088C35.4235 164.048 38.6173 156.338 44.3022 150.653C49.9871 144.968 57.6976 141.774 65.7373 141.774H65.6618Z" fill="#62AC62" fill-opacity="0.3"/>
<path d="M65.6096 69.2178H111.917V164.853H65.6096V69.2178Z" fill="#62AC62" fill-opacity="0.3"/>
<path d="M77.7404 164.901H99.9629V175.27H77.7404V164.901Z" fill="#62AC62"/>
<path d="M77.6388 53.4119H99.8613V69.2671H77.6388V53.4119Z" fill="#62AC62"/>
<path d="M39.6354 123.904C39.6354 138.278 51.2877 149.93 65.6615 149.93C80.0353 149.93 91.6875 138.278 91.6875 123.904C91.6875 109.53 80.0353 97.8779 65.6615 97.8779C51.2877 97.8779 39.6354 109.53 39.6354 123.904Z" fill="white" stroke="#5C94B9"/>
<path d="M81.2646 123.904C81.2696 120.813 80.3579 117.79 78.6447 115.217C76.9315 112.644 74.4939 110.637 71.64 109.45C68.7862 108.262 65.6442 107.948 62.6116 108.546C59.579 109.144 56.7917 110.628 54.6025 112.81C52.4133 114.992 50.9203 117.775 50.3124 120.806C49.7045 123.836 50.0089 126.979 51.1872 129.837C52.3655 132.695 54.3647 135.139 56.9321 136.86C59.4995 138.582 62.5196 139.503 65.6107 139.508C69.7537 139.508 73.7277 137.866 76.6619 134.941C79.5962 132.016 81.2513 128.047 81.2646 123.904ZM72.5065 123.904C72.5115 125.263 72.1134 126.593 71.3625 127.726C70.6117 128.858 69.5419 129.743 68.2884 130.267C67.0349 130.792 65.654 130.933 64.3203 130.673C62.9865 130.413 61.7599 129.763 60.7955 128.806C59.8311 127.848 59.1723 126.626 58.9023 125.295C58.6323 123.963 58.7633 122.581 59.2787 121.324C59.7941 120.066 60.6709 118.99 61.7979 118.231C62.925 117.472 64.2518 117.064 65.6107 117.059C67.4265 117.066 69.1665 117.788 70.4528 119.07C71.7391 120.351 72.4681 122.089 72.4813 123.904H72.5065Z" fill="#5C94B9"/>
<path d="M21.1394 239.623H10.7202V223.063H39.6875L30.9545 234.716C29.8124 236.24 28.3306 237.478 26.6269 238.329C24.9231 239.181 23.0442 239.624 21.1394 239.623Z" fill="#62AC62" fill-opacity="0.3"/>
<path d="M123.419 239.547H112.975C111.071 239.557 109.191 239.121 107.487 238.273C105.782 237.425 104.3 236.189 103.159 234.665L94.4013 223.013H123.419V239.547Z" fill="#62AC62" fill-opacity="0.3"/>
<path d="M7.62939e-05 200.841H136.003V223.743H7.62939e-05V200.841Z" fill="#62AC62"/>
<path d="M65.5852 81.2729H111.893V91.969H65.5852V81.2729Z" fill="#62AC62"/>
<path d="M62.0118 187.578H115.668V196.336H62.0118V187.578Z" fill="#5C94B9"/>
</svg>
