<svg width="445" height="319" viewBox="0 0 445 319" fill="none" xmlns="http://www.w3.org/2000/svg">
<path fill-rule="evenodd" clip-rule="evenodd" d="M394.663 259.195L50.2178 89.204L51.2395 87.1338L395.685 257.124L394.663 259.195Z" fill="#5C94B9"/>
<path d="M84.5452 186.91C131.238 186.91 169.09 149.058 169.09 102.365C169.09 55.6715 131.238 17.8193 84.5452 17.8193C37.8522 17.8193 0 55.6715 0 102.365C0 149.058 37.8522 186.91 84.5452 186.91Z" fill="white"/>
<path fill-rule="evenodd" clip-rule="evenodd" d="M330.998 41.4192L210.552 166.124L208.892 164.521L329.338 39.8154L330.998 41.4192Z" fill="#5C94B9"/>
<path d="M84.5452 187.312C131.238 187.312 169.09 149.459 169.09 102.766C169.09 56.0734 131.238 18.2212 84.5452 18.2212C37.8522 18.2212 0 56.0734 0 102.766C0 149.459 37.8522 187.312 84.5452 187.312Z" fill="#62AC62" fill-opacity="0.25"/>
<path d="M116.647 79.1561H138.396C138.462 79.1538 138.527 79.1645 138.589 79.1877C138.651 79.2109 138.708 79.246 138.756 79.2911C138.804 79.3362 138.843 79.3904 138.871 79.4505C138.898 79.5107 138.913 79.5756 138.915 79.6416C138.918 79.7178 138.904 79.7936 138.873 79.8631L128.011 109.679C127.931 109.886 127.792 110.066 127.613 110.197C127.433 110.328 127.22 110.406 126.998 110.42H105.241C105.175 110.424 105.109 110.416 105.046 110.395C104.983 110.374 104.925 110.34 104.875 110.297C104.825 110.253 104.785 110.2 104.755 110.141C104.726 110.082 104.709 110.017 104.704 109.951C104.703 109.857 104.723 109.764 104.764 109.679L115.634 79.8631C115.719 79.6616 115.859 79.4882 116.038 79.3631C116.218 79.238 116.429 79.1662 116.647 79.1561Z" fill="#62AC62" fill-opacity="0.6"/>
<path d="M132.969 77.2139H123.275L121.597 81.831H131.291L132.969 77.2139Z" fill="#62AC62"/>
<path d="M127.133 105.777H108.588L117.311 81.8306H135.856L127.133 105.777Z" fill="white"/>
<path d="M44.3145 71.0374C44.766 56.3256 54.8521 51.504 64.1375 52.85C72.2217 54.0255 77.0604 60.9087 77.0604 69.0355C77.4863 75.0582 82.1205 78.5594 79.9993 79.3687C79.2393 79.5741 78.4598 79.6998 77.6737 79.7435C77.5828 82.8233 77.3126 85.8953 76.8644 88.9437C76.3107 92.7516 71.0973 92.3512 68.5843 92.0019C64.376 91.3886 65.3131 92.3938 64.5634 97.4709H50.2094C51.0509 92.6786 50.0399 87.7456 47.3812 83.6706C45.7542 81.0469 44.1015 77.8949 44.3145 71.0374Z" fill="#FCC190"/>
<path d="M54.4946 87.4361C67.2727 74.6581 72.3839 58.4044 72.3839 56.9136C70.5013 54.0854 55.8832 46.1119 45.2689 56.5047C34.1946 67.3661 39.0247 81.0471 39.0247 81.0471C39.0247 81.0471 22.2939 74.5899 22.2939 87.2998C22.2939 93.2629 27.4052 95.1967 32.8231 95.6141C36.8104 95.8832 40.8089 95.2923 44.548 93.8813C48.287 92.4704 51.6791 90.2723 54.4946 87.4361Z" fill="#5C94B9"/>
<path d="M75.8677 100.521L106.467 131.128C108.496 133.164 109.635 135.921 109.635 138.795C109.635 141.669 108.496 144.426 106.467 146.462C104.431 148.491 101.674 149.63 98.8001 149.63C95.926 149.63 93.169 148.491 91.1332 146.462L60.5 115.854L75.8337 100.521H75.8677Z" fill="white"/>
<path d="M130.941 109.781L106.986 145.806C105.548 147.967 103.31 149.468 100.766 149.979C98.2207 150.491 95.577 149.97 93.4159 148.532C92.8753 148.176 92.3729 147.765 91.9166 147.305C90.0834 145.47 89.0537 142.982 89.0537 140.388C89.0537 137.794 90.0834 135.306 91.9166 133.471L123.282 102.097L130.941 109.781Z" fill="white"/>
<path d="M354.214 311.711C403.774 311.711 443.95 271.535 443.95 221.975C443.95 172.415 403.774 132.239 354.214 132.239C304.655 132.239 264.479 172.415 264.479 221.975C264.479 271.535 304.655 311.711 354.214 311.711Z" fill="white"/>
<path d="M354.284 311.921C403.844 311.921 444.02 271.745 444.02 222.185C444.02 172.625 403.844 132.449 354.284 132.449C304.724 132.449 264.548 172.625 264.548 222.185C264.548 271.745 304.724 311.921 354.284 311.921Z" fill="#5C94B9" fill-opacity="0.2"/>
<path d="M310.813 202.626C314.059 206.263 326.334 214.109 329.929 210.863C333.524 207.618 329.503 196.382 326.258 192.778C323.012 189.175 315.124 186.943 311.495 190.223C309.765 191.781 308.723 193.96 308.595 196.284C308.468 198.608 309.265 200.888 310.813 202.626Z" fill="white"/>
<path d="M374.227 218.232L338.883 238.123L332.247 205.301L318.421 208.282L323.302 251.634C323.523 253.405 324.091 255.115 324.973 256.666C325.856 258.217 327.035 259.579 328.444 260.674C329.853 261.769 331.464 262.575 333.185 263.047C334.906 263.519 336.703 263.647 338.474 263.424C340.066 263.229 341.609 262.75 343.031 262.01L384.773 242.519" fill="url(#paint0_linear)"/>
<path d="M374.227 218.232L338.883 238.123L332.247 205.301L318.421 208.282L323.302 251.634C323.523 253.405 324.091 255.115 324.973 256.666C325.856 258.217 327.035 259.579 328.444 260.674C329.853 261.769 331.464 262.575 333.185 263.047C334.906 263.519 336.703 263.647 338.474 263.424C340.066 263.229 341.609 262.75 343.031 262.01L384.773 242.519" fill="white"/>
<path d="M316.896 211.869C315.992 211.869 315.125 211.51 314.486 210.871C313.847 210.231 313.488 209.365 313.488 208.461V180.818H320.354V208.435C320.354 209.339 319.995 210.206 319.356 210.845C318.717 211.484 317.851 211.843 316.947 211.843L316.896 211.869Z" fill="white"/>
<path d="M316.896 211.869C315.992 211.869 315.125 211.51 314.486 210.871C313.847 210.232 313.488 209.365 313.488 208.461V186.023H320.354V208.436C320.354 209.339 319.995 210.206 319.356 210.845C318.717 211.484 317.851 211.843 316.947 211.843L316.896 211.869Z" fill="#62AC62"/>
<path d="M326.317 192.778L321.248 189.567C320.987 189.402 320.696 189.29 320.391 189.237C320.087 189.184 319.775 189.192 319.473 189.26C319.172 189.328 318.887 189.455 318.635 189.633C318.382 189.812 318.167 190.038 318.002 190.299C317.961 190.359 317.924 190.422 317.892 190.487C317.648 190.974 317.581 191.53 317.7 192.061C317.82 192.591 318.119 193.065 318.548 193.4L323.131 196.944L324.903 202.984L329.383 200.147L326.317 192.778Z" fill="white"/>
<path d="M399.356 182.598C398.751 163.005 385.317 156.557 372.948 158.362C362.18 159.93 355.723 169.096 355.723 179.923C355.17 187.956 348.994 192.633 351.822 193.69C352.835 193.964 353.874 194.13 354.923 194.184C355.041 198.301 355.4 202.409 355.996 206.485C356.703 211.596 363.663 211.034 367.07 210.548C372.667 209.696 373.587 211.068 374.575 217.832H391.502C390.39 211.438 391.741 204.86 395.284 199.423C397.422 195.93 399.671 191.73 399.356 182.598Z" fill="#BC9779"/>
<path d="M374.525 217.84H391.46L399.527 221.759C405.811 224.816 411.109 229.579 414.816 235.503C418.523 241.427 420.49 248.275 420.492 255.263V319H354.284V248.184C354.288 242.495 355.79 236.908 358.641 231.984C361.491 227.061 365.589 222.976 370.521 220.14L374.525 217.84Z" fill="white"/>
<path fill-rule="evenodd" clip-rule="evenodd" d="M360.628 181.484C360.08 182.103 359.671 183.091 359.671 184.498C359.671 185.915 360.092 187.229 360.725 188.16C361.368 189.105 362.12 189.52 362.776 189.52C363.431 189.52 364.184 189.105 364.827 188.16C365.46 187.229 365.881 185.915 365.881 184.498C365.881 183.1 365.473 182.112 364.922 181.49C364.378 180.874 363.632 180.541 362.776 180.541C361.917 180.541 361.171 180.872 360.628 181.484ZM358.901 179.953C359.9 178.826 361.284 178.232 362.776 178.232C364.271 178.232 365.655 178.832 366.652 179.961C366.992 180.345 367.28 180.783 367.511 181.265H382.319V183.574H368.142C368.173 183.873 368.189 184.181 368.189 184.498C368.189 186.344 367.648 188.117 366.735 189.459C365.832 190.786 364.454 191.828 362.776 191.828C361.097 191.828 359.72 190.786 358.817 189.459C357.904 188.117 357.362 186.344 357.362 184.498C357.362 184.347 357.366 184.198 357.373 184.051C356.648 183.986 355.915 184.034 355.2 184.193C354.578 184.332 353.961 183.941 353.822 183.319C353.683 182.697 354.075 182.079 354.697 181.94C355.724 181.711 356.78 181.656 357.821 181.777C358.079 181.084 358.442 180.471 358.901 179.953Z" fill="white"/>
<path d="M360.628 181.484L360.254 181.153L360.628 181.484ZM360.725 188.16L361.139 187.879L361.139 187.879L360.725 188.16ZM364.827 188.16L364.413 187.879V187.879L364.827 188.16ZM364.922 181.49L364.548 181.821V181.821L364.922 181.49ZM358.901 179.953L358.526 179.622L358.901 179.953ZM366.652 179.961L366.277 180.292L366.277 180.292L366.652 179.961ZM367.511 181.265L367.06 181.481L367.196 181.765H367.511V181.265ZM382.319 181.265H382.819V180.765H382.319V181.265ZM382.319 183.574V184.074H382.819V183.574H382.319ZM368.142 183.574V183.074H367.587L367.645 183.626L368.142 183.574ZM366.735 189.459L367.149 189.74L366.735 189.459ZM358.817 189.459L358.403 189.74L358.817 189.459ZM357.373 184.051L357.872 184.076L357.896 183.596L357.418 183.553L357.373 184.051ZM355.2 184.193L355.309 184.681L355.2 184.193ZM353.822 183.319L353.334 183.428L353.822 183.319ZM354.697 181.94L354.588 181.452H354.588L354.697 181.94ZM357.821 181.777L357.763 182.274L358.152 182.319L358.289 181.951L357.821 181.777ZM360.171 184.498C360.171 183.188 360.55 182.327 361.003 181.816L360.254 181.153C359.609 181.88 359.171 182.993 359.171 184.498H360.171ZM361.139 187.879C360.566 187.037 360.171 185.822 360.171 184.498H359.171C359.171 186.008 359.618 187.422 360.312 188.441L361.139 187.879ZM362.776 189.02C362.34 189.02 361.724 188.739 361.139 187.879L360.312 188.441C361.013 189.471 361.901 190.02 362.776 190.02V189.02ZM364.413 187.879C363.828 188.739 363.212 189.02 362.776 189.02V190.02C363.651 190.02 364.539 189.471 365.24 188.441L364.413 187.879ZM365.381 184.498C365.381 185.822 364.986 187.037 364.413 187.879L365.24 188.441C365.934 187.422 366.381 186.008 366.381 184.498H365.381ZM364.548 181.821C365.003 182.335 365.381 183.198 365.381 184.498H366.381C366.381 183.002 365.943 181.889 365.297 181.159L364.548 181.821ZM362.776 181.041C363.493 181.041 364.101 181.316 364.548 181.821L365.297 181.159C364.655 180.432 363.77 180.041 362.776 180.041V181.041ZM361.003 181.816C361.447 181.315 362.054 181.041 362.776 181.041V180.041C361.779 180.041 360.896 180.429 360.254 181.153L361.003 181.816ZM362.776 177.732C361.147 177.732 359.624 178.383 358.526 179.622L359.275 180.285C360.175 179.269 361.421 178.732 362.776 178.732V177.732ZM367.027 179.63C365.931 178.39 364.409 177.732 362.776 177.732V178.732C364.133 178.732 365.378 179.275 366.277 180.292L367.027 179.63ZM367.962 181.049C367.712 180.527 367.399 180.05 367.027 179.63L366.277 180.292C366.585 180.64 366.848 181.038 367.06 181.481L367.962 181.049ZM367.511 181.765H382.319V180.765H367.511V181.765ZM381.819 181.265V183.574H382.819V181.265H381.819ZM382.319 183.074H368.142V184.074H382.319V183.074ZM368.689 184.498C368.689 184.165 368.673 183.839 368.639 183.522L367.645 183.626C367.674 183.907 367.689 184.198 367.689 184.498H368.689ZM367.149 189.74C368.122 188.31 368.689 186.436 368.689 184.498H367.689C367.689 186.251 367.174 187.925 366.322 189.178L367.149 189.74ZM362.776 192.328C364.677 192.328 366.19 191.149 367.149 189.74L366.322 189.178C365.474 190.423 364.232 191.328 362.776 191.328V192.328ZM358.403 189.74C359.362 191.149 360.875 192.328 362.776 192.328V191.328C361.32 191.328 360.078 190.423 359.23 189.178L358.403 189.74ZM356.862 184.498C356.862 186.436 357.43 188.31 358.403 189.74L359.23 189.178C358.378 187.925 357.862 186.251 357.862 184.498H356.862ZM356.874 184.027C356.866 184.182 356.862 184.339 356.862 184.498H357.862C357.862 184.355 357.866 184.214 357.872 184.076L356.874 184.027ZM355.309 184.681C355.973 184.533 356.654 184.489 357.328 184.549L357.418 183.553C356.641 183.484 355.856 183.534 355.091 183.705L355.309 184.681ZM353.334 183.428C353.533 184.319 354.418 184.881 355.309 184.681L355.091 183.705C354.739 183.784 354.389 183.562 354.31 183.21L353.334 183.428ZM354.588 181.452C353.696 181.652 353.135 182.536 353.334 183.428L354.31 183.21C354.231 182.857 354.453 182.507 354.806 182.428L354.588 181.452ZM357.878 181.28C356.782 181.153 355.669 181.211 354.588 181.452L354.806 182.428C355.778 182.211 356.778 182.159 357.763 182.274L357.878 181.28ZM358.526 179.622C358.024 180.189 357.63 180.856 357.352 181.602L358.289 181.951C358.527 181.312 358.86 180.753 359.275 180.285L358.526 179.622Z" fill="#5C94B9"/>
<path opacity="0.3" fill-rule="evenodd" clip-rule="evenodd" d="M333.369 205.008C333.517 205.628 333.134 206.25 332.514 206.398L324.362 208.34C323.741 208.488 323.119 208.105 322.971 207.485C322.823 206.865 323.206 206.242 323.826 206.095L331.979 204.152C332.599 204.005 333.222 204.388 333.369 205.008Z" fill="#5C94B9"/>
<path opacity="0.3" fill-rule="evenodd" clip-rule="evenodd" d="M396.717 239.156C397.235 239.156 397.655 239.831 397.655 240.664V278.914C397.655 279.747 397.235 280.422 396.717 280.422C396.199 280.422 395.779 279.747 395.779 278.914V240.664C395.779 239.831 396.199 239.156 396.717 239.156Z" fill="#5C94B9"/>
<path d="M378.409 44.7231H330.168V81.2258H378.409V44.7231Z" fill="white"/>
<path d="M354.285 67.9965C357.056 67.9965 359.303 65.75 359.303 62.9789C359.303 60.2078 357.056 57.9614 354.285 57.9614C351.514 57.9614 349.268 60.2078 349.268 62.9789C349.268 65.75 351.514 67.9965 354.285 67.9965Z" fill="#80C480"/>
<mask id="mask0" mask-type="alpha" maskUnits="userSpaceOnUse" x="351" y="157" width="49" height="61">
<path d="M399.387 182.122C398.783 162.529 385.349 156.08 372.979 157.886C362.212 159.454 355.755 168.62 355.755 179.447C355.201 187.48 349.025 192.157 351.853 193.213C352.866 193.488 353.906 193.654 354.954 193.708C355.073 197.825 355.431 201.933 356.027 206.009C356.734 211.12 363.694 210.558 367.101 210.072C372.698 209.22 373.618 210.592 374.606 217.355H391.533C390.421 210.962 391.773 204.384 395.315 198.947C397.454 195.454 399.703 191.254 399.387 182.122Z" fill="#BC9779"/>
</mask>
<g mask="url(#mask0)">
<path d="M395.264 198.972L391.857 206.835L387.546 197.388C387.546 197.388 392.249 195.471 391.405 191.348V191.195C391.212 190.394 390.81 189.658 390.241 189.063C389.672 188.467 388.956 188.032 388.165 187.802C387.374 187.572 386.536 187.555 385.736 187.753C384.937 187.951 384.203 188.356 383.611 188.929L380.961 191.57C380.851 191.684 380.719 191.775 380.572 191.837C380.426 191.899 380.268 191.931 380.109 191.931C379.95 191.931 379.793 191.899 379.647 191.837C379.5 191.775 379.368 191.684 379.258 191.57C379.148 191.457 379.062 191.324 379.005 191.177C378.948 191.031 378.921 190.875 378.925 190.718V171.866H354.604L359.818 149.359H402.906V185.07L395.264 198.972Z" fill="#62AC62"/>
</g>
<path d="M396.717 0H265.416V81.5943H396.717V0Z" fill="white"/>
<path opacity="0.25" d="M386.992 41.2661H333.881V81.4536H386.992V41.2661Z" fill="#5C94B9"/>
<path d="M405.416 0H265.416V87H405.416V0Z" fill="#62AC62" fill-opacity="0.15"/>
<path d="M365.312 61.796C365.312 64.7088 362.95 67.07 360.038 67.07C357.125 67.07 354.764 64.7088 354.764 61.796C354.764 58.8832 357.125 56.522 360.038 56.522C362.95 56.522 365.312 58.8832 365.312 61.796Z" fill="white" stroke="#5C94B9" stroke-width="0.5"/>
<path d="M297.038 55.5078L307.67 49.0933H317.185L326.496 55.0563C328.332 56.2233 329.846 57.8305 330.903 59.7318C331.959 61.6331 332.523 63.7683 332.544 65.9433L332.928 81.1491L300.233 81.4473L293.503 69.8533C292.117 67.4957 291.697 64.6928 292.332 62.0325C292.968 59.3722 294.608 57.0613 296.911 55.5845L297.038 55.5078Z" fill="#62AC62" fill-opacity="0.5"/>
<path d="M295.93 41.3413L302.208 33.6745L312.831 30.5566V46.9807C312.831 48.146 312.601 49.2998 312.155 50.3763C311.709 51.4528 311.055 52.4307 310.231 53.2543C309.406 54.0779 308.428 54.7309 307.351 55.1761C306.274 55.6212 305.12 55.8498 303.954 55.8487H302.813C301.136 55.8455 299.494 55.3672 298.077 54.4693C296.661 53.5713 295.527 52.2904 294.809 50.7749C294.09 49.2594 293.816 47.5714 294.017 45.9063C294.219 44.2413 294.888 42.6674 295.947 41.3669L295.93 41.3413Z" fill="#5C94B9"/>
<path fill-rule="evenodd" clip-rule="evenodd" d="M303.014 61.8722L303.706 61.376L312.711 73.9421H330.168V74.794H312.273L303.014 61.8722Z" fill="white"/>
<path d="M320.493 31.3928C320.152 21.2896 313.226 17.9844 306.863 18.9044C301.317 19.7563 297.986 24.4416 297.986 30.0213C297.986 34.1529 295.311 34.4084 295.431 36.5637C295.482 37.6455 297.594 37.3729 297.594 37.3729C297.658 39.4919 297.846 41.6053 298.157 43.7023C298.531 46.3176 302.109 46.0535 303.822 45.8235C306.701 45.4061 307.178 46.0961 307.681 49.5888H316.412C315.844 46.2805 316.56 42.8803 318.414 40.0819C319.487 38.2589 320.62 36.1037 320.493 31.3928Z" fill="#FCC190"/>
<path d="M326.726 41.3413L320.456 33.6745L309.833 30.5566V46.9807C309.834 48.1485 310.066 49.3047 310.514 50.3828C310.963 51.461 311.62 52.4401 312.448 53.2639C313.276 54.0877 314.258 54.7401 315.338 55.1836C316.419 55.6271 317.576 55.8531 318.744 55.8487H319.894C321.57 55.8439 323.211 55.3645 324.626 54.4659C326.041 53.5673 327.173 52.2863 327.891 50.7711C328.608 49.2559 328.882 47.5685 328.68 45.9042C328.479 44.2399 327.81 42.6668 326.751 41.3669L326.726 41.3413Z" fill="#5C94B9"/>
<mask id="mask1" mask-type="alpha" maskUnits="userSpaceOnUse" x="295" y="18" width="26" height="32">
<path d="M320.493 31.3928C320.152 21.2896 313.226 17.9844 306.863 18.9044C301.317 19.7563 297.986 24.4416 297.986 30.0213C297.986 34.1529 295.311 34.4084 295.431 36.5637C295.482 37.6455 297.594 37.3729 297.594 37.3729C297.658 39.4919 297.846 41.6053 298.157 43.7023C298.531 46.3176 302.109 46.0535 303.822 45.8235C306.701 45.4061 307.178 46.0961 307.681 49.5888H316.412C315.844 46.2805 316.56 42.8803 318.414 40.0819C319.487 38.2589 320.62 36.1037 320.493 31.3928Z" fill="#FCC190"/>
</mask>
<g mask="url(#mask1)">
<path d="M318.326 39.6208L316.571 43.6671L314.322 38.7689C314.322 38.7689 316.741 37.7892 316.307 35.6596V35.5999C316.236 35.2921 316.104 35.0013 315.921 34.7443C315.737 34.4873 315.504 34.269 315.236 34.1021C314.968 33.9351 314.669 33.8227 314.357 33.7713C314.046 33.7199 313.727 33.7305 313.419 33.8025C312.986 33.8981 312.589 34.117 312.278 34.4329L310.889 35.7788C310.776 35.8912 310.623 35.9543 310.463 35.9543C310.304 35.9543 310.15 35.8912 310.037 35.7788C309.923 35.6594 309.859 35.5009 309.858 35.3359V25.6501C309.858 25.6501 304.645 31.8943 292.088 27.7713C279.532 23.6482 300.053 14.0562 300.053 14.0562H322.236V32.4651L318.326 39.6208Z" fill="#5C94B9"/>
</g>
<path d="M79.7098 109.475C78.006 99.7121 74.4793 97.4888 64.5635 97.4888H49.1787C39.263 97.4888 29.952 104.38 26.9535 128.582L12.0713 246.617H96.9346L79.7098 109.475Z" fill="white"/>
<path opacity="0.3" d="M86.3281 145.227L75.1771 133.557C75.0779 133.458 74.9992 133.34 74.9456 133.211C74.8919 133.081 74.8643 132.943 74.8643 132.803C74.8643 132.663 74.8919 132.524 74.9456 132.395C74.9992 132.265 75.0779 132.148 75.1771 132.049C75.3776 131.853 75.6466 131.744 75.9267 131.744C76.2069 131.744 76.4759 131.853 76.6764 132.049L87.887 143.754L86.3281 145.227Z" fill="#62AC62"/>
<defs>
<linearGradient id="paint0_linear" x1="318.421" y1="234.392" x2="384.748" y2="234.392" gradientUnits="userSpaceOnUse">
<stop stop-color="white"/>
<stop offset="0.81" stop-color="#5C94B9"/>
</linearGradient>
</defs>
</svg>
