<svg width="420" height="265" viewBox="0 0 420 265" fill="none" xmlns="http://www.w3.org/2000/svg">
<path d="M82 0.350098H369V25.3501H82V0.350098Z" fill="#5C94B9" fill-opacity="0.3"/>
<path d="M369.151 0H82.1406V191.07H369.151V0Z" fill="#5C94B9" fill-opacity="0.15"/>
<path d="M100 19.3501C103.314 19.3501 106 16.6638 106 13.3501C106 10.0364 103.314 7.3501 100 7.3501C96.6863 7.3501 94 10.0364 94 13.3501C94 16.6638 96.6863 19.3501 100 19.3501Z" fill="#5C94B9"/>
<path d="M120.54 19.3501C123.854 19.3501 126.54 16.6638 126.54 13.3501C126.54 10.0364 123.854 7.3501 120.54 7.3501C117.226 7.3501 114.54 10.0364 114.54 13.3501C114.54 16.6638 117.226 19.3501 120.54 19.3501Z" fill="#5C94B9"/>
<path d="M141.08 19.3501C144.394 19.3501 147.08 16.6638 147.08 13.3501C147.08 10.0364 144.394 7.3501 141.08 7.3501C137.766 7.3501 135.08 10.0364 135.08 13.3501C135.08 16.6638 137.766 19.3501 141.08 19.3501Z" fill="#5C94B9"/>
<path d="M167.6 75.8501C161.758 85.9228 158.681 97.3606 158.681 109.005C158.681 120.65 161.758 132.087 167.6 142.16L225 109L167.6 75.8501Z" fill="#5C94B9" fill-opacity="0.5"/>
<path d="M282.46 75.8499C276.65 65.75 268.278 57.362 258.189 51.5327C248.1 45.7034 236.652 42.6394 225 42.6499V109L282.46 75.8499Z" fill="#5C94B9" fill-opacity="0.25"/>
<path d="M225.001 42.6499C213.359 42.6519 201.924 45.7219 191.847 51.5504C181.77 57.3789 173.407 65.7602 167.601 75.8499L225.001 109V42.6499Z" fill="#62AC62" fill-opacity="0.75"/>
<path d="M167.601 142.16C173.41 152.246 181.774 160.625 191.85 166.451C201.927 172.278 213.361 175.347 225.001 175.35V109L167.601 142.16Z" fill="#62AC62" fill-opacity="0.25"/>
<path d="M282.46 75.8501L225 109L282.43 142.16C288.28 132.09 291.362 120.651 291.362 109.005C291.362 97.3589 288.28 85.9201 282.43 75.8501H282.46Z" fill="#62AC62" fill-opacity="0.5"/>
<path d="M225 175.35C236.646 175.353 248.088 172.286 258.17 166.457C268.253 160.628 276.621 152.244 282.43 142.15L225 109V175.35Z" fill="#5C94B9" fill-opacity="0.75"/>
<rect y="83.3501" width="121" height="2" rx="1" fill="#5C94B9"/>
<path d="M102.518 72.3501H54.8223V97.3213H102.518V72.3501Z" fill="#5C94B9"/>
<path d="M78.6633 72.3501H54.8223V97.3213H78.6633V72.3501Z" fill="white" fill-opacity="0.5"/>
<rect y="121.35" width="121" height="2" rx="1" fill="#5C94B9"/>
<path d="M54.8222 110.35H7.12695V135.321H54.8222V110.35Z" fill="#62AC62"/>
<path d="M30.9679 110.35H7.12695V135.321H30.9679V110.35Z" fill="white" fill-opacity="0.5"/>
<rect y="159.35" width="121" height="2" rx="1" fill="#5C94B9"/>
<path d="M102.518 147.35H54.8223V172.321H102.518V147.35Z" fill="#5C94B9"/>
<path d="M78.6633 147.35H54.8223V172.321H78.6633V147.35Z" fill="white" fill-opacity="0.5"/>
<path fill-rule="evenodd" clip-rule="evenodd" d="M388.319 244.376L369.719 263.115L326.264 219.347L335.396 210.154L344.869 200.614L388.319 244.376Z" fill="white"/>
<rect x="317.339" y="185.519" width="31.4167" height="8.22853" transform="rotate(45 317.339 185.519)" fill="white"/>
<rect x="317.615" y="185.414" width="29.6016" height="8.20484" transform="rotate(45 317.615 185.414)" fill="#5C94B9" fill-opacity="0.3" stroke="#5C94B9"/>
<path fill-rule="evenodd" clip-rule="evenodd" d="M388.153 243.96L369.553 262.699L326.098 218.931L335.23 209.738L344.703 200.198L388.153 243.96Z" fill="#62AC62" fill-opacity="0.3" stroke="#62AC62"/>
<path fill-rule="evenodd" clip-rule="evenodd" d="M248.592 188.575C239.829 179.805 235 168.151 235 155.756C235 154.095 235.092 152.397 235.277 150.717V150.704C236.958 135.141 246.32 121.572 260.32 114.414C266.891 111.055 273.986 109.35 281.409 109.35C295.162 109.35 308.131 115.403 316.98 125.957C321.216 131.009 324.268 136.771 326.058 143.096C327.226 147.215 327.812 151.47 327.812 155.756C327.812 159.468 327.386 163.099 326.546 166.626C325.7 170.152 324.434 173.562 322.755 176.847C314.776 192.466 298.929 202.162 281.409 202.162C273.979 202.162 266.884 200.464 260.32 197.104C255.991 194.893 252.045 192.021 248.599 188.575H248.592ZM309.088 183.443C316.509 176.016 320.599 166.146 320.599 155.65C320.599 154.243 320.521 152.804 320.364 151.382V151.371C318.941 138.191 311.012 126.701 299.156 120.639C293.592 117.794 287.583 116.35 281.297 116.35C269.65 116.35 258.667 121.476 251.173 130.414C247.586 134.692 245.002 139.572 243.486 144.928C242.497 148.416 242 152.02 242 155.65C242 158.793 242.361 161.868 243.072 164.855C243.789 167.841 244.861 170.728 246.283 173.51C253.04 186.738 266.46 194.949 281.297 194.949C287.589 194.949 293.597 193.511 299.156 190.665C302.822 188.793 306.164 186.361 309.083 183.443H309.088Z" fill="white"/>
<path d="M248.592 188.575L248.239 188.929L248.385 189.075H248.592V188.575ZM235.277 150.717L235.774 150.771L235.777 150.744V150.717H235.277ZM235.277 150.704L234.78 150.651L234.777 150.677V150.704H235.277ZM260.32 114.414L260.547 114.86L260.547 114.86L260.32 114.414ZM316.98 125.957L316.597 126.278V126.278L316.98 125.957ZM326.058 143.096L325.577 143.232L325.577 143.232L326.058 143.096ZM326.546 166.626L327.032 166.743L327.033 166.742L326.546 166.626ZM322.755 176.847L322.309 176.62L322.309 176.62L322.755 176.847ZM260.32 197.104L260.548 196.659L260.547 196.659L260.32 197.104ZM248.599 188.575L248.952 188.222L248.806 188.075H248.599V188.575ZM309.088 183.443V183.943H309.295L309.441 183.796L309.088 183.443ZM320.364 151.382H319.864V151.409L319.867 151.437L320.364 151.382ZM320.364 151.371H320.864V151.344L320.861 151.318L320.364 151.371ZM299.156 120.639L298.929 121.084L298.929 121.084L299.156 120.639ZM251.173 130.414L251.556 130.735L251.556 130.735L251.173 130.414ZM243.486 144.928L243.967 145.064L243.967 145.064L243.486 144.928ZM243.072 164.855L242.585 164.97L242.586 164.971L243.072 164.855ZM246.283 173.51L246.728 173.283L246.728 173.283L246.283 173.51ZM299.156 190.665L298.929 190.22L298.929 190.22L299.156 190.665ZM309.083 183.443V182.943H308.875L308.729 183.089L309.083 183.443ZM234.5 155.756C234.5 168.284 239.382 180.065 248.239 188.929L248.946 188.222C240.277 179.546 235.5 168.019 235.5 155.756H234.5ZM234.78 150.662C234.593 152.36 234.5 154.077 234.5 155.756H235.5C235.5 154.113 235.591 152.433 235.774 150.771L234.78 150.662ZM234.777 150.704V150.717H235.777V150.704H234.777ZM260.092 113.969C245.943 121.203 236.479 134.919 234.78 150.651L235.774 150.758C237.437 135.363 246.697 121.941 260.547 114.86L260.092 113.969ZM281.409 108.85C273.908 108.85 266.734 110.573 260.092 113.969L260.547 114.86C267.047 111.536 274.065 109.85 281.409 109.85V108.85ZM317.364 125.636C308.419 114.968 295.31 108.85 281.409 108.85V109.85C295.014 109.85 307.843 115.837 316.597 126.278L317.364 125.636ZM326.539 142.959C324.729 136.567 321.645 130.742 317.364 125.636L316.597 126.278C320.788 131.276 323.806 136.976 325.577 143.232L326.539 142.959ZM328.312 155.756C328.312 151.424 327.719 147.123 326.539 142.959L325.577 143.232C326.732 147.307 327.312 151.516 327.312 155.756H328.312ZM327.033 166.742C327.882 163.177 328.312 159.507 328.312 155.756H327.312C327.312 159.429 326.891 163.022 326.06 166.51L327.033 166.742ZM323.2 177.075C324.896 173.755 326.176 170.308 327.032 166.743L326.06 166.509C325.223 169.996 323.971 173.368 322.309 176.62L323.2 177.075ZM281.409 202.662C299.117 202.662 315.136 192.861 323.2 177.075L322.309 176.62C314.416 192.071 298.741 201.662 281.409 201.662V202.662ZM260.092 197.549C266.728 200.946 273.901 202.662 281.409 202.662V201.662C274.058 201.662 267.041 199.982 260.548 196.659L260.092 197.549ZM248.245 188.929C251.728 192.412 255.717 195.315 260.092 197.55L260.547 196.659C256.265 194.472 252.361 191.631 248.952 188.222L248.245 188.929ZM248.592 189.075H248.599V188.075H248.592V189.075ZM320.099 155.65C320.099 166.014 316.062 175.756 308.734 183.089L309.441 183.796C316.956 176.275 321.099 166.279 321.099 155.65H320.099ZM319.867 151.437C320.022 152.841 320.099 154.261 320.099 155.65H321.099C321.099 154.224 321.02 152.768 320.861 151.327L319.867 151.437ZM319.864 151.371V151.382H320.864V151.371H319.864ZM298.929 121.084C310.635 127.069 318.462 138.413 319.867 151.425L320.861 151.318C319.42 137.969 311.389 126.332 299.384 120.194L298.929 121.084ZM281.297 116.85C287.504 116.85 293.435 118.275 298.929 121.084L299.384 120.194C293.749 117.312 287.662 115.85 281.297 115.85V116.85ZM251.556 130.735C258.955 121.91 269.798 116.85 281.297 116.85V115.85C269.502 115.85 258.379 121.041 250.79 130.093L251.556 130.735ZM243.967 145.064C245.464 139.776 248.014 134.96 251.556 130.735L250.79 130.093C247.157 134.425 244.54 139.368 243.004 144.791L243.967 145.064ZM242.5 155.65C242.5 152.065 242.99 148.508 243.967 145.064L243.005 144.791C242.003 148.325 241.5 151.974 241.5 155.65H242.5ZM243.558 164.739C242.856 161.791 242.5 158.754 242.5 155.65H241.5C241.5 158.831 241.865 161.946 242.585 164.97L243.558 164.739ZM246.728 173.283C245.324 170.535 244.266 167.685 243.558 164.738L242.586 164.971C243.312 167.997 244.398 170.921 245.838 173.738L246.728 173.283ZM281.297 194.449C266.647 194.449 253.4 186.343 246.728 173.283L245.838 173.738C252.68 187.132 266.272 195.449 281.297 195.449V194.449ZM298.929 190.22C293.441 193.029 287.51 194.449 281.297 194.449V195.449C287.667 195.449 293.754 193.992 299.384 191.111L298.929 190.22ZM308.729 183.089C305.848 185.971 302.548 188.372 298.929 190.22L299.384 191.111C303.097 189.214 306.481 186.751 309.436 183.796L308.729 183.089ZM309.088 182.943H309.083V183.943H309.088V182.943Z" fill="#5C94B9"/>
<path fill-rule="evenodd" clip-rule="evenodd" d="M320.599 155.65C320.599 166.146 316.509 176.016 309.088 183.443H309.083C306.165 186.361 302.823 188.793 299.157 190.665C293.597 193.511 287.589 194.949 281.297 194.949C266.46 194.949 253.04 186.738 246.283 173.51C244.861 170.728 243.789 167.841 243.072 164.855C242.361 161.868 242 158.793 242 155.65C242 152.02 242.497 148.416 243.486 144.928C245.002 139.572 247.586 134.692 251.173 130.414C258.667 121.476 269.65 116.35 281.297 116.35C287.583 116.35 293.592 117.794 299.157 120.639C311.013 126.701 318.941 138.191 320.364 151.371V151.382C320.521 152.804 320.599 154.243 320.599 155.65Z" fill="white" fill-opacity="0.5"/>
<path d="M320.599 155.65C320.599 166.146 316.509 176.016 309.088 183.443H309.083C306.165 186.361 302.823 188.793 299.157 190.665C293.597 193.511 287.589 194.949 281.297 194.949C266.46 194.949 253.04 186.738 246.283 173.51C244.861 170.728 243.789 167.841 243.072 164.855C242.361 161.868 242 158.793 242 155.65C242 152.02 242.497 148.416 243.486 144.928C245.002 139.572 247.586 134.692 251.173 130.414C258.667 121.476 269.65 116.35 281.297 116.35C287.583 116.35 293.592 117.794 299.157 120.639C311.013 126.701 318.941 138.191 320.364 151.371V151.382C320.521 152.804 320.599 154.243 320.599 155.65" stroke="#5C94B9"/>
</svg>
