<svg xmlns="http://www.w3.org/2000/svg" xmlns:xlink="http://www.w3.org/1999/xlink" viewBox="0 0 1153.1 442.31"><defs><style>.cls-1,.cls-18,.cls-2,.cls-21,.cls-22,.cls-25,.cls-8{fill:none;}.cls-2,.cls-25{stroke:#fff;}.cls-18,.cls-2,.cls-21,.cls-22,.cls-25,.cls-8{stroke-miterlimit:10;}.cls-18,.cls-2,.cls-21,.cls-22{stroke-width:2.71px;}.cls-3{fill:#80c480;}.cls-4{fill:#e8762b;}.cls-5{fill:#79b2d2;}.cls-6{fill:#fcc190;}.cls-7{clip-path:url(#clip-path);}.cls-8{stroke:#62ac62;stroke-width:2px;}.cls-9{clip-path:url(#clip-path-2);}.cls-10,.cls-14{fill:#62ac62;}.cls-11{fill:#a6d9f5;}.cls-12{fill:#fff;}.cls-13{clip-path:url(#clip-path-3);}.cls-14,.cls-22{opacity:0.29;isolation:isolate;}.cls-15{clip-path:url(#clip-path-4);}.cls-16{fill:url(#linear-gradient);}.cls-17{fill:#c48469;}.cls-18,.cls-21{stroke:#32783b;}.cls-19{clip-path:url(#clip-path-5);}.cls-20{fill:#32783b;}.cls-21,.cls-22{stroke-linecap:round;}.cls-22{stroke:#80c480;}.cls-23{fill:#5c94b9;}.cls-24{fill:#f68b50;}.cls-25{stroke-width:4px;}.cls-26{fill:#38759e;}</style><clipPath id="clip-path"><path class="cls-1" d="M931,45.93C930.52,31.66,920.74,27,911.73,28.3c-7.84,1.14-12.54,7.81-12.54,15.69-.4,5.84-.6,6.12-.06,8.85a2.25,2.25,0,0,1-.53,1.53,78.73,78.73,0,0,0,.79,8.94c.53,3.69,5.59,3.32,8,3,4.07-.59,4.74.38,5.46,5.31h12.32A18.64,18.64,0,0,1,928,58.2C929.56,55.63,931.16,52.58,931,45.93Z"/></clipPath><clipPath id="clip-path-2"><circle class="cls-1" cx="401.07" cy="111.97" r="111.97"/></clipPath><clipPath id="clip-path-3"><path class="cls-1" d="M401.66,128.9c-2.37-13.79-7.39-16.93-21.39-16.93H358.54c-14,0-27.15,9.73-31.38,43.91l-21,166.68H426Z"/></clipPath><clipPath id="clip-path-4"><circle class="cls-1" cx="983.5" cy="282.73" r="126.72"/></clipPath><linearGradient id="linear-gradient" x1="932.85" y1="144.03" x2="1026.51" y2="144.03" gradientTransform="matrix(1, 0, 0, -1, 0, 444)" gradientUnits="userSpaceOnUse"><stop offset="0" stop-color="#fff"/><stop offset="0.81" stop-color="#80c480"/></linearGradient><clipPath id="clip-path-5"><path class="cls-1" d="M1047.15,226.83c-.86-27.7-19.83-36.77-37.32-34.22-15.21,2.21-24.32,15.16-24.32,30.45C984.72,234.4,976,241,980,242.5a20.85,20.85,0,0,0,4.37.7,150.61,150.61,0,0,0,1.52,17.36c1,7.16,10.86,6.43,15.6,5.74,7.91-1.15,9.21.74,10.6,10.29H1036c-1.79-12.31,1.76-20.25,5.33-26C1044.42,245.65,1047.54,239.73,1047.15,226.83Z"/></clipPath></defs><g id="Layer_2" data-name="Layer 2"><g id="Layer_1-2" data-name="Layer 1"><g id="Layer_2-2" data-name="Layer 2"><g id="Layer_1-2-2" data-name="Layer 1-2"><line class="cls-2" x1="201.71" y1="387.9" x2="354.07" y2="320.45"/><line class="cls-2" x1="229.37" y1="214.63" x2="371.24" y2="127.23"/><line class="cls-2" x1="736.26" y1="41.65" x2="949.59" y2="40.24"/><polyline class="cls-2" points="475.69 385.53 343.09 321.67 411.28 111.87"/><line class="cls-2" x1="411.28" y1="111.87" x2="689.52" y2="249.19"/><line class="cls-2" x1="993.71" y1="284.48" x2="709.5" y2="283.95"/><line class="cls-2" x1="1109.11" y1="113.72" x2="993.71" y2="284.48"/><line class="cls-2" x1="689.52" y1="249.19" x2="954.06" y2="57.61"/><rect class="cls-3" x="692.99" y="3.47" width="75.32" height="75.32"/><rect class="cls-4" x="850.54" y="2.25" width="185.97" height="114.71"/><path class="cls-5" d="M896.36,60.63l8.87-10.8,15-4.41V68.59A12.53,12.53,0,0,1,907.7,81.12h-1.62a12.54,12.54,0,0,1-9.69-20.49Z"/><path class="cls-6" d="M931,45.93C930.52,31.66,920.74,27,911.73,28.3c-7.84,1.14-12.54,7.81-12.54,15.69,0,5.84-3.78,6.2-3.64,9.24.07,1.53,3.05,1.14,3.05,1.14a78.73,78.73,0,0,0,.79,8.94c.53,3.69,5.59,3.32,8,3,4.07-.59,4.74.38,5.46,5.31h12.32A18.64,18.64,0,0,1,928,58.2C929.56,55.63,931.16,52.58,931,45.93Z"/><path class="cls-3" d="M897.93,80.64l15-9.06h13.43L939.52,80a18.44,18.44,0,0,1,8.54,15.37l.54,21.47-46.17.42-9.49-16.35a14.93,14.93,0,0,1,4.84-20.15Z"/><g class="cls-7"><path class="cls-5" d="M928,58.2l-2.48,5.72L922.34,57s3.42-1.39,2.81-4.39v-.09a3.4,3.4,0,0,0-5.7-1.65l-2,1.9a.86.86,0,0,1-1.22,0,.89.89,0,0,1-.25-.62V38.47s-7.37,8.82-25.11,3S902.17,22.1,902.17,22.1h31.35v26Z"/></g><path class="cls-5" d="M939.85,60.63,931,49.83l-15-4.41V68.59a12.53,12.53,0,0,0,12.53,12.53h1.62a12.54,12.54,0,0,0,9.69-20.49Z"/><polyline class="cls-8" points="906.86 89.27 919.75 107.27 944.71 107.27"/><g class="cls-9"><circle class="cls-10" cx="401.07" cy="111.97" r="111.97"/><path class="cls-3" d="M453.81,86.08h30.72a.71.71,0,0,1,.73.69.66.66,0,0,1-.06.31l-15.34,42.13a1.64,1.64,0,0,1-1.43,1H437.71a.71.71,0,0,1-.76-.66.66.66,0,0,1,.09-.39l15.34-42.13A1.66,1.66,0,0,1,453.81,86.08Z"/><polygon class="cls-11" points="476.86 83.34 463.18 83.34 460.81 89.86 474.49 89.86 476.86 83.34"/><polygon class="cls-12" points="468.63 123.68 442.44 123.68 454.75 89.86 480.94 89.86 468.63 123.68"/><circle class="cls-6" cx="473.09" cy="120.14" r="8.18"/><path class="cls-6" d="M351.67,74.62c.64-20.78,14.88-27.59,28-25.68,11.41,1.66,18.25,11.38,18.25,22.85.59,8.51,7.14,13.45,4.14,14.59a15.81,15.81,0,0,1-3.28.53,113.27,113.27,0,0,1-1.14,13c-.78,5.37-8.15,4.83-11.7,4.31-5.94-.86-4.62.56-5.67,7.73H360a27.06,27.06,0,0,0-4-19.49C353.71,88.75,351.37,84.3,351.67,74.62Z"/><path class="cls-4" d="M366.05,97.78c18.1-18,25.25-41,25.25-43.1-2.66-4-23.3-15.26-38.29-.58-15.66,15.34-8.82,34.66-8.82,34.66s-23.58-9.12-23.58,8.82c0,8.48,7.21,11.16,14.87,11.74A39.4,39.4,0,0,0,366.05,97.78Z"/><path class="cls-12" d="M401.66,128.9c-2.37-13.79-7.39-16.93-21.39-16.93H358.54c-14,0-27.15,9.73-31.38,43.91l-21,166.68H426Z"/><path class="cls-12" d="M396.23,116.22l43.22,43.22a15.35,15.35,0,0,1,0,21.7h0a15.35,15.35,0,0,1-21.7,0l-43.22-43.22h0l21.7-21.7Z"/><path class="cls-12" d="M474,129.33,440.17,180.2A13.82,13.82,0,0,1,421,184.06a14.12,14.12,0,0,1-2.12-1.74h0a13.83,13.83,0,0,1,0-19.54l44.3-44.3Z"/><g class="cls-13"><path class="cls-14" d="M411,179.38,395.25,162.9a1.5,1.5,0,0,1,.05-2.12h0a1.5,1.5,0,0,1,2.12.05l15.75,16.48Z"/></g></g><g class="cls-15"><circle class="cls-3" cx="983.5" cy="282.73" r="126.72"/><path class="cls-12" d="M922.11,255.12c4.58,5.13,21.92,16.21,27,11.63s-.61-20.41-5.19-25.54-15.72-8.24-20.85-3.66A12.45,12.45,0,0,0,922.11,255.12Z"/><path class="cls-16" d="M1011.66,277.15l-49.91,28.09-9.37-46.38-19.53,4.21,6.89,61.22a19.18,19.18,0,0,0,27.86,14.65l58.91-27.53"/><path class="cls-12" d="M930.7,268.17h0a4.85,4.85,0,0,1-4.85-4.85v-39h9.7v39a4.85,4.85,0,0,1-4.85,4.85Z"/><path class="cls-4" d="M930.7,268.17h0a4.85,4.85,0,0,1-4.85-4.85V231.67h9.7v31.65a4.85,4.85,0,0,1-4.85,4.85Z"/><path class="cls-12" d="M944,241.21l-7.16-4.54a3.31,3.31,0,0,0-4.58,1l-.15.26h0a3.32,3.32,0,0,0,.92,4.12l6.48,5,2.5,8.53,6.32-4Z"/><path class="cls-17" d="M1047.15,226.83c-.86-27.7-19.83-36.77-37.32-34.22-15.21,2.21-24.32,15.16-24.32,30.45C984.72,234.4,976,241,980,242.5a20.85,20.85,0,0,0,4.37.7,150.61,150.61,0,0,0,1.52,17.36c1,7.16,10.86,6.43,15.6,5.74,7.91-1.15,9.21.74,10.6,10.29H1036c-1.79-12.31,1.76-20.25,5.33-26C1044.42,245.65,1047.54,239.73,1047.15,226.83Z"/><path class="cls-18" d="M1001.5,229.52c0,4.6-2.71,8.72-6,8.72s-6-4.12-6-8.72,2.7-7.26,6-7.26S1001.5,224.93,1001.5,229.52Z"/><path class="cls-12" d="M1012.08,276.6H1036l11.39,5.54a52.61,52.61,0,0,1,29.6,47.31v90H983.5v-100a45.66,45.66,0,0,1,22.92-39.6Z"/><g class="cls-19"><path class="cls-20" d="M1041.32,250.63l-4.82,11.1-6.09-13.34s6.64-2.71,5.45-8.53v-.17a6.6,6.6,0,0,0-11-3.2l-3.79,3.69a1.69,1.69,0,0,1-2.86-1.21V212.35h-34.3l7.36-31.78h60.84V231Z"/></g><path class="cls-21" d="M989.5,227.5a11.42,11.42,0,0,0-5.07,0"/><line class="cls-18" x1="1000.74" y1="226.58" x2="1023.09" y2="226.58"/><line class="cls-22" x1="940.86" y1="261.6" x2="952.38" y2="258.86"/><line class="cls-22" x1="1043.42" y1="308.3" x2="1043.42" y2="349.64"/><rect class="cls-10" x="859.25" y="349.92" width="293.85" height="92.39"/></g><rect class="cls-23" x="546.5" y="111.97" width="279.11" height="279.11"/><rect class="cls-3" x="620.63" y="144.04" width="32.44" height="216.04"/><rect class="cls-12" x="669.84" y="272.77" width="32.44" height="87.31"/><rect class="cls-3" x="669.84" y="209.39" width="32.44" height="63.38"/><rect class="cls-11" x="719.05" y="241.08" width="32.44" height="119"/><rect class="cls-4" x="719.05" y="241.08" width="32.44" height="31.69"/><rect class="cls-12" x="719.05" y="162.52" width="32.44" height="78.56"/><rect class="cls-12" x="768.26" y="222.63" width="32.44" height="137.45"/><rect class="cls-24" x="768.26" y="306.99" width="32.44" height="53.09"/><rect class="cls-11" x="571.42" y="281.52" width="32.44" height="78.56"/><rect class="cls-24" x="571.42" y="281.52" width="32.44" height="21.4"/><rect class="cls-3" x="276.51" y="256.93" width="124.08" height="123.13"/><path class="cls-12" d="M341.8,318.61V306.06a24.6,24.6,0,0,1,21.74,36.05l-21.77.59a12,12,0,1,0,0-24.09Z"/><rect class="cls-12" x="323.42" y="289.78" width="18.4" height="38"/><rect class="cls-23" x="328.17" y="327.8" width="8.83" height="4.12"/><rect class="cls-23" x="328.21" y="283.5" width="8.83" height="6.3"/><circle class="cls-23" cx="341.8" cy="311.51" r="10.54"/><path class="cls-3" d="M335.6,311.51a6.21,6.21,0,1,1,6.22,6.2h0A6.22,6.22,0,0,1,335.6,311.51Zm3.48,0a2.73,2.73,0,1,0,2.74-2.72h0a2.74,2.74,0,0,0-2.73,2.72Z"/><path class="cls-12" d="M359.49,357.49h4.14v-6.58H352.12l3.47,4.63A4.87,4.87,0,0,0,359.49,357.49Z"/><path class="cls-12" d="M318.85,357.46H323a4.84,4.84,0,0,0,3.9-1.94l3.48-4.63H318.85Z"/><rect class="cls-23" x="313.85" y="342.08" width="54.04" height="9.1"/><rect class="cls-23" x="323.43" y="294.57" width="18.4" height="4.25"/><rect class="cls-23" x="321.93" y="336.81" width="21.32" height="3.48"/><rect class="cls-4" x="425.77" y="331.29" width="84.38" height="83.74"/><rect class="cls-11" x="439.51" y="360.7" width="57.98" height="29.9"/><rect class="cls-12" x="439.51" y="355.71" width="57.98" height="29.9"/><circle class="cls-11" cx="468.51" cy="370.67" r="12.09"/><ellipse class="cls-4" cx="463.34" cy="373.05" rx="3.69" ry="4.79"/><circle class="cls-4" cx="466.67" cy="364.08" r="1.83"/><circle class="cls-4" cx="470.86" cy="376.74" r="1.09"/><ellipse class="cls-4" cx="474.13" cy="368.73" rx="3.27" ry="3.84"/><ellipse class="cls-4" cx="471.33" cy="361.94" rx="0.62" ry="0.73"/><rect class="cls-12" x="709.86" y="15.26" width="41.59" height="51.75"/><rect class="cls-10" x="714.38" y="21.04" width="17.67" height="2.71"/><rect class="cls-10" x="714.38" y="29.48" width="32.54" height="2.71"/><rect class="cls-10" x="714.38" y="36.73" width="32.54" height="2.71"/><rect class="cls-10" x="714.38" y="43.99" width="32.54" height="2.71"/><rect class="cls-10" x="714.38" y="51.25" width="32.54" height="2.71"/><rect class="cls-10" x="714.38" y="58.51" width="32.54" height="2.71"/><rect class="cls-12" x="944.71" y="65.41" width="68.12" height="51.55"/><circle class="cls-23" cx="978.77" cy="91.18" r="7.09"/><rect class="cls-23" x="1078.98" y="62.87" width="61.43" height="93.42"/><path class="cls-12" d="M1109.69,143.74h0a7.26,7.26,0,0,1-7.25-7.25V78.24h14.49v58.25A7.25,7.25,0,0,1,1109.69,143.74Z"/><path class="cls-4" d="M1109.69,143.74h0a7.26,7.26,0,0,1-7.25-7.25V89.17h14.49v47.32A7.25,7.25,0,0,1,1109.69,143.74Z"/><rect class="cls-4" x="166.22" y="187.84" width="103.45" height="82.89"/><path class="cls-25" d="M179.84,229.63h7.43a10.67,10.67,0,0,0,7.67-3.26l2.36-2.45a12.69,12.69,0,0,1,9.13-3.88h17a11.49,11.49,0,0,0,8.13-3.37l15.33-15.33"/><path class="cls-25" d="M179.84,229.63h7.43a10.63,10.63,0,0,1,7.67,3.26l2.36,2.45a12.69,12.69,0,0,0,9.13,3.88h17a11.49,11.49,0,0,1,8.13,3.37l15.33,15.32"/><line class="cls-25" x1="221.47" y1="239.22" x2="248.09" y2="239.22"/><line class="cls-25" x1="219.84" y1="220.04" x2="250.21" y2="220.04"/><path class="cls-23" d="M179.84,224.47h0a4.82,4.82,0,0,1,4.82,4.82h0a4.82,4.82,0,0,1-4.82,4.82h0a4.82,4.82,0,0,1-4.82-4.82h0A4.82,4.82,0,0,1,179.84,224.47Z"/><path class="cls-10" d="M215,214.63h0a4.82,4.82,0,0,1,4.82,4.82h0a4.82,4.82,0,0,1-4.82,4.82h0a4.82,4.82,0,0,1-4.82-4.82h0A4.82,4.82,0,0,1,215,214.63Z"/><path class="cls-23" d="M215,234.31h0a4.82,4.82,0,0,1,4.82,4.82h0A4.82,4.82,0,0,1,215,244h0a4.82,4.82,0,0,1-4.82-4.82h0A4.82,4.82,0,0,1,215,234.31Z"/><path class="cls-23" d="M250.22,195.05h0a4.82,4.82,0,0,1,4.82,4.82h0a4.82,4.82,0,0,1-4.82,4.82h0a4.82,4.82,0,0,1-4.82-4.82h0A4.82,4.82,0,0,1,250.22,195.05Z"/><path class="cls-11" d="M250.22,214.73h0a4.82,4.82,0,0,1,4.82,4.82h0a4.82,4.82,0,0,1-4.82,4.82h0a4.82,4.82,0,0,1-4.82-4.82h0A4.82,4.82,0,0,1,250.22,214.73Z"/><path class="cls-10" d="M250.22,235.14h0A4.82,4.82,0,0,1,255,240h0a4.82,4.82,0,0,1-4.82,4.82h0A4.82,4.82,0,0,1,245.4,240h0A4.82,4.82,0,0,1,250.22,235.14Z"/><path class="cls-11" d="M250.22,253.88h0A4.82,4.82,0,0,1,255,258.7h0a4.82,4.82,0,0,1-4.82,4.82h0a4.82,4.82,0,0,1-4.82-4.82h0A4.82,4.82,0,0,1,250.22,253.88Z"/><line class="cls-2" x1="54.95" y1="321.52" x2="216.88" y2="360.8"/><circle class="cls-23" cx="186.44" cy="364.08" r="62.69"/><rect class="cls-26" x="168.45" y="372.45" width="13.08" height="4.8" transform="translate(-213.78 233.46) rotate(-44.99)"/><circle class="cls-12" cx="197.04" cy="352.82" r="24.84"/><path class="cls-11" d="M197.05,380.05a27.24,27.24,0,1,1,27.24-27.24h0A27.25,27.25,0,0,1,197.05,380.05Zm0-49.67a22.44,22.44,0,1,0,22.45,22.44A22.45,22.45,0,0,0,197.05,330.38Z"/><rect class="cls-4" x="149.54" y="381.77" width="26.59" height="10.52" transform="translate(-225.97 228.5) rotate(-45)"/><circle class="cls-3" cx="39.38" cy="308.8" r="39.38"/><rect class="cls-26" x="29.31" y="286.22" width="7.35" height="40.47"/><rect class="cls-4" x="40.43" y="310.34" width="7.35" height="16.36"/><rect class="cls-12" x="40.43" y="298.46" width="7.35" height="11.87"/><rect class="cls-12" x="51.56" y="304.4" width="7.35" height="22.29"/><rect class="cls-4" x="51.56" y="289.68" width="7.35" height="14.72"/><rect class="cls-4" x="18.18" y="311.76" width="7.35" height="14.72"/></g></g></g></g></svg>