<svg height="43" viewBox="0 0 43 43" fill="none" xmlns="http://www.w3.org/2000/svg">
<path d="M12.4785 26.55V22.833H15.399L16.992 23.6295H19.647L20.709 23.364L20.4435 22.302L19.9125 20.709L21.771 17.523L23.0985 14.868L23.895 13.0095H29.205L34.2495 14.6025L38.4975 18.054L41.1525 22.302L41.949 28.143L40.6215 33.453L38.4975 36.639L34.2495 40.6215L29.205 41.949L23.895 41.6835L20.4435 40.0905L18.585 39.294L16.461 40.0905L14.868 40.6215H13.275L11.4165 40.0905L10.3545 39.0285L13.0095 37.17L14.337 35.577L13.806 33.453L12.4785 29.736V26.55Z" fill="#5C94B9" fill-opacity="0.1"/>
<path d="M9.7512 38.5904C9.58734 38.6547 9.46703 38.7957 9.42762 38.9679C9.38821 39.14 9.43592 39.3184 9.55622 39.447C12.7962 42.9338 17.2228 40.5484 18.4483 39.7747C21.0183 41.542 24.026 42.4754 27.1748 42.4754C35.615 42.4754 42.4803 35.6759 42.4803 27.319C42.4803 18.9622 35.6145 12.1627 27.1748 12.1627C26.0464 12.1627 24.9263 12.2913 23.8332 12.5319C24.0365 9.31065 22.906 6.02715 20.4232 3.52561C15.8184 -1.11649 8.25586 -1.18287 3.56819 3.37627C1.29487 5.58741 0.0274833 8.5411 0.00050855 11.696C-0.0285308 14.8488 1.18698 17.8253 3.41882 20.0757C5.77306 22.4486 8.93857 23.6828 12.1782 23.6081C11.5953 26.1863 11.9355 28.775 11.948 28.8745C12.118 30.5298 12.7569 32.6807 13.5783 34.3651C14.296 36.767 9.79699 38.5716 9.75137 38.5902L9.7512 38.5904ZM4.17145 19.3273C2.1408 17.28 1.03526 14.5732 1.06218 11.7064C1.08708 8.83775 2.24037 6.14946 4.31042 4.13962C8.58332 -0.0150302 15.4736 0.0472034 19.6701 4.27652C23.8123 8.45193 23.8517 15.025 19.7572 19.2401C19.6846 19.3148 19.61 19.3894 19.5332 19.4641C19.5187 19.4766 19.5063 19.4911 19.4938 19.5077C18.8632 20.271 18.855 20.9555 18.9587 21.3952C19.1142 22.0465 19.5892 22.5526 20.0476 22.9053C17.3636 23.7308 15.8743 22.2374 15.8079 22.1689C15.7063 22.0611 15.5652 22.003 15.4221 22.003C15.3682 22.003 15.3143 22.0113 15.2603 22.0279C11.3193 23.2807 7.06913 22.2478 4.17146 19.3273L4.17145 19.3273ZM14.578 34.0068C14.5697 33.9819 14.5614 33.957 14.549 33.9342C13.769 32.3474 13.1634 30.3188 13.0016 28.7486C12.9974 28.7217 12.6448 26.0065 13.292 23.5258C13.9599 23.447 14.6277 23.3204 15.2894 23.1275C15.7561 23.5092 16.8472 24.2206 18.4775 24.2206C19.33 24.2206 20.3319 24.0257 21.4685 23.4864C21.6552 23.3972 21.7734 23.2064 21.7713 22.9989C21.7672 22.7915 21.6448 22.6048 21.454 22.5198C21.1014 22.3642 20.1493 21.8125 19.9917 21.1467C19.9211 20.8521 20.0207 20.5431 20.2945 20.205C20.3692 20.1303 20.4438 20.0557 20.5185 19.9789C22.2837 18.1619 23.3395 15.9445 23.7087 13.6462C24.835 13.3683 26.0007 13.2231 27.1747 13.2231C35.0276 13.2251 41.4182 19.5473 41.4182 27.3195C41.4182 35.0918 35.0276 41.4139 27.1747 41.4139C24.1276 41.4139 21.2216 40.4763 18.77 38.7008C18.5812 38.5659 18.3282 38.5659 18.1415 38.7049C18.0979 38.7381 13.9889 41.725 10.888 39.2401C12.367 38.5079 15.4202 36.6369 14.5781 34.0068L14.578 34.0068Z" fill="#5C94B9"/>
<path d="M8.24373 10.7735C8.24373 12.4008 5.80273 12.4008 5.80273 10.7735C5.80273 9.14615 8.24373 9.14615 8.24373 10.7735Z" fill="#5C94B9"/>
<path d="M17.7857 10.7735C17.7857 12.4008 15.3447 12.4008 15.3447 10.7735C15.3447 9.14615 17.7857 9.14615 17.7857 10.7735Z" fill="#5C94B9"/>
<path d="M19.1167 14.9898C19.1167 17.2088 15.7881 17.2088 15.7881 14.9898C15.7881 12.7707 19.1167 12.7707 19.1167 14.9898Z" fill="#D46D1E" fill-opacity="0.05"/>
<path d="M7.57766 14.9898C7.57766 17.2088 4.24902 17.2088 4.24902 14.9898C4.24902 12.7707 7.57766 12.7707 7.57766 14.9898Z" fill="#D46D1E" fill-opacity="0.05"/>
<path d="M8.94406 15.2315C8.96699 15.299 9.52636 16.876 11.6835 16.876C13.8419 16.876 14.4025 15.299 14.4229 15.2315C14.4446 15.1688 14.4561 15.1049 14.4561 15.0386C14.4548 14.7432 14.2242 14.4925 13.9145 14.4478C13.6049 14.4032 13.3067 14.5792 13.2125 14.8614C13.1692 14.9711 12.8455 15.6691 11.6835 15.6691C10.5227 15.6691 10.1991 14.9699 10.1545 14.8614C10.0615 14.5756 9.76205 14.3972 9.44986 14.4418C9.13897 14.4864 8.90833 14.7408 8.90833 15.0386C8.90833 15.1049 8.9198 15.1688 8.94146 15.2315L8.94406 15.2315Z" fill="#5C94B9"/>
</svg>
