<svg height="60" viewBox="0 0 57 60" fill="none" xmlns="http://www.w3.org/2000/svg">
<circle cx="28.4211" cy="31.579" r="27.4211" stroke="#5C94B9" stroke-width="2"/>
<path d="M17.8945 20.8176C17.8945 15.1842 22.4616 10.6172 28.0953 10.6172C33.729 10.6172 38.2961 15.1842 38.2961 20.818L17.8945 20.8176Z" fill="white"/>
<path d="M28.2531 9.26397C30.8113 9.26397 32.8851 7.19016 32.8851 4.63199C32.8851 2.07381 30.8113 0 28.2531 0C25.6949 0 23.6211 2.07381 23.6211 4.63199C23.6211 7.19016 25.6949 9.26397 28.2531 9.26397Z" fill="white"/>
<path d="M0 54.5018C0 48.8684 4.56711 44.3014 10.2008 44.3014C15.8344 44.3014 20.4016 48.8684 20.4016 54.5021L0 54.5018Z" fill="white"/>
<path d="M10.3585 42.9481C12.9167 42.9481 14.9905 40.8743 14.9905 38.3162C14.9905 35.758 12.9167 33.6842 10.3585 33.6842C7.80038 33.6842 5.72656 35.758 5.72656 38.3162C5.72656 40.8743 7.80038 42.9481 10.3585 42.9481Z" fill="white"/>
<path d="M35.7891 54.5018C35.7891 48.8684 40.3562 44.3014 45.9898 44.3014C51.6235 44.3014 56.1906 48.8684 56.1906 54.5021L35.7891 54.5018Z" fill="white"/>
<path d="M46.1476 42.9481C48.7058 42.9481 50.7796 40.8743 50.7796 38.3162C50.7796 35.758 48.7058 33.6842 46.1476 33.6842C43.5894 33.6842 41.5156 35.758 41.5156 38.3162C41.5156 40.8743 43.5894 42.9481 46.1476 42.9481Z" fill="white"/>
<path d="M18.4072 20.3176C18.6674 15.1927 22.9055 11.1172 28.0953 11.1172C33.2851 11.1172 37.5232 15.1927 37.7834 20.318L18.4072 20.3176Z" fill="#5C94B9" fill-opacity="0.1" stroke="#5C94B9"/>
<path d="M32.3851 4.63199C32.3851 6.91402 30.5351 8.76397 28.2531 8.76397C25.971 8.76397 24.1211 6.91402 24.1211 4.63199C24.1211 2.34995 25.971 0.5 28.2531 0.5C30.5351 0.5 32.3851 2.34995 32.3851 4.63199Z" fill="#5C94B9" fill-opacity="0.1" stroke="#5C94B9"/>
<path d="M0.512664 54.0018C0.772896 48.8769 5.01094 44.8014 10.2008 44.8014C15.3906 44.8014 19.6287 48.8769 19.8889 54.0021L0.512664 54.0018Z" fill="#5C94B9" fill-opacity="0.1" stroke="#5C94B9"/>
<path d="M14.4905 38.3162C14.4905 40.5982 12.6406 42.4481 10.3585 42.4481C8.07652 42.4481 6.22656 40.5982 6.22656 38.3162C6.22656 36.0341 8.07652 34.1842 10.3585 34.1842C12.6406 34.1842 14.4905 36.0341 14.4905 38.3162Z" fill="#5C94B9" fill-opacity="0.1" stroke="#5C94B9"/>
<path d="M36.3017 54.0018C36.562 48.8769 40.8 44.8014 45.9898 44.8014C51.1797 44.8014 55.4177 48.8769 55.678 54.0021L36.3017 54.0018Z" fill="#5C94B9" fill-opacity="0.1" stroke="#5C94B9"/>
<path d="M50.2796 38.3162C50.2796 40.5982 48.4296 42.4481 46.1476 42.4481C43.8656 42.4481 42.0156 40.5982 42.0156 38.3162C42.0156 36.0341 43.8656 34.1842 46.1476 34.1842C48.4296 34.1842 50.2796 36.0341 50.2796 38.3162Z" fill="#5C94B9" fill-opacity="0.1" stroke="#5C94B9"/>
</svg>
