<svg height="61" viewBox="0 0 63 61" fill="none" xmlns="http://www.w3.org/2000/svg">
<path d="M45.9229 21.141H45.5448L45.5479 21.5191C45.5805 25.453 48.7682 28.2572 53.0391 28.2572H53.0394C57.307 28.2572 60.4945 25.4529 60.5272 21.5191L60.5303 21.141H60.1522H45.9229ZM53.3949 5.81433L53.0394 4.74711L52.6834 5.81413L48.4348 18.5465L48.2701 19.04L48.7903 19.0402L57.2808 19.0436L57.8011 19.0438L57.6367 18.5501L53.3949 5.81433ZM38.6256 57.6559H39.0006L39.0006 57.281L39.001 54.4849L39.0011 54.1957L38.7213 54.1222C36.0547 53.4219 33.3324 53.0699 30.61 53.0665H30.6096C30.6008 53.0665 30.5927 53.0667 30.5854 53.0671C30.5791 53.0674 30.5733 53.0677 30.5684 53.0681C30.5654 53.0683 30.5625 53.0686 30.5598 53.0688C30.5576 53.0686 30.5553 53.0684 30.5529 53.0682C30.542 53.0673 30.5276 53.0665 30.5107 53.0665H30.5102C27.7845 53.0699 25.0622 53.4219 22.3989 54.1222L22.1192 54.1957V54.4849V57.2809V57.6559H22.4942H38.6256ZM5.36199 37.4608L5.19769 37.9541L5.71762 37.9543L14.2047 37.9578L14.7251 37.958L14.5606 37.4643L10.3154 24.725L9.9595 23.6571L9.60381 24.7251L5.36199 37.4608ZM2.84677 40.0449H2.46864L2.47178 40.423C2.50442 44.3566 5.69182 47.1644 9.963 47.1644H9.96334C14.2313 47.1644 17.4182 44.3564 17.4546 40.4233L17.4581 40.0449H17.0796H2.84677ZM60.7509 19.0506L60.7507 19.0508H61.5771C62.1549 19.0508 62.624 19.5211 62.624 20.0942V21.4582C62.624 26.5075 58.5354 30.3474 53.0391 30.3474C47.5393 30.3474 43.4507 26.5076 43.4507 21.4582V20.0942C43.4507 19.5211 43.9199 19.0508 44.4976 19.0508H45.7899H46.0603L46.1457 18.7943L50.9808 4.28568L51.2583 3.45327L50.4649 3.82804L37.0029 10.1874L36.7507 10.3065L36.7922 10.5823C36.8384 10.8888 36.8699 11.1928 36.8699 11.4982C36.8699 14.4941 34.7382 17.0041 31.9069 17.5961L31.6086 17.6585V17.9632V50.6528V51.0129L31.9684 51.0275C34.7894 51.1422 37.6054 51.591 40.3493 52.4135L40.3507 52.4139C40.7925 52.5444 41.0981 52.9512 41.0981 53.4114V58.7034C41.0981 59.2788 40.6301 59.7469 40.0478 59.7469H21.0725C20.4914 59.7469 20.0256 59.28 20.0256 58.7034V53.4114C20.0256 52.9488 20.3266 52.544 20.7691 52.4141L20.771 52.4135C23.5149 51.591 26.3275 51.1422 29.1519 51.0275L29.5117 51.0129V50.6528V17.9326V17.6344L29.2211 17.5673C27.6192 17.1974 26.2518 16.2162 25.3831 14.881L25.2077 14.6114L24.9145 14.7437L11.5616 20.7687L11.2531 20.908L11.3601 21.2291L16.8499 37.7018L16.9354 37.9583H17.2057H18.5014C19.0797 37.9583 19.5483 38.4258 19.5483 39.0017V40.3623C19.5483 45.4118 15.4595 49.2549 9.9634 49.2549C4.46381 49.2549 0.375 45.4119 0.375 40.3623V39.0017C0.375 38.4257 0.843561 37.9583 1.42188 37.9583H2.71423H2.98448L3.06997 37.7019L8.82917 20.4314L8.84712 20.3775L8.84834 20.3208C8.8584 19.852 9.17752 19.4378 9.65257 19.3278L9.68853 19.3194L9.72217 19.3042L24.2273 12.7608L24.4825 12.6457L24.4447 12.3683C24.4049 12.0765 24.3765 11.7883 24.3765 11.4983C24.3765 8.06463 27.1776 5.26855 30.6233 5.26855C32.7969 5.26855 34.7144 6.38389 35.8348 8.07091L36.0142 8.34101L36.3074 8.20253L52.4117 0.595287L52.4346 0.584454L52.4559 0.570631C52.5507 0.508981 52.664 0.462067 52.796 0.429068L52.8063 0.426488L52.8164 0.423329C53.3128 0.26887 53.8499 0.492673 54.0741 0.968446L54.0746 0.969616C54.1447 1.117 54.1733 1.27482 54.1681 1.44134L54.166 1.5082L54.1871 1.57166L59.9292 18.7942L60.0147 19.0506H60.285H60.7509ZM26.4731 11.4973C26.4731 13.7816 28.3364 15.6401 30.6228 15.6401C32.9092 15.6401 34.7724 13.7816 34.7724 11.4973C34.7724 9.21613 32.909 7.35786 30.6228 7.35786C28.3366 7.35786 26.4731 9.21613 26.4731 11.4973Z" fill="#5C94B9" stroke="white" stroke-width="0.75"/>
<path d="M2.1815 44.0825L1.30859 39.7179L1.74505 38.845H11.3471H18.7668V41.0273L17.021 44.9554L13.9658 47.5741L10.4742 48.447L6.54605 48.0106L3.92732 45.8283L2.1815 44.0825Z" fill="#5C94B9" fill-opacity="0.1"/>
<path d="M45.3905 25.3149L44.5176 20.9504L44.954 20.0775H54.556H61.9758V22.2597L60.23 26.1878L57.1748 28.8066L53.6831 29.6795L49.755 29.243L47.1363 27.0607L45.3905 25.3149Z" fill="#5C94B9" fill-opacity="0.1"/>
</svg>
