<svg height="60" viewBox="0 0 46 60" fill="none" xmlns="http://www.w3.org/2000/svg">
<path d="M22.766 58.8119C9.68539 50.4096 4.45065 44.594 2.34834 37.6271C1.27184 34.0596 0.995427 30.1224 1.00006 25.2523C1.00214 23.0649 1.06047 20.708 1.12448 18.122C1.13166 17.8317 1.13892 17.5384 1.14618 17.2422C1.2112 14.5884 1.27595 11.7046 1.28757 8.54972C9.50478 8.43742 16.041 6.87564 22.7606 1.31573C29.3476 6.87737 35.8826 8.43748 44.0943 8.54972C44.106 11.6863 44.1707 14.5559 44.236 17.1989C44.2437 17.5071 44.2513 17.812 44.2588 18.1139C44.3228 20.6764 44.3813 23.0153 44.3845 25.1888C44.3917 30.052 44.1202 33.995 43.0526 37.5731C40.9679 44.5597 35.7683 50.4116 22.766 58.8119Z" fill="#5C94B9" fill-opacity="0.1" stroke="#5C94B9" stroke-width="2"/>
<path fill-rule="evenodd" clip-rule="evenodd" d="M14.8693 29.3455C16.8859 31.5252 18.9022 33.7048 20.9188 35.8844C21.3431 36.3432 22.0069 36.1732 22.3247 35.6968L31.5972 21.7929C32.0375 21.1327 32.4779 20.4726 32.9181 19.8124C33.5746 18.8279 32.0236 17.8994 31.372 18.8761L22.0996 32.78C21.6593 33.4402 21.9043 33.0534 21.4639 33.7135C20.9952 33.7761 21.9327 33.6509 21.4639 33.7135C19.4474 31.5339 18.1518 30.2136 16.1352 28.034C15.3366 27.1705 14.0715 28.4832 14.8693 29.3455Z" fill="#5C94B9"/>
</svg>
