<svg height="60" viewBox="0 0 60 60" fill="none" xmlns="http://www.w3.org/2000/svg">
<circle cx="30" cy="30" r="29" stroke="#5C94B9" stroke-width="2"/>
<path d="M17.096 40.2764C16.8176 40.2764 16.5372 40.2176 16.2725 40.0999C15.7823 39.8803 15.4097 39.4822 15.2175 38.9822L11.4565 29.0699C11.2643 28.5699 11.2839 28.0268 11.4996 27.5365C11.7193 27.0463 12.1173 26.6737 12.6174 26.4815L25.6515 21.5361L30.8381 35.1998L17.812 40.1452C17.5806 40.2334 17.3413 40.2765 17.0962 40.2765L17.096 40.2764ZM24.8061 23.4382L13.1484 27.8659C13.0151 27.9149 12.9072 28.0188 12.8503 28.1443C12.7915 28.2777 12.7876 28.4189 12.8347 28.5561L16.5957 38.4684C16.6447 38.6017 16.7486 38.7096 16.8741 38.7665C17.0075 38.8253 17.1486 38.8292 17.2859 38.7821L28.9436 34.3545L24.8061 23.4382Z" fill="#5C94B9"/>
<path d="M12.2821 39.7592C11.2232 39.7592 10.2232 39.1121 9.82709 38.063L8.03876 33.3412C7.52502 31.9882 8.21131 30.4685 9.56435 29.9548L12.9018 28.69L16.5589 38.3182L13.2096 39.5868C12.9037 39.7045 12.59 39.7594 12.2821 39.7594V39.7592ZM12.037 30.5864L10.0761 31.3315C9.48394 31.557 9.17803 32.2237 9.40553 32.8218L11.1939 37.5436C11.4194 38.1358 12.0861 38.4417 12.6842 38.2142L14.645 37.4691L12.037 30.5864Z" fill="#5C94B9"/>
<path d="M45.9849 38.3217C45.9162 38.3217 45.8476 38.3178 45.779 38.3021L29.3624 35.4235L24.3955 22.3542L34.7686 9.30854C35.0392 8.97126 35.4706 8.79872 35.902 8.86733C36.3275 8.93597 36.6922 9.22422 36.8432 9.63206L47.1084 36.6883C47.2614 37.0961 47.1868 37.5511 46.9123 37.8844C46.6868 38.1648 46.3378 38.3217 45.9848 38.3217L45.9849 38.3217ZM30.4348 34.1195L45.5727 36.7706L35.6369 10.5889L26.0735 22.6211L30.4348 34.1195Z" fill="#5C94B9"/>
<path d="M29.9995 34.426L25.5732 22.1309L35.9011 9.8358L46.7208 37.3768L29.9995 34.426Z" fill="#5C94B9" fill-opacity="0.1"/>
<path d="M23.8331 48.9438C23.4703 48.9438 23.1233 48.7438 22.9507 48.3987L17.9248 38.5316L26.1961 35.3942L27.1765 37.9727C27.5393 38.9336 27.3961 40.0023 26.7941 40.8356L26.2941 41.5259L28.6433 46.0007C28.7766 46.2497 28.7962 46.5497 28.6923 46.8144C28.5903 47.0792 28.3825 47.289 28.1138 47.3929L24.1881 48.8832C24.0744 48.9244 23.9509 48.944 23.8332 48.944L23.8331 48.9438ZM19.9799 39.3217L24.0625 47.3515L27.0862 46.2044L24.5645 41.4002L25.6038 39.9687C25.9175 39.5432 25.992 38.9883 25.7999 38.4941L25.343 37.2941L19.9799 39.3217Z" fill="#5C94B9"/>
<path d="M50.4655 19.1516L50.9871 20.5262L46.6378 22.1773L46.1162 20.8027L50.4655 19.1516Z" fill="#5C94B9"/>
<path d="M44.9737 11.2688L46.0346 12.2865L42.8109 15.6475L41.75 14.6298L44.9737 11.2688Z" fill="#5C94B9"/>
<path d="M47.5854 28.2326L52.223 28.6091L52.1033 30.0758L47.4658 29.6993L47.5854 28.2326Z" fill="#5C94B9"/>
<path d="M23.1937 26.5344L23.7153 27.909L16.5148 30.6405L15.9932 29.2659L23.1937 26.5344Z" fill="#5C94B9"/>
<line x1="11.6193" y1="6.28518" x2="47.0292" y2="53.4983" stroke="#5C94B9" stroke-width="2"/>
<path d="M11.3112 38.8523L8.36035 31.967L9.34396 30.9834L12.7866 29.508L15.7374 37.8687L13.2784 38.8523H11.3112Z" fill="#5C94B9" fill-opacity="0.1"/>
<path d="M24.0987 48.1965L19.1807 38.8522L22.1315 37.8686L26.0659 36.3932L26.5577 38.8522L26.0659 40.3276L25.5741 41.803L28.0331 46.7211L24.0987 48.1965Z" fill="#5C94B9" fill-opacity="0.1"/>
</svg>
