<svg width="15" height="15" viewBox="0 0 16 17" fill="none" xmlns="http://www.w3.org/2000/svg">
<path d="M9.27273 9.27273H10.4318V11.4518L12.3173 12.5414L11.7377 13.5459L9.27273 12.1241V9.27273ZM12.3636 5.40909H1.54545V13.9091H5.15409C4.82182 13.2059 4.63636 12.4177 4.63636 11.5909C4.63636 10.1563 5.20625 8.78051 6.22065 7.7661C7.23505 6.7517 8.61088 6.18182 10.0455 6.18182C10.8723 6.18182 11.6605 6.36727 12.3636 6.69955V5.40909ZM1.54545 15.4545C0.687727 15.4545 0 14.7591 0 13.9091V3.09091C0 2.23318 0.687727 1.54545 1.54545 1.54545H2.31818V0H3.86364V1.54545H10.0455V0H11.5909V1.54545H12.3636C12.7735 1.54545 13.1666 1.70828 13.4564 1.99811C13.7463 2.28794 13.9091 2.68103 13.9091 3.09091V7.80455C14.8673 8.77818 15.4545 10.115 15.4545 11.5909C15.4545 13.0255 14.8847 14.4013 13.8703 15.4157C12.8559 16.4301 11.48 17 10.0455 17C8.56955 17 7.23273 16.4127 6.25909 15.4545H1.54545ZM10.0455 7.84318C9.0515 7.84318 8.09825 8.23803 7.39541 8.94087C6.69258 9.6437 6.29773 10.5969 6.29773 11.5909C6.29773 13.6618 7.97455 15.3386 10.0455 15.3386C10.5376 15.3386 11.025 15.2417 11.4796 15.0534C11.9343 14.865 12.3475 14.589 12.6955 14.241C13.0435 13.8929 13.3196 13.4798 13.5079 13.0251C13.6962 12.5704 13.7932 12.0831 13.7932 11.5909C13.7932 9.52 12.1164 7.84318 10.0455 7.84318Z" fill="white"/>
</svg>
