<svg width="28" height="32" viewBox="0 0 28 32" fill="none" xmlns="http://www.w3.org/2000/svg">
<g clipPath="url(#Data2Clip0)">
<path d="M25.9411 5.79833C25.9411 5.87044 25.9373 5.94255 25.9259 6.01466C25.9411 5.91219 25.9526 5.81351 25.9678 5.71104C25.945 5.88183 25.8993 6.04123 25.8345 6.20063C25.8726 6.10955 25.9107 6.01846 25.9488 5.92737C25.8993 6.04503 25.8383 6.15509 25.7698 6.26515C25.7355 6.31829 25.6974 6.36763 25.6632 6.42076C25.5946 6.52703 25.8383 6.21202 25.7545 6.3069C25.7317 6.32967 25.7127 6.35624 25.6898 6.38281C25.5946 6.49287 25.488 6.59914 25.3814 6.69782C25.328 6.74716 25.2709 6.79649 25.2138 6.84204C25.2024 6.84963 25.1262 6.90276 25.1262 6.91415C25.1262 6.89138 25.3737 6.72818 25.1948 6.86101C24.6502 7.26332 24.0409 7.57074 23.4202 7.83641C23.5116 7.79845 23.603 7.7605 23.6943 7.72255C21.9997 8.43606 20.1718 8.82318 18.3553 9.06988C18.4582 9.0547 18.5572 9.04331 18.66 9.02813C15.6592 9.42664 12.5898 9.42664 9.58899 9.02433C9.69181 9.03952 9.79082 9.0509 9.89364 9.06608C8.09239 8.81939 6.28353 8.43227 4.60033 7.73393C4.69173 7.77189 4.78312 7.80984 4.87452 7.84779C4.24237 7.58212 3.62545 7.27091 3.06946 6.86481C2.87524 6.72059 3.25606 7.01662 3.07327 6.86481C3.01614 6.81927 2.95902 6.76993 2.90571 6.72059C2.79527 6.62191 2.69245 6.51564 2.59344 6.40558C2.57059 6.37901 2.55155 6.35624 2.5287 6.32967C2.42588 6.21581 2.6201 6.43594 2.61629 6.44733C2.6201 6.43215 2.52109 6.3107 2.50966 6.29172C2.43731 6.17786 2.37257 6.06021 2.31925 5.93876C2.35734 6.02984 2.39542 6.12093 2.4335 6.21202C2.36876 6.05641 2.32306 5.89321 2.29641 5.72622C2.31164 5.82869 2.32306 5.92737 2.33829 6.02984C2.31925 5.87803 2.31925 5.72242 2.33829 5.57061C2.32306 5.67309 2.31164 5.77176 2.29641 5.87424C2.31925 5.71104 2.36495 5.55164 2.42969 5.39603C2.39161 5.48712 2.35353 5.5782 2.31545 5.66929C2.36114 5.55923 2.41827 5.45296 2.483 5.35049C2.51728 5.29356 2.55917 5.23663 2.59725 5.18349C2.65437 5.10379 2.75719 5.0127 2.49062 5.32012C2.50966 5.29735 2.5287 5.27458 2.54774 5.24801C2.63533 5.14174 2.73434 5.04307 2.83335 4.94818C2.89048 4.89505 2.9476 4.84192 3.00853 4.78878C3.06184 4.74324 3.28271 4.57245 3.08469 4.72426C2.88286 4.87987 3.12277 4.69769 3.17609 4.65974C3.24463 4.6142 3.31318 4.56486 3.38173 4.52311C3.52643 4.42823 3.67495 4.34094 3.82728 4.25744C4.17001 4.06768 4.52036 3.90068 4.88213 3.74887C4.79074 3.78682 4.69934 3.82478 4.60795 3.86273C6.29114 3.1606 8.10382 2.77348 9.90507 2.53058C9.80225 2.54576 9.70324 2.55715 9.60042 2.57233C11.9653 2.25732 14.372 2.19659 16.7483 2.37118C17.3919 2.42052 18.0354 2.48504 18.679 2.57233C18.5762 2.55715 18.4772 2.54576 18.3744 2.53058C20.1756 2.77348 21.9845 3.1606 23.6677 3.86273C23.5763 3.82478 23.4849 3.78682 23.3935 3.74887C23.7477 3.89689 24.0942 4.06008 24.4293 4.24605C24.5816 4.32955 24.7302 4.42064 24.8749 4.51172C24.951 4.56106 25.0234 4.6104 25.0957 4.65974C25.1529 4.69769 25.3852 4.87607 25.1871 4.72426C24.9853 4.56866 25.2138 4.75083 25.2633 4.78878C25.3204 4.83433 25.3737 4.88366 25.427 4.9368C25.5261 5.03168 25.6251 5.13036 25.7127 5.23663C25.7355 5.26319 25.7545 5.29735 25.7812 5.32012C25.7698 5.31253 25.5718 5.03927 25.6746 5.18349C25.7089 5.23663 25.7469 5.28597 25.7812 5.3391C25.8459 5.44537 25.9069 5.55543 25.9526 5.66929C25.9145 5.5782 25.8764 5.48712 25.8383 5.39603C25.9031 5.54784 25.9488 5.70724 25.9716 5.87424C25.9564 5.77176 25.945 5.67309 25.9297 5.57061C25.9335 5.64652 25.9373 5.72242 25.9411 5.79833C25.945 6.39419 26.4629 6.96349 27.0836 6.93692C27.7005 6.91035 28.2298 6.43594 28.226 5.79833C28.2146 4.27642 27.0341 3.14162 25.8079 2.41292C24.197 1.45271 22.3082 0.925168 20.4803 0.579796C18.0659 0.120565 15.5944 -0.0540191 13.142 0.0142962C10.8076 0.0788163 8.44274 0.344487 6.18071 0.940349C4.48609 1.38819 2.75338 2.0258 1.40149 3.16819C0.853121 3.63122 0.426609 4.21569 0.182888 4.88746C-0.117955 5.72242 0.053411 6.70541 0.529428 7.4417C1.18062 8.43606 2.22024 9.12681 3.28271 9.6202C4.36042 10.125 5.49524 10.4969 6.65292 10.7778C9.12821 11.3698 11.7063 11.6051 14.2463 11.5975C16.7978 11.59 19.3835 11.3395 21.8588 10.717C22.948 10.4438 24.0142 10.0794 25.0272 9.59742C26.0782 9.10024 27.1293 8.40191 27.7538 7.39615C28.0509 6.91794 28.2108 6.36383 28.2222 5.79833C28.2336 5.20247 27.6891 4.63317 27.0798 4.65974C26.4552 4.6901 25.9488 5.16072 25.9411 5.79833Z" fill="#DDDDDF"/>
<path d="M25.9334 5.97679C25.9334 6.74723 25.9334 7.52147 25.9334 8.29192C25.9334 9.51021 25.9334 10.7285 25.9334 11.9468C25.9334 12.2276 25.9639 12.5313 25.9296 12.8121C25.9449 12.7096 25.9563 12.611 25.9715 12.5085C25.9449 12.6755 25.8992 12.8387 25.8344 12.9981C25.8725 12.907 25.9106 12.8159 25.9487 12.7248C25.8992 12.8425 25.8382 12.9525 25.7697 13.0626C25.7583 13.0816 25.644 13.2258 25.6478 13.2372C25.644 13.2296 25.8382 13.0057 25.7354 13.1233C25.7126 13.1499 25.6935 13.1727 25.6707 13.1992C25.5717 13.3093 25.4688 13.4156 25.3584 13.5142C25.2975 13.5712 25.2327 13.6243 25.168 13.6774C25.1528 13.6888 25.0804 13.7306 25.0804 13.7496C25.0842 13.7154 25.3203 13.5712 25.149 13.6964C24.612 14.0873 24.0141 14.3872 23.4048 14.6452C23.4962 14.6073 23.5876 14.5693 23.679 14.5314C21.9844 15.2411 20.1641 15.6244 18.3514 15.8711C18.4542 15.8559 18.5533 15.8446 18.6561 15.8294C16.3179 16.1406 13.9454 16.2013 11.592 16.0305C10.9522 15.985 10.3124 15.9167 9.67268 15.8332C9.7755 15.8484 9.87451 15.8597 9.97733 15.8749C8.13038 15.6244 6.27201 15.2297 4.54692 14.5048C4.63831 14.5428 4.72971 14.5807 4.82111 14.6187C4.46695 14.4707 4.07852 14.2164 3.6939 14.2164C3.8843 14.2695 4.07852 14.3189 4.26893 14.372C3.99093 14.2316 3.71294 14.0797 3.45018 13.9128C3.32831 13.8368 3.21026 13.7571 3.09602 13.6736C2.8523 13.4953 3.24454 13.7989 3.09602 13.6774C3.04651 13.6357 2.99701 13.5939 2.9475 13.5522C2.8561 13.4725 2.76471 13.3852 2.67712 13.2979C2.63523 13.2562 2.59715 13.2106 2.55907 13.1689C2.5286 13.1347 2.3839 12.9525 2.5248 13.1347C2.66189 13.3131 2.5286 13.1347 2.50195 13.0968C2.47148 13.0512 2.44483 13.0057 2.41436 12.9601C2.35724 12.8653 2.30773 12.7666 2.26584 12.6641C2.30392 12.7552 2.34201 12.8463 2.38009 12.9374C2.31535 12.778 2.27346 12.6186 2.2468 12.4516C2.26204 12.554 2.27346 12.6527 2.28869 12.7552C2.26204 12.5313 2.28488 12.2884 2.28488 12.0606C2.28488 11.5179 2.28488 10.9752 2.28488 10.4325C2.28488 9.21038 2.28488 7.98829 2.28488 6.76621C2.28488 6.48156 2.28488 6.20071 2.28488 5.91606C1.52326 5.91606 0.761628 5.91606 0 5.91606C0.0723547 6.49674 0.232297 7.04326 0.575029 7.52906C0.959652 8.07179 1.41282 8.48548 1.94977 8.8726C3.00462 9.63925 4.28797 10.1099 5.52942 10.4856C5.26285 10.2199 4.99628 9.95426 4.72971 9.68859C4.88584 10.3338 5.58273 10.607 6.18061 10.6526C6.07779 10.6374 5.97878 10.626 5.87596 10.6108C5.94831 10.626 6.01305 10.6412 6.08541 10.6602C6.43956 10.7589 6.79753 10.6754 7.08314 10.4552C7.38398 10.2237 7.50204 9.93149 7.5325 9.55955C7.5325 9.55575 7.5325 9.55575 7.5325 9.55196C7.04887 9.9163 6.56904 10.2844 6.08541 10.6488C6.29486 10.6981 6.5043 10.7361 6.72137 10.7627C6.61855 10.7475 6.51954 10.7361 6.41672 10.7209C6.8318 10.8348 7.28878 10.941 7.68483 10.7019C7.3916 10.7399 7.09837 10.7778 6.80515 10.8158C9.84023 11.5141 13.0048 11.7191 16.1084 11.5483C17.7383 11.4572 19.372 11.2636 20.9714 10.9259C22.3995 10.626 23.8085 10.1972 25.1223 9.55955C25.8611 9.19899 26.5884 8.73976 27.1635 8.1477C27.4224 7.87823 27.6661 7.57461 27.8413 7.24441C28.0622 6.82314 28.1574 6.44361 28.2183 5.98058C28.2526 5.71111 28.066 5.35815 27.8832 5.17598C27.6852 4.97862 27.3615 4.8306 27.0759 4.84199C26.7788 4.85338 26.4742 4.95205 26.2685 5.17598C26.0477 5.40749 25.9753 5.65798 25.9334 5.97679C25.9334 5.99197 25.9296 6.00335 25.9296 6.01853C25.9449 5.91606 25.9563 5.81738 25.9715 5.71491C25.9449 5.8857 25.8992 6.0451 25.8344 6.2045C25.8725 6.11342 25.9106 6.02233 25.9487 5.93124C25.8992 6.0489 25.8382 6.15896 25.7697 6.26902C25.7354 6.32216 25.6973 6.3715 25.6631 6.42463C25.5945 6.5309 25.8382 6.21589 25.7544 6.31077C25.7316 6.33354 25.7126 6.36011 25.6897 6.38668C25.5945 6.49674 25.4917 6.60301 25.3813 6.70169C25.3279 6.75103 25.2708 6.80036 25.2137 6.84591C25.1832 6.86868 25.1566 6.89525 25.1261 6.91802C24.9814 7.03567 25.3089 6.78518 25.1947 6.86488C24.631 7.26339 24.0294 7.5822 23.3934 7.85166C23.4848 7.81371 23.5762 7.77576 23.6676 7.7378C21.9806 8.44373 20.1641 8.83085 18.3552 9.07375C18.4581 9.05857 18.5571 9.04718 18.6599 9.032C15.6591 9.43051 12.5897 9.43051 9.5889 9.0282C9.69172 9.04339 9.79073 9.05477 9.89355 9.06995C9.42134 9.00543 8.94532 8.92953 8.47692 8.84224C8.25986 8.80049 8.0466 8.75874 7.83334 8.7132C7.39922 8.62211 6.94986 8.48168 6.53477 8.73597C6.828 8.69801 7.12122 8.66006 7.41445 8.62211C7.17454 8.56518 6.9232 8.48168 6.67567 8.48168C6.77849 8.49686 6.8775 8.50825 6.98032 8.52343C6.88892 8.49307 6.79372 8.47789 6.69852 8.45511C6.33674 8.37162 5.99782 8.43234 5.70079 8.66006C5.39994 8.89157 5.28189 9.18381 5.25142 9.55575C5.25142 9.55955 5.25142 9.55955 5.25142 9.56334C5.73506 9.19899 6.21488 8.83085 6.69852 8.4665C6.51192 8.41716 6.31009 8.37162 6.11587 8.37162C6.21869 8.3868 6.3177 8.39818 6.42052 8.41337C6.32913 8.37541 6.23773 8.34126 6.14634 8.31089C6.41291 8.57656 6.67948 8.84224 6.94605 9.10791C6.81657 8.6259 6.4548 8.3868 6.00163 8.24637C5.84169 8.19703 5.67794 8.1439 5.51799 8.09077C5.1943 7.9807 4.87442 7.85925 4.55834 7.73021C4.64974 7.76817 4.74113 7.80612 4.83253 7.84407C4.50122 7.70365 4.17372 7.55183 3.85765 7.37725C3.70532 7.29375 3.5568 7.20646 3.41209 7.11158C3.34355 7.06604 3.275 7.02049 3.20645 6.97495C3.13029 6.92181 2.89038 6.72446 3.17599 6.95977C2.95512 6.77759 2.74186 6.59162 2.55526 6.37529C2.55145 6.3677 2.49052 6.30318 2.49052 6.29939C2.49433 6.29559 2.66951 6.54228 2.58192 6.41704C2.54384 6.36011 2.50195 6.30318 2.46387 6.24246C2.39532 6.13619 2.3382 6.02233 2.28869 5.90847C2.32677 5.99956 2.36486 6.09064 2.40294 6.18173C2.33058 6.01094 2.28108 5.83636 2.25442 5.65418C2.26965 5.75666 2.28108 5.85534 2.29631 5.95781C2.29631 5.94263 2.2925 5.93124 2.2925 5.91606C2.25442 5.60105 2.18968 5.34297 1.95738 5.11146C1.75936 4.9141 1.43567 4.76608 1.15006 4.77747C0.529331 4.80404 0.00761616 5.27845 0.00761616 5.91606C0.00761616 7.06604 0.00761616 8.21981 0.00761616 9.36978C0.00761616 10.1516 0.00761616 10.9296 0.00761616 11.7115C0.00761616 12.1669 -0.0190407 12.6224 0.0571221 13.074C0.175174 13.8027 0.624535 14.4707 1.14244 14.9792C1.45471 15.2867 1.80887 15.5523 2.17445 15.7952C2.34581 15.9091 2.51718 16.0116 2.69616 16.114C3.00462 16.2848 3.33974 16.4936 3.70151 16.4936C3.51111 16.4404 3.31689 16.3911 3.12648 16.3379C5.63986 17.5449 8.45788 18.0458 11.2188 18.2773C14.3986 18.5468 17.6469 18.395 20.7772 17.765C22.0796 17.5031 23.3439 17.1312 24.5663 16.6112C25.168 16.3569 25.7544 16.0609 26.2876 15.6814C26.8931 15.2487 27.4681 14.7401 27.8337 14.0797C28.0622 13.6661 28.2183 13.1992 28.2297 12.7248C28.2335 12.554 28.2297 12.3795 28.2297 12.2049C28.2297 11.4951 28.2297 10.7854 28.2297 10.0757C28.2297 8.73597 28.2297 7.40002 28.2297 6.06028C28.2297 6.03371 28.2297 6.00715 28.2297 5.98058C28.2297 5.38472 27.7042 4.81542 27.0873 4.84199C26.4551 4.86476 25.9334 5.33917 25.9334 5.97679Z" fill="#DDDDDF"/>
<path d="M25.9336 12.7703C25.9336 13.5407 25.9336 14.315 25.9336 15.0854C25.9336 16.3037 25.9336 17.522 25.9336 18.7403C25.9336 19.0211 25.9641 19.3247 25.9298 19.6056C25.9451 19.5031 25.9565 19.4044 25.9717 19.302C25.9451 19.469 25.8994 19.6322 25.8346 19.7916C25.8727 19.7005 25.9108 19.6094 25.9489 19.5183C25.8994 19.636 25.8384 19.746 25.7699 19.8561C25.7585 19.8751 25.6442 20.0193 25.648 20.0307C25.6442 20.0231 25.8384 19.7992 25.7356 19.9168C25.7128 19.9434 25.6937 19.9662 25.6709 19.9927C25.5719 20.1028 25.469 20.2091 25.3586 20.3077C25.2977 20.3647 25.2329 20.4178 25.1682 20.4709C25.153 20.4823 25.0806 20.5241 25.0806 20.543C25.0844 20.5089 25.3205 20.3647 25.1492 20.4899C24.6122 20.877 24.0143 21.1806 23.405 21.4387C23.4964 21.4008 23.5878 21.3628 23.6792 21.3249C21.9884 22.0346 20.1681 22.4217 18.3592 22.6646C18.4621 22.6494 18.5611 22.638 18.6639 22.6229C16.3143 22.9341 13.9304 22.9948 11.5655 22.824C10.9105 22.7785 10.2593 22.7102 9.61194 22.6229C9.71476 22.638 9.81377 22.6494 9.91659 22.6646C8.10011 22.4179 6.2722 22.0308 4.57758 21.3249C4.66898 21.3628 4.76037 21.4008 4.85177 21.4387C4.23104 21.1769 3.63697 20.8656 3.0886 20.4747C2.95912 20.3798 3.17619 20.5279 3.17999 20.5468C3.17619 20.5279 3.10764 20.4899 3.09241 20.4747C3.02767 20.4216 2.96674 20.3685 2.90581 20.3115C2.79537 20.2128 2.69255 20.1066 2.59354 19.9965C2.56688 19.9662 2.54023 19.932 2.51357 19.9016C2.42598 19.8105 2.67351 20.1218 2.60116 20.0193C2.56307 19.9624 2.51738 19.9054 2.4793 19.8447C2.40694 19.7308 2.34601 19.6132 2.28889 19.4879C2.32697 19.579 2.36505 19.6701 2.40313 19.7612C2.33078 19.5904 2.28127 19.4158 2.25462 19.2337C2.26985 19.3361 2.28127 19.4348 2.2965 19.5373C2.26985 19.3134 2.2927 19.0705 2.2927 18.8427C2.2927 18.3 2.2927 17.7573 2.2927 17.2146C2.2927 15.9925 2.2927 14.7742 2.2927 13.5521C2.2927 13.2674 2.2927 12.9866 2.2927 12.7019C1.53107 12.7019 0.769441 12.7019 0.0078125 12.7019C0.0687427 13.1764 0.167754 13.5749 0.396243 14.0037C0.579033 14.3453 0.834179 14.6641 1.10456 14.9374C1.41682 15.2524 1.7786 15.5257 2.14418 15.7723C2.32316 15.89 2.50595 16.0039 2.69255 16.1063C2.9972 16.2771 3.33994 16.4859 3.6979 16.4859C3.50749 16.4327 3.31328 16.3834 3.12287 16.3303C4.50903 16.9982 5.99421 17.4423 7.49842 17.7459C9.34537 18.1216 11.2342 18.319 13.1154 18.3759C15.1147 18.4328 17.1026 18.3228 19.0828 18.0495C20.686 17.8294 22.2854 17.4878 23.8011 16.9185C25.5985 16.243 27.8034 15.1537 28.188 13.0739C28.2452 12.7665 28.2337 12.4742 28.0738 12.1972C27.9367 11.9619 27.6625 11.7341 27.3921 11.6734C26.8323 11.5482 26.1012 11.8404 25.9869 12.4704C25.9527 12.664 25.907 12.85 25.8346 13.0321C25.8727 12.9411 25.9108 12.85 25.9489 12.7589C25.8917 12.8879 25.8232 13.0094 25.7432 13.127C25.7242 13.1536 25.7051 13.1802 25.6899 13.2067C25.6252 13.313 25.8651 12.998 25.7813 13.0929C25.7356 13.1422 25.6937 13.1953 25.6518 13.2447C25.549 13.3585 25.4424 13.461 25.3281 13.5635C25.271 13.6128 25.2139 13.6622 25.153 13.7077C25.0349 13.8026 25.2253 13.6546 25.2444 13.6356C25.2101 13.6698 25.1606 13.6963 25.1225 13.7229C24.5894 14.1024 23.9991 14.3947 23.3974 14.6489C23.4888 14.611 23.5802 14.573 23.6716 14.5351C21.9808 15.241 20.1605 15.6281 18.3478 15.871C18.4506 15.8558 18.5496 15.8445 18.6525 15.8293C16.3181 16.1405 13.9494 16.1898 11.6036 16.019C10.9638 15.9735 10.3241 15.9052 9.6843 15.8217C9.78712 15.8369 9.88613 15.8483 9.98895 15.8634C8.142 15.6129 6.28363 15.2182 4.55854 14.4933C4.64994 14.5313 4.74133 14.5692 4.83273 14.6072C4.47857 14.4592 4.09014 14.2049 3.70552 14.2049C3.89592 14.258 4.09014 14.3074 4.28055 14.3605C4.00255 14.2201 3.72456 14.0683 3.4618 13.9013C3.33993 13.8254 3.22188 13.7457 3.10764 13.6622C2.86392 13.4838 3.25616 13.7874 3.10764 13.666C3.05813 13.6242 3.00863 13.5825 2.95912 13.5407C2.86773 13.461 2.77633 13.3737 2.68874 13.2864C2.64685 13.2447 2.60877 13.1991 2.57069 13.1574C2.54023 13.1232 2.39552 12.9411 2.53642 13.1232C2.67351 13.3016 2.54023 13.1232 2.51357 13.0853C2.4831 13.0397 2.45645 12.9942 2.42598 12.9486C2.36886 12.8538 2.31935 12.7551 2.27746 12.6526C2.31555 12.7437 2.35363 12.8348 2.39171 12.9259C2.32697 12.7665 2.28508 12.6071 2.25842 12.4401C2.27366 12.5425 2.28508 12.6412 2.30031 12.7437C2.30031 12.7285 2.2965 12.7171 2.2965 12.7019C2.25842 12.3869 2.19369 12.1289 1.96139 11.8973C1.76337 11.7 1.43967 11.552 1.15406 11.5634C0.533336 11.5899 0.0116209 12.0643 0.0116209 12.7019C0.0116209 13.4269 0.0116209 14.148 0.0116209 14.8729C0.0116209 16.076 0.0116209 17.2791 0.0116209 18.4822C0.0116209 18.801 0.00781273 19.1198 0.0116209 19.4386C0.0268534 20.2584 0.449557 21.0099 0.978888 21.6095C1.66435 22.3876 2.62781 22.9379 3.57223 23.3478C4.47095 23.7387 5.39252 24.0537 6.34075 24.2928C8.5647 24.8583 10.8762 25.1164 13.1687 25.1771C15.5869 25.2416 18.0165 25.0746 20.3966 24.6306C21.3486 24.4522 22.293 24.2245 23.2146 23.9209C24.1514 23.6096 25.092 23.2339 25.9336 22.7102C26.8857 22.1181 27.7501 21.3249 28.1119 20.2394C28.2299 19.8789 28.2337 19.5221 28.2337 19.154C28.2337 18.0571 28.2337 16.9641 28.2337 15.8672C28.2337 14.8918 28.2337 13.9126 28.2337 12.9373C28.2337 12.8803 28.2337 12.8272 28.2337 12.7703C28.2337 12.1744 27.7082 11.6051 27.0913 11.6317C26.4553 11.6582 25.9336 12.1327 25.9336 12.7703Z" fill="#DDDDDF"/>
<path d="M25.9335 26.1867C25.9335 26.2626 25.9259 26.3423 25.9183 26.4183C25.9335 26.3158 25.945 26.2171 25.9602 26.1146C25.9373 26.2778 25.8916 26.4372 25.8269 26.5928C25.865 26.5017 25.9031 26.4107 25.9411 26.3196C25.8954 26.4296 25.8383 26.5359 25.7774 26.6384C25.7431 26.6953 25.7012 26.7522 25.6632 26.8054C25.606 26.8851 25.5032 26.9762 25.7698 26.6687C25.7507 26.6915 25.7317 26.7143 25.7127 26.7409C25.6251 26.8471 25.5299 26.9458 25.427 27.0407C25.3699 27.0938 25.3128 27.1469 25.2519 27.2001C25.1986 27.2456 24.9815 27.4164 25.1757 27.2646C25.3775 27.109 25.1376 27.2912 25.0843 27.3291C25.0158 27.3747 24.9472 27.424 24.8787 27.4658C24.734 27.5606 24.5854 27.6479 24.4331 27.7314C24.0942 27.9212 23.74 28.0882 23.3821 28.24C23.4735 28.202 23.5649 28.1641 23.6563 28.1261C21.9769 28.8283 20.168 29.2154 18.3668 29.4583C18.4696 29.4431 18.5686 29.4317 18.6714 29.4165C16.3066 29.7315 13.9036 29.7923 11.5235 29.6177C10.8761 29.5683 10.2326 29.5038 9.5928 29.4165C9.69562 29.4317 9.79463 29.4431 9.89745 29.4583C8.07716 29.2116 6.24926 28.8207 4.55082 28.1072C4.64222 28.1451 4.73362 28.1831 4.82501 28.221C4.47466 28.073 4.12812 27.9098 3.79301 27.72C3.64068 27.6365 3.49216 27.5455 3.34745 27.4506C3.27891 27.405 3.21036 27.3595 3.14181 27.3139C3.05042 27.2494 2.8067 27.0407 3.15324 27.3291C2.93237 27.1432 2.7153 26.961 2.5287 26.7371C2.50966 26.7143 2.49062 26.6915 2.47158 26.6649C2.36876 26.5473 2.6658 26.9306 2.57821 26.8016C2.54013 26.7446 2.49824 26.6915 2.46396 26.6346C2.39923 26.5321 2.34591 26.4258 2.29641 26.3158C2.33449 26.4069 2.37257 26.498 2.41065 26.589C2.34591 26.4372 2.30021 26.2778 2.27737 26.1108C2.2926 26.2133 2.30402 26.312 2.31925 26.4145C2.2926 26.2019 2.27737 25.9894 2.25071 25.7806C2.26594 25.8831 2.27737 25.9818 2.2926 26.0843C2.2926 25.3404 2.2926 24.5965 2.2926 23.8526C2.2926 22.6723 2.2926 21.492 2.2926 20.3154C2.2926 20.0422 2.2926 19.7689 2.2926 19.4956C1.53097 19.4956 0.769342 19.4956 0.00771404 19.4956C0.0762606 20.0346 0.209546 20.5279 0.506581 20.9948C0.776958 21.4198 1.1235 21.807 1.51955 22.122C2.37257 22.8013 3.3208 23.272 4.33757 23.6667C6.21117 24.3916 8.21426 24.7483 10.2059 24.976C12.4984 25.2379 14.8252 25.2645 17.1291 25.0709C19.1969 24.8963 21.2838 24.5699 23.2564 23.9096C24.2732 23.5718 25.3014 23.1543 26.1887 22.5433C26.7485 22.1599 27.2283 21.7311 27.632 21.1845C27.9899 20.6987 28.1537 20.1598 28.2298 19.5715C27.4682 19.5715 26.7066 19.5715 25.945 19.5715C25.945 20.3078 25.945 21.0479 25.945 21.7842C25.945 22.9456 25.945 24.1069 25.945 25.2683C25.9335 25.5719 25.9335 25.8793 25.9335 26.1867C25.9335 26.7826 26.4591 27.3519 27.076 27.3253C27.6967 27.2988 28.2184 26.8243 28.2184 26.1867C28.2184 25.4277 28.2184 24.6648 28.2184 23.9058C28.2184 22.733 28.2184 21.5641 28.2184 20.3913C28.2184 20.1181 28.2184 19.8448 28.2184 19.5715C28.2184 18.9757 27.6929 18.4064 27.076 18.4329C26.7789 18.4443 26.4743 18.543 26.2686 18.7669C26.0478 19.006 25.9754 19.2527 25.9335 19.5715C25.9335 19.5867 25.9297 19.5981 25.9297 19.6133C25.945 19.5108 25.9564 19.4121 25.9716 19.3097C25.945 19.4767 25.8993 19.6398 25.8345 19.7993C25.8726 19.7082 25.9107 19.6171 25.9488 19.526C25.8993 19.6436 25.8383 19.7537 25.7698 19.8638C25.7584 19.8827 25.6441 20.027 25.6479 20.0384C25.6441 20.0308 25.8383 19.8068 25.7355 19.9245C25.7127 19.9511 25.6936 19.9738 25.6708 20.0004C25.5718 20.1105 25.4689 20.2167 25.3585 20.3154C25.2976 20.3723 25.2328 20.4255 25.1681 20.4786C25.1529 20.49 25.0805 20.5317 25.0767 20.5507C25.0843 20.5166 25.3166 20.3723 25.1452 20.4976C24.6083 20.8847 24.0104 21.1883 23.4011 21.4464C23.4925 21.4085 23.5839 21.3705 23.6753 21.3326C21.9845 22.0423 20.1642 22.4294 18.3515 22.6723C18.4543 22.6571 18.5534 22.6457 18.6562 22.6305C16.3066 22.9418 13.9227 23.0025 11.5578 22.8317C10.9066 22.7862 10.2554 22.7178 9.60423 22.6305C9.70705 22.6457 9.80606 22.6571 9.90888 22.6723C8.09239 22.4256 6.2683 22.0385 4.57367 21.3326C4.66507 21.3705 4.75646 21.4085 4.84786 21.4464C4.22713 21.1845 3.63306 20.8733 3.08469 20.4824C2.95521 20.3875 3.17228 20.5355 3.17609 20.5545C3.17228 20.5355 3.10373 20.4976 3.0885 20.4824C3.02376 20.4293 2.96283 20.3761 2.9019 20.3192C2.79146 20.2205 2.68864 20.1143 2.58963 20.0042C2.56298 19.9738 2.53632 19.9397 2.50966 19.9093C2.42207 19.8182 2.6696 20.1294 2.59725 20.027C2.55917 19.97 2.51347 19.9131 2.47539 19.8524C2.40303 19.7385 2.3421 19.6209 2.28498 19.4956C2.32306 19.5867 2.36114 19.6778 2.39923 19.7689C2.32687 19.5981 2.27737 19.4235 2.25071 19.2413C2.26594 19.3438 2.27737 19.4425 2.2926 19.545C2.2926 19.5298 2.28879 19.5184 2.28879 19.5032C2.25071 19.1882 2.18597 18.9301 1.95367 18.6986C1.75565 18.5013 1.43196 18.3532 1.14635 18.3646C0.525621 18.3912 0.00390625 18.8656 0.00390625 19.5032C0.00390625 20.2585 0.00390625 21.0175 0.00390625 21.7728C0.00390625 22.9607 0.00390625 24.1525 0.00390625 25.3404C0.00390625 25.7389 0.00390602 26.107 0.05722 26.5017C0.0419874 26.3993 0.0305628 26.3006 0.0153302 26.1981C0.0267546 27.9136 1.51193 29.1243 2.91713 29.8454C4.98495 30.9081 7.30411 31.3977 9.5928 31.7013C12.289 32.0581 15.0384 32.096 17.7422 31.8114C20.1452 31.5609 22.5367 31.1017 24.753 30.1187C25.5489 29.7657 26.3105 29.3179 26.9579 28.7334C27.5025 28.2438 27.9899 27.5796 28.1423 26.8509C28.1879 26.6346 28.2184 26.4107 28.2222 26.1905C28.226 25.5947 27.6929 25.0254 27.0798 25.0519C26.4514 25.0747 25.9373 25.5453 25.9335 26.1867Z" fill="#DDDDDF"/>
</g>
<defs>
<clipPath id="Data2Clip0">
<rect width="28" height="32" fill="white"/>
</clipPath>
</defs>
</svg>