<svg width="73" height="83" viewBox="0 0 73 83" fill="none" xmlns="http://www.w3.org/2000/svg">
<path d="M47.8545 68.3071C47.8545 70.1413 49.3411 71.6337 51.1663 71.6337C52.9914 71.6337 54.4765 70.1413 54.4765 68.3071C54.4765 66.4714 52.9914 64.979 51.1663 64.979C49.3411 64.979 47.8545 66.4714 47.8545 68.3071ZM52.1625 68.3071C52.1625 68.8596 51.7153 69.3091 51.1655 69.3091C50.6142 69.3091 50.167 68.8596 50.167 68.3071C50.167 67.7531 50.6142 67.3037 51.1655 67.3037C51.7153 67.3037 52.1625 67.7531 52.1625 68.3071Z" fill="#DDDDDF"/>
<path d="M44.1641 27.21H34.1562V29.5346H44.1641V27.21Z" fill="#DDDDDF"/>
<path d="M31.0915 27.21H14.1694V29.5346H31.0915V27.21Z" fill="#DDDDDF"/>
<path d="M31.0912 31.8574H20.2769V34.1821H31.0912V31.8574Z" fill="#DDDDDF"/>
<path d="M40.9926 31.8584H34.1562V34.1831H40.9926V31.8584Z" fill="#DDDDDF"/>
<path d="M17.2291 31.8584H14.1694V34.1831H17.2291V31.8584Z" fill="#DDDDDF"/>
<path d="M37.262 36.5078H31.0718V38.8325H37.262V36.5078Z" fill="#DDDDDF"/>
<path d="M28.0049 36.5078H14.1694V38.8325H28.0049V36.5078Z" fill="#DDDDDF"/>
<path d="M23.3828 41.1572H14.1938V43.4819H23.3828V41.1572Z" fill="#DDDDDF"/>
<path d="M36.4205 41.1577H26.4458V43.4824H36.4205V41.1577Z" fill="#DDDDDF"/>
<path d="M24.195 45.8057H14.1694V48.1303H24.195V45.8057Z" fill="#DDDDDF"/>
<path d="M14.0706 50.4669L14.0752 52.7915L21.0504 52.7775L21.0457 50.4528L14.0706 50.4669Z" fill="#DDDDDF"/>
<path d="M42.7009 15.5859H17.2329V17.9106H42.7009V15.5859Z" fill="#DDDDDF"/>
<path d="M38.0575 20.2354H21.8193V22.56H38.0575V20.2354Z" fill="#DDDDDF"/>
<path d="M61.4264 72.1532H58.0606V68.0563C66.3967 64.4229 72.25 56.0836 72.25 46.3851C72.25 38.2287 68.0569 30.6991 61.2336 26.3892L63.6856 22.1234L65.6827 23.2819L66.8393 21.2687L64.8423 20.1095L54.4435 14.0763L52.4325 12.9101L51.2759 14.9232L53.2861 16.0894L51.1201 19.8585V7.06354L10.2514 7V37.3135H1V54.9724C1 57.6318 2.8876 59.8549 5.38667 60.3602V60.4694L42.7169 60.519L39.2694 68.0486L40.4307 68.4887C41.6536 68.9536 42.9066 69.3078 44.1804 69.5588V72.1532H30.301V83H61.4264C64.4251 83 66.8648 80.5661 66.8648 77.5758C66.8648 74.5855 64.4251 72.1532 61.4264 72.1532ZM10.2514 54.9724C10.2514 56.7205 8.8357 58.1432 7.09538 58.1432H6.46849C4.72894 58.1432 3.31324 56.7205 3.31324 54.9724V39.639H10.2514V54.9724ZM59.164 46.3851C59.164 51.3374 55.7227 55.4885 51.1201 56.5733V43.9938L54.6802 37.7971C57.4885 39.7606 59.164 42.9307 59.164 46.3851ZM46.5877 42.8284L44.1388 47.0903L41.0367 45.2902L43.4857 41.0276L46.5877 42.8284ZM61.6824 20.9611L49.6435 41.9171L43.249 38.2077L55.2894 17.2517L55.9294 17.6229L61.6824 20.9611ZM11.5538 58.1525C12.1907 57.2552 12.5654 56.158 12.5654 54.9724V9.32776L48.8077 9.3851V23.8848L40.0891 39.0586L41.4824 39.8668L37.8768 46.1418L44.9854 50.2657L48.591 43.9907L48.8077 44.1162V56.8569C48.7853 56.8569 48.7637 56.86 48.7413 56.86C48.0828 56.86 47.4313 56.7903 46.7897 56.6678L48.1723 54.2626L32.2457 45.0221C31.9072 44.8253 31.5216 44.7214 31.1299 44.7214C30.3318 44.7214 29.5893 45.1515 29.1906 45.8435L28.654 46.7772C28.0379 47.8504 28.4057 49.2274 29.4736 49.8481L43.7972 58.1579L43.781 58.1959L11.5538 58.1525ZM44.5528 55.9123L30.6958 47.8729L31.1554 47.074L45.0124 55.1134L44.5528 55.9123ZM46.0094 58.8879C46.9039 59.0847 47.8184 59.1847 48.7413 59.1847C55.7636 59.1847 61.478 53.4428 61.478 46.3851C61.478 42.3286 59.6012 38.5789 56.412 36.1644L59.5218 29.3694L60.0847 28.3907C66.1932 32.2845 69.9368 39.0593 69.9368 46.3843C69.9368 54.8941 64.9371 62.2408 57.7414 65.6488C56.9009 63.0637 54.4867 61.1885 51.6437 61.1885H50.5989C47.2177 61.1885 44.4464 63.8371 44.2059 67.1799C43.6067 67.0498 43.0115 66.9049 42.4239 66.7197L46.0094 58.8879ZM55.7474 67.6534V76.0276H46.4944V67.6534C46.4944 65.3714 48.335 63.514 50.5981 63.514H51.6429C53.9068 63.5147 55.7474 65.3714 55.7474 67.6534ZM61.4264 80.6753H32.6142V74.4778H44.1804V78.3522H58.0598V74.4778H61.4256C63.1482 74.4778 64.5508 75.8672 64.5508 77.5774C64.5516 79.286 63.149 80.6753 61.4264 80.6753Z" fill="#DDDDDF"/>
<rect width="16" height="16" rx="6" fill="#58A158"/>
<path fill-rule="evenodd" clip-rule="evenodd" d="M3.69639 7.85036L2.6665 8.89831L5.97685 12.2667L13.3332 4.78135L12.3033 3.7334L5.97685 10.1708L3.69639 7.85036V7.85036Z" fill="white"/>
</svg>
