<svg width="65" height="64" viewBox="0 0 65 64" fill="none" xmlns="http://www.w3.org/2000/svg">
<path d="M34.1426 44.3694L19.972 30.417C18.9956 29.4556 18.9956 27.8972 19.972 26.9359C20.9484 25.9745 22.5312 25.9745 23.5076 26.9359L37.6782 40.8883C38.6545 41.8496 38.6545 43.4081 37.6782 44.3694C36.7018 45.3307 35.1188 45.3307 34.1426 44.3694Z" fill="#F47E6C"/>
<path d="M37.6148 40.9156L30.5297 33.9395L26.9941 37.4206L34.0793 44.3967C35.0557 45.3579 36.6384 45.3579 37.6148 44.3967C38.5911 43.4354 38.5911 41.8768 37.6148 40.9156Z" fill="#FCCB6F"/>
<path d="M56.0869 22.7626L41.9163 8.81017C40.94 7.8488 40.94 6.29043 41.9163 5.32906C42.8927 4.36769 44.4754 4.36769 45.4518 5.32906L59.6224 19.2815C60.5988 20.2429 60.5988 21.8013 59.6224 22.7626C58.6461 23.724 57.0632 23.724 56.0869 22.7626Z" fill="#F47E6C"/>
<path d="M59.5592 19.3087L52.474 12.3326L48.9385 15.8138L56.0236 22.7899C56.9999 23.7512 58.5828 23.7512 59.5592 22.7899C60.5356 21.8286 60.5353 20.2701 59.5592 19.3087Z" fill="#FCCB6F"/>
<path d="M19.6111 58.6427L5.44129 44.691C4.46488 43.7296 4.46488 42.1712 5.44129 41.2099C6.41769 40.2485 8.00042 40.2486 8.97682 41.2099L23.1465 55.1615C24.1229 56.1228 24.1229 57.6812 23.1465 58.6426C22.1705 59.6039 20.5875 59.6039 19.6111 58.6427Z" fill="#63DBD0"/>
<path d="M23.1458 55.162L16.0609 48.1862L12.5254 51.6673L19.6103 58.6431C20.5866 59.6044 22.1694 59.6044 23.1458 58.6431C24.122 57.6818 24.122 56.1231 23.1458 55.162Z" fill="#7692D9"/>
<path d="M41.5548 37.0361L27.3842 23.0836C26.4078 22.1222 26.4078 20.5639 27.3842 19.6025C28.3606 18.6411 29.9433 18.6411 30.9197 19.6025L45.0903 33.555C46.0667 34.5162 46.0667 36.0747 45.0903 37.0361C44.114 37.9973 42.531 37.9973 41.5548 37.0361Z" fill="#63DBD0"/>
<path d="M45.0909 33.5548L38.0058 26.5787L34.4702 30.0597L41.5554 37.0358C42.5317 37.9971 44.1145 37.9971 45.0909 37.0358C46.0671 36.0746 46.0671 34.5161 45.0909 33.5548Z" fill="#7692D9"/>
<path d="M46.5178 24.195C51.2348 24.7442 59.4126 24.8451 64.2678 20.0648C65.244 19.1035 65.244 17.5451 64.2678 16.5837C63.2915 15.6224 61.7086 15.6224 60.7322 16.5837C57.307 19.9562 50.375 19.8661 45.5912 19.0932C44.9176 15.1395 44.5423 7.76126 48.1572 4.20214C49.1335 3.24077 49.1335 1.6824 48.1572 0.721029C47.1808 -0.240343 45.5981 -0.240343 44.6217 0.721029C39.7664 5.50151 39.8691 13.5535 40.427 18.1977C24.4874 16.3421 16.5569 23.7721 18.4822 39.8047C13.7653 39.2555 5.58727 39.1545 0.732302 43.9348C-0.244101 44.896 -0.244101 46.4545 0.732302 47.4159C1.7087 48.3771 3.29144 48.3771 4.26784 47.4159C7.68582 44.0505 14.5997 44.1314 19.3941 44.9041C20.1783 49.6226 20.2619 56.4315 16.8431 59.7976C15.8667 60.759 15.8667 62.3173 16.8431 63.2787C17.8195 64.2401 19.4023 64.24 20.3787 63.2787C25.2339 58.4982 25.1312 50.4464 24.5734 45.802C40.5127 47.6576 48.4431 40.2277 46.5178 24.195ZM41.3386 23.2972C43.593 36.8624 38.403 41.1784 28.8832 41.1438C26.7972 41.1363 24.9095 40.9037 23.6612 40.7025C23.4568 39.4729 23.2207 37.6148 23.213 35.5609C23.1786 26.4139 27.3185 21.0377 41.3386 23.2972Z" fill="#9DA3B3"/>
<path d="M24.5726 45.8019C40.5125 47.6575 48.4428 40.2275 46.5174 24.1949C51.2344 24.7442 59.4121 24.845 64.2673 20.0648C65.2436 19.1034 65.2436 17.5451 64.2673 16.5837C63.291 15.6223 61.7082 15.6223 60.7318 16.5837C57.3101 19.9527 50.3891 19.8662 45.6055 19.0954L41.3379 23.2973C43.5922 36.8625 38.4022 41.1785 28.8825 41.1439C26.7965 41.1364 24.9088 40.9037 23.6605 40.7026L19.3932 44.9042C20.1774 49.6227 20.2609 56.4316 16.8422 59.7977C15.8658 60.7591 15.8658 62.3174 16.8422 63.2788C17.8186 64.2402 19.4013 64.2401 20.3777 63.2788C25.2331 58.4982 25.1303 50.4462 24.5726 45.8019Z" fill="#9DA3B3"/>
</svg>
