<svg viewBox="0 0 245 370" fill="none" xmlns="http://www.w3.org/2000/svg">
<path d="M137 370C194.438 370 241 360.15 241 348C241 335.85 194.438 326 137 326C79.5624 326 33 335.85 33 348C33 360.15 79.5624 370 137 370Z" fill="#5C94B9" fill-opacity="0.25"/>
<path d="M113.187 186.707L113.187 186.707C113.169 190.2 110.321 193.048 106.827 193.067C106.827 193.067 106.827 193.067 106.827 193.067L52.15 193.36C48.6606 193.379 45.8492 190.567 45.8679 187.078C45.8866 183.584 48.735 180.736 52.2284 180.717C52.2284 180.717 52.2284 180.717 52.2284 180.717L106.905 180.425C110.395 180.406 113.206 183.217 113.187 186.707Z" fill="#62AC62" fill-opacity="0.3" stroke="#62AC62"/>
<path d="M79.9942 193.212L80.0618 180.569L106.906 180.425C110.394 180.407 113.206 183.219 113.188 186.707C113.169 190.201 110.321 193.049 106.828 193.068L79.9942 193.212Z" fill="#62AC62" fill-opacity="0.3" stroke="#62AC62"/>
<path d="M46.5597 274.618L46.5597 274.618C46.5959 271.185 49.4122 268.369 52.8457 268.331C52.8457 268.331 52.8457 268.331 52.8457 268.331L106.622 267.753C110.048 267.716 112.791 270.459 112.754 273.884C112.717 277.318 109.901 280.134 106.467 280.171L52.6911 280.749C49.2659 280.786 46.5228 278.043 46.5597 274.618Z" fill="#5C94B9" fill-opacity="0.3" stroke="#5C94B9"/>
<path d="M79.2231 268.047L79.0895 280.465L52.6905 280.749C49.2663 280.786 46.5227 278.042 46.5591 274.617C46.5963 271.184 49.4125 268.368 52.8456 268.331L79.2231 268.047Z" fill="#5C94B9" fill-opacity="0.3" stroke="#5C94B9"/>
<path d="M113.143 245.314L113.143 245.314C113.125 248.807 110.276 251.655 106.783 251.674C106.783 251.674 106.783 251.674 106.783 251.674L52.1056 251.967C48.6162 251.986 45.8048 249.174 45.8235 245.685C45.8421 242.191 48.6906 239.343 52.184 239.324C52.184 239.324 52.184 239.324 52.184 239.324L106.861 239.032C110.35 239.013 113.162 241.824 113.143 245.314Z" fill="#62AC62" fill-opacity="0.3" stroke="#62AC62"/>
<path d="M79.9497 251.819L80.0174 239.176L106.861 239.032C110.35 239.014 113.162 241.825 113.144 245.314C113.125 248.808 110.276 251.656 106.783 251.675L79.9497 251.819Z" fill="#62AC62" fill-opacity="0.3" stroke="#62AC62"/>
<path d="M112.729 329.896L112.729 329.896C112.711 333.388 109.863 336.237 106.369 336.256C106.369 336.256 106.369 336.256 106.369 336.256L51.6918 336.549C48.2023 336.568 45.391 333.756 45.4096 330.267C45.4283 326.773 48.2767 323.925 51.7702 323.906C51.7702 323.906 51.7702 323.906 51.7702 323.906L106.447 323.614C109.936 323.595 112.748 326.406 112.729 329.896Z" fill="white" stroke="#62AC62"/>
<path d="M79.5359 336.4L79.6036 323.758L106.448 323.614C109.936 323.595 112.748 326.407 112.73 329.896C112.711 333.39 109.862 336.238 106.369 336.257L79.5359 336.4Z" fill="white" stroke="#62AC62"/>
<path d="M112.729 329.896L112.729 329.896C112.711 333.388 109.863 336.237 106.369 336.256C106.369 336.256 106.369 336.256 106.369 336.256L51.6918 336.549C48.2023 336.568 45.391 333.756 45.4096 330.267C45.4283 326.773 48.2767 323.925 51.7702 323.906C51.7702 323.906 51.7702 323.906 51.7702 323.906L106.447 323.614C109.936 323.595 112.748 326.406 112.729 329.896Z" fill="#62AC62" fill-opacity="0.3" stroke="#62AC62"/>
<path d="M79.5359 336.4L79.6036 323.758L106.448 323.614C109.936 323.595 112.748 326.407 112.73 329.896C112.711 333.39 109.862 336.238 106.369 336.257L79.5359 336.4Z" fill="#62AC62" fill-opacity="0.3" stroke="#62AC62"/>
<mask id="path-12-inside-1" fill="white">
<path fill-rule="evenodd" clip-rule="evenodd" d="M118.909 6.78491C118.808 25.5194 102.75 41.185 92.5296 49.2639C127.512 76.7778 126.611 106.642 92.0771 133.942C102.211 141.912 118.104 157.406 118.003 176.141C117.999 176.939 117.858 177.706 117.603 178.418C115.719 195.607 101.005 209.85 91.4233 217.425C126.406 244.939 125.505 274.803 90.9707 302.103C101.105 310.073 116.997 325.567 116.897 344.302C116.877 348.07 113.807 351.14 110.039 351.16C106.272 351.18 103.234 348.143 103.254 344.375C103.325 331.183 89.8923 318.075 79.1747 310.399C68.3689 318.193 54.8005 331.446 54.7299 344.635C54.7095 348.402 51.6395 351.472 47.8721 351.493C44.1044 351.513 41.0669 348.475 41.0873 344.708C41.1875 325.974 57.2471 310.308 67.4668 302.229C32.4841 274.716 33.3856 244.851 67.9201 217.55C57.7863 209.581 41.8935 194.086 41.9938 175.351C41.998 174.554 42.1387 173.789 42.3935 173.077C44.2756 155.887 58.9912 141.643 68.5731 134.068C33.5905 106.555 34.492 76.6906 69.0264 49.3895C58.8926 41.4198 42.9998 25.9254 43.1001 7.19045C43.1202 3.42278 46.1903 0.352779 49.9579 0.332612C53.7253 0.312691 56.7626 3.35001 56.7427 7.11743C56.6678 21.066 71.7762 34.7185 80.7887 41.1179C91.5741 33.3452 105.196 20.0749 105.267 6.85793C105.287 3.09027 108.357 0.0200184 112.124 9.74342e-05C115.892 -0.0198235 118.929 3.01749 118.909 6.78491ZM55.7517 177.515C57.1621 190.668 71.1524 203.222 79.6824 209.279C90.4678 201.506 104.089 188.236 104.16 175.019C104.162 174.663 104.191 174.314 104.245 173.972C102.917 161.553 90.3909 149.479 80.281 142.238C69.4753 150.032 55.9068 163.285 55.8362 176.474C55.8343 176.828 55.8055 177.176 55.7517 177.515ZM91.3577 116.504C109.891 98.1056 111.546 79.6266 80.7338 57.5603C49.1353 80.3511 51.5837 98.8596 69.4783 116.621C73.4961 120.609 77.5757 123.772 80.3687 125.773C83.1821 123.743 87.297 120.535 91.3577 116.504ZM90.2514 284.664C108.784 266.266 110.439 247.787 79.6275 225.721C48.0289 248.512 50.4774 267.02 68.3719 284.781C72.3898 288.77 76.4693 291.933 79.2624 293.933C82.0757 291.904 86.1906 288.696 90.2514 284.664Z"/>
</mask>
<path fill-rule="evenodd" clip-rule="evenodd" d="M118.909 6.78491C118.808 25.5194 102.75 41.185 92.5296 49.2639C127.512 76.7778 126.611 106.642 92.0771 133.942C102.211 141.912 118.104 157.406 118.003 176.141C117.999 176.939 117.858 177.706 117.603 178.418C115.719 195.607 101.005 209.85 91.4233 217.425C126.406 244.939 125.505 274.803 90.9707 302.103C101.105 310.073 116.997 325.567 116.897 344.302C116.877 348.07 113.807 351.14 110.039 351.16C106.272 351.18 103.234 348.143 103.254 344.375C103.325 331.183 89.8923 318.075 79.1747 310.399C68.3689 318.193 54.8005 331.446 54.7299 344.635C54.7095 348.402 51.6395 351.472 47.8721 351.493C44.1044 351.513 41.0669 348.475 41.0873 344.708C41.1875 325.974 57.2471 310.308 67.4668 302.229C32.4841 274.716 33.3856 244.851 67.9201 217.55C57.7863 209.581 41.8935 194.086 41.9938 175.351C41.998 174.554 42.1387 173.789 42.3935 173.077C44.2756 155.887 58.9912 141.643 68.5731 134.068C33.5905 106.555 34.492 76.6906 69.0264 49.3895C58.8926 41.4198 42.9998 25.9254 43.1001 7.19045C43.1202 3.42278 46.1903 0.352779 49.9579 0.332612C53.7253 0.312691 56.7626 3.35001 56.7427 7.11743C56.6678 21.066 71.7762 34.7185 80.7887 41.1179C91.5741 33.3452 105.196 20.0749 105.267 6.85793C105.287 3.09027 108.357 0.0200184 112.124 9.74342e-05C115.892 -0.0198235 118.929 3.01749 118.909 6.78491ZM55.7517 177.515C57.1621 190.668 71.1524 203.222 79.6824 209.279C90.4678 201.506 104.089 188.236 104.16 175.019C104.162 174.663 104.191 174.314 104.245 173.972C102.917 161.553 90.3909 149.479 80.281 142.238C69.4753 150.032 55.9068 163.285 55.8362 176.474C55.8343 176.828 55.8055 177.176 55.7517 177.515ZM91.3577 116.504C109.891 98.1056 111.546 79.6266 80.7338 57.5603C49.1353 80.3511 51.5837 98.8596 69.4783 116.621C73.4961 120.609 77.5757 123.772 80.3687 125.773C83.1821 123.743 87.297 120.535 91.3577 116.504ZM90.2514 284.664C108.784 266.266 110.439 247.787 79.6275 225.721C48.0289 248.512 50.4774 267.02 68.3719 284.781C72.3898 288.77 76.4693 291.933 79.2624 293.933C82.0757 291.904 86.1906 288.696 90.2514 284.664Z" fill="white"/>
<path d="M92.5296 49.2639L91.9094 48.4795L90.9145 49.2659L91.9114 50.05L92.5296 49.2639ZM118.909 6.78491L119.909 6.79029V6.7902L118.909 6.78491ZM92.0771 133.942L91.4569 133.158L90.462 133.944L91.4589 134.728L92.0771 133.942ZM118.003 176.141L119.003 176.147V176.147L118.003 176.141ZM117.603 178.418L116.661 178.081L116.621 178.192L116.609 178.31L117.603 178.418ZM91.4233 217.425L90.8031 216.64L89.8082 217.427L90.8051 218.211L91.4233 217.425ZM90.9707 302.103L90.3506 301.319L89.3557 302.105L90.3526 302.889L90.9707 302.103ZM116.897 344.302L117.897 344.308V344.308L116.897 344.302ZM110.039 351.16L110.034 350.16H110.034L110.039 351.16ZM103.254 344.375L104.254 344.381L103.254 344.375ZM79.1747 310.399L79.757 309.586L79.1727 309.168L78.5898 309.588L79.1747 310.399ZM54.7299 344.635L55.7299 344.64V344.64L54.7299 344.635ZM47.8721 351.493L47.8774 352.493H47.8775L47.8721 351.493ZM41.0873 344.708L42.0872 344.713L42.0872 344.713L41.0873 344.708ZM67.4668 302.229L68.087 303.013L69.0819 302.227L68.085 301.443L67.4668 302.229ZM67.9201 217.55L68.5402 218.335L69.5351 217.548L68.5383 216.764L67.9201 217.55ZM41.9938 175.351L42.9937 175.357L41.9938 175.351ZM42.3935 173.077L43.3351 173.414L43.3748 173.303L43.3876 173.186L42.3935 173.077ZM68.5731 134.068L69.1933 134.853L70.1882 134.066L69.1913 133.282L68.5731 134.068ZM69.0264 49.3895L69.6466 50.174L70.6415 49.3875L69.6446 48.6035L69.0264 49.3895ZM43.1001 7.19045L44.1001 7.1958L43.1001 7.19045ZM49.9579 0.332612L49.9526 -0.667374L49.9526 -0.667373L49.9579 0.332612ZM56.7427 7.11743L57.7427 7.1228L57.7427 7.12271L56.7427 7.11743ZM80.7887 41.1179L80.2098 41.9332L80.7931 42.3474L81.3734 41.9291L80.7887 41.1179ZM105.267 6.85793L106.266 6.86328V6.86328L105.267 6.85793ZM112.124 9.74342e-05L112.119 -0.999889L112.124 9.74342e-05ZM79.6824 209.279L79.1035 210.094L79.6867 210.508L80.2671 210.09L79.6824 209.279ZM55.7517 177.515L54.764 177.359L54.7433 177.49L54.7574 177.622L55.7517 177.515ZM104.16 175.019L105.16 175.024L104.16 175.019ZM104.245 173.972L105.233 174.129L105.254 173.998L105.24 173.866L104.245 173.972ZM80.281 142.238L80.8633 141.425L80.279 141.007L79.6961 141.427L80.281 142.238ZM55.8362 176.474L56.8362 176.48V176.479L55.8362 176.474ZM80.7338 57.5603L81.3161 56.7472L80.7317 56.3288L80.1488 56.7492L80.7338 57.5603ZM91.3577 116.504L90.6532 115.794L90.6532 115.794L91.3577 116.504ZM69.4783 116.621L70.1827 115.911L70.1827 115.911L69.4783 116.621ZM80.3687 125.773L79.7865 126.586L80.3708 127.004L80.9537 126.584L80.3687 125.773ZM79.6275 225.721L80.2097 224.908L79.6254 224.49L79.0425 224.91L79.6275 225.721ZM90.2514 284.664L89.5469 283.955L89.5469 283.955L90.2514 284.664ZM68.3719 284.781L69.0764 284.072L69.0764 284.072L68.3719 284.781ZM79.2624 293.933L78.6802 294.746L79.2645 295.165L79.8474 294.744L79.2624 293.933ZM93.1497 50.0484C98.2992 45.9778 104.944 39.9777 110.322 32.6098C115.696 25.2462 119.857 16.4439 119.909 6.79029L117.909 6.77953C117.86 15.8604 113.941 24.2581 108.706 31.4307C103.474 38.599 96.9799 44.4712 91.9094 48.4795L93.1497 50.0484ZM92.6972 134.727C110.074 120.99 119.198 106.446 119.372 91.6949C119.546 76.9352 110.758 62.3281 93.1478 48.4779L91.9114 50.05C109.284 63.7137 117.536 77.7954 117.372 91.6713C117.208 105.556 108.614 119.594 91.4569 133.158L92.6972 134.727ZM119.003 176.147C119.055 166.491 114.987 157.729 109.688 150.418C104.386 143.104 97.8027 137.173 92.6953 133.156L91.4589 134.728C96.4855 138.682 102.915 144.482 108.068 151.592C113.224 158.705 117.052 167.057 117.003 176.136L119.003 176.147ZM118.544 178.756C118.837 177.938 118.998 177.06 119.003 176.147L117.003 176.136C117 176.819 116.879 177.473 116.661 178.081L118.544 178.756ZM92.0434 218.209C96.8723 214.392 103.014 208.88 108.193 202.136C113.368 195.397 117.628 187.369 118.597 178.527L116.609 178.31C115.694 186.657 111.655 194.345 106.607 200.918C101.562 207.486 95.5559 212.883 90.8031 216.64L92.0434 218.209ZM91.5909 302.888C108.968 289.151 118.091 274.606 118.266 259.856C118.44 245.096 109.651 230.489 92.0415 216.639L90.8051 218.211C108.178 231.875 116.43 245.956 116.266 259.832C116.102 273.717 107.508 287.755 90.3506 301.319L91.5909 302.888ZM117.897 344.308C117.949 334.652 113.88 325.889 108.581 318.579C103.28 311.265 96.6963 305.334 91.5889 301.317L90.3526 302.889C95.3792 306.842 101.809 312.643 106.962 319.753C112.118 326.865 115.946 335.217 115.897 344.297L117.897 344.308ZM110.045 352.16C114.36 352.137 117.874 348.623 117.897 344.308L115.897 344.297C115.88 347.516 113.253 350.143 110.034 350.16L110.045 352.16ZM102.254 344.37C102.231 348.694 105.72 352.183 110.045 352.16L110.034 350.16C106.823 350.177 104.237 347.592 104.254 344.381L102.254 344.37ZM78.5925 311.212C83.902 315.015 89.8634 320.149 94.478 325.942C99.1061 331.751 102.288 338.105 102.254 344.37L104.254 344.381C104.291 337.453 100.792 330.657 96.0423 324.695C91.2788 318.716 85.165 313.459 79.757 309.586L78.5925 311.212ZM55.7299 344.64C55.7634 338.374 59.0143 331.982 63.7073 326.119C68.3859 320.274 74.405 315.072 79.7597 311.21L78.5898 309.588C73.1387 313.52 66.9707 318.841 62.1459 324.869C57.3356 330.878 53.767 337.706 53.7299 344.63L55.7299 344.64ZM47.8775 352.493C52.193 352.469 55.7065 348.956 55.7299 344.64L53.7299 344.63C53.7125 347.849 51.086 350.475 47.8667 350.493L47.8775 352.493ZM40.0873 344.703C40.0639 349.027 43.5533 352.516 47.8774 352.493L47.8667 350.493C44.6555 350.51 42.0699 347.924 42.0872 344.713L40.0873 344.703ZM66.8467 301.444C61.6974 305.515 55.0523 311.515 49.6745 318.883C44.3 326.247 40.1389 335.049 40.0873 344.703L42.0872 344.713C42.1359 335.633 46.0548 327.235 51.29 320.062C56.522 312.894 63.0166 307.022 68.087 303.013L66.8467 301.444ZM67.2999 216.766C49.923 230.503 40.7991 245.047 40.6246 259.798C40.45 274.558 49.2388 289.165 66.8486 303.015L68.085 301.443C50.7122 287.779 42.4603 273.698 42.6245 259.822C42.7887 245.937 51.3828 231.899 68.5402 218.335L67.2999 216.766ZM40.9938 175.346C40.9421 185.002 45.0104 193.764 50.3095 201.075C55.6109 208.389 62.1946 214.32 67.3019 218.336L68.5383 216.764C63.5117 212.811 57.0821 207.01 51.9288 199.901C46.7731 192.788 42.9451 184.436 42.9937 175.357L40.9938 175.346ZM41.452 172.74C41.1597 173.557 40.9986 174.434 40.9938 175.346L42.9937 175.357C42.9974 174.675 43.1177 174.021 43.3351 173.414L41.452 172.74ZM67.953 133.284C63.124 137.101 56.982 142.614 51.8028 149.358C46.6273 156.097 42.3675 164.126 41.3995 172.968L43.3876 173.186C44.3016 164.838 48.3407 157.15 53.389 150.576C58.4336 144.007 64.4404 138.61 69.1933 134.853L67.953 133.284ZM68.4062 48.605C51.0293 62.3423 41.9054 76.8867 41.7309 91.6374C41.5564 106.397 50.3451 121.004 67.955 134.854L69.1913 133.282C51.8185 119.619 43.5667 105.537 43.7308 91.661C43.895 77.7761 52.4891 63.7378 69.6466 50.174L68.4062 48.605ZM42.1001 7.18509C42.0484 16.8407 46.1167 25.6033 51.4158 32.9138C56.7173 40.2277 63.3009 46.1589 68.4082 50.1755L69.6446 48.6035C64.6181 44.6504 58.1884 38.8495 53.0351 31.74C47.8794 24.6272 44.0515 16.2752 44.1001 7.1958L42.1001 7.18509ZM49.9526 -0.667373C45.6368 -0.644272 42.1232 2.86933 42.1001 7.18509L44.1001 7.1958C44.1173 3.97624 46.7437 1.34983 49.9633 1.3326L49.9526 -0.667373ZM57.7427 7.12271C57.7656 2.79889 54.2765 -0.690237 49.9526 -0.667374L49.9632 1.3326C53.1742 1.31562 55.7597 3.90113 55.7427 7.11214L57.7427 7.12271ZM81.3677 40.3025C76.9091 37.1367 70.9522 32.1819 66.1306 26.3138C61.2909 20.4236 57.7071 13.7497 57.7427 7.1228L55.7427 7.11206C55.7034 14.4337 59.6364 21.5604 64.5853 27.5834C69.5523 33.6285 75.6558 38.6997 80.2098 41.9332L81.3677 40.3025ZM104.267 6.85258C104.233 13.1318 100.969 19.5359 96.2653 25.4041C91.576 31.2542 85.5486 36.4549 80.2041 40.3066L81.3734 41.9291C86.8142 38.0082 92.9903 32.6875 97.8259 26.655C102.647 20.6406 106.229 13.801 106.266 6.86328L104.267 6.85258ZM112.119 -0.999889C107.803 -0.977069 104.29 2.53685 104.267 6.85258L106.266 6.86328C106.284 3.64369 108.91 1.01711 112.13 1.00008L112.119 -0.999889ZM119.909 6.7902C119.932 2.46637 116.443 -1.02275 112.119 -0.999889L112.13 1.00008C115.341 0.983105 117.926 3.56862 117.909 6.77962L119.909 6.7902ZM80.2614 208.463C76.0427 205.468 70.4797 200.869 65.807 195.408C61.1193 189.93 57.4196 183.691 56.746 177.409L54.7574 177.622C55.4942 184.493 59.4949 191.107 64.2874 196.708C69.095 202.327 74.7921 207.033 79.1035 210.094L80.2614 208.463ZM103.16 175.013C103.127 181.293 99.8629 187.697 95.159 193.565C90.4697 199.415 84.4423 204.616 79.0978 208.467L80.2671 210.09C85.7079 206.169 91.884 200.848 96.7195 194.816C101.541 188.801 105.123 181.962 105.16 175.024L103.16 175.013ZM103.258 173.815C103.196 174.206 103.162 174.607 103.16 175.013L105.16 175.024C105.162 174.719 105.187 174.421 105.233 174.129L103.258 173.815ZM79.6988 143.051C84.7061 146.637 90.2957 151.41 94.7879 156.803C99.2916 162.21 102.617 168.15 103.251 174.079L105.24 173.866C104.545 167.375 100.943 161.068 96.3246 155.523C91.6942 149.964 85.9659 145.08 80.8633 141.425L79.6988 143.051ZM56.8362 176.479C56.8698 170.214 60.1207 163.821 64.8136 157.958C69.4922 152.113 75.5113 146.911 80.866 143.049L79.6961 141.427C74.245 145.359 68.077 150.681 63.2523 156.708C58.4419 162.717 54.8733 169.546 54.8363 176.469L56.8362 176.479ZM56.7394 177.672C56.8011 177.282 56.834 176.884 56.8362 176.48L54.8363 176.469C54.8346 176.772 54.8099 177.069 54.764 177.359L56.7394 177.672ZM80.1516 58.3733C95.4846 69.3543 102.485 79.2717 103.557 88.5226C104.625 97.7437 99.8406 106.673 90.6532 115.794L92.0623 117.213C101.408 107.936 106.717 98.427 105.543 88.2925C104.373 78.1879 96.7947 67.8326 81.3161 56.7472L80.1516 58.3733ZM70.1827 115.911C61.3134 107.108 56.4907 98.3291 57.5398 89.0894C58.5923 79.8195 65.5923 69.7142 81.3188 58.3713L80.1488 56.7492C64.2768 68.1971 56.7018 78.7415 55.5525 88.8638C54.3998 99.0163 59.7486 108.372 68.7738 117.33L70.1827 115.911ZM80.9509 124.959C78.1858 122.979 74.1512 119.85 70.1827 115.911L68.7738 117.33C72.841 121.368 76.9655 124.565 79.7865 126.586L80.9509 124.959ZM90.6532 115.794C86.6408 119.777 82.5698 122.952 79.7837 124.962L80.9537 126.584C83.7944 124.534 87.9531 121.293 92.0623 117.213L90.6532 115.794ZM79.0452 226.534C94.3783 237.515 101.379 247.433 102.45 256.683C103.519 265.905 98.7343 274.834 89.5469 283.955L90.9559 285.374C100.301 276.097 105.611 266.588 104.437 256.453C103.266 246.349 95.6884 235.993 80.2097 224.908L79.0452 226.534ZM69.0764 284.072C60.2071 275.269 55.3844 266.49 56.4334 257.25C57.4859 247.98 64.486 237.875 80.2125 226.532L79.0425 224.91C63.1705 236.358 55.5955 246.902 54.4462 257.025C53.2935 267.177 58.6422 276.533 67.6675 285.491L69.0764 284.072ZM79.8446 293.12C77.0795 291.14 73.0448 288.011 69.0764 284.072L67.6674 285.491C71.7347 289.528 75.8591 292.726 78.6802 294.746L79.8446 293.12ZM89.5469 283.955C85.5345 287.938 81.4634 291.113 78.6773 293.122L79.8474 294.744C82.6881 292.695 86.8468 289.454 90.9559 285.374L89.5469 283.955Z" fill="#5C94B9" mask="url(#path-12-inside-1)"/>
<path d="M146.931 31L240.767 350.778" stroke="#5C94B9" stroke-width="7" stroke-miterlimit="10" stroke-linecap="round"/>
<path d="M100 31L193.862 350.778" stroke="#5C94B9" stroke-width="7" stroke-miterlimit="10" stroke-linecap="round"/>
<path d="M232.671 317.983H185.56" stroke="#5C94B9" stroke-width="4" stroke-miterlimit="10" stroke-linecap="round"/>
<path d="M217.404 273.931H170.294" stroke="#5C94B9" stroke-width="4" stroke-miterlimit="10" stroke-linecap="round"/>
<path d="M205.633 232.731H158.522" stroke="#5C94B9" stroke-width="4" stroke-miterlimit="10" stroke-linecap="round"/>
<path d="M193.862 185.852H146.751" stroke="#5C94B9" stroke-width="4" stroke-miterlimit="10" stroke-linecap="round"/>
<path d="M178.595 141.799H131.484" stroke="#5C94B9" stroke-width="4" stroke-miterlimit="10" stroke-linecap="round"/>
<path d="M167.364 97.7468H120.253" stroke="#5C94B9" stroke-width="4" stroke-miterlimit="10" stroke-linecap="round"/>
<path d="M154.898 53.6944H107.788" stroke="#5C94B9" stroke-width="4" stroke-miterlimit="10" stroke-linecap="round"/>
</svg>
