<svg viewBox="0 0 346 218" fill="none" xmlns="http://www.w3.org/2000/svg">
<path d="M105.145 71.115L105.145 71.115C107.344 68.9624 110.914 68.9623 113.114 71.1148L147.855 105.116C150.048 107.263 150.048 110.739 147.855 112.886C145.655 115.038 142.086 115.038 139.886 112.886L105.145 78.8842C102.952 76.7373 102.952 73.2619 105.145 71.115Z" fill="#5C94B9" fill-opacity="0.3" stroke="#5C94B9"/>
<path d="M130.12 87.7578L122.166 95.542L105.145 78.8834C102.952 76.7372 102.952 73.2612 105.145 71.1143C107.345 68.9619 110.915 68.9619 113.114 71.1143L130.12 87.7578Z" fill="#5C94B9" fill-opacity="0.3" stroke="#5C94B9"/>
<path d="M50.1452 126.115L50.1452 126.115C52.3438 123.962 55.9141 123.962 58.1137 126.115L92.8548 160.116C95.0484 162.263 95.0484 165.739 92.8548 167.886C90.6553 170.038 87.0855 170.038 84.886 167.886L50.1452 133.884C47.9516 131.737 47.9516 128.262 50.1452 126.115Z" fill="#5C94B9" fill-opacity="0.3" stroke="#5C94B9"/>
<path d="M75.1195 142.758L67.166 150.542L50.1452 133.883C47.9523 131.737 47.9522 128.261 50.1452 126.114C52.3448 123.962 55.9148 123.962 58.1141 126.114L75.1195 142.758Z" fill="#5C94B9" fill-opacity="0.3" stroke="#5C94B9"/>
<path d="M111.364 149.874L111.364 149.874C109.139 152.076 105.528 152.076 103.302 149.874C103.302 149.874 103.302 149.874 103.302 149.874L68.1674 115.114C65.9442 112.914 65.9442 109.351 68.1674 107.152C70.3935 104.949 74.0043 104.95 76.2305 107.152L111.364 141.911C113.588 144.111 113.588 147.674 111.364 149.874Z" fill="#62AC62" fill-opacity="0.3" stroke="#62AC62"/>
<path d="M86.0934 132.85L94.1488 124.88L111.364 141.912C113.587 144.111 113.587 147.675 111.364 149.874C109.138 152.077 105.527 152.077 103.301 149.874L86.0934 132.85Z" fill="#62AC62" fill-opacity="0.3" stroke="#62AC62"/>
<path d="M57.0394 203.67L57.0393 203.67C54.8141 205.872 51.2029 205.872 48.9766 203.67C48.9766 203.67 48.9766 203.67 48.9766 203.67L13.8425 168.91C11.6192 166.71 11.6192 163.147 13.8425 160.948C16.0686 158.745 19.6793 158.746 21.9056 160.948L57.0394 195.708C59.2626 197.907 59.2626 201.47 57.0394 203.67Z" fill="#62AC62" fill-opacity="0.3" stroke="#62AC62"/>
<path d="M31.7684 186.646L39.8239 178.676L57.0393 195.708C59.2619 197.907 59.2619 201.471 57.0393 203.671C54.8132 205.873 51.2021 205.873 48.9762 203.671L31.7684 186.646Z" fill="#62AC62" fill-opacity="0.3" stroke="#62AC62"/>
<path d="M115.399 117.704L114.77 117.63L114.845 118.26C117.223 138.157 113.498 152.583 104.397 161.472C95.2924 170.364 80.6792 173.84 60.9879 171.537L60.3581 171.463L60.4333 172.093C61.1219 177.853 61.5271 185.711 60.2688 193.599C59.0102 201.489 56.0943 209.367 50.1774 215.22C47.9512 217.423 44.3405 217.423 42.1143 215.22C39.8911 213.021 39.8911 209.458 42.1143 207.258C46.4705 202.948 48.5598 196.477 49.3301 189.669C50.1015 182.851 49.5583 175.623 48.5812 169.715L48.5226 169.36L48.1678 169.303C42.1946 168.335 34.8893 167.799 28.0001 168.562C21.1224 169.324 14.5848 171.391 10.2305 175.699C8.00432 177.901 4.39356 177.901 2.1674 175.699C-0.055814 173.499 -0.0557804 169.936 2.16738 167.737L1.81575 167.381L2.1674 167.737C8.08458 161.883 16.0491 158.997 24.0267 157.751C32.0017 156.506 39.9458 156.907 45.7687 157.588L46.3985 157.662L46.3233 157.032C43.9452 137.135 47.6697 122.708 56.7711 113.82C65.8758 104.928 80.4892 101.452 100.181 103.755L100.811 103.829L100.735 103.199C100.047 97.4392 99.6416 89.5815 100.9 81.6933C102.159 73.8032 105.074 65.9254 110.991 60.0715C113.218 57.869 116.828 57.869 119.054 60.0715C121.277 62.271 121.277 65.8342 119.054 68.0337C114.449 72.5895 112.423 79.5438 111.74 86.5219C111.055 93.5143 111.711 100.619 112.551 105.573L112.611 105.926L112.964 105.983C118.924 106.951 126.233 107.493 133.133 106.733C140.021 105.975 146.574 103.91 150.938 99.5927C153.164 97.3903 156.775 97.3903 159.001 99.5927C161.224 101.792 161.224 105.355 159.001 107.555C153.083 113.409 145.119 116.295 137.141 117.541C129.166 118.786 121.222 118.385 115.399 117.704ZM102.993 115.882L102.934 115.528L102.579 115.47C85.1535 112.648 73.7173 114.565 66.6486 120.193C59.568 125.829 57.014 135.07 57.0569 146.52C57.0759 151.672 57.6652 156.329 58.1748 159.41L58.2334 159.764L58.5882 159.822C61.7 160.326 66.408 160.909 71.6142 160.928C83.4721 160.971 92.7856 158.295 98.3973 151.212C104 144.142 105.795 132.825 102.993 115.882Z" fill="white" stroke="#5C94B9"/>
<path d="M295.023 126.195L295.023 126.195C292.824 124.043 289.254 124.043 287.054 126.195L252.313 160.197C250.119 162.344 250.119 165.819 252.313 167.966C254.513 170.119 258.082 170.118 260.282 167.966L295.023 133.965C297.216 131.818 297.216 128.342 295.023 126.195Z" fill="#5C94B9" fill-opacity="0.3" stroke="#5C94B9"/>
<path d="M270.048 142.838L278.002 150.622L295.023 133.964C297.216 131.818 297.216 128.341 295.023 126.195C292.823 124.042 289.253 124.042 287.054 126.195L270.048 142.838Z" fill="#5C94B9" fill-opacity="0.3" stroke="#5C94B9"/>
<path d="M233.804 149.954L233.804 149.954C236.029 152.156 239.64 152.156 241.866 149.954C241.866 149.954 241.866 149.954 241.866 149.954L277 115.194C279.224 112.995 279.224 109.432 277 107.232C274.774 105.03 271.164 105.03 268.937 107.232L233.804 141.992C231.58 144.191 231.58 147.754 233.804 149.954Z" fill="#62AC62" fill-opacity="0.3" stroke="#62AC62"/>
<path d="M259.074 132.93L251.019 124.96L233.804 141.993C231.581 144.191 231.581 147.755 233.804 149.955C236.03 152.157 239.641 152.157 241.867 149.955L259.074 132.93Z" fill="#62AC62" fill-opacity="0.3" stroke="#62AC62"/>
<path d="M288.129 203.75L288.129 203.75C290.354 205.953 293.965 205.953 296.191 203.75C296.191 203.75 296.191 203.75 296.191 203.75L331.326 168.99C333.549 166.791 333.549 163.228 331.326 161.028C329.099 158.826 325.489 158.826 323.262 161.028L288.129 195.788C285.905 197.987 285.905 201.551 288.129 203.75Z" fill="#62AC62" fill-opacity="0.3" stroke="#62AC62"/>
<path d="M313.4 186.726L305.344 178.757L288.129 195.789C285.906 197.988 285.906 201.551 288.129 203.751C290.355 205.953 293.966 205.953 296.192 203.751L313.4 186.726Z" fill="#62AC62" fill-opacity="0.3" stroke="#62AC62"/>
<path d="M229.768 117.784L230.398 117.71L230.323 118.34C227.945 138.238 231.67 152.664 240.771 161.552C249.875 170.444 264.489 173.921 284.18 171.617L284.81 171.543L284.735 172.173C284.046 177.933 283.641 185.791 284.899 193.679C286.158 201.569 289.074 209.447 294.99 215.301C297.217 217.503 300.827 217.503 303.054 215.301C305.277 213.101 305.277 209.538 303.054 207.339C298.697 203.029 296.608 196.557 295.838 189.75C295.066 182.931 295.609 175.703 296.587 169.795L296.645 169.441L297 169.383C302.973 168.416 310.279 167.879 317.168 168.642C324.045 169.405 330.583 171.471 334.937 175.779C337.164 177.981 340.774 177.981 343 175.779C345.224 173.58 345.224 170.016 343 167.817L343.352 167.462L343 167.817C337.083 161.963 329.119 159.077 321.141 157.831C313.166 156.586 305.222 156.987 299.399 157.668L298.769 157.742L298.845 157.112C301.223 137.215 297.498 122.789 288.397 113.9C279.292 105.008 264.679 101.532 244.987 103.835L244.357 103.909L244.432 103.279C245.121 97.5195 245.526 89.6618 244.268 81.7737C243.009 73.8835 240.093 66.0057 234.176 60.1518C231.95 57.9494 228.34 57.9494 226.113 60.1518C223.891 62.3514 223.891 65.9145 226.113 68.114C230.718 72.6698 232.745 79.6241 233.428 86.6023C234.113 93.5946 233.457 100.699 232.617 105.654L232.557 106.006L232.204 106.063C226.244 107.031 218.934 107.574 212.035 106.814C205.147 106.055 198.594 103.99 194.23 99.6731C192.004 97.4706 188.393 97.4706 186.167 99.673C183.944 101.873 183.944 105.436 186.167 107.635C192.085 113.489 200.049 116.375 208.027 117.621C216.002 118.866 223.946 118.465 229.768 117.784ZM242.175 115.962L242.234 115.608L242.589 115.55C260.014 112.729 271.451 114.646 278.519 120.273C285.6 125.91 288.154 135.151 288.111 146.6C288.092 151.752 287.503 156.41 286.993 159.49L286.934 159.845L286.58 159.902C283.468 160.406 278.76 160.989 273.554 161.008C261.696 161.051 252.382 158.375 246.771 151.293C241.168 144.222 239.373 132.905 242.175 115.962Z" fill="white" stroke="#5C94B9"/>
<path d="M160.389 60.5306L160.389 60.5306L149.46 45.6272C147.596 43.0848 144.015 42.5534 141.493 44.4448C139.008 46.3077 138.487 49.8235 140.323 52.3277L151.329 67.3374C151.329 67.3374 151.329 67.3374 151.329 67.3374C153.179 69.8589 156.703 70.3825 159.205 68.5063L159.205 68.5063C161.711 66.6275 162.241 63.0556 160.389 60.5306Z" fill="#5C94B9" fill-opacity="0.6" stroke="#5C94B9"/>
<path d="M163.958 27.6496L163.958 27.6496L180.771 19.9773C183.639 18.6685 184.887 15.27 183.548 12.416C182.228 9.60493 178.892 8.37973 176.067 9.66891L159.134 17.396C159.134 17.396 159.134 17.396 159.134 17.396C156.289 18.6946 155.061 22.0394 156.389 24.8701L156.389 24.8701C157.72 27.705 161.109 28.9498 163.958 27.6496Z" fill="#62AC62" fill-opacity="0.3" stroke="#62AC62"/>
<path d="M207.026 71.9286L207.026 71.9286L188.546 72.1309C185.394 72.1655 182.876 74.7668 182.944 77.9188C183.011 81.0234 185.565 83.4953 188.67 83.4613L207.282 83.2575C207.282 83.2575 207.282 83.2575 207.282 83.2575C210.409 83.2228 212.887 80.6626 212.82 77.5363L212.82 77.5363C212.752 74.4055 210.157 71.8941 207.026 71.9286Z" fill="#62AC62" fill-opacity="0.6" stroke="#62AC62"/>
<path d="M207.467 22.3401L207.467 22.3401L200.44 39.4324C199.241 42.3483 200.653 45.6819 203.581 46.8495C206.466 47.9996 209.739 46.6133 210.919 43.7413L217.997 26.5269C217.997 26.5269 217.997 26.5269 217.997 26.5268C219.186 23.6345 217.797 20.3532 214.892 19.1953L214.892 19.1953C211.983 18.0355 208.658 19.4439 207.467 22.3401Z" fill="#5C94B9" fill-opacity="0.3" stroke="#5C94B9"/>
</svg>
