<svg width="38" height="39" viewBox="11 11 15 15" fill="none" xmlns="http://www.w3.org/2000/svg">
<mask id="mask0" mask-type="alpha" maskUnits="userSpaceOnUse" x="11" y="10" width="15" height="16">
<path d="M18.3018 11.8182L16.4764 13.6364H20.1127L18.3018 11.8182ZM12.4545 15.0909V24.5455H24.0909V15.0909H12.4545ZM18.2727 10L21.9091 13.6364H24.0909C24.4767 13.6364 24.8466 13.7896 25.1194 14.0624C25.3922 14.3352 25.5455 14.7051 25.5455 15.0909V24.5455C25.5455 24.9312 25.3922 25.3012 25.1194 25.574C24.8466 25.8468 24.4767 26 24.0909 26H12.4545C12.0688 26 11.6988 25.8468 11.426 25.574C11.1532 25.3012 11 24.9312 11 24.5455V15.0909C11 14.7051 11.1532 14.3352 11.426 14.0624C11.6988 13.7896 12.0688 13.6364 12.4545 13.6364H14.6364L18.2727 10ZM14.6364 23.0909V20.1818H18.2727V23.0909H14.6364ZM19.7273 22.3636V17.2727H22.6364V22.3636H19.7273ZM13.9091 18.7273V16.5455H17.5455V18.7273H13.9091Z" fill="#515359"/>
</mask>
<g mask="url(#mask0)">
<rect y="0.974365" width="38" height="38" fill="#515359"/>
</g>
</svg>
