<svg width="98" height="98" viewBox="0 0 98 98" fill="none" xmlns="http://www.w3.org/2000/svg">
<path d="M49 94C73.8528 94 94 73.8528 94 49C94 24.1472 73.8528 4 49 4C24.1472 4 4 24.1472 4 49C4 73.8528 24.1472 94 49 94Z" fill="#1A1C29" fill-opacity="0.25"/>
<path d="M49 96C74.9574 96 96 74.9574 96 49C96 23.0426 74.9574 2 49 2C23.0426 2 2 23.0426 2 49C2 74.9574 23.0426 96 49 96Z" stroke="#1A1C29" stroke-opacity="0.25" stroke-width="4"/>
<path opacity="0.5" d="M49 94C73.8528 94 94 73.8528 94 49C94 24.1472 73.8528 4 49 4C24.1472 4 4 24.1472 4 49C4 73.8528 24.1472 94 49 94Z" fill="#8D919E"/>
<path d="M48.9996 85.9843C69.4256 85.9843 85.9841 69.4258 85.9841 48.9998C85.9841 28.5738 69.4256 12.0153 48.9996 12.0153C28.5737 12.0153 12.0151 28.5738 12.0151 48.9998C12.0151 69.4258 28.5737 85.9843 48.9996 85.9843Z" fill="#6279A1"/>
<path d="M55.3165 44.5567C60.2486 44.5567 64.2468 40.5585 64.2468 35.6264C64.2468 30.6943 60.2486 26.6961 55.3165 26.6961C50.3845 26.6961 46.3862 30.6943 46.3862 35.6264C46.3862 40.5585 50.3845 44.5567 55.3165 44.5567Z" fill="#F683B9"/>
<path d="M38.5888 66.8607C41.8608 66.8607 44.5133 64.2082 44.5133 60.9362C44.5133 57.6642 41.8608 55.0117 38.5888 55.0117C35.3168 55.0117 32.6643 57.6642 32.6643 60.9362C32.6643 64.2082 35.3168 66.8607 38.5888 66.8607Z" fill="#FCCB6F"/>
<path d="M29.8764 45.2972C32.3063 45.2972 34.2762 43.3273 34.2762 40.8974C34.2762 38.4674 32.3063 36.4976 29.8764 36.4976C27.4464 36.4976 25.4766 38.4674 25.4766 40.8974C25.4766 43.3273 27.4464 45.2972 29.8764 45.2972Z" fill="#F89C55"/>
<path d="M65.8152 65.8582C69.7127 65.8582 72.8723 62.6986 72.8723 58.8011C72.8723 54.9035 69.7127 51.744 65.8152 51.744C61.9176 51.744 58.7581 54.9035 58.7581 58.8011C58.7581 62.6986 61.9176 65.8582 65.8152 65.8582Z" fill="#5A478F"/>
<path d="M71.0861 38.2837C72.0244 38.2837 72.7851 37.523 72.7851 36.5847C72.7851 35.6464 72.0244 34.8858 71.0861 34.8858C70.1478 34.8858 69.3872 35.6464 69.3872 36.5847C69.3872 37.523 70.1478 38.2837 71.0861 38.2837Z" fill="#B1C6FA"/>
<path d="M53.2255 73.3514C54.1638 73.3514 54.9245 72.5908 54.9245 71.6525C54.9245 70.7142 54.1638 69.9535 53.2255 69.9535C52.2873 69.9535 51.5266 70.7142 51.5266 71.6525C51.5266 72.5908 52.2873 73.3514 53.2255 73.3514Z" fill="#F47E6C"/>
<path d="M39.852 47.7801C40.7903 47.7801 41.5509 47.0194 41.5509 46.0811C41.5509 45.1428 40.7903 44.3822 39.852 44.3822C38.9137 44.3822 38.1531 45.1428 38.1531 46.0811C38.1531 47.0194 38.9137 47.7801 39.852 47.7801Z" fill="#C5EDF0"/>
<path d="M49 87.727C27.6544 87.727 10.2729 70.3456 10.2729 49C10.2729 27.6544 27.6544 10.2729 49 10.2729C70.3456 10.2729 87.727 27.6544 87.727 49C87.727 70.3456 70.3456 87.727 49 87.727ZM49 13.7579C29.5275 13.7579 13.7144 29.5711 13.7144 49.0435C13.7144 68.5159 29.5275 84.3291 49 84.3291C68.4724 84.3291 84.2855 68.5159 84.2855 49.0435C84.2855 29.5711 68.4724 13.7579 49 13.7579Z" fill="#D3D5DB"/>
</svg>
