<svg height="60" viewBox="0 0 45 60" fill="none" xmlns="http://www.w3.org/2000/svg">
<path d="M3.35043 11.6993L20.52 59.0555L18.4435 60L1.27637 12.4541L3.35043 11.6993Z" fill="#5C94B9"/>
<path fill-rule="evenodd" clip-rule="evenodd" d="M1.08672 8.49302C1.84137 8.30318 2.78586 8.68285 3.16318 9.4375C3.35302 10.0047 3.35302 10.382 3.16318 10.7593L0.899228 11.514C0.521895 11.3241 0.144575 11.1366 0.144575 10.5695C-0.232757 9.81483 0.144575 8.87034 1.08906 8.49302H1.08672Z" fill="#5C94B9"/>
<path d="M12.1303 29.7038C11.0679 26.7724 10.037 23.9675 9.00658 21.1648L8.95782 21.0322C7.88548 18.1154 6.81326 15.1989 5.705 12.1391C9.71524 9.84426 12.5466 9.34663 14.7484 9.32592C15.7287 9.3167 16.5901 9.40062 17.4387 9.4833C17.6261 9.50156 17.8128 9.51975 18.0001 9.53687C19.0073 9.62894 20.046 9.69153 21.1012 9.46945L21.1195 9.4656L21.1377 9.46105C25.3435 8.41003 31.7685 5.06297 36.7392 1.92758C36.5552 3.36893 36.1803 5.06493 35.5899 6.71541C34.6969 9.21176 33.3762 11.4208 31.6607 12.5642L30.5117 13.3299L31.5977 14.1828C32.4209 14.8293 33.4061 15.1778 34.3896 15.4337C34.8853 15.5626 35.4059 15.6739 35.9251 15.7836C35.9611 15.7912 35.9971 15.7988 36.0331 15.8065C36.5233 15.9099 37.0162 16.014 37.5219 16.1365C39.1413 16.5286 40.848 17.0993 42.5246 18.3317C42.0045 18.4802 41.4868 18.6777 40.974 18.9065C39.6662 19.4902 38.2967 20.322 36.8952 21.2053C36.6139 21.3826 36.3307 21.5623 36.0453 21.7434C33.442 23.3952 30.6605 25.1601 27.553 26.2236L27.5353 26.2297L27.5179 26.2364C26.4181 26.6594 25.2511 26.8488 23.9851 26.9543C23.3516 27.007 22.706 27.0379 22.0332 27.0693L21.9646 27.0725C21.3185 27.1026 20.648 27.1338 19.9699 27.1864C17.4781 27.3796 14.8109 27.8656 12.1303 29.7038Z" fill="#5C94B9" fill-opacity="0.1" stroke="#5C94B9" stroke-width="2"/>
</svg>
