<svg width="39" height="27" viewBox="0 0 39 27" fill="none" xmlns="http://www.w3.org/2000/svg">
<path d="M19.6871 26.9083H17.4875C16.8791 26.9083 16.3019 26.6739 15.8651 26.2364C15.4283 25.7988 15.1943 25.2207 15.1943 24.6112C15.1943 23.3455 16.2239 22.3298 17.4719 22.3298H34.9439C35.6615 22.3298 36.3323 22.0486 36.8315 21.5485C37.3307 21.0485 37.6115 20.3766 37.6115 19.6577C37.6115 18.1889 36.4103 16.9857 34.9439 16.9857H30.6851C30.2951 16.9857 29.9831 16.6731 29.9831 16.2825C29.9831 15.8918 30.2951 15.5793 30.6851 15.5793H34.9439C37.1903 15.5793 38.9999 17.4076 38.9999 19.6421C38.9999 20.736 38.5787 21.7517 37.8143 22.5173C37.0499 23.283 36.0203 23.7049 34.9439 23.7049H17.4875C17.0039 23.7049 16.5983 24.1112 16.5983 24.5956C16.5983 24.83 16.6919 25.0644 16.8635 25.2207C17.0351 25.3926 17.2535 25.4863 17.4875 25.4863H19.6871C20.0771 25.4863 20.3891 25.7988 20.3891 26.1895C20.3735 26.5958 20.0615 26.9083 19.6871 26.9083Z" fill="#ABABAC"/>
<path d="M6.64566 5.39097C6.05286 5.78163 5.53806 6.32854 5.16366 7.03172L4.88286 7.57864L4.64886 8.01617C4.43046 7.95367 4.21206 7.87554 4.00926 7.7974C0.499263 6.4223 0.296462 3.67209 1.20126 1.8282C1.71606 0.765622 2.62086 -6.10352e-05 3.46326 -6.10352e-05C5.85006 -6.10352e-05 6.64566 5.39097 6.64566 5.39097Z" fill="#ABABAC"/>
<path opacity="0.5" d="M4.88286 7.57869L4.64886 8.01622C4.43046 7.95371 4.21206 7.87558 4.00926 7.79745C0.499263 6.42235 0.296463 3.67214 1.20126 1.82825C1.34166 1.797 1.48206 1.76575 1.60686 1.76575C3.99366 1.76575 4.78926 7.15678 4.78926 7.15678C4.82046 7.29741 4.85166 7.43805 4.88286 7.57869Z" fill="#ABABAC"/>
<path d="M34.9282 12.7353C34.9282 14.9698 33.1342 16.9856 30.685 16.9856H3.72822C3.72822 16.3137 3.55662 15.6886 3.24462 15.1573C2.88582 14.5323 2.35542 14.0166 1.71582 13.6728L4.64862 8.01617L5.16342 7.01609C5.52222 6.31292 6.03702 5.766 6.64542 5.37535C7.11342 5.06282 7.64382 4.85968 8.18982 4.7503C8.75142 4.64091 9.32862 4.64091 9.90582 4.7503C10.1866 3.34394 11.0758 -6.10352e-05 12.9634 -6.10352e-05C13.7902 -6.10352e-05 14.6794 0.73437 15.1942 1.7657C15.475 2.29699 15.6466 2.92203 15.6778 3.56271C17.425 2.8439 19.2658 2.50013 21.1066 2.4845C26.5822 2.45325 31.9486 5.4691 34.5226 10.9383C34.8034 11.5164 34.9282 12.1415 34.9282 12.7353Z" fill="#ABABAC"/>
<g opacity="0.5">
<path opacity="0.5" d="M25.1941 16.9857H23.8057V15.4543C23.8057 13.3917 25.4749 11.7353 27.5185 11.7353H31.2625C31.2625 12.501 30.6385 13.126 29.8741 13.126H27.5185C26.2393 13.126 25.1941 14.173 25.1941 15.4543V16.9857Z" fill="#ABABAC"/>
<path opacity="0.5" d="M13.6189 16.9858H12.2305V15.845C12.2305 14.2043 13.5565 12.8917 15.1789 12.8917H17.9713C17.9713 13.6574 17.3473 14.2824 16.5829 14.2824H15.1789C14.3209 14.2824 13.6189 14.9856 13.6189 15.845V16.9858Z" fill="#ABABAC"/>
</g>
<g opacity="0.5">
<path opacity="0.5" d="M15.3975 2.21882C15.3819 2.18757 15.3662 2.15631 15.3662 2.12506C15.3819 2.15631 15.3975 2.18757 15.3975 2.21882Z" fill="#ABABAC"/>
<path opacity="0.5" d="M21.1072 2.46887C19.282 2.4845 17.4412 2.82827 15.6784 3.54708C15.6784 3.48457 15.6628 3.42207 15.6628 3.35956C15.8032 4.90656 15.0856 6.60981 12.7144 7.64114C13.8532 7.64114 14.9296 8.12555 15.6628 8.98499L16.162 9.56316C16.1776 9.57879 16.084 3.95336 21.1072 2.46887Z" fill="#ABABAC"/>
<path opacity="0.5" d="M15.3043 1.98438C15.2886 1.95313 15.2886 1.9375 15.2729 1.90625C15.2886 1.9375 15.2886 1.95313 15.3043 1.98438Z" fill="#ABABAC"/>
<path opacity="0.5" d="M15.2107 1.79736C15.2107 1.78149 15.1948 1.78149 15.1948 1.76563C15.2107 1.78149 15.2107 1.78149 15.2107 1.79736Z" fill="#ABABAC"/>
<path opacity="0.5" d="M15.6626 3.34385C15.6626 3.29697 15.647 3.26572 15.647 3.21884C15.6626 3.25009 15.6626 3.29697 15.6626 3.34385Z" fill="#ABABAC"/>
<path opacity="0.5" d="M15.6007 2.90632C15.6007 2.87507 15.585 2.82819 15.5693 2.79694C15.585 2.82819 15.585 2.85944 15.6007 2.90632Z" fill="#ABABAC"/>
<path opacity="0.5" d="M15.4913 2.46888C15.4756 2.43763 15.4756 2.40637 15.46 2.37512C15.4756 2.40637 15.4756 2.43763 15.4913 2.46888Z" fill="#ABABAC"/>
<path opacity="0.5" d="M15.6314 3.12513C15.6314 3.09388 15.6157 3.047 15.6157 3.01575C15.6314 3.047 15.6314 3.07825 15.6314 3.12513Z" fill="#ABABAC"/>
<path opacity="0.5" d="M15.5538 2.6876C15.5381 2.65635 15.5381 2.6251 15.5225 2.57822C15.5381 2.60947 15.5381 2.65635 15.5538 2.6876Z" fill="#ABABAC"/>
</g>
<path d="M3.7284 16.9857H0L1.716 13.6729C2.9172 14.298 3.7284 15.5481 3.7284 16.9857Z" fill="#ABABAC"/>
<path d="M6.56765 11.4854C6.56765 12.0323 6.13085 12.4698 5.58485 12.4698C5.03885 12.4698 4.60205 12.0323 4.60205 11.4854C4.60205 10.9385 5.03885 10.5009 5.58485 10.5009C6.13085 10.5166 6.56765 10.9541 6.56765 11.4854Z" fill="#ABABAC"/>
<path d="M9.36013 11.4854C9.36013 12.0323 8.92333 12.4698 8.37733 12.4698C7.83133 12.4698 7.39453 12.0323 7.39453 11.4854C7.39453 10.9385 7.83133 10.5009 8.37733 10.5009C8.92333 10.5166 9.36013 10.9541 9.36013 11.4854Z" fill="#ABABAC"/>
</svg>
