<svg width="108" height="70" viewBox="0 0 108 70" fill="none" xmlns="http://www.w3.org/2000/svg">
<mask id="path-1-outside-1" maskUnits="userSpaceOnUse" x="0" y="0" width="108" height="70" fill="black">
<rect fill="white" width="108" height="70"/>
<path fill-rule="evenodd" clip-rule="evenodd" d="M69.8806 23.8879C69.9019 23.9303 69.9231 23.9727 69.9231 24.0151C70.1778 24.7782 70.3476 25.6262 70.4325 26.3894C70.4781 26.7994 70.527 27.1302 70.5697 27.4185L70.5697 27.419L70.5698 27.4193L70.5698 27.4194C70.6262 27.8004 70.6716 28.1072 70.6839 28.4249C70.7213 28.5336 70.7416 28.6503 70.7416 28.7717V38.3282C71.4367 38.1888 72.1547 38.1764 72.8718 38.2908V28.7717C72.8718 28.1835 73.3486 27.7067 73.9368 27.7067C74.5251 27.7067 75.0019 28.1835 75.0019 28.7717V39.0168C76.7305 39.9374 78.3048 41.6479 79.3537 44.143C82.1661 37.0395 89.5038 36.5163 92.4425 42.1316H102.868C103.458 42.1316 103.936 42.61 103.936 43.2001C103.936 43.7902 103.458 44.2685 102.868 44.2685H93.2571C93.3597 44.6606 93.4454 45.0718 93.5125 45.5021C93.5592 45.8016 93.587 46.1028 93.5971 46.4053H102.868C103.458 46.4053 103.936 46.8837 103.936 47.4738C103.936 48.0639 103.458 48.5423 102.868 48.5423H93.3939C91.6392 56.6927 79.3537 65.0107 79.3537 65.0107C79.3537 65.0107 67.6923 57.4093 65.3992 49.3695C63.986 50.5817 62.3011 51.5224 60.4139 52.0828C60.0489 52.2286 59.621 52.3118 59.2384 52.3861C59.1761 52.3982 59.115 52.4101 59.0555 52.422C58.2065 53.1852 57.1028 53.7787 55.9142 54.1179C52.3485 55.1355 48.7827 53.8635 46.5753 51.2348L46.6363 51.2081L44.8155 49.2122C44.366 49.3094 43.9246 49.3693 43.5193 49.3693C41.9911 49.5389 40.4629 49.1997 39.1045 48.5214C38.3404 49.0302 37.4914 49.4541 36.5575 49.7085C34.0105 50.3869 31.3786 50.1325 29.1712 49.0302C27.6489 48.0385 26.7458 46.5316 26.4619 44.9913L23.7386 43.0826L23.7376 43.0944C23.7214 43.0781 23.7083 43.065 23.6976 43.0538L23.5654 42.9611C13.6797 47.0484 6.92276 41.7167 5.3144 34.6147C4.1258 29.3573 6.41809 23.8455 10.3235 20.5384C11.2574 15.9594 14.6534 11.9739 19.4078 10.6171C20.9359 10.1932 22.549 10.0236 24.0772 10.1084C25.945 8.07324 28.3222 6.4621 31.2088 5.61413C35.0293 4.51177 38.9347 4.93575 42.2458 6.5469H42.3307C42.6703 6.4621 42.925 6.3773 43.1797 6.29251C50.6509 4.51177 58.122 7.73405 61.9425 13.9242C65.6781 15.9594 68.5647 19.436 69.8382 23.7607C69.8382 23.8031 69.8594 23.8455 69.8806 23.8879Z"/>
</mask>
<path fill-rule="evenodd" clip-rule="evenodd" d="M69.8806 23.8879C69.9019 23.9303 69.9231 23.9727 69.9231 24.0151C70.1778 24.7782 70.3476 25.6262 70.4325 26.3894C70.4781 26.7994 70.527 27.1302 70.5697 27.4185L70.5697 27.419L70.5698 27.4193L70.5698 27.4194C70.6262 27.8004 70.6716 28.1072 70.6839 28.4249C70.7213 28.5336 70.7416 28.6503 70.7416 28.7717V38.3282C71.4367 38.1888 72.1547 38.1764 72.8718 38.2908V28.7717C72.8718 28.1835 73.3486 27.7067 73.9368 27.7067C74.5251 27.7067 75.0019 28.1835 75.0019 28.7717V39.0168C76.7305 39.9374 78.3048 41.6479 79.3537 44.143C82.1661 37.0395 89.5038 36.5163 92.4425 42.1316H102.868C103.458 42.1316 103.936 42.61 103.936 43.2001C103.936 43.7902 103.458 44.2685 102.868 44.2685H93.2571C93.3597 44.6606 93.4454 45.0718 93.5125 45.5021C93.5592 45.8016 93.587 46.1028 93.5971 46.4053H102.868C103.458 46.4053 103.936 46.8837 103.936 47.4738C103.936 48.0639 103.458 48.5423 102.868 48.5423H93.3939C91.6392 56.6927 79.3537 65.0107 79.3537 65.0107C79.3537 65.0107 67.6923 57.4093 65.3992 49.3695C63.986 50.5817 62.3011 51.5224 60.4139 52.0828C60.0489 52.2286 59.621 52.3118 59.2384 52.3861C59.1761 52.3982 59.115 52.4101 59.0555 52.422C58.2065 53.1852 57.1028 53.7787 55.9142 54.1179C52.3485 55.1355 48.7827 53.8635 46.5753 51.2348L46.6363 51.2081L44.8155 49.2122C44.366 49.3094 43.9246 49.3693 43.5193 49.3693C41.9911 49.5389 40.4629 49.1997 39.1045 48.5214C38.3404 49.0302 37.4914 49.4541 36.5575 49.7085C34.0105 50.3869 31.3786 50.1325 29.1712 49.0302C27.6489 48.0385 26.7458 46.5316 26.4619 44.9913L23.7386 43.0826L23.7376 43.0944C23.7214 43.0781 23.7083 43.065 23.6976 43.0538L23.5654 42.9611C13.6797 47.0484 6.92276 41.7167 5.3144 34.6147C4.1258 29.3573 6.41809 23.8455 10.3235 20.5384C11.2574 15.9594 14.6534 11.9739 19.4078 10.6171C20.9359 10.1932 22.549 10.0236 24.0772 10.1084C25.945 8.07324 28.3222 6.4621 31.2088 5.61413C35.0293 4.51177 38.9347 4.93575 42.2458 6.5469H42.3307C42.6703 6.4621 42.925 6.3773 43.1797 6.29251C50.6509 4.51177 58.122 7.73405 61.9425 13.9242C65.6781 15.9594 68.5647 19.436 69.8382 23.7607C69.8382 23.8031 69.8594 23.8455 69.8806 23.8879Z" fill="#1A1C29" fill-opacity="0.25"/>
<path d="M69.9231 24.0151H65.9231V24.6649L66.1288 25.2814L69.9231 24.0151ZM70.4325 26.3894L66.457 26.8316L66.457 26.8317L70.4325 26.3894ZM70.5697 27.4185L74.5322 26.8719L74.5295 26.8525L74.5266 26.8331L70.5697 27.4185ZM70.5697 27.419L66.6073 27.9655L66.6093 27.9801L66.6114 27.9947L70.5697 27.419ZM70.5698 27.4193L74.5296 26.8536L74.5281 26.8435L70.5698 27.4193ZM70.5698 27.4194L66.61 27.9851L66.6114 27.995L66.6129 28.0048L70.5698 27.4194ZM70.6839 28.4249L66.6869 28.5799L66.7097 29.1692L66.9017 29.7269L70.6839 28.4249ZM70.7416 38.3282H66.7416V43.2106L71.5286 42.2501L70.7416 38.3282ZM72.8718 38.2908L72.2415 42.2409L76.8718 42.9797V38.2908H72.8718ZM75.0019 39.0168H71.0019V41.4185L73.1217 42.5474L75.0019 39.0168ZM79.3537 44.143L75.6663 45.6931L79.4647 54.7288L83.0728 45.6155L79.3537 44.143ZM92.4425 42.1316L88.8986 43.9863L90.0213 46.1316H92.4425V42.1316ZM93.2571 44.2685V40.2685H88.0754L89.3875 45.2814L93.2571 44.2685ZM93.5125 45.5021L97.4647 44.8858L97.4647 44.8858L93.5125 45.5021ZM93.5971 46.4053L89.5994 46.5394L89.7291 50.4053H93.5971V46.4053ZM93.3939 48.5423V44.5423H90.1634L89.4835 47.7004L93.3939 48.5423ZM79.3537 65.0107L77.1694 68.3616L79.3957 69.8128L81.5963 68.3229L79.3537 65.0107ZM65.3992 49.3695L69.2458 48.2724L67.5335 42.2689L62.795 46.3334L65.3992 49.3695ZM60.4139 52.0828L59.2753 48.2483L59.0999 48.3004L58.9299 48.3683L60.4139 52.0828ZM59.2384 52.3861L58.4754 48.4596L58.4753 48.4596L59.2384 52.3861ZM59.0555 52.422L58.2719 48.4995L57.1968 48.7143L56.3815 49.4472L59.0555 52.422ZM55.9142 54.1179L57.0119 57.9644L57.0119 57.9644L55.9142 54.1179ZM46.5753 51.2348L44.9706 47.5708L40.0755 49.7147L43.512 53.8071L46.5753 51.2348ZM46.6363 51.2081L48.241 54.8721L53.3513 52.634L49.5914 48.5124L46.6363 51.2081ZM44.8155 49.2122L47.7707 46.5164L46.2194 44.8158L43.9695 45.3026L44.8155 49.2122ZM43.5193 49.3693V45.3693H43.298L43.0781 45.3937L43.5193 49.3693ZM39.1045 48.5214L40.8916 44.9428L38.8174 43.9069L36.8875 45.1919L39.1045 48.5214ZM36.5575 49.7085L37.587 53.5738L37.5979 53.5709L37.6088 53.5679L36.5575 49.7085ZM29.1712 49.0302L26.988 52.3818L27.1796 52.5066L27.3841 52.6087L29.1712 49.0302ZM26.4619 44.9913L30.3956 44.2662L30.0987 42.6558L28.7577 41.7158L26.4619 44.9913ZM23.7386 43.0826L26.0345 39.807L20.3349 35.8121L19.7527 42.7479L23.7386 43.0826ZM23.7376 43.0944L20.9109 45.9245L27.0032 52.0097L27.7236 43.429L23.7376 43.0944ZM23.6976 43.0538L26.6002 40.3015L26.3232 40.0094L25.9935 39.7783L23.6976 43.0538ZM23.5654 42.9611L25.8613 39.6856L24.0646 38.4263L22.037 39.2646L23.5654 42.9611ZM5.3144 34.6147L1.41286 35.4967L1.41318 35.4982L5.3144 34.6147ZM10.3235 20.5384L12.9084 23.591L13.9659 22.6955L14.2428 21.3377L10.3235 20.5384ZM19.4078 10.6171L18.3384 6.76274L18.3242 6.76667L18.3101 6.7707L19.4078 10.6171ZM24.0772 10.1084L23.8556 14.1022L25.7448 14.2071L27.0242 12.813L24.0772 10.1084ZM31.2088 5.61413L30.0999 1.77092L30.0906 1.77358L30.0814 1.7763L31.2088 5.61413ZM42.2458 6.5469L40.4956 10.1437L41.3243 10.5469H42.2458V6.5469ZM42.3307 6.5469V10.5469H42.8225L43.2997 10.4277L42.3307 6.5469ZM43.1797 6.29251L42.2523 2.4015L42.0821 2.44206L41.9161 2.49731L43.1797 6.29251ZM61.9425 13.9242L58.5386 16.0251L59.0964 16.9287L60.0289 17.4368L61.9425 13.9242ZM69.8382 23.7607H73.8382V23.184L73.6753 22.6307L69.8382 23.7607ZM73.9231 24.0151C73.9231 23.338 73.756 22.8157 73.6547 22.5458C73.601 22.4027 73.5494 22.2888 73.5174 22.2204C73.4872 22.1561 73.4589 22.1 73.4575 22.0973L66.3038 25.6785C66.3333 25.7374 66.244 25.5678 66.165 25.3572C66.0796 25.1297 65.9231 24.6497 65.9231 24.0151H73.9231ZM74.408 25.9471C74.2973 24.952 74.0755 23.8219 73.7174 22.7488L66.1288 25.2814C66.2801 25.7345 66.3979 26.3004 66.457 26.8316L74.408 25.9471ZM74.5266 26.8331C74.4843 26.5471 74.4449 26.2789 74.408 25.9471L66.457 26.8317C66.5114 27.32 66.5698 27.7133 66.6127 28.0039L74.5266 26.8331ZM74.5322 26.8724L74.5322 26.8719L66.6072 27.965L66.6073 27.9655L74.5322 26.8724ZM74.5281 26.8435L74.5281 26.8432L66.6114 27.9947L66.6114 27.995L74.5281 26.8435ZM74.5296 26.8538L74.5296 26.8536L66.61 27.985L66.61 27.9851L74.5296 26.8538ZM74.6809 28.2699C74.6587 27.6971 74.5765 27.1706 74.5267 26.834L66.6129 28.0048C66.6758 28.4302 66.6845 28.5173 66.6869 28.5799L74.6809 28.2699ZM74.7416 28.7717C74.7416 28.2013 74.6457 27.6449 74.4661 27.1229L66.9017 29.7269C66.7969 29.4224 66.7416 29.0993 66.7416 28.7717H74.7416ZM74.7416 38.3282V28.7717H66.7416V38.3282H74.7416ZM73.5021 34.3408C72.3277 34.1534 71.1296 34.1707 69.9547 34.4064L71.5286 42.2501C71.7438 42.2069 71.9816 42.1994 72.2415 42.2409L73.5021 34.3408ZM68.8718 28.7717V38.2908H76.8718V28.7717H68.8718ZM73.9368 23.7067C71.1395 23.7067 68.8718 25.9744 68.8718 28.7717H76.8718C76.8718 30.3927 75.5578 31.7067 73.9368 31.7067V23.7067ZM79.0019 28.7717C79.0019 25.9744 76.7342 23.7067 73.9368 23.7067V31.7067C72.3159 31.7067 71.0019 30.3927 71.0019 28.7717H79.0019ZM79.0019 39.0168V28.7717H71.0019V39.0168H79.0019ZM83.0411 42.5929C81.6936 39.3874 79.546 36.9049 76.8821 35.4863L73.1217 42.5474C73.9151 42.9699 74.9161 43.9085 75.6663 45.6931L83.0411 42.5929ZM95.9865 40.2768C93.8053 36.1091 89.6939 33.8602 85.3582 34.3982C81.0817 34.9289 77.47 38.0348 75.6346 42.6706L83.0728 45.6155C84.0499 43.1477 85.5132 42.4403 86.3433 42.3373C87.1142 42.2417 88.141 42.5388 88.8986 43.9863L95.9865 40.2768ZM92.4425 46.1316H102.868V38.1316H92.4425V46.1316ZM102.868 46.1316C101.249 46.1316 99.9364 44.8191 99.9364 43.2001H107.936C107.936 40.4008 105.667 38.1316 102.868 38.1316V46.1316ZM99.9364 43.2001C99.9364 41.581 101.249 40.2685 102.868 40.2685V48.2685C105.667 48.2685 107.936 45.9993 107.936 43.2001H99.9364ZM102.868 40.2685H93.2571V48.2685H102.868V40.2685ZM97.4647 44.8858C97.3776 44.3268 97.2648 43.7831 97.1267 43.2557L89.3875 45.2814C89.4547 45.5382 89.5132 45.8168 89.5602 46.1184L97.4647 44.8858ZM97.5949 46.2712C97.5795 45.8126 97.5371 45.3502 97.4647 44.8858L89.5602 46.1184C89.5812 46.253 89.5945 46.3931 89.5994 46.5394L97.5949 46.2712ZM102.868 42.4053H93.5971V50.4053H102.868V42.4053ZM107.936 47.4738C107.936 44.6746 105.667 42.4053 102.868 42.4053V50.4053C101.249 50.4053 99.9364 49.0928 99.9364 47.4738H107.936ZM102.868 52.5423C105.667 52.5423 107.936 50.273 107.936 47.4738H99.9364C99.9364 45.8547 101.249 44.5423 102.868 44.5423V52.5423ZM93.3939 52.5423H102.868V44.5423H93.3939V52.5423ZM79.3537 65.0107C81.5963 68.3229 81.597 68.3224 81.5977 68.322C81.598 68.3217 81.5988 68.3212 81.5994 68.3208C81.6006 68.32 81.602 68.319 81.6036 68.318C81.6068 68.3158 81.6107 68.3131 81.6154 68.3099C81.6247 68.3036 81.637 68.2952 81.6522 68.2848C81.6825 68.264 81.7243 68.2351 81.7768 68.1986C81.8819 68.1254 82.0302 68.0212 82.2161 67.8879C82.5876 67.6215 83.1106 67.238 83.7398 66.754C84.9934 65.7896 86.6911 64.4085 88.4578 62.7452C91.7899 59.6079 96.1469 54.7602 97.3043 49.3841L89.4835 47.7004C88.8862 50.4748 86.2232 53.8612 82.9738 56.9206C81.4498 58.3555 79.9665 59.5634 78.8617 60.4133C78.3117 60.8364 77.8612 61.1664 77.554 61.3868C77.4005 61.4968 77.2831 61.5793 77.2074 61.632C77.1696 61.6583 77.1422 61.6772 77.1259 61.6883C77.1177 61.6939 77.1124 61.6976 77.1099 61.6993C77.1087 61.7001 77.1081 61.7005 77.1083 61.7003C77.1084 61.7003 77.1087 61.7001 77.1092 61.6998C77.1094 61.6996 77.1099 61.6993 77.11 61.6992C77.1106 61.6988 77.1112 61.6984 79.3537 65.0107ZM61.5526 50.4666C63.0281 55.6401 67.2707 60.1932 70.5485 63.1673C72.2703 64.7296 73.9065 66.0145 75.1114 66.909C75.716 67.3578 76.2173 67.7124 76.5734 67.9586C76.7516 68.0817 76.8938 68.1781 76.9948 68.2458C77.0453 68.2796 77.0855 68.3064 77.1148 68.3257C77.1295 68.3354 77.1414 68.3433 77.1506 68.3493C77.1551 68.3523 77.159 68.3548 77.1621 68.3569C77.1637 68.3579 77.1651 68.3588 77.1663 68.3596C77.1669 68.36 77.1677 68.3605 77.168 68.3607C77.1688 68.3612 77.1694 68.3616 79.3537 65.0107C81.538 61.6597 81.5386 61.6601 81.5392 61.6605C81.5393 61.6605 81.5398 61.6609 81.5401 61.661C81.5406 61.6614 81.5409 61.6616 81.5411 61.6617C81.5414 61.6619 81.541 61.6617 81.54 61.661C81.5379 61.6596 81.533 61.6564 81.5256 61.6515C81.5106 61.6416 81.4851 61.6247 81.4496 61.6009C81.3787 61.5533 81.2681 61.4785 81.1229 61.3781C80.8323 61.1772 80.4047 60.8751 79.8802 60.4857C78.8269 59.7037 77.4044 58.5857 75.9242 57.2427C72.798 54.4061 70.0633 51.1387 69.2458 48.2724L61.5526 50.4666ZM61.5526 55.9173C63.9912 55.1932 66.1731 53.9756 68.0034 52.4056L62.795 46.3334C61.7989 47.1877 60.611 47.8517 59.2753 48.2483L61.5526 55.9173ZM60.0014 56.3127C60.3022 56.2542 61.1182 56.1088 61.8979 55.7973L58.9299 48.3683C58.9904 48.3441 58.9934 48.349 58.8955 48.3726C58.7958 48.3967 58.6802 48.4198 58.4754 48.4596L60.0014 56.3127ZM59.8391 56.3445C59.8865 56.335 59.9372 56.3252 60.0014 56.3127L58.4753 48.4596C58.415 48.4713 58.3434 48.4852 58.2719 48.4995L59.8391 56.3445ZM57.0119 57.9644C58.7291 57.4744 60.3866 56.604 61.7296 55.3968L56.3815 49.4472C56.0265 49.7663 55.4766 50.0831 54.8166 50.2715L57.0119 57.9644ZM43.512 53.8071C46.6746 57.5733 51.8426 59.4395 57.0119 57.9644L54.8166 50.2715C52.8543 50.8315 50.8908 50.1538 49.6385 48.6626L43.512 53.8071ZM45.0316 47.5441L44.9706 47.5708L48.18 54.8988L48.241 54.8721L45.0316 47.5441ZM41.8604 51.9079L43.6811 53.9039L49.5914 48.5124L47.7707 46.5164L41.8604 51.9079ZM43.5193 53.3693C44.2963 53.3693 45.0347 53.2573 45.6615 53.1217L43.9695 45.3026C43.6972 45.3616 43.5529 45.3693 43.5193 45.3693V53.3693ZM37.3174 52.0999C39.2575 53.0688 41.5557 53.6118 43.9605 53.3449L43.0781 45.3937C42.4265 45.4661 41.6683 45.3307 40.8916 44.9428L37.3174 52.0999ZM37.6088 53.5679C39.0378 53.1786 40.2767 52.5465 41.3214 51.8508L36.8875 45.1919C36.4041 45.5138 35.945 45.7296 35.5062 45.8491L37.6088 53.5679ZM27.3841 52.6087C30.5074 54.1685 34.1454 54.4904 37.587 53.5738L35.528 45.8433C33.8756 46.2834 32.2499 46.0966 30.9583 45.4516L27.3841 52.6087ZM22.5281 45.7165C22.9997 48.2744 24.4963 50.7587 26.988 52.3818L31.3544 45.6785C30.8015 45.3183 30.4919 44.7888 30.3956 44.2662L22.5281 45.7165ZM21.4427 46.3581L24.166 48.2668L28.7577 41.7158L26.0345 39.807L21.4427 46.3581ZM27.7236 43.429L27.7246 43.4172L19.7527 42.7479L19.7517 42.7597L27.7236 43.429ZM20.7951 45.8061C20.8514 45.8655 20.9082 45.9218 20.9109 45.9245L26.5644 40.2643C26.56 40.2598 26.5579 40.2578 26.5564 40.2562C26.5549 40.2548 26.5558 40.2557 26.558 40.2579C26.5601 40.26 26.565 40.265 26.5716 40.2718C26.5783 40.2786 26.5881 40.2888 26.6002 40.3015L20.7951 45.8061ZM21.2695 46.2366L21.4017 46.3293L25.9935 39.7783L25.8613 39.6856L21.2695 46.2366ZM1.41318 35.4982C2.42907 39.984 5.1292 44.1484 9.41641 46.4933C13.7869 48.8837 19.2402 49.0778 25.0937 46.6576L22.037 39.2646C18.0048 40.9318 15.1368 40.5036 13.2553 39.4745C11.2906 38.3999 9.80809 36.3474 9.21561 33.7312L1.41318 35.4982ZM7.73856 17.4858C2.86099 21.6161 -0.149848 28.5845 1.41286 35.4967L9.21593 33.7326C8.40145 30.13 9.97519 26.0748 12.9084 23.591L7.73856 17.4858ZM18.3101 6.7707C12.0278 8.56347 7.61665 13.794 6.40416 19.739L14.2428 21.3377C14.8981 18.1247 17.2789 15.3843 20.5054 14.4636L18.3101 6.7707ZM24.2988 6.11451C22.3358 6.00559 20.2867 6.22221 18.3384 6.76274L20.4771 14.4716C21.5852 14.1641 22.7623 14.0416 23.8556 14.1022L24.2988 6.11451ZM30.0814 1.7763C26.425 2.85041 23.4372 4.89002 21.1303 7.40369L27.0242 12.813C28.4528 11.2565 30.2194 10.0738 32.3362 9.45196L30.0814 1.7763ZM43.9959 2.9501C39.8187 0.917524 34.896 0.387038 30.0999 1.77092L32.3177 9.45735C35.1626 8.6365 38.0506 8.95399 40.4956 10.1437L43.9959 2.9501ZM42.3307 2.5469H42.2458V10.5469H42.3307V2.5469ZM41.9161 2.49731C41.6668 2.58031 41.5392 2.62172 41.3616 2.66605L43.2997 10.4277C43.8014 10.3025 44.1831 10.1743 44.4432 10.0877L41.9161 2.49731ZM65.3464 11.8234C60.6208 4.16665 51.4046 0.220076 42.2523 2.4015L44.1071 10.1835C49.8971 8.80346 55.6233 11.3015 58.5386 16.0251L65.3464 11.8234ZM73.6753 22.6307C72.0995 17.2795 68.5155 12.9501 63.8561 10.4117L60.0289 17.4368C62.8407 18.9686 65.0299 21.5926 66.0011 24.8906L73.6753 22.6307ZM73.4575 22.0973C73.4279 22.0381 73.5172 22.2078 73.5962 22.4183C73.6816 22.6457 73.8382 23.1258 73.8382 23.7607H65.8382C65.8382 24.4379 66.0054 24.9604 66.1067 25.2303C66.1604 25.3734 66.212 25.4872 66.244 25.5555C66.2742 25.6197 66.3025 25.6758 66.3038 25.6785L73.4575 22.0973Z" fill="#1A1C29" fill-opacity="0.25" mask="url(#path-1-outside-1)"/>
<path d="M21.8037 41.7263L27.1504 45.4739L43.1798 47.419L46.6607 51.2348H55.5752L64.4047 44.7055L69.6162 38.391C69.6162 38.391 70.6873 38.1761 70.3477 31.138C69.9232 24.015 62.7068 17.6552 62.7068 17.6552L54.896 9.26036L40.5479 7.9884L29.1713 9.26036L16.0968 17.6552L8.45581 29.1876V37.0737L14.1441 42.5007L22.8039 39.3633L21.8037 41.7263Z" fill="#C94281"/>
<path d="M68.1397 39.1937C64.8286 41.4832 61.0931 42.416 57.4424 41.992C57.1877 42.7552 56.6783 43.7727 55.6595 44.9599C53.7068 47.3342 50.6504 49.4541 46.5752 51.2348C48.7826 53.8635 52.3484 55.1355 55.9142 54.1179C57.1028 53.7788 58.2065 53.1852 59.0555 52.422C59.48 52.3372 59.9894 52.2524 60.4139 52.0828C66.6964 50.2173 70.7373 44.1359 69.9732 37.861C69.5487 38.3697 68.8189 38.7697 68.1397 39.1937Z" fill="#E566A1"/>
<path d="M70.4325 26.3894C70.3476 25.6262 70.1778 24.7782 69.9231 24.0151C69.9231 23.9303 69.8382 23.8455 69.8382 23.7607C68.5647 19.436 65.6781 15.9594 61.9425 13.9242C58.122 7.73405 50.6509 4.51177 43.1797 6.29251C42.925 6.3773 42.6703 6.4621 42.3307 6.5469C42.3307 6.5469 42.3307 6.5469 42.2458 6.5469C38.9347 4.93575 35.0293 4.51177 31.2088 5.61413C28.3222 6.4621 25.945 8.07324 24.0772 10.1084C22.549 10.0236 20.9359 10.1932 19.4078 10.6171C14.6534 11.9739 11.2574 15.9594 10.3235 20.5384C6.41809 23.8455 4.1258 29.3573 5.3144 34.6147C6.92749 41.7376 13.7195 47.0798 23.6527 42.9248C23.6527 43.0096 23.6527 43.0096 23.7376 43.0944C24.0772 39.0241 26.6242 36.6498 28.0675 35.5474C25.5205 31.986 19.4927 25.1174 15.0779 27.1525C12.1913 28.5093 11.7668 31.138 12.6158 33.0883C13.5497 35.1235 15.842 36.565 19.1531 35.2083C19.7474 34.9539 20.5114 35.2083 20.7661 35.8866C21.0208 36.4802 20.7661 37.2434 20.0869 37.4978C15.3326 39.4481 11.6819 37.0738 10.4084 34.0211C9.04998 30.9684 9.89898 26.8134 14.0591 24.863C14.9081 24.439 15.9269 24.1847 17.2004 24.2695C17.2004 21.7255 18.0494 19.6056 19.6624 17.9945C22.2094 15.4506 25.945 14.9418 27.7279 14.857C29.0014 11.1259 32.5672 9.00601 37.2367 9.34519C39.6988 9.51479 41.8213 10.7019 43.3495 11.8043C44.1136 12.3979 44.7928 12.9915 45.2173 13.4154C47.9341 11.7195 51.7546 10.7019 54.9807 11.8891C57.1881 12.6523 59.9049 14.6026 60.8388 19.7752C62.0274 20.3688 64.4046 21.8103 65.0838 24.439C65.5932 26.3046 65.1687 28.4245 63.8952 30.1204C62.7915 31.6468 60.4143 33.5123 55.7448 33.6819C55.6599 33.6819 55.6599 33.6819 55.575 33.6819C55.4901 33.6819 47.0002 32.8339 43.9438 38.8545C43.774 39.1937 43.6042 39.5329 43.4344 39.7873C42.3307 41.568 41.1421 42.5856 39.7837 43.0096C39.529 43.0944 39.2743 43.0944 39.0196 43.1792C36.3877 43.4336 34.6048 41.2288 34.5199 41.144C34.0954 40.6353 34.1803 39.8721 34.6897 39.4481C35.1991 39.0241 35.9632 39.1089 36.3877 39.6177C36.3877 39.6177 37.4914 40.8896 38.7649 40.8048C39.7837 40.7201 40.8025 39.6177 41.8213 37.7522C42.2458 36.9042 42.8401 36.141 43.4344 35.3778C45.1324 33.5123 47.5096 32.2404 50.3962 31.6468C53.028 31.0532 55.3203 31.2228 55.8297 31.3076C59.4804 31.138 61.1784 29.866 62.0274 28.7637C62.7915 27.6613 63.1311 26.3894 62.7915 25.2022C62.1972 22.9975 59.3955 21.9799 59.3955 21.8951C58.971 21.7255 58.6314 21.3864 58.6314 20.8776C58.122 17.3161 56.6787 15.1114 54.3015 14.2634C51.3301 13.2459 47.4247 14.6874 45.3022 16.6377C42.8401 19.012 43.6042 22.0647 44.0287 23.1671C48.4435 22.0647 51.7546 24.2695 51.8395 24.439C52.4338 24.863 52.5186 25.6262 52.179 26.135C51.7546 26.7286 50.9905 26.8134 50.4811 26.4742C50.3962 26.3894 47.7643 24.6934 44.2834 25.711C43.9438 25.7958 43.6891 25.8806 43.4344 25.9654C40.8025 26.983 40.0384 28.5941 40.0384 28.7637C39.9535 29.1029 39.6988 29.3573 39.3592 29.5269C39.0196 29.6965 38.68 29.6117 38.3404 29.5269C38.1706 29.4421 35.7934 28.5093 33.0766 30.6292C30.2749 32.7491 30.9541 35.6322 31.039 35.717C31.2088 36.3106 30.9541 36.9042 30.4447 37.1586C30.2749 37.2434 26.6242 39.1937 26.3695 43.6879C26.2846 45.6383 27.2185 47.7582 29.1712 49.0301C31.3786 50.1325 34.0105 50.3869 36.5575 49.7085C37.4914 49.4541 38.3404 49.0302 39.1045 48.5214C40.4629 49.1997 41.9911 49.5389 43.5193 49.3693C45.3871 49.3693 48.019 48.0974 48.6982 47.7582C51.415 46.2319 52.9431 44.7055 53.877 43.6031C55.4052 41.9072 55.575 40.6353 55.575 40.4657C55.575 40.1265 55.7448 39.7873 55.9995 39.5329C56.2542 39.2785 56.6787 39.2785 57.0183 39.2785C60.4143 40.0417 63.8103 39.2785 66.8667 37.1586C68.31 36.141 69.4137 34.8691 69.9231 33.1731C70.1778 32.41 70.1517 32.5608 70.3302 31.8541C70.5849 31.1474 70.6872 29.3807 70.6872 28.5941C70.6872 27.9673 70.5491 27.4373 70.4325 26.3894Z" fill="#E566A1"/>
<path d="M36.9823 11.8892C33.1618 11.6348 30.445 13.2459 29.7658 16.3834C29.596 16.977 29.0866 17.401 28.4923 17.3162C28.4074 17.3162 23.8228 17.2314 21.2758 19.7753C20.0872 20.9624 19.4929 22.5736 19.5778 24.6087C19.5778 24.6935 19.5778 24.7783 19.5778 24.8631C21.2758 25.4567 23.2285 26.6438 25.351 28.7637C26.6245 29.9509 27.7282 31.3077 28.5772 32.3252C29.0017 31.1381 29.7658 29.7813 31.294 28.5942C34.0108 26.4742 36.5578 26.559 38.0011 26.8982C38.5953 26.0502 39.6141 24.9479 41.4819 24.0151C40.6329 21.8952 40.2084 17.9945 43.1799 15.0266C42.0762 14.0091 39.699 12.0588 36.9823 11.8892Z" fill="#E566A1"/>
<rect x="68.6116" y="27.7067" width="2.13014" height="14.4243" rx="1.06507" fill="#5BB0B5"/>
<rect x="72.8718" y="27.7067" width="2.13015" height="14.4243" rx="1.06507" fill="#E0585D"/>
<rect x="103.936" y="42.1316" width="2.13694" height="14.3785" rx="1.06847" transform="rotate(90 103.936 42.1316)" fill="#5BB0B5"/>
<rect x="103.936" y="46.4053" width="2.13694" height="14.3785" rx="1.06847" transform="rotate(90 103.936 46.4053)" fill="#E0585D"/>
<path fill-rule="evenodd" clip-rule="evenodd" d="M93.5125 45.5021C92.1129 36.5274 82.6414 35.8392 79.3537 44.143C75.8629 35.8392 66.552 36.2249 65.1048 45.5021C63.6575 54.7793 79.3537 65.0107 79.3537 65.0107C79.3537 65.0107 94.912 54.4769 93.5125 45.5021Z" fill="#F47E6C"/>
</svg>
