<svg width="108" height="70" viewBox="0 0 108 70" fill="none" xmlns="http://www.w3.org/2000/svg">
<path d="M21.8037 41.7263L27.1504 45.4739L43.1798 47.419L46.6607 51.2348H55.5752L64.4047 44.7055L69.6162 38.391C69.6162 38.391 70.6873 38.1761 70.3477 31.138C69.9232 24.015 62.7067 17.6552 62.7067 17.6552L54.896 9.26036L40.5479 7.9884L29.1713 9.26036L16.0968 17.6552L8.45581 29.1876V37.0737L14.1441 42.5007L22.8039 39.3633L21.8037 41.7263Z" fill="#C94281"/>
<path d="M68.1397 39.1937C64.8286 41.4832 61.0931 42.416 57.4424 41.992C57.1877 42.7552 56.6783 43.7727 55.6595 44.9599C53.7068 47.3342 50.6504 49.4541 46.5752 51.2348C48.7826 53.8635 52.3484 55.1355 55.9142 54.1179C57.1028 53.7788 58.2065 53.1852 59.0555 52.422C59.48 52.3372 59.9894 52.2524 60.4139 52.0828C66.6964 50.2173 70.7373 44.1359 69.9732 37.861C69.5487 38.3697 68.8189 38.7697 68.1397 39.1937Z" fill="#E566A1"/>
<path d="M70.4325 26.3894C70.3476 25.6262 70.1778 24.7782 69.9231 24.0151C69.9231 23.9303 69.8382 23.8455 69.8382 23.7607C68.5647 19.436 65.6781 15.9594 61.9425 13.9242C58.122 7.73405 50.6509 4.51177 43.1797 6.29251C42.925 6.3773 42.6703 6.4621 42.3307 6.5469C42.3307 6.5469 42.3307 6.5469 42.2458 6.5469C38.9347 4.93575 35.0293 4.51177 31.2088 5.61413C28.3222 6.4621 25.945 8.07324 24.0772 10.1084C22.549 10.0236 20.9359 10.1932 19.4078 10.6171C14.6534 11.9739 11.2574 15.9594 10.3235 20.5384C6.41809 23.8455 4.1258 29.3573 5.3144 34.6147C6.92749 41.7376 13.7195 47.0798 23.6527 42.9248C23.6527 43.0096 23.6527 43.0096 23.7376 43.0944C24.0772 39.0241 26.6242 36.6498 28.0675 35.5474C25.5205 31.986 19.4927 25.1174 15.0779 27.1525C12.1913 28.5093 11.7668 31.138 12.6158 33.0883C13.5497 35.1235 15.842 36.565 19.1531 35.2083C19.7474 34.9539 20.5114 35.2083 20.7661 35.8866C21.0208 36.4802 20.7661 37.2434 20.0869 37.4978C15.3326 39.4481 11.6819 37.0738 10.4084 34.0211C9.04998 30.9684 9.89898 26.8134 14.0591 24.863C14.9081 24.439 15.9269 24.1847 17.2004 24.2694C17.2004 21.7255 18.0494 19.6056 19.6624 17.9945C22.2094 15.4506 25.945 14.9418 27.7279 14.857C29.0014 11.1259 32.5672 9.00601 37.2367 9.34519C39.6988 9.51479 41.8213 10.7019 43.3495 11.8043C44.1136 12.3979 44.7928 12.9915 45.2173 13.4154C47.9341 11.7195 51.7546 10.7019 54.9807 11.8891C57.1881 12.6523 59.9049 14.6026 60.8388 19.7752C62.0274 20.3688 64.4046 21.8103 65.0838 24.439C65.5932 26.3046 65.1687 28.4245 63.8952 30.1204C62.7915 31.6468 60.4143 33.5123 55.7448 33.6819C55.6599 33.6819 55.6599 33.6819 55.575 33.6819C55.4901 33.6819 47.0002 32.8339 43.9438 38.8545C43.774 39.1937 43.6042 39.5329 43.4344 39.7873C42.3307 41.568 41.1421 42.5856 39.7837 43.0096C39.529 43.0944 39.2743 43.0944 39.0196 43.1792C36.3877 43.4336 34.6048 41.2288 34.5199 41.144C34.0954 40.6353 34.1803 39.8721 34.6897 39.4481C35.1991 39.0241 35.9632 39.1089 36.3877 39.6177C36.3877 39.6177 37.4914 40.8896 38.7649 40.8049C39.7837 40.7201 40.8025 39.6177 41.8213 37.7522C42.2458 36.9042 42.8401 36.141 43.4344 35.3778C45.1324 33.5123 47.5096 32.2404 50.3962 31.6468C53.028 31.0532 55.3203 31.2228 55.8297 31.3076C59.4804 31.138 61.1784 29.866 62.0274 28.7637C62.7915 27.6613 63.1311 26.3894 62.7915 25.2022C62.1972 22.9975 59.3955 21.9799 59.3955 21.8951C58.971 21.7255 58.6314 21.3864 58.6314 20.8776C58.122 17.3161 56.6787 15.1114 54.3015 14.2634C51.3301 13.2459 47.4247 14.6874 45.3022 16.6377C42.8401 19.012 43.6042 22.0647 44.0287 23.1671C48.4435 22.0647 51.7546 24.2695 51.8395 24.439C52.4338 24.863 52.5186 25.6262 52.1791 26.135C51.7546 26.7286 50.9905 26.8134 50.4811 26.4742C50.3962 26.3894 47.7643 24.6934 44.2834 25.711C43.9438 25.7958 43.6891 25.8806 43.4344 25.9654C40.8025 26.983 40.0384 28.5941 40.0384 28.7637C39.9535 29.1029 39.6988 29.3573 39.3592 29.5269C39.0196 29.6965 38.68 29.6117 38.3404 29.5269C38.1706 29.4421 35.7934 28.5093 33.0766 30.6292C30.2749 32.7491 30.9541 35.6322 31.039 35.717C31.2088 36.3106 30.9541 36.9042 30.4447 37.1586C30.2749 37.2434 26.6242 39.1937 26.3695 43.6879C26.2846 45.6383 27.2185 47.7582 29.1712 49.0302C31.3786 50.1325 34.0105 50.3869 36.5575 49.7085C37.4914 49.4541 38.3404 49.0302 39.1045 48.5214C40.4629 49.1997 41.9911 49.5389 43.5193 49.3693C45.3871 49.3693 48.019 48.0974 48.6982 47.7582C51.415 46.2319 52.9431 44.7055 53.877 43.6031C55.4052 41.9072 55.575 40.6353 55.575 40.4657C55.575 40.1265 55.7448 39.7873 55.9995 39.5329C56.2542 39.2785 56.6787 39.2785 57.0183 39.2785C60.4143 40.0417 63.8103 39.2785 66.8667 37.1586C68.31 36.141 69.4137 34.8691 69.9231 33.1731C70.1778 32.41 70.1517 32.5608 70.3302 31.8541C70.5849 31.1474 70.6872 29.3807 70.6872 28.5941C70.6872 27.9674 70.5491 27.4373 70.4325 26.3894Z" fill="#E566A1"/>
<path d="M36.9823 11.8892C33.1618 11.6348 30.445 13.2459 29.7658 16.3834C29.596 16.977 29.0866 17.401 28.4923 17.3162C28.4074 17.3162 23.8228 17.2314 21.2758 19.7753C20.0872 20.9624 19.4929 22.5736 19.5778 24.6087C19.5778 24.6935 19.5778 24.7783 19.5778 24.8631C21.2758 25.4567 23.2285 26.6438 25.351 28.7637C26.6245 29.9509 27.7282 31.3077 28.5772 32.3252C29.0017 31.1381 29.7658 29.7813 31.294 28.5942C34.0108 26.4742 36.5578 26.559 38.0011 26.8982C38.5954 26.0502 39.6141 24.9479 41.4819 24.0151C40.6329 21.8952 40.2084 17.9945 43.1799 15.0266C42.0762 14.0091 39.699 12.0588 36.9823 11.8892Z" fill="#E566A1"/>
<rect x="68.6116" y="27.7067" width="2.13014" height="14.4243" rx="1.06507" fill="#5BB0B5"/>
<rect x="72.8718" y="27.7067" width="2.13015" height="14.4243" rx="1.06507" fill="#E0585D"/>
<rect x="103.936" y="42.1316" width="2.13694" height="14.3785" rx="1.06847" transform="rotate(90 103.936 42.1316)" fill="#5BB0B5"/>
<rect x="103.936" y="46.4053" width="2.13694" height="14.3785" rx="1.06847" transform="rotate(90 103.936 46.4053)" fill="#E0585D"/>
<path fill-rule="evenodd" clip-rule="evenodd" d="M93.5125 45.5021C92.1129 36.5274 82.6414 35.8392 79.3537 44.143C75.8629 35.8392 66.552 36.2249 65.1048 45.5021C63.6575 54.7793 79.3537 65.0107 79.3537 65.0107C79.3537 65.0107 94.912 54.4769 93.5125 45.5021Z" fill="#F47E6C"/>
</svg>
