<svg viewBox="0 0 344 225" fill="none" xmlns="http://www.w3.org/2000/svg">
<circle cx="165.169" cy="116.708" r="33.1875" fill="#5C94B9" fill-opacity="0.3" stroke="#5C94B9" stroke-width="5"/>
<path d="M143.23 91.8118L185.892 141.851" stroke="#5C94B9" stroke-width="5"/>
<path d="M237.189 19.2687L230.193 7.7878C230.061 7.57116 229.852 7.41279 229.607 7.34477L207.775 1.26815C207.243 1.12006 206.692 1.43133 206.544 1.96339L201.618 19.6599C201.47 20.1919 201.782 20.7433 202.314 20.8914L224.146 26.968C224.39 27.036 224.651 27.0086 224.876 26.8913L236.797 20.6757C237.31 20.4083 237.49 19.7627 237.189 19.2687Z" fill="#62AC62" fill-opacity="0.3" stroke="#62AC62"/>
<path d="M187.613 62.1617L191.617 49.3274C191.692 49.0852 191.673 48.8234 191.563 48.5949L181.712 28.1859C181.472 27.6885 180.874 27.4799 180.377 27.72L163.834 35.7046C163.337 35.9446 163.128 36.5425 163.368 37.0398L173.219 57.4488C173.329 57.6773 173.522 57.8553 173.758 57.9468L186.298 62.7965C186.837 63.0052 187.441 62.7139 187.613 62.1617Z" fill="#62AC62" fill-opacity="0.3" stroke="#62AC62"/>
<path d="M135.464 53.9935L131.257 41.2245C131.177 40.9835 131.009 40.7818 130.787 40.6601L110.904 29.787C110.419 29.5221 109.811 29.7001 109.546 30.1846L100.733 46.3014C100.468 46.786 100.646 47.3936 101.131 47.6586L121.014 58.5316C121.236 58.6533 121.497 58.6859 121.742 58.6227L134.763 55.2749C135.324 55.1309 135.645 54.5429 135.464 53.9935Z" fill="#62AC62" fill-opacity="0.3" stroke="#62AC62"/>
<path d="M148.399 164.965L135.175 167.39C134.926 167.436 134.703 167.575 134.552 167.779L121.068 185.993C120.739 186.436 120.832 187.063 121.276 187.391L136.04 198.321C136.484 198.65 137.11 198.557 137.438 198.113L150.923 179.899C151.074 179.695 151.142 179.442 151.112 179.19L149.573 165.834C149.506 165.259 148.968 164.86 148.399 164.965Z" fill="#62AC62" fill-opacity="0.3" stroke="#62AC62"/>
<path d="M216.807 203.29L211.485 190.943C211.385 190.71 211.2 190.524 210.967 190.423L190.199 181.353C189.693 181.132 189.104 181.363 188.883 181.87L181.531 198.704C181.31 199.21 181.541 199.799 182.047 200.02L202.815 209.09C203.048 209.191 203.31 209.2 203.549 209.116L216.223 204.628C216.768 204.435 217.036 203.821 216.807 203.29Z" fill="#62AC62" fill-opacity="0.3" stroke="#62AC62"/>
<path d="M215.358 129.519L248.812 129.519C249.364 129.519 249.812 129.072 249.812 128.519L249.812 103.983C249.812 103.43 249.364 102.983 248.812 102.983L215.292 102.983C214.384 102.983 213.946 104.095 214.611 104.714L226.442 115.737C226.871 116.137 226.865 116.819 226.429 117.212L214.689 127.776C214.008 128.389 214.442 129.519 215.358 129.519Z" fill="#62AC62" fill-opacity="0.3" stroke="#62AC62"/>
<path d="M216.39 82.2317L248.842 90.3585C249.378 90.4926 249.921 90.1671 250.055 89.6314L256.016 65.8295C256.15 65.2938 255.824 64.7507 255.289 64.6165L222.773 56.4738C221.892 56.2532 221.197 57.2261 221.691 57.988L230.49 71.5542C230.809 72.0466 230.638 72.707 230.119 72.9819L216.165 80.3781C215.355 80.8073 215.501 82.0091 216.39 82.2317Z" fill="#62AC62" fill-opacity="0.3" stroke="#62AC62"/>
<path d="M216.39 150.242L248.842 142.116C249.378 141.981 249.921 142.307 250.055 142.843L256.016 166.645C256.15 167.18 255.824 167.723 255.289 167.857L222.773 176C221.892 176.221 221.197 175.248 221.691 174.486L230.49 160.92C230.809 160.427 230.638 159.767 230.119 159.492L216.165 152.096C215.355 151.667 215.501 150.465 216.39 150.242Z" fill="#62AC62" fill-opacity="0.3" stroke="#62AC62"/>
<path d="M240.294 199.944L264.939 177.321C265.346 176.948 265.978 176.975 266.352 177.382L282.945 195.458C283.318 195.865 283.291 196.497 282.884 196.871L258.191 219.538C257.522 220.152 256.447 219.629 256.518 218.723L257.779 202.603C257.825 202.018 257.359 201.519 256.772 201.525L240.98 201.681C240.064 201.69 239.619 200.564 240.294 199.944Z" fill="#62AC62" fill-opacity="0.3" stroke="#62AC62"/>
<path d="M240.294 32.3301L264.939 54.9529C265.346 55.3264 265.978 55.2994 266.352 54.8925L282.945 36.8167C283.318 36.4098 283.291 35.7772 282.884 35.4037L258.191 12.7363C257.522 12.1223 256.447 12.6458 256.518 13.5511L257.779 29.6715C257.825 30.2567 257.359 30.7553 256.772 30.7495L240.98 30.5934C240.064 30.5844 239.619 31.7103 240.294 32.3301Z" fill="#62AC62" fill-opacity="0.3" stroke="#62AC62"/>
<mask id="mask0" mask-type="alpha" maskUnits="userSpaceOnUse" x="0" y="10" width="108" height="213">
<path d="M107.52 116.251C107.52 63.6662 69.771 19.8983 19.8937 10.5676C9.03637 8.53651 -1.2501e-05 17.6852 -1.34666e-05 28.7309L-2.87691e-05 203.771C-2.97348e-05 214.817 9.03635 223.965 19.8937 221.934C69.771 212.603 107.52 168.835 107.52 116.251Z" fill="#7692D9"/>
</mask>
<g mask="url(#mask0)">
<path d="M19.8016 11.0591C69.4466 20.3463 107.02 63.9112 107.02 116.251C107.02 168.59 69.4466 212.155 19.8015 221.443C9.31541 223.404 0.499757 214.572 0.499758 203.771L0.499773 28.7308C0.499774 17.9299 9.31543 9.0974 19.8016 11.0591Z" fill="white" stroke="#5C94B9"/>
<path d="M-2.7668 193.497C-5.34286 215.345 14.1207 228.393 21.2764 229C50.3241 229 83.2848 198.623 97.6996 169.828C111.409 142.442 109.936 114.306 107.145 97C83.1018 166.914 22.4213 191.069 -2.7668 193.497Z" fill="#5C94B9" fill-opacity="0.05"/>
<circle cx="37.6997" cy="44.0347" r="9.78173" fill="#5C94B9" fill-opacity="0.3" stroke="#5C94B9"/>
<circle cx="75.3994" cy="74.8799" r="9.78173" fill="#5C94B9" fill-opacity="0.3" stroke="#5C94B9"/>
<circle cx="23.9907" cy="86.8753" r="9.78173" fill="#5C94B9" fill-opacity="0.3" stroke="#5C94B9"/>
<circle cx="58.2631" cy="121.148" r="9.78173" fill="#5C94B9" fill-opacity="0.3" stroke="#5C94B9"/>
<circle cx="71.9721" cy="165.702" r="9.78173" fill="#5C94B9" fill-opacity="0.3" stroke="#5C94B9"/>
<circle cx="20.5635" cy="148.566" r="9.78173" fill="#5C94B9" fill-opacity="0.3" stroke="#5C94B9"/>
<circle cx="34.2724" cy="189.693" r="9.78173" fill="#5C94B9" fill-opacity="0.3" stroke="#5C94B9"/>
</g>
<mask id="mask1" mask-type="alpha" maskUnits="userSpaceOnUse" x="236" y="11" width="108" height="213">
<path d="M236.48 117.282C236.48 64.6977 274.229 20.9298 324.106 11.5991C334.964 9.56799 344 18.7166 344 29.7623L344 204.802C344 215.848 334.964 224.997 324.106 222.966C274.229 213.635 236.48 169.867 236.48 117.282Z" fill="#7692D9"/>
</mask>
<g mask="url(#mask1)">
<path d="M324.198 12.0905C274.553 21.3778 236.98 64.9427 236.98 117.282C236.98 169.622 274.553 213.187 324.198 222.474C334.685 224.436 343.5 215.603 343.5 204.802L343.5 29.7623C343.5 18.9614 334.684 10.1289 324.198 12.0905Z" fill="white" stroke="#5C94B9"/>
<path d="M346.767 194.497C349.343 216.345 329.879 229.393 322.724 230C293.676 230 260.715 199.623 246.3 170.828C232.591 143.442 234.064 115.306 236.855 98C260.898 167.914 321.579 192.069 346.767 194.497Z" fill="#5C94B9" fill-opacity="0.05"/>
</g>
</svg>
