<svg width="94" height="92" viewBox="0 0 94 92" fill="none" xmlns="http://www.w3.org/2000/svg">
<path d="M48.7261 61.8506L30.1629 43.6589C28.8838 42.4054 28.8838 40.3736 30.1629 39.1201C31.442 37.8666 33.5153 37.8666 34.7944 39.1201L53.3575 57.3118C54.6364 58.5651 54.6364 60.5971 53.3575 61.8506C52.0785 63.1039 50.0048 63.1039 48.7261 61.8506Z" fill="#F47E6C"/>
<path d="M53.2752 57.3475L43.9938 48.2518L39.3623 52.7906L48.6437 61.8863C49.9228 63.1396 51.9961 63.1396 53.2752 61.8863C54.5541 60.633 54.5541 58.6008 53.2752 57.3475Z" fill="#FCCB6F"/>
<path d="M77.4728 33.6784L58.9096 15.4867C57.6307 14.2332 57.6307 12.2014 58.9096 10.9479C60.1887 9.69444 62.262 9.69444 63.5411 10.9479L82.1042 29.1396C83.3833 30.3931 83.3833 32.425 82.1042 33.6784C80.8253 34.9319 78.7517 34.9319 77.4728 33.6784Z" fill="#F47E6C"/>
<path d="M82.0213 29.1758L72.7399 20.0801L68.1084 24.6189L77.3898 33.7146C78.6687 34.968 80.7422 34.968 82.0213 33.7146C83.3003 32.4613 83.3 30.4292 82.0213 29.1758Z" fill="#FCCB6F"/>
<path d="M29.6897 80.4604L11.1275 62.2697C9.84845 61.0162 9.84845 58.9843 11.1275 57.7309C12.4066 56.4774 14.4799 56.4776 15.759 57.7309L34.321 75.9215C35.6 77.1749 35.6 79.2068 34.321 80.4603C33.0424 81.7137 30.9687 81.7137 29.6897 80.4604Z" fill="#63DBD0"/>
<path d="M34.321 75.9219L25.0399 66.8265L20.4084 71.3653L29.6895 80.4607C30.9684 81.714 33.0419 81.714 34.321 80.4607C35.5997 79.2072 35.5997 77.1751 34.321 75.9219Z" fill="#7692D9"/>
<path d="M58.4358 52.2888L39.8726 34.0971C38.5936 32.8437 38.5936 30.8118 39.8726 29.5583C41.1517 28.3049 43.225 28.3049 44.5041 29.5583L63.0673 47.75C64.3463 49.0034 64.3463 51.0354 63.0673 52.2888C61.7884 53.5422 59.7147 53.5422 58.4358 52.2888Z" fill="#63DBD0"/>
<path d="M63.0682 47.7505L53.7867 38.6548L49.1553 43.1934L58.4367 52.2891C59.7156 53.5424 61.7891 53.5424 63.0682 52.2891C64.3469 51.0358 64.3469 49.0038 63.0682 47.7505Z" fill="#7692D9"/>
<path d="M64.9373 35.5463C71.1164 36.2624 81.8291 36.3939 88.1893 30.1613C89.4682 28.9078 89.4682 26.8759 88.1893 25.6225C86.9104 24.369 84.8369 24.369 83.5578 25.6225C79.0709 30.0196 69.99 29.9021 63.7234 28.8944C62.841 23.7394 62.3494 14.1194 67.0848 9.47891C68.3637 8.22544 68.3637 6.19358 67.0848 4.9401C65.8058 3.68663 63.7324 3.68663 62.4534 4.9401C56.0931 11.1731 56.2277 21.6715 56.9584 27.7269C36.0779 25.3074 25.6891 34.9949 28.2113 55.8988C22.0322 55.1828 11.3192 55.0511 4.9593 61.2837C3.68023 62.5371 3.68023 64.5691 4.9593 65.8225C6.23836 67.0759 8.31171 67.0759 9.59077 65.8225C14.0682 61.4347 23.1253 61.5401 29.4059 62.5476C30.4332 68.6998 30.5426 77.5774 26.0641 81.9663C24.7851 83.2197 24.7851 85.2516 26.0641 86.5051C27.3432 87.7585 29.4165 87.7584 30.6956 86.5051C37.0558 80.2721 36.9213 69.7738 36.1905 63.7183C57.0707 66.1377 67.4594 56.4503 64.9373 35.5463ZM58.1527 34.3757C61.1058 52.0626 54.307 57.6899 41.8363 57.6447C39.1037 57.635 36.6309 57.3317 34.9956 57.0694C34.7279 55.4662 34.4185 53.0435 34.4086 50.3656C34.3635 38.4395 39.7866 31.4297 58.1527 34.3757Z" fill="#9DA3B3"/>
<path d="M36.1903 63.7184C57.0711 66.1378 67.4596 56.4504 64.9374 35.5465C71.1165 36.2626 81.8292 36.3942 88.1894 30.1615C89.4683 28.9081 89.4683 26.8762 88.1894 25.6227C86.9105 24.3693 84.837 24.3693 83.5579 25.6227C79.0756 30.0153 70.0093 29.9026 63.7428 28.8976L58.1524 34.3762C61.1055 52.063 54.3067 57.6903 41.8361 57.6452C39.1035 57.6354 36.6307 57.3321 34.9954 57.0699L29.4053 62.5481C30.4326 68.7002 30.542 77.5778 26.0635 81.9667C24.7845 83.2202 24.7845 85.252 26.0635 86.5055C27.3426 87.759 29.416 87.7588 30.695 86.5055C37.0554 80.2724 36.9209 69.7739 36.1903 63.7184Z" fill="#9DA3B3"/>
<mask id="path-11-outside-1" maskUnits="userSpaceOnUse" x="-1" y="0" width="95" height="92" fill="black">
<rect fill="white" x="-1" width="95" height="92"/>
<path fill-rule="evenodd" clip-rule="evenodd" d="M88.1893 30.1613C81.8291 36.3939 71.1164 36.2624 64.9373 35.5463C67.4594 56.4503 57.0707 66.1377 36.1905 63.7183C36.9213 69.7738 37.0558 80.2721 30.6956 86.5051C29.4165 87.7584 27.3432 87.7585 26.0641 86.5051C24.7851 85.2516 24.7851 83.2197 26.0641 81.9663C26.5248 81.5148 26.937 81.0158 27.3045 80.4772L11.1102 64.6069C10.5606 64.9672 10.0515 65.3711 9.59077 65.8225C8.31171 67.0759 6.23836 67.0759 4.9593 65.8225C3.68023 64.5691 3.68023 62.5371 4.9593 61.2837C11.3192 55.0511 22.0322 55.1828 28.2113 55.8988C25.6891 34.9949 36.0779 25.3074 56.9584 27.7269C56.2277 21.6715 56.0931 11.1731 62.4534 4.9401C63.7324 3.68663 65.8058 3.68663 67.0848 4.9401C68.3637 6.19358 68.3637 8.22544 67.0848 9.47891C66.9273 9.63326 66.7756 9.79312 66.6295 9.95814L83.069 26.0687C83.2374 25.9254 83.4004 25.7767 83.5578 25.6225C84.8369 24.369 86.9104 24.369 88.1893 25.6225C89.4682 26.8759 89.4682 28.9078 88.1893 30.1613ZM76.7061 28.9108C72.4579 29.795 67.5626 29.5118 63.7234 28.8944C63.1674 25.6464 62.7666 20.6257 63.7306 16.1949L76.7061 28.9108ZM17.9851 62.2666L29.6926 73.7398C30.2466 69.9703 29.9595 65.8632 29.4059 62.5476C26.0215 62.0047 21.8309 61.7237 17.9851 62.2666Z"/>
</mask>
<path fill-rule="evenodd" clip-rule="evenodd" d="M88.1893 30.1613C81.8291 36.3939 71.1164 36.2624 64.9373 35.5463C67.4594 56.4503 57.0707 66.1377 36.1905 63.7183C36.9213 69.7738 37.0558 80.2721 30.6956 86.5051C29.4165 87.7584 27.3432 87.7585 26.0641 86.5051C24.7851 85.2516 24.7851 83.2197 26.0641 81.9663C26.5248 81.5148 26.937 81.0158 27.3045 80.4772L11.1102 64.6069C10.5606 64.9672 10.0515 65.3711 9.59077 65.8225C8.31171 67.0759 6.23836 67.0759 4.9593 65.8225C3.68023 64.5691 3.68023 62.5371 4.9593 61.2837C11.3192 55.0511 22.0322 55.1828 28.2113 55.8988C25.6891 34.9949 36.0779 25.3074 56.9584 27.7269C56.2277 21.6715 56.0931 11.1731 62.4534 4.9401C63.7324 3.68663 65.8058 3.68663 67.0848 4.9401C68.3637 6.19358 68.3637 8.22544 67.0848 9.47891C66.9273 9.63326 66.7756 9.79312 66.6295 9.95814L83.069 26.0687C83.2374 25.9254 83.4004 25.7767 83.5578 25.6225C84.8369 24.369 86.9104 24.369 88.1893 25.6225C89.4682 26.8759 89.4682 28.9078 88.1893 30.1613ZM76.7061 28.9108C72.4579 29.795 67.5626 29.5118 63.7234 28.8944C63.1674 25.6464 62.7666 20.6257 63.7306 16.1949L76.7061 28.9108ZM17.9851 62.2666L29.6926 73.7398C30.2466 69.9703 29.9595 65.8632 29.4059 62.5476C26.0215 62.0047 21.8309 61.7237 17.9851 62.2666Z" fill="#1A1C29" fill-opacity="0.25"/>
<path d="M64.9373 35.5463L65.3978 31.5729L60.3585 30.9888L60.9661 36.0254L64.9373 35.5463ZM88.1893 30.1613L90.9889 33.0182L90.9892 33.018L88.1893 30.1613ZM36.1905 63.7183L36.6509 59.7449L31.6116 59.161L32.2193 64.1975L36.1905 63.7183ZM30.6956 86.5051L33.4951 89.3621L33.4953 89.3619L30.6956 86.5051ZM26.0641 81.9663L28.8638 84.8231L28.8638 84.8231L26.0641 81.9663ZM27.3045 80.4772L30.6085 82.732L32.4968 79.965L30.1042 77.6203L27.3045 80.4772ZM11.1102 64.6069L13.9099 61.7501L11.6104 59.4965L8.91755 61.2615L11.1102 64.6069ZM9.59077 65.8225L12.3903 68.6796L12.3905 68.6794L9.59077 65.8225ZM4.9593 65.8225L2.1596 68.6794L2.15979 68.6796L4.9593 65.8225ZM4.9593 61.2837L7.75881 64.1408L7.759 64.1406L4.9593 61.2837ZM28.2113 55.8988L27.7509 59.8722L32.7902 60.4561L32.1825 55.4196L28.2113 55.8988ZM56.9584 27.7269L56.498 31.7003L61.5374 32.2842L60.9296 27.2476L56.9584 27.7269ZM62.4534 4.9401L65.2531 7.79697L65.2531 7.79697L62.4534 4.9401ZM67.0848 4.9401L69.8847 2.08342L69.8845 2.08324L67.0848 4.9401ZM67.0848 9.47891L69.8845 12.3358L69.8847 12.3356L67.0848 9.47891ZM66.6295 9.95814L63.6348 7.30642L61.1138 10.1534L63.8298 12.815L66.6295 9.95814ZM83.069 26.0687L80.2693 28.9256L82.8788 31.4829L85.6614 29.115L83.069 26.0687ZM83.5578 25.6225L80.7581 22.7656L80.7581 22.7656L83.5578 25.6225ZM76.7061 28.9108L77.5212 32.8269L84.8586 31.2996L79.5058 26.0539L76.7061 28.9108ZM63.7234 28.8944L59.7808 29.5693L60.2635 32.3894L63.0884 32.8437L63.7234 28.8944ZM63.7306 16.1949L66.5303 13.3381L61.3609 8.27204L59.8221 15.3445L63.7306 16.1949ZM29.6926 73.7398L26.8929 76.5967L32.5071 82.0986L33.6501 74.3215L29.6926 73.7398ZM17.9851 62.2666L17.426 58.3059L9.38665 59.4408L15.1854 65.1235L17.9851 62.2666ZM29.4059 62.5476L33.3513 61.8889L32.8778 59.0535L30.0395 58.5981L29.4059 62.5476ZM64.4768 39.5197C67.7644 39.9007 72.3773 40.1441 77.1068 39.4125C81.8129 38.6846 86.9931 36.9339 90.9889 33.0182L85.3897 27.3043C83.0253 29.6213 79.6691 30.9211 75.884 31.5066C72.1223 32.0884 68.2893 31.908 65.3978 31.5729L64.4768 39.5197ZM35.7301 67.6917C46.7165 68.9647 55.9903 67.1843 62.1209 61.2535C68.2888 55.2867 70.243 46.1283 68.9085 35.0671L60.9661 36.0254C62.1536 45.8682 60.1745 52.0056 56.5586 55.5037C52.9054 59.0378 46.5447 60.8913 36.6509 59.7449L35.7301 67.6917ZM33.4953 89.3619C37.5006 85.4367 39.3025 80.331 40.0513 75.6811C40.8024 71.0173 40.5519 66.4728 40.1617 63.2391L32.2193 64.1975C32.5599 67.0193 32.7421 70.7517 32.1531 74.4092C31.5618 78.0805 30.2508 81.3404 27.8959 83.6482L33.4953 89.3619ZM23.2644 89.3619C26.099 92.1398 30.661 92.1391 33.4951 89.3621L27.8961 83.648C28.172 83.3776 28.5874 83.3773 28.8638 83.6482L23.2644 89.3619ZM23.2644 79.1094C20.385 81.9313 20.385 86.5401 23.2644 89.3619L28.8638 83.6482C29.1852 83.9631 29.1852 84.5082 28.8638 84.8231L23.2644 79.1094ZM24.0006 78.2224C23.7697 78.5608 23.5239 78.8551 23.2644 79.1094L28.8638 84.8231C29.5257 84.1745 30.1042 83.4708 30.6085 82.732L24.0006 78.2224ZM8.31055 67.4638L24.5048 83.3341L30.1042 77.6203L13.9099 61.7501L8.31055 67.4638ZM12.3905 68.6794C12.6501 68.4249 12.9527 68.182 13.3029 67.9524L8.91755 61.2615C8.16856 61.7524 7.45278 62.3172 6.79107 62.9657L12.3905 68.6794ZM2.15979 68.6796C4.99411 71.4568 9.55597 71.4568 12.3903 68.6796L6.79126 62.9655C7.06745 62.6949 7.48262 62.6949 7.75881 62.9655L2.15979 68.6796ZM2.15979 58.4267C-0.720033 61.2485 -0.719761 65.8577 2.1596 68.6794L7.759 62.9657C8.08023 63.2805 8.0805 63.8256 7.75881 64.1408L2.15979 58.4267ZM28.6717 51.9253C25.3842 51.5444 20.7712 51.301 16.0417 52.0325C11.3356 52.7604 6.15535 54.5111 2.1596 58.4269L7.759 64.1406C10.1231 61.8238 13.4793 60.524 17.2645 59.9385C21.0262 59.3567 24.8593 59.5371 27.7509 59.8722L28.6717 51.9253ZM57.4188 23.7534C46.4323 22.4804 37.1584 24.2609 31.0277 30.1916C24.8597 36.1584 22.9055 45.3168 24.2401 56.3779L32.1825 55.4196C30.9949 45.5769 32.974 39.4395 36.59 35.9415C40.2433 32.4074 46.604 30.5538 56.498 31.7003L57.4188 23.7534ZM59.6537 2.08324C55.6483 6.00844 53.8465 11.1142 53.0977 15.7641C52.3466 20.428 52.597 24.9725 52.9872 28.2061L60.9296 27.2476C60.5891 24.4259 60.4069 20.6935 60.9959 17.0361C61.5871 13.3647 62.8982 10.1047 65.2531 7.79697L59.6537 2.08324ZM69.8845 2.08324C67.0502 -0.694413 62.488 -0.694413 59.6537 2.08324L65.2531 7.79697C64.9768 8.06768 64.5614 8.06768 64.2851 7.79697L69.8845 2.08324ZM69.8847 12.3356C72.7638 9.51378 72.7638 4.90523 69.8847 2.08342L64.2849 7.79679C63.9637 7.48192 63.9637 6.93709 64.2849 6.62222L69.8847 12.3356ZM69.6242 12.6099C69.7092 12.5139 69.796 12.4226 69.8845 12.3358L64.2852 6.622C64.0587 6.84394 63.842 7.07237 63.6348 7.30642L69.6242 12.6099ZM85.8687 23.2119L69.4292 7.10128L63.8298 12.815L80.2693 28.9256L85.8687 23.2119ZM80.7581 22.7656C80.6693 22.8527 80.5755 22.9383 80.4766 23.0225L85.6614 29.115C85.8992 28.9125 86.1316 28.7008 86.3576 28.4793L80.7581 22.7656ZM90.9892 22.7658C88.1549 19.9878 83.5924 19.9881 80.7581 22.7656L86.3575 28.4793C86.0814 28.7499 85.666 28.7502 85.3894 28.4792L90.9892 22.7658ZM90.9892 33.018C93.8683 30.1961 93.8683 25.5876 90.9892 22.7658L85.3894 28.4792C85.0682 28.1643 85.0682 27.6194 85.3894 27.3046L90.9892 33.018ZM75.891 24.9947C72.3079 25.7405 67.9513 25.5229 64.3585 24.9452L63.0884 32.8437C67.1738 33.5007 72.6079 33.8495 77.5212 32.8269L75.891 24.9947ZM67.6661 28.2195C67.1512 25.2115 66.8298 20.7652 67.6392 17.0453L59.8221 15.3445C58.7034 20.4862 59.1837 26.0813 59.7808 29.5693L67.6661 28.2195ZM60.9309 19.0518L73.9064 31.7676L79.5058 26.0539L66.5303 13.3381L60.9309 19.0518ZM32.4923 70.883L20.7848 59.4098L15.1854 65.1235L26.8929 76.5967L32.4923 70.883ZM25.4605 63.2064C25.9724 66.2723 26.2087 69.9352 25.7351 73.1582L33.6501 74.3215C34.2844 70.0054 33.9466 65.4541 33.3513 61.8889L25.4605 63.2064ZM18.5442 66.2274C21.8647 65.7586 25.6287 65.9929 28.7723 66.4971L30.0395 58.5981C26.4143 58.0166 21.7971 57.6889 17.426 58.3059L18.5442 66.2274Z" fill="#1A1C29" fill-opacity="0.25" mask="url(#path-11-outside-1)"/>
</svg>
