<svg width="61" height="76" viewBox="0 0 61 76" fill="none" xmlns="http://www.w3.org/2000/svg">
<path d="M54.8781 1.124C54.1868 0.43 53.2311 0 52.1749 0H45.8003C45.0951 0 44.5255 0.573333 44.5255 1.27867V3.836C44.5255 4.54267 45.0957 5.11467 45.8003 5.11467H50.9001V11.5087V15.028C50.9001 18.1107 48.9241 20.7327 47.327 23.2093C44.8159 27.1033 39.1358 27.1033 36.6241 23.2107C34.9718 20.6507 33.0509 18.2213 33.0509 15.028V11.5087V5.11467H38.1508C38.856 5.11467 39.4256 4.54267 39.4256 3.836V1.27867C39.4256 0.573333 38.8553 0 38.1501 0H31.7755C30.7193 0 29.7636 0.43 29.071 1.124C28.3784 1.818 27.9504 2.77733 27.9504 3.83667V11.5093V12.386C27.9504 16.822 29.2903 20.9507 31.5488 24.7647C35.5733 31.5587 39.4256 33.8487 39.3193 37.5407C39.2495 39.9087 39.3193 42.2827 39.3193 44.654C39.3193 50.294 34.7425 54.8847 29.1195 54.8847H26.6749C21.0513 54.8847 16.4752 50.294 16.4752 44.654V35.4307C20.1607 34.3307 22.8499 30.9113 22.8499 26.8553C22.8499 21.912 18.8533 17.9033 13.9249 17.9033C8.99522 17.9033 5 21.912 5 26.8553C5 30.9113 7.68785 34.3307 11.3747 35.4307V44.6533C11.3767 53.1287 18.2252 60 26.6756 60H29.1202C37.5686 60 44.4198 53.1287 44.4198 44.654V40.5153C44.4198 38.562 44.3659 34.9547 45.2167 33.196C48.0508 30.9213 51.2723 28.554 52.9718 25.0973C55.3746 21.3733 56 16.822 56 12.3867V11.51V3.83667C56 2.77733 55.5706 1.81867 54.8781 1.124ZM9.14543 26.8553C9.14543 24.2127 11.2909 22.06 13.9263 22.06C16.5609 22.06 18.7071 24.2127 18.7071 26.8553C18.7071 29.4993 16.5609 31.6507 13.9263 31.6507C11.2903 31.6513 9.14543 29.4993 9.14543 26.8553Z" fill="#DCDCDC"/>
<path fill-rule="evenodd" clip-rule="evenodd" d="M14 36C18.9706 36 23 31.9706 23 27C23 22.0294 18.9706 18 14 18C9.02944 18 5 22.0294 5 27C5 31.9706 9.02944 36 14 36ZM14 32C16.7614 32 19 29.7614 19 27C19 24.2386 16.7614 22 14 22C11.2386 22 9 24.2386 9 27C9 29.7614 11.2386 32 14 32Z" fill="#5BB0B5"/>
</svg>
