<svg width="136" height="74" viewBox="0 0 136 74" fill="none" xmlns="http://www.w3.org/2000/svg">
<g opacity="0.2" filter="url(#filter0_i)">
<path d="M116 68C116 41.4903 94.5097 20 68 20C41.4903 20 20 41.4903 20 68" stroke="#BDBDBD" stroke-width="10" stroke-linecap="round"/>
</g>
<path d="M9 69C9 67.9391 8.57857 66.9217 7.82843 66.1716C7.07828 65.4214 6.06087 65 5 65C3.93913 65 2.92172 65.4214 2.17157 66.1716C1.42143 66.9217 1 67.9391 1 69C1 70.0609 1.42143 71.0783 2.17157 71.8284C2.92172 72.5786 3.93913 73 5 73C6.06087 73 7.07828 72.5786 7.82843 71.8284C8.57857 71.0783 9 70.0609 9 69ZM10 69C10 70.3261 9.47322 71.5979 8.53553 72.5355C7.59785 73.4732 6.32608 74 5 74C4.34339 74 3.69321 73.8707 3.08658 73.6194C2.47995 73.3681 1.92876 72.9998 1.46447 72.5355C0.526784 71.5979 0 70.3261 0 69C0 67.6739 0.526784 66.4021 1.46447 65.4645C2.40215 64.5268 3.67392 64 5 64C5.65661 64 6.30679 64.1293 6.91342 64.3806C7.52005 64.6319 8.07124 65.0002 8.53553 65.4645C8.99983 65.9288 9.36812 66.48 9.6194 67.0866C9.87067 67.6932 10 68.3434 10 69ZM4 67.75C4 68.15 3.65 68.5 3.25 68.5C2.85 68.5 2.5 68.15 2.5 67.75C2.5 67.35 2.85 67 3.25 67C3.65 67 4 67.35 4 67.75ZM7.5 67.75C7.5 68.15 7.15 68.5 6.75 68.5C6.35 68.5 6 68.15 6 67.75C6 67.35 6.35 67 6.75 67C7.15 67 7.5 67.35 7.5 67.75ZM5 71.615C4.125 71.615 3.355 71.25 2.905 70.71L3.615 70C3.84 70.36 4.375 70.615 5 70.615C5.625 70.615 6.16 70.36 6.385 70L7.095 70.71C6.645 71.25 5.875 71.615 5 71.615Z" fill="#515359"/>
<path d="M66.25 4.5C66.0511 4.5 65.8603 4.42098 65.7197 4.28033C65.579 4.13968 65.5 3.94891 65.5 3.75C65.5 3.55109 65.579 3.36032 65.7197 3.21967C65.8603 3.07902 66.0511 3 66.25 3C66.4489 3 66.6397 3.07902 66.7803 3.21967C66.921 3.36032 67 3.55109 67 3.75C67 3.94891 66.921 4.13968 66.7803 4.28033C66.6397 4.42098 66.4489 4.5 66.25 4.5ZM69.75 4.5C69.5511 4.5 69.3603 4.42098 69.2197 4.28033C69.079 4.13968 69 3.94891 69 3.75C69 3.55109 69.079 3.36032 69.2197 3.21967C69.3603 3.07902 69.5511 3 69.75 3C69.9489 3 70.1397 3.07902 70.2803 3.21967C70.421 3.36032 70.5 3.55109 70.5 3.75C70.5 3.94891 70.421 4.13968 70.2803 4.28033C70.1397 4.42098 69.9489 4.5 69.75 4.5ZM68 9C69.0609 9 70.0783 8.57857 70.8284 7.82843C71.5786 7.07828 72 6.06087 72 5C72 3.93913 71.5786 2.92172 70.8284 2.17157C70.0783 1.42143 69.0609 1 68 1C66.9391 1 65.9217 1.42143 65.1716 2.17157C64.4214 2.92172 64 3.93913 64 5C64 6.06087 64.4214 7.07828 65.1716 7.82843C65.9217 8.57857 66.9391 9 68 9ZM68 0C68.6566 0 69.3068 0.129329 69.9134 0.380602C70.52 0.631876 71.0712 1.00017 71.5355 1.46447C71.9998 1.92876 72.3681 2.47995 72.6194 3.08658C72.8707 3.69321 73 4.34339 73 5C73 6.32608 72.4732 7.59785 71.5355 8.53553C70.5979 9.47322 69.3261 10 68 10C65.235 10 63 7.75 63 5C63 3.67392 63.5268 2.40215 64.4645 1.46447C65.4021 0.526784 66.6739 0 68 0ZM66.5 6H69.5C69.6326 6 69.7598 6.05268 69.8536 6.14645C69.9473 6.24021 70 6.36739 70 6.5C70 6.63261 69.9473 6.75979 69.8536 6.85355C69.7598 6.94732 69.6326 7 69.5 7H66.5C66.3674 7 66.2402 6.94732 66.1464 6.85355C66.0527 6.75979 66 6.63261 66 6.5C66 6.36739 66.0527 6.24021 66.1464 6.14645C66.2402 6.05268 66.3674 6 66.5 6Z" fill="#DCDCDC"/>
<path d="M130.5 72H131.5V71H130.5V72ZM131 64C130.343 64 129.693 64.1293 129.087 64.3806C128.48 64.6319 127.929 65.0002 127.464 65.4645C126.527 66.4021 126 67.6739 126 69C126 70.3261 126.527 71.5979 127.464 72.5355C127.929 72.9998 128.48 73.3681 129.087 73.6194C129.693 73.8707 130.343 74 131 74C132.326 74 133.598 73.4732 134.536 72.5355C135.473 71.5979 136 70.3261 136 69C136 68.3434 135.871 67.6932 135.619 67.0866C135.368 66.48 135 65.9288 134.536 65.4645C134.071 65.0002 133.52 64.6319 132.913 64.3806C132.307 64.1293 131.657 64 131 64ZM131 73C128.795 73 127 71.205 127 69C127 66.795 128.795 65 131 65C133.205 65 135 66.795 135 69C135 71.205 133.205 73 131 73ZM131 66C130.47 66 129.961 66.2107 129.586 66.5858C129.211 66.9609 129 67.4696 129 68H130C130 67.7348 130.105 67.4804 130.293 67.2929C130.48 67.1054 130.735 67 131 67C131.265 67 131.52 67.1054 131.707 67.2929C131.895 67.4804 132 67.7348 132 68C132 69 130.5 68.875 130.5 70.5H131.5C131.5 69.375 133 69.25 133 68C133 67.4696 132.789 66.9609 132.414 66.5858C132.039 66.2107 131.53 66 131 66Z" fill="#DCDCDC"/>
<g filter="url(#filter1_d)">
<path d="M20 68C20 54.1979 25.8254 41.7563 35.1516 33" stroke="#109488" stroke-width="10" stroke-linecap="round"/>
</g>
<path d="M61.4517 52.601V53.992H57.2852V56.5985H60.5677V57.944H57.2852V60.6025H61.4517V62H55.5237V52.601H61.4517ZM68.0982 62H67.3767C67.225 62 67.1058 61.9783 67.0192 61.935C66.9325 61.8873 66.8675 61.7942 66.8242 61.6555L66.6812 61.181C66.5122 61.3327 66.3453 61.467 66.1807 61.584C66.0203 61.6967 65.8535 61.792 65.6802 61.87C65.5068 61.948 65.3227 62.0065 65.1277 62.0455C64.9327 62.0845 64.716 62.104 64.4777 62.104C64.196 62.104 63.936 62.0672 63.6977 61.9935C63.4593 61.9155 63.2535 61.8007 63.0802 61.649C62.9112 61.4973 62.779 61.3088 62.6837 61.0835C62.5883 60.8582 62.5407 60.596 62.5407 60.297C62.5407 60.0457 62.6057 59.7987 62.7357 59.556C62.87 59.309 63.091 59.088 63.3987 58.893C63.7063 58.6937 64.1158 58.529 64.6272 58.399C65.1385 58.269 65.7733 58.1953 66.5317 58.178V57.788C66.5317 57.3417 66.4363 57.0123 66.2457 56.8C66.0593 56.5833 65.7863 56.475 65.4267 56.475C65.1667 56.475 64.95 56.5053 64.7767 56.566C64.6033 56.6267 64.4517 56.696 64.3217 56.774C64.196 56.8477 64.079 56.9148 63.9707 56.9755C63.8623 57.0362 63.7432 57.0665 63.6132 57.0665C63.5048 57.0665 63.4117 57.0383 63.3337 56.982C63.2557 56.9257 63.1928 56.8563 63.1452 56.774L62.8527 56.2605C63.6197 55.5585 64.5448 55.2075 65.6282 55.2075C66.0182 55.2075 66.3648 55.2725 66.6682 55.4025C66.9758 55.5282 67.2358 55.7058 67.4482 55.9355C67.6605 56.1608 67.8208 56.4317 67.9292 56.748C68.0418 57.0643 68.0982 57.411 68.0982 57.788V62ZM64.9782 60.999C65.1428 60.999 65.2945 60.9838 65.4332 60.9535C65.5718 60.9232 65.7018 60.8777 65.8232 60.817C65.9488 60.7563 66.068 60.6827 66.1807 60.596C66.2977 60.505 66.4147 60.3988 66.5317 60.2775V59.153C66.0637 59.1747 65.6715 59.2158 65.3552 59.2765C65.0432 59.3328 64.7918 59.4065 64.6012 59.4975C64.4105 59.5885 64.274 59.6947 64.1917 59.816C64.1137 59.9373 64.0747 60.0695 64.0747 60.2125C64.0747 60.4942 64.157 60.6957 64.3217 60.817C64.4907 60.9383 64.7095 60.999 64.9782 60.999ZM73.6353 56.631C73.592 56.7003 73.5465 56.7502 73.4988 56.7805C73.4512 56.8065 73.3905 56.8195 73.3168 56.8195C73.2388 56.8195 73.1543 56.7978 73.0633 56.7545C72.9767 56.7112 72.8748 56.6635 72.7578 56.6115C72.6408 56.5552 72.5065 56.5053 72.3548 56.462C72.2075 56.4187 72.032 56.397 71.8283 56.397C71.512 56.397 71.2628 56.4642 71.0808 56.5985C70.8988 56.7328 70.8078 56.9083 70.8078 57.125C70.8078 57.268 70.8533 57.3893 70.9443 57.489C71.0397 57.5843 71.1632 57.6688 71.3148 57.7425C71.4708 57.8162 71.6463 57.8833 71.8413 57.944C72.0363 58.0003 72.2357 58.0632 72.4393 58.1325C72.643 58.2018 72.8423 58.282 73.0373 58.373C73.2323 58.4597 73.4057 58.5723 73.5573 58.711C73.7133 58.8453 73.8368 59.0078 73.9278 59.1985C74.0232 59.3892 74.0708 59.6188 74.0708 59.8875C74.0708 60.2082 74.0123 60.505 73.8953 60.778C73.7783 61.0467 73.6072 61.2807 73.3818 61.48C73.1565 61.675 72.877 61.8288 72.5433 61.9415C72.214 62.0498 71.8348 62.104 71.4058 62.104C71.1762 62.104 70.9508 62.0823 70.7298 62.039C70.5132 62 70.303 61.9437 70.0993 61.87C69.9 61.7963 69.7137 61.7097 69.5403 61.61C69.3713 61.5103 69.2218 61.402 69.0918 61.285L69.4623 60.674C69.51 60.6003 69.5663 60.544 69.6313 60.505C69.6963 60.466 69.7787 60.4465 69.8783 60.4465C69.978 60.4465 70.0712 60.4747 70.1578 60.531C70.2488 60.5873 70.3528 60.648 70.4698 60.713C70.5868 60.778 70.7233 60.8387 70.8793 60.895C71.0397 60.9513 71.2412 60.9795 71.4838 60.9795C71.6745 60.9795 71.837 60.9578 71.9713 60.9145C72.11 60.8668 72.2227 60.8062 72.3093 60.7325C72.4003 60.6588 72.4653 60.5743 72.5043 60.479C72.5477 60.3793 72.5693 60.2775 72.5693 60.1735C72.5693 60.0175 72.5217 59.8897 72.4263 59.79C72.3353 59.6903 72.2118 59.6037 72.0558 59.53C71.9042 59.4563 71.7287 59.3913 71.5293 59.335C71.3343 59.2743 71.1328 59.2093 70.9248 59.14C70.7212 59.0707 70.5197 58.9905 70.3203 58.8995C70.1253 58.8042 69.9498 58.685 69.7938 58.542C69.6422 58.399 69.5187 58.2235 69.4233 58.0155C69.3323 57.8075 69.2868 57.5562 69.2868 57.2615C69.2868 56.9885 69.341 56.7285 69.4493 56.4815C69.5577 56.2345 69.7158 56.02 69.9238 55.838C70.1362 55.6517 70.3983 55.5043 70.7103 55.396C71.0267 55.2833 71.3907 55.227 71.8023 55.227C72.2617 55.227 72.6798 55.3028 73.0568 55.4545C73.4338 55.6062 73.748 55.8055 73.9993 56.0525L73.6353 56.631ZM77.7177 63.833C77.67 63.9457 77.6072 64.0302 77.5292 64.0865C77.4555 64.1472 77.3407 64.1775 77.1847 64.1775H75.9887L77.2367 61.506L74.5392 55.331H75.9432C76.0732 55.331 76.1728 55.3613 76.2422 55.422C76.3115 55.4827 76.3635 55.552 76.3982 55.63L77.8217 59.088C77.8693 59.2007 77.9105 59.3177 77.9452 59.439C77.9798 59.5603 78.0102 59.6817 78.0362 59.803C78.0708 59.6773 78.1077 59.556 78.1467 59.439C78.19 59.322 78.2355 59.2028 78.2832 59.0815L79.6222 55.63C79.6568 55.5433 79.7132 55.4718 79.7912 55.4155C79.8735 55.3592 79.9645 55.331 80.0642 55.331H81.3512L77.7177 63.833Z" fill="#515359"/>
<defs>
<filter id="filter0_i" x="15" y="15" width="106" height="62" filterUnits="userSpaceOnUse" color-interpolation-filters="sRGB">
<feFlood flood-opacity="0" result="BackgroundImageFix"/>
<feBlend mode="normal" in="SourceGraphic" in2="BackgroundImageFix" result="shape"/>
<feColorMatrix in="SourceAlpha" type="matrix" values="0 0 0 0 0 0 0 0 0 0 0 0 0 0 0 0 0 0 127 0" result="hardAlpha"/>
<feOffset dy="4"/>
<feGaussianBlur stdDeviation="2"/>
<feComposite in2="hardAlpha" operator="arithmetic" k2="-1" k3="1"/>
<feColorMatrix type="matrix" values="0 0 0 0 0 0 0 0 0 0 0 0 0 0 0 0 0 0 0.25 0"/>
<feBlend mode="normal" in2="shape" result="effect1_innerShadow"/>
</filter>
<filter id="filter1_d" x="14" y="27" width="27.1517" height="47" filterUnits="userSpaceOnUse" color-interpolation-filters="sRGB">
<feFlood flood-opacity="0" result="BackgroundImageFix"/>
<feColorMatrix in="SourceAlpha" type="matrix" values="0 0 0 0 0 0 0 0 0 0 0 0 0 0 0 0 0 0 127 0"/>
<feOffset/>
<feGaussianBlur stdDeviation="0.5"/>
<feColorMatrix type="matrix" values="0 0 0 0 0 0 0 0 0 0 0 0 0 0 0 0 0 0 0.25 0"/>
<feBlend mode="normal" in2="BackgroundImageFix" result="effect1_dropShadow"/>
<feBlend mode="normal" in="SourceGraphic" in2="effect1_dropShadow" result="shape"/>
</filter>
</defs>
</svg>
