<svg width="136" height="74" viewBox="0 0 136 74" fill="none" xmlns="http://www.w3.org/2000/svg">
<g opacity="0.2" filter="url(#filter0_i)">
<path d="M116 68C116 41.4903 94.5097 20 68 20C41.4903 20 20 41.4903 20 68" stroke="#BDBDBD" stroke-width="10" stroke-linecap="round"/>
</g>
<path d="M9 69C9 67.9391 8.57857 66.9217 7.82843 66.1716C7.07828 65.4214 6.06087 65 5 65C3.93913 65 2.92172 65.4214 2.17157 66.1716C1.42143 66.9217 1 67.9391 1 69C1 70.0609 1.42143 71.0783 2.17157 71.8284C2.92172 72.5786 3.93913 73 5 73C6.06087 73 7.07828 72.5786 7.82843 71.8284C8.57857 71.0783 9 70.0609 9 69ZM10 69C10 70.3261 9.47322 71.5979 8.53553 72.5355C7.59785 73.4732 6.32608 74 5 74C4.34339 74 3.69321 73.8707 3.08658 73.6194C2.47995 73.3681 1.92876 72.9998 1.46447 72.5355C0.526784 71.5979 0 70.3261 0 69C0 67.6739 0.526784 66.4021 1.46447 65.4645C2.40215 64.5268 3.67392 64 5 64C5.65661 64 6.30679 64.1293 6.91342 64.3806C7.52005 64.6319 8.07124 65.0002 8.53553 65.4645C8.99983 65.9288 9.36812 66.48 9.6194 67.0866C9.87067 67.6932 10 68.3434 10 69ZM4 67.75C4 68.15 3.65 68.5 3.25 68.5C2.85 68.5 2.5 68.15 2.5 67.75C2.5 67.35 2.85 67 3.25 67C3.65 67 4 67.35 4 67.75ZM7.5 67.75C7.5 68.15 7.15 68.5 6.75 68.5C6.35 68.5 6 68.15 6 67.75C6 67.35 6.35 67 6.75 67C7.15 67 7.5 67.35 7.5 67.75ZM5 71.615C4.125 71.615 3.355 71.25 2.905 70.71L3.615 70C3.84 70.36 4.375 70.615 5 70.615C5.625 70.615 6.16 70.36 6.385 70L7.095 70.71C6.645 71.25 5.875 71.615 5 71.615Z" fill="#DCDCDC"/>
<path d="M66.25 4.5C66.0511 4.5 65.8603 4.42098 65.7197 4.28033C65.579 4.13968 65.5 3.94891 65.5 3.75C65.5 3.55109 65.579 3.36032 65.7197 3.21967C65.8603 3.07902 66.0511 3 66.25 3C66.4489 3 66.6397 3.07902 66.7803 3.21967C66.921 3.36032 67 3.55109 67 3.75C67 3.94891 66.921 4.13968 66.7803 4.28033C66.6397 4.42098 66.4489 4.5 66.25 4.5ZM69.75 4.5C69.5511 4.5 69.3603 4.42098 69.2197 4.28033C69.079 4.13968 69 3.94891 69 3.75C69 3.55109 69.079 3.36032 69.2197 3.21967C69.3603 3.07902 69.5511 3 69.75 3C69.9489 3 70.1397 3.07902 70.2803 3.21967C70.421 3.36032 70.5 3.55109 70.5 3.75C70.5 3.94891 70.421 4.13968 70.2803 4.28033C70.1397 4.42098 69.9489 4.5 69.75 4.5ZM68 9C69.0609 9 70.0783 8.57857 70.8284 7.82843C71.5786 7.07828 72 6.06087 72 5C72 3.93913 71.5786 2.92172 70.8284 2.17157C70.0783 1.42143 69.0609 1 68 1C66.9391 1 65.9217 1.42143 65.1716 2.17157C64.4214 2.92172 64 3.93913 64 5C64 6.06087 64.4214 7.07828 65.1716 7.82843C65.9217 8.57857 66.9391 9 68 9ZM68 0C68.6566 0 69.3068 0.129329 69.9134 0.380602C70.52 0.631876 71.0712 1.00017 71.5355 1.46447C71.9998 1.92876 72.3681 2.47995 72.6194 3.08658C72.8707 3.69321 73 4.34339 73 5C73 6.32608 72.4732 7.59785 71.5355 8.53553C70.5979 9.47322 69.3261 10 68 10C65.235 10 63 7.75 63 5C63 3.67392 63.5268 2.40215 64.4645 1.46447C65.4021 0.526784 66.6739 0 68 0ZM66.5 6H69.5C69.6326 6 69.7598 6.05268 69.8536 6.14645C69.9473 6.24021 70 6.36739 70 6.5C70 6.63261 69.9473 6.75979 69.8536 6.85355C69.7598 6.94732 69.6326 7 69.5 7H66.5C66.3674 7 66.2402 6.94732 66.1464 6.85355C66.0527 6.75979 66 6.63261 66 6.5C66 6.36739 66.0527 6.24021 66.1464 6.14645C66.2402 6.05268 66.3674 6 66.5 6Z" fill="#515359"/>
<path d="M130.5 72H131.5V71H130.5V72ZM131 64C130.343 64 129.693 64.1293 129.087 64.3806C128.48 64.6319 127.929 65.0002 127.464 65.4645C126.527 66.4021 126 67.6739 126 69C126 70.3261 126.527 71.5979 127.464 72.5355C127.929 72.9998 128.48 73.3681 129.087 73.6194C129.693 73.8707 130.343 74 131 74C132.326 74 133.598 73.4732 134.536 72.5355C135.473 71.5979 136 70.3261 136 69C136 68.3434 135.871 67.6932 135.619 67.0866C135.368 66.48 135 65.9288 134.536 65.4645C134.071 65.0002 133.52 64.6319 132.913 64.3806C132.307 64.1293 131.657 64 131 64ZM131 73C128.795 73 127 71.205 127 69C127 66.795 128.795 65 131 65C133.205 65 135 66.795 135 69C135 71.205 133.205 73 131 73ZM131 66C130.47 66 129.961 66.2107 129.586 66.5858C129.211 66.9609 129 67.4696 129 68H130C130 67.7348 130.105 67.4804 130.293 67.2929C130.48 67.1054 130.735 67 131 67C131.265 67 131.52 67.1054 131.707 67.2929C131.895 67.4804 132 67.7348 132 68C132 69 130.5 68.875 130.5 70.5H131.5C131.5 69.375 133 69.25 133 68C133 67.4696 132.789 66.9609 132.414 66.5858C132.039 66.2107 131.53 66 131 66Z" fill="#DCDCDC"/>
<g filter="url(#filter1_d)">
<path d="M20 68C20 41.4903 41.4903 20 68 20" stroke="#FFB020" stroke-width="10" stroke-linecap="round"/>
</g>
<path d="M49.5152 58.1C49.5888 58.2387 49.656 58.3838 49.7167 58.5355C49.7817 58.6828 49.8445 58.8323 49.9052 58.984C49.9658 58.828 50.0287 58.6742 50.0937 58.5225C50.1587 58.3708 50.228 58.2257 50.3017 58.087L53.0837 52.8805C53.1183 52.8155 53.153 52.7635 53.1877 52.7245C53.2267 52.6855 53.2678 52.6573 53.3112 52.64C53.3588 52.6227 53.4108 52.6118 53.4672 52.6075C53.5235 52.6032 53.5907 52.601 53.6687 52.601H54.9882V62H53.4477V55.929C53.4477 55.8163 53.4498 55.6928 53.4542 55.5585C53.4628 55.4242 53.4737 55.2877 53.4867 55.149L50.6462 60.479C50.5812 60.6003 50.4967 60.6957 50.3927 60.765C50.2887 60.83 50.1673 60.8625 50.0287 60.8625H49.7882C49.6495 60.8625 49.5282 60.83 49.4242 60.765C49.3202 60.6957 49.2357 60.6003 49.1707 60.479L46.2912 55.1295C46.3085 55.2725 46.3193 55.4133 46.3237 55.552C46.3323 55.6863 46.3367 55.812 46.3367 55.929V62H44.7962V52.601H46.1157C46.1937 52.601 46.2608 52.6032 46.3172 52.6075C46.3735 52.6118 46.4233 52.6227 46.4667 52.64C46.5143 52.6573 46.5577 52.6855 46.5967 52.7245C46.6357 52.7635 46.6725 52.8155 46.7072 52.8805L49.5152 58.1ZM59.5471 55.227C59.9674 55.227 60.3531 55.2942 60.7041 55.4285C61.0594 55.5628 61.3649 55.76 61.6206 56.02C61.8763 56.2757 62.0756 56.592 62.2186 56.969C62.3616 57.3417 62.4331 57.7685 62.4331 58.2495C62.4331 58.3708 62.4266 58.4727 62.4136 58.555C62.4049 58.633 62.3854 58.6958 62.3551 58.7435C62.3291 58.7868 62.2923 58.8193 62.2446 58.841C62.1969 58.8583 62.1363 58.867 62.0626 58.867H57.9416C57.9893 59.5517 58.1734 60.0543 58.4941 60.375C58.8148 60.6957 59.2394 60.856 59.7681 60.856C60.0281 60.856 60.2513 60.8257 60.4376 60.765C60.6283 60.7043 60.7929 60.6372 60.9316 60.5635C61.0746 60.4898 61.1981 60.4227 61.3021 60.362C61.4104 60.3013 61.5144 60.271 61.6141 60.271C61.6791 60.271 61.7354 60.284 61.7831 60.31C61.8308 60.336 61.8719 60.3728 61.9066 60.4205L62.3746 61.0055C62.1969 61.2135 61.9976 61.389 61.7766 61.532C61.5556 61.6707 61.3238 61.7833 61.0811 61.87C60.8428 61.9523 60.5979 62.0108 60.3466 62.0455C60.0996 62.0802 59.8591 62.0975 59.6251 62.0975C59.1614 62.0975 58.7303 62.0217 58.3316 61.87C57.9329 61.714 57.5863 61.4865 57.2916 61.1875C56.9969 60.8842 56.7651 60.5115 56.5961 60.0695C56.4271 59.6232 56.3426 59.1075 56.3426 58.5225C56.3426 58.0675 56.4163 57.6407 56.5636 57.242C56.7109 56.839 56.9211 56.4902 57.1941 56.1955C57.4714 55.8965 57.8073 55.6603 58.2016 55.487C58.6003 55.3137 59.0488 55.227 59.5471 55.227ZM59.5796 56.3775C59.1116 56.3775 58.7454 56.5097 58.4811 56.774C58.2168 57.0383 58.0478 57.4132 57.9741 57.8985H60.9901C60.9901 57.6905 60.9619 57.4955 60.9056 57.3135C60.8493 57.1272 60.7626 56.9647 60.6456 56.826C60.5286 56.6873 60.3813 56.579 60.2036 56.501C60.0259 56.4187 59.8179 56.3775 59.5796 56.3775ZM68.4284 62C68.2204 62 68.0839 61.9025 68.0189 61.7075L67.8889 61.064C67.7503 61.22 67.6051 61.3608 67.4534 61.4865C67.3018 61.6122 67.1371 61.7205 66.9594 61.8115C66.7861 61.9025 66.5976 61.9718 66.3939 62.0195C66.1946 62.0715 65.9779 62.0975 65.7439 62.0975C65.3799 62.0975 65.0463 62.0217 64.7429 61.87C64.4396 61.7183 64.1774 61.4995 63.9564 61.2135C63.7398 60.9232 63.5708 60.5657 63.4494 60.141C63.3324 59.7163 63.2739 59.231 63.2739 58.685C63.2739 58.191 63.3411 57.7317 63.4754 57.307C63.6098 56.8823 63.8026 56.514 64.0539 56.202C64.3053 55.89 64.6064 55.6473 64.9574 55.474C65.3084 55.2963 65.7028 55.2075 66.1404 55.2075C66.5131 55.2075 66.8316 55.2682 67.0959 55.3895C67.3603 55.5065 67.5964 55.6647 67.8044 55.864V52.341H69.4099V62H68.4284ZM66.2899 60.8235C66.6236 60.8235 66.9074 60.7542 67.1414 60.6155C67.3754 60.4768 67.5964 60.2797 67.8044 60.024V57.034C67.6224 56.813 67.4231 56.657 67.2064 56.566C66.9941 56.475 66.7644 56.4295 66.5174 56.4295C66.2748 56.4295 66.0538 56.475 65.8544 56.566C65.6594 56.657 65.4926 56.7957 65.3539 56.982C65.2196 57.164 65.1156 57.398 65.0419 57.684C64.9683 57.9657 64.9314 58.2993 64.9314 58.685C64.9314 59.075 64.9618 59.4065 65.0224 59.6795C65.0874 59.9482 65.1784 60.1692 65.2954 60.3425C65.4124 60.5115 65.5554 60.635 65.7244 60.713C65.8934 60.7867 66.0819 60.8235 66.2899 60.8235ZM72.859 55.331V62H71.2535V55.331H72.859ZM73.0995 53.3875C73.0995 53.5262 73.0713 53.6562 73.015 53.7775C72.9587 53.8988 72.8828 54.005 72.7875 54.096C72.6965 54.187 72.5882 54.2607 72.4625 54.317C72.3368 54.369 72.2025 54.395 72.0595 54.395C71.9208 54.395 71.7887 54.369 71.663 54.317C71.5417 54.2607 71.4355 54.187 71.3445 54.096C71.2535 54.005 71.1798 53.8988 71.1235 53.7775C71.0715 53.6562 71.0455 53.5262 71.0455 53.3875C71.0455 53.2445 71.0715 53.1102 71.1235 52.9845C71.1798 52.8588 71.2535 52.7505 71.3445 52.6595C71.4355 52.5685 71.5417 52.497 71.663 52.445C71.7887 52.3887 71.9208 52.3605 72.0595 52.3605C72.2025 52.3605 72.3368 52.3887 72.4625 52.445C72.5882 52.497 72.6965 52.5685 72.7875 52.6595C72.8828 52.7505 72.9587 52.8588 73.015 52.9845C73.0713 53.1102 73.0995 53.2445 73.0995 53.3875ZM76.1478 55.331V59.569C76.1478 59.9763 76.241 60.2927 76.4273 60.518C76.618 60.739 76.9018 60.8495 77.2788 60.8495C77.5561 60.8495 77.8161 60.7888 78.0588 60.6675C78.3015 60.5418 78.5311 60.3707 78.7478 60.154V55.331H80.3533V62H79.3718C79.1638 62 79.0273 61.9025 78.9623 61.7075L78.8518 61.1745C78.7131 61.3132 78.5701 61.441 78.4228 61.558C78.2755 61.6707 78.1173 61.7682 77.9483 61.8505C77.7836 61.9285 77.6038 61.9892 77.4088 62.0325C77.2181 62.0802 77.0123 62.104 76.7913 62.104C76.4273 62.104 76.1045 62.0433 75.8228 61.922C75.5455 61.7963 75.3115 61.6208 75.1208 61.3955C74.9301 61.1702 74.785 60.9037 74.6853 60.596C74.59 60.284 74.5423 59.9417 74.5423 59.569V55.331H76.1478ZM82.0675 62V55.331H83.049C83.257 55.331 83.3935 55.4285 83.4585 55.6235L83.5625 56.1175C83.6795 55.9875 83.8008 55.8683 83.9265 55.76C84.0565 55.6517 84.193 55.5585 84.336 55.4805C84.4833 55.4025 84.6393 55.3418 84.804 55.2985C84.973 55.2508 85.1571 55.227 85.3565 55.227C85.7768 55.227 86.1213 55.3418 86.39 55.5715C86.663 55.7968 86.8666 56.098 87.001 56.475C87.105 56.254 87.235 56.0655 87.391 55.9095C87.547 55.7492 87.7181 55.6192 87.9045 55.5195C88.0908 55.4198 88.288 55.3462 88.496 55.2985C88.7083 55.2508 88.9206 55.227 89.133 55.227C89.5013 55.227 89.8285 55.2833 90.1145 55.396C90.4005 55.5087 90.641 55.6733 90.836 55.89C91.031 56.1067 91.1783 56.371 91.278 56.683C91.382 56.995 91.434 57.3525 91.434 57.7555V62H89.8285V57.7555C89.8285 57.3308 89.7353 57.0123 89.549 56.8C89.3626 56.5833 89.0896 56.475 88.73 56.475C88.5653 56.475 88.4115 56.5032 88.2685 56.5595C88.1298 56.6158 88.0063 56.6982 87.898 56.8065C87.794 56.9105 87.7116 57.0427 87.651 57.203C87.5903 57.3633 87.56 57.5475 87.56 57.7555V62H85.948V57.7555C85.948 57.3092 85.857 56.9842 85.675 56.7805C85.4973 56.5768 85.233 56.475 84.882 56.475C84.6523 56.475 84.4356 56.5335 84.232 56.6505C84.0326 56.7632 83.8463 56.9192 83.673 57.1185V62H82.0675Z" fill="#515359"/>
<defs>
<filter id="filter0_i" x="15" y="15" width="106" height="62" filterUnits="userSpaceOnUse" color-interpolation-filters="sRGB">
<feFlood flood-opacity="0" result="BackgroundImageFix"/>
<feBlend mode="normal" in="SourceGraphic" in2="BackgroundImageFix" result="shape"/>
<feColorMatrix in="SourceAlpha" type="matrix" values="0 0 0 0 0 0 0 0 0 0 0 0 0 0 0 0 0 0 127 0" result="hardAlpha"/>
<feOffset dy="4"/>
<feGaussianBlur stdDeviation="2"/>
<feComposite in2="hardAlpha" operator="arithmetic" k2="-1" k3="1"/>
<feColorMatrix type="matrix" values="0 0 0 0 0 0 0 0 0 0 0 0 0 0 0 0 0 0 0.25 0"/>
<feBlend mode="normal" in2="shape" result="effect1_innerShadow"/>
</filter>
<filter id="filter1_d" x="14" y="14" width="60" height="60" filterUnits="userSpaceOnUse" color-interpolation-filters="sRGB">
<feFlood flood-opacity="0" result="BackgroundImageFix"/>
<feColorMatrix in="SourceAlpha" type="matrix" values="0 0 0 0 0 0 0 0 0 0 0 0 0 0 0 0 0 0 127 0"/>
<feOffset/>
<feGaussianBlur stdDeviation="0.5"/>
<feColorMatrix type="matrix" values="0 0 0 0 0 0 0 0 0 0 0 0 0 0 0 0 0 0 0.25 0"/>
<feBlend mode="normal" in2="BackgroundImageFix" result="effect1_dropShadow"/>
<feBlend mode="normal" in="SourceGraphic" in2="effect1_dropShadow" result="shape"/>
</filter>
</defs>
</svg>
