<svg width="136" height="74" viewBox="0 0 136 74" fill="none" xmlns="http://www.w3.org/2000/svg">
<g opacity="0.2" filter="url(#filter0_i)">
<path d="M116 68C116 41.4903 94.5097 20 68 20C41.4903 20 20 41.4903 20 68" stroke="#BDBDBD" stroke-width="10" stroke-linecap="round"/>
</g>
<path d="M9 69C9 67.9391 8.57857 66.9217 7.82843 66.1716C7.07828 65.4214 6.06087 65 5 65C3.93913 65 2.92172 65.4214 2.17157 66.1716C1.42143 66.9217 1 67.9391 1 69C1 70.0609 1.42143 71.0783 2.17157 71.8284C2.92172 72.5786 3.93913 73 5 73C6.06087 73 7.07828 72.5786 7.82843 71.8284C8.57857 71.0783 9 70.0609 9 69ZM10 69C10 70.3261 9.47322 71.5979 8.53553 72.5355C7.59785 73.4732 6.32608 74 5 74C4.34339 74 3.69321 73.8707 3.08658 73.6194C2.47995 73.3681 1.92876 72.9998 1.46447 72.5355C0.526784 71.5979 0 70.3261 0 69C0 67.6739 0.526784 66.4021 1.46447 65.4645C2.40215 64.5268 3.67392 64 5 64C5.65661 64 6.30679 64.1293 6.91342 64.3806C7.52005 64.6319 8.07124 65.0002 8.53553 65.4645C8.99983 65.9288 9.36812 66.48 9.6194 67.0866C9.87067 67.6932 10 68.3434 10 69ZM4 67.75C4 68.15 3.65 68.5 3.25 68.5C2.85 68.5 2.5 68.15 2.5 67.75C2.5 67.35 2.85 67 3.25 67C3.65 67 4 67.35 4 67.75ZM7.5 67.75C7.5 68.15 7.15 68.5 6.75 68.5C6.35 68.5 6 68.15 6 67.75C6 67.35 6.35 67 6.75 67C7.15 67 7.5 67.35 7.5 67.75ZM5 71.615C4.125 71.615 3.355 71.25 2.905 70.71L3.615 70C3.84 70.36 4.375 70.615 5 70.615C5.625 70.615 6.16 70.36 6.385 70L7.095 70.71C6.645 71.25 5.875 71.615 5 71.615Z" fill="#DCDCDC"/>
<path d="M66.25 4.5C66.0511 4.5 65.8603 4.42098 65.7197 4.28033C65.579 4.13968 65.5 3.94891 65.5 3.75C65.5 3.55109 65.579 3.36032 65.7197 3.21967C65.8603 3.07902 66.0511 3 66.25 3C66.4489 3 66.6397 3.07902 66.7803 3.21967C66.921 3.36032 67 3.55109 67 3.75C67 3.94891 66.921 4.13968 66.7803 4.28033C66.6397 4.42098 66.4489 4.5 66.25 4.5ZM69.75 4.5C69.5511 4.5 69.3603 4.42098 69.2197 4.28033C69.079 4.13968 69 3.94891 69 3.75C69 3.55109 69.079 3.36032 69.2197 3.21967C69.3603 3.07902 69.5511 3 69.75 3C69.9489 3 70.1397 3.07902 70.2803 3.21967C70.421 3.36032 70.5 3.55109 70.5 3.75C70.5 3.94891 70.421 4.13968 70.2803 4.28033C70.1397 4.42098 69.9489 4.5 69.75 4.5ZM68 9C69.0609 9 70.0783 8.57857 70.8284 7.82843C71.5786 7.07828 72 6.06087 72 5C72 3.93913 71.5786 2.92172 70.8284 2.17157C70.0783 1.42143 69.0609 1 68 1C66.9391 1 65.9217 1.42143 65.1716 2.17157C64.4214 2.92172 64 3.93913 64 5C64 6.06087 64.4214 7.07828 65.1716 7.82843C65.9217 8.57857 66.9391 9 68 9ZM68 0C68.6566 0 69.3068 0.129329 69.9134 0.380602C70.52 0.631876 71.0712 1.00017 71.5355 1.46447C71.9998 1.92876 72.3681 2.47995 72.6194 3.08658C72.8707 3.69321 73 4.34339 73 5C73 6.32608 72.4732 7.59785 71.5355 8.53553C70.5979 9.47322 69.3261 10 68 10C65.235 10 63 7.75 63 5C63 3.67392 63.5268 2.40215 64.4645 1.46447C65.4021 0.526784 66.6739 0 68 0ZM66.5 6H69.5C69.6326 6 69.7598 6.05268 69.8536 6.14645C69.9473 6.24021 70 6.36739 70 6.5C70 6.63261 69.9473 6.75979 69.8536 6.85355C69.7598 6.94732 69.6326 7 69.5 7H66.5C66.3674 7 66.2402 6.94732 66.1464 6.85355C66.0527 6.75979 66 6.63261 66 6.5C66 6.36739 66.0527 6.24021 66.1464 6.14645C66.2402 6.05268 66.3674 6 66.5 6Z" fill="#DCDCDC"/>
<path d="M130.5 72H131.5V71H130.5V72ZM131 64C130.343 64 129.693 64.1293 129.087 64.3806C128.48 64.6319 127.929 65.0002 127.464 65.4645C126.527 66.4021 126 67.6739 126 69C126 70.3261 126.527 71.5979 127.464 72.5355C127.929 72.9998 128.48 73.3681 129.087 73.6194C129.693 73.8707 130.343 74 131 74C132.326 74 133.598 73.4732 134.536 72.5355C135.473 71.5979 136 70.3261 136 69C136 68.3434 135.871 67.6932 135.619 67.0866C135.368 66.48 135 65.9288 134.536 65.4645C134.071 65.0002 133.52 64.6319 132.913 64.3806C132.307 64.1293 131.657 64 131 64ZM131 73C128.795 73 127 71.205 127 69C127 66.795 128.795 65 131 65C133.205 65 135 66.795 135 69C135 71.205 133.205 73 131 73ZM131 66C130.47 66 129.961 66.2107 129.586 66.5858C129.211 66.9609 129 67.4696 129 68H130C130 67.7348 130.105 67.4804 130.293 67.2929C130.48 67.1054 130.735 67 131 67C131.265 67 131.52 67.1054 131.707 67.2929C131.895 67.4804 132 67.7348 132 68C132 69 130.5 68.875 130.5 70.5H131.5C131.5 69.375 133 69.25 133 68C133 67.4696 132.789 66.9609 132.414 66.5858C132.039 66.2107 131.53 66 131 66Z" fill="#515359"/>
<g filter="url(#filter1_d)">
<path d="M116 68C116 41.4903 94.5097 20 68 20C41.4903 20 20 41.4903 20 68" stroke="#E8762B" stroke-width="10" stroke-linecap="round"/>
</g>
<path d="M43.6447 52.601H45.0552C45.2068 52.601 45.3303 52.6378 45.4257 52.7115C45.521 52.7852 45.5925 52.8805 45.6402 52.9975L47.8502 58.7305C47.9238 58.9168 47.9932 59.1227 48.0582 59.348C48.1275 59.569 48.1925 59.803 48.2532 60.05C48.3528 59.5517 48.4763 59.1118 48.6237 58.7305L50.8272 52.9975C50.8662 52.8978 50.9355 52.8068 51.0352 52.7245C51.1348 52.6422 51.2583 52.601 51.4057 52.601H52.8162L49.0202 62H47.4407L43.6447 52.601ZM58.1323 62H57.4108C57.2592 62 57.14 61.9783 57.0533 61.935C56.9667 61.8873 56.9017 61.7942 56.8583 61.6555L56.7153 61.181C56.5463 61.3327 56.3795 61.467 56.2148 61.584C56.0545 61.6967 55.8877 61.792 55.7143 61.87C55.541 61.948 55.3568 62.0065 55.1618 62.0455C54.9668 62.0845 54.7502 62.104 54.5118 62.104C54.2302 62.104 53.9702 62.0672 53.7318 61.9935C53.4935 61.9155 53.2877 61.8007 53.1143 61.649C52.9453 61.4973 52.8132 61.3088 52.7178 61.0835C52.6225 60.8582 52.5748 60.596 52.5748 60.297C52.5748 60.0457 52.6398 59.7987 52.7698 59.556C52.9042 59.309 53.1252 59.088 53.4328 58.893C53.7405 58.6937 54.15 58.529 54.6613 58.399C55.1727 58.269 55.8075 58.1953 56.5658 58.178V57.788C56.5658 57.3417 56.4705 57.0123 56.2798 56.8C56.0935 56.5833 55.8205 56.475 55.4608 56.475C55.2008 56.475 54.9842 56.5053 54.8108 56.566C54.6375 56.6267 54.4858 56.696 54.3558 56.774C54.2302 56.8477 54.1132 56.9148 54.0048 56.9755C53.8965 57.0362 53.7773 57.0665 53.6473 57.0665C53.539 57.0665 53.4458 57.0383 53.3678 56.982C53.2898 56.9257 53.227 56.8563 53.1793 56.774L52.8868 56.2605C53.6538 55.5585 54.579 55.2075 55.6623 55.2075C56.0523 55.2075 56.399 55.2725 56.7023 55.4025C57.01 55.5282 57.27 55.7058 57.4823 55.9355C57.6947 56.1608 57.855 56.4317 57.9633 56.748C58.076 57.0643 58.1323 57.411 58.1323 57.788V62ZM55.0123 60.999C55.177 60.999 55.3287 60.9838 55.4673 60.9535C55.606 60.9232 55.736 60.8777 55.8573 60.817C55.983 60.7563 56.1022 60.6827 56.2148 60.596C56.3318 60.505 56.4488 60.3988 56.5658 60.2775V59.153C56.0978 59.1747 55.7057 59.2158 55.3893 59.2765C55.0773 59.3328 54.826 59.4065 54.6353 59.4975C54.4447 59.5885 54.3082 59.6947 54.2258 59.816C54.1478 59.9373 54.1088 60.0695 54.1088 60.2125C54.1088 60.4942 54.1912 60.6957 54.3558 60.817C54.5248 60.9383 54.7437 60.999 55.0123 60.999ZM59.711 62V55.331H60.6535C60.8182 55.331 60.933 55.3613 60.998 55.422C61.063 55.4827 61.1064 55.5867 61.128 55.734L61.2255 56.54C61.4639 56.1283 61.7434 55.8033 62.064 55.565C62.3847 55.3267 62.7444 55.2075 63.143 55.2075C63.4724 55.2075 63.7454 55.2833 63.962 55.435L63.754 56.6375C63.741 56.7155 63.7129 56.7718 63.6695 56.8065C63.6262 56.8368 63.5677 56.852 63.494 56.852C63.429 56.852 63.3402 56.8368 63.2275 56.8065C63.1149 56.7762 62.9654 56.761 62.779 56.761C62.4454 56.761 62.1594 56.8542 61.921 57.0405C61.6827 57.2225 61.4812 57.4912 61.3165 57.8465V62H59.711ZM66.7272 55.331V62H65.1217V55.331H66.7272ZM66.9677 53.3875C66.9677 53.5262 66.9395 53.6562 66.8832 53.7775C66.8268 53.8988 66.751 54.005 66.6557 54.096C66.5647 54.187 66.4563 54.2607 66.3307 54.317C66.205 54.369 66.0707 54.395 65.9277 54.395C65.789 54.395 65.6568 54.369 65.5312 54.317C65.4098 54.2607 65.3037 54.187 65.2127 54.096C65.1217 54.005 65.048 53.8988 64.9917 53.7775C64.9397 53.6562 64.9137 53.5262 64.9137 53.3875C64.9137 53.2445 64.9397 53.1102 64.9917 52.9845C65.048 52.8588 65.1217 52.7505 65.2127 52.6595C65.3037 52.5685 65.4098 52.497 65.5312 52.445C65.6568 52.3887 65.789 52.3605 65.9277 52.3605C66.0707 52.3605 66.205 52.3887 66.3307 52.445C66.4563 52.497 66.5647 52.5685 66.6557 52.6595C66.751 52.7505 66.8268 52.8588 66.8832 52.9845C66.9395 53.1102 66.9677 53.2445 66.9677 53.3875ZM73.773 62H73.0515C72.8998 62 72.7806 61.9783 72.694 61.935C72.6073 61.8873 72.5423 61.7942 72.499 61.6555L72.356 61.181C72.187 61.3327 72.0201 61.467 71.8555 61.584C71.6951 61.6967 71.5283 61.792 71.355 61.87C71.1816 61.948 70.9975 62.0065 70.8025 62.0455C70.6075 62.0845 70.3908 62.104 70.1525 62.104C69.8708 62.104 69.6108 62.0672 69.3725 61.9935C69.1341 61.9155 68.9283 61.8007 68.755 61.649C68.586 61.4973 68.4538 61.3088 68.3585 61.0835C68.2631 60.8582 68.2155 60.596 68.2155 60.297C68.2155 60.0457 68.2805 59.7987 68.4105 59.556C68.5448 59.309 68.7658 59.088 69.0735 58.893C69.3811 58.6937 69.7906 58.529 70.302 58.399C70.8133 58.269 71.4481 58.1953 72.2065 58.178V57.788C72.2065 57.3417 72.1111 57.0123 71.9205 56.8C71.7341 56.5833 71.4611 56.475 71.1015 56.475C70.8415 56.475 70.6248 56.5053 70.4515 56.566C70.2781 56.6267 70.1265 56.696 69.9965 56.774C69.8708 56.8477 69.7538 56.9148 69.6455 56.9755C69.5371 57.0362 69.418 57.0665 69.288 57.0665C69.1796 57.0665 69.0865 57.0383 69.0085 56.982C68.9305 56.9257 68.8676 56.8563 68.82 56.774L68.5275 56.2605C69.2945 55.5585 70.2196 55.2075 71.303 55.2075C71.693 55.2075 72.0396 55.2725 72.343 55.4025C72.6506 55.5282 72.9106 55.7058 73.123 55.9355C73.3353 56.1608 73.4956 56.4317 73.604 56.748C73.7166 57.0643 73.773 57.411 73.773 57.788V62ZM70.653 60.999C70.8176 60.999 70.9693 60.9838 71.108 60.9535C71.2466 60.9232 71.3766 60.8777 71.498 60.817C71.6236 60.7563 71.7428 60.6827 71.8555 60.596C71.9725 60.505 72.0895 60.3988 72.2065 60.2775V59.153C71.7385 59.1747 71.3463 59.2158 71.03 59.2765C70.718 59.3328 70.4666 59.4065 70.276 59.4975C70.0853 59.5885 69.9488 59.6947 69.8665 59.816C69.7885 59.9373 69.7495 60.0695 69.7495 60.2125C69.7495 60.4942 69.8318 60.6957 69.9965 60.817C70.1655 60.9383 70.3843 60.999 70.653 60.999ZM75.3712 62V52.341H76.9767V56.15C77.241 55.8683 77.54 55.6452 77.8737 55.4805C78.2073 55.3115 78.5973 55.227 79.0437 55.227C79.4077 55.227 79.7392 55.3028 80.0382 55.4545C80.3415 55.6018 80.6015 55.8185 80.8182 56.1045C81.0392 56.3905 81.2082 56.7437 81.3252 57.164C81.4465 57.5843 81.5072 58.0675 81.5072 58.6135C81.5072 59.1118 81.44 59.5733 81.3057 59.998C81.1713 60.4227 80.9785 60.791 80.7272 61.103C80.4802 61.415 80.179 61.6598 79.8237 61.8375C79.4727 62.0108 79.0783 62.0975 78.6407 62.0975C78.437 62.0975 78.2507 62.0758 78.0817 62.0325C77.9127 61.9935 77.7588 61.9372 77.6202 61.8635C77.4815 61.7898 77.3515 61.701 77.2302 61.597C77.1132 61.4887 77.0005 61.3695 76.8922 61.2395L76.8207 61.688C76.7947 61.8007 76.7492 61.8808 76.6842 61.9285C76.6235 61.9762 76.539 62 76.4307 62H75.3712ZM78.4912 56.475C78.1575 56.475 77.8715 56.5465 77.6332 56.6895C77.3992 56.8282 77.1803 57.0253 76.9767 57.281V60.271C77.1587 60.4963 77.3558 60.6545 77.5682 60.7455C77.7848 60.8322 78.0188 60.8755 78.2702 60.8755C78.5128 60.8755 78.7317 60.83 78.9267 60.739C79.1217 60.648 79.2863 60.5093 79.4207 60.323C79.5593 60.1367 79.6655 59.9027 79.7392 59.621C79.8128 59.335 79.8497 58.9992 79.8497 58.6135C79.8497 58.2235 79.8172 57.8942 79.7522 57.6255C79.6915 57.3525 79.6027 57.1315 79.4857 56.9625C79.3687 56.7935 79.2257 56.67 79.0567 56.592C78.892 56.514 78.7035 56.475 78.4912 56.475ZM84.4752 52.341V62H82.8697V52.341H84.4752ZM89.051 55.227C89.4713 55.227 89.857 55.2942 90.208 55.4285C90.5633 55.5628 90.8688 55.76 91.1245 56.02C91.3802 56.2757 91.5795 56.592 91.7225 56.969C91.8655 57.3417 91.937 57.7685 91.937 58.2495C91.937 58.3708 91.9305 58.4727 91.9175 58.555C91.9088 58.633 91.8893 58.6958 91.859 58.7435C91.833 58.7868 91.7962 58.8193 91.7485 58.841C91.7008 58.8583 91.6402 58.867 91.5665 58.867H87.4455C87.4932 59.5517 87.6773 60.0543 87.998 60.375C88.3187 60.6957 88.7433 60.856 89.272 60.856C89.532 60.856 89.7552 60.8257 89.9415 60.765C90.1322 60.7043 90.2968 60.6372 90.4355 60.5635C90.5785 60.4898 90.702 60.4227 90.806 60.362C90.9143 60.3013 91.0183 60.271 91.118 60.271C91.183 60.271 91.2393 60.284 91.287 60.31C91.3347 60.336 91.3758 60.3728 91.4105 60.4205L91.8785 61.0055C91.7008 61.2135 91.5015 61.389 91.2805 61.532C91.0595 61.6707 90.8277 61.7833 90.585 61.87C90.3467 61.9523 90.1018 62.0108 89.8505 62.0455C89.6035 62.0802 89.363 62.0975 89.129 62.0975C88.6653 62.0975 88.2342 62.0217 87.8355 61.87C87.4368 61.714 87.0902 61.4865 86.7955 61.1875C86.5008 60.8842 86.269 60.5115 86.1 60.0695C85.931 59.6232 85.8465 59.1075 85.8465 58.5225C85.8465 58.0675 85.9202 57.6407 86.0675 57.242C86.2148 56.839 86.425 56.4902 86.698 56.1955C86.9753 55.8965 87.3112 55.6603 87.7055 55.487C88.1042 55.3137 88.5527 55.227 89.051 55.227ZM89.0835 56.3775C88.6155 56.3775 88.2493 56.5097 87.985 56.774C87.7207 57.0383 87.5517 57.4132 87.478 57.8985H90.494C90.494 57.6905 90.4658 57.4955 90.4095 57.3135C90.3532 57.1272 90.2665 56.9647 90.1495 56.826C90.0325 56.6873 89.8852 56.579 89.7075 56.501C89.5298 56.4187 89.3218 56.3775 89.0835 56.3775Z" fill="#515359"/>
<defs>
<filter id="filter0_i" x="15" y="15" width="106" height="62" filterUnits="userSpaceOnUse" color-interpolation-filters="sRGB">
<feFlood flood-opacity="0" result="BackgroundImageFix"/>
<feBlend mode="normal" in="SourceGraphic" in2="BackgroundImageFix" result="shape"/>
<feColorMatrix in="SourceAlpha" type="matrix" values="0 0 0 0 0 0 0 0 0 0 0 0 0 0 0 0 0 0 127 0" result="hardAlpha"/>
<feOffset dy="4"/>
<feGaussianBlur stdDeviation="2"/>
<feComposite in2="hardAlpha" operator="arithmetic" k2="-1" k3="1"/>
<feColorMatrix type="matrix" values="0 0 0 0 0 0 0 0 0 0 0 0 0 0 0 0 0 0 0.25 0"/>
<feBlend mode="normal" in2="shape" result="effect1_innerShadow"/>
</filter>
<filter id="filter1_d" x="14" y="14" width="108" height="60" filterUnits="userSpaceOnUse" color-interpolation-filters="sRGB">
<feFlood flood-opacity="0" result="BackgroundImageFix"/>
<feColorMatrix in="SourceAlpha" type="matrix" values="0 0 0 0 0 0 0 0 0 0 0 0 0 0 0 0 0 0 127 0"/>
<feOffset/>
<feGaussianBlur stdDeviation="0.5"/>
<feColorMatrix type="matrix" values="0 0 0 0 0 0 0 0 0 0 0 0 0 0 0 0 0 0 0.25 0"/>
<feBlend mode="normal" in2="BackgroundImageFix" result="effect1_dropShadow"/>
<feBlend mode="normal" in="SourceGraphic" in2="effect1_dropShadow" result="shape"/>
</filter>
</defs>
</svg>
